<?xml version="1.0" encoding="utf-8"?>
<!-- Generator: Adobe Illustrator 19.0.0, SVG Export Plug-In . SVG Version: 6.00 Build 0)  -->
<svg version="1.1" id="Layer_1" xmlns="http://www.w3.org/2000/svg" xmlns:xlink="http://www.w3.org/1999/xlink" x="0px" y="0px"
	 viewBox="0 0 612 792" style="enable-background:new 0 0 612 792;" xml:space="preserve">
<style type="text/css">
	.st0{fill:#00B1B0;}
	.st1{fill:#499BB8;stroke:#646464;stroke-width:0.9401;stroke-miterlimit:10;}
	.st2{fill:none;stroke:#646464;stroke-width:0.4701;stroke-miterlimit:10;}
	.st3{fill:#646464;}
	.st4{fill:#FDCCA4;stroke:#646464;stroke-width:0.9401;stroke-miterlimit:10;}
	.st5{fill:#FDCCA4;stroke:#646464;stroke-width:0.94;stroke-linecap:round;stroke-linejoin:round;stroke-miterlimit:10;}
	.st6{fill:#FFFFFF;stroke:#646464;stroke-miterlimit:10;}
	.st7{fill:#646464;stroke:#FFFFFF;stroke-width:0.9025;stroke-miterlimit:10;}
	.st8{fill:#FDCCA4;stroke:#646464;stroke-miterlimit:10;}
	.st9{opacity:0.5;fill:#EC9F6A;}
	.st10{fill:#69AAC8;stroke:#646464;stroke-miterlimit:10;}
	.st11{fill:#FFFFFF;stroke:#646464;stroke-width:0.9401;stroke-miterlimit:10;}
	.st12{fill:#FFFFFF;}
	.st13{fill:#F58C8B;}
	.st14{fill:none;stroke:#646464;stroke-width:3.7604;stroke-miterlimit:10;}
	.st15{fill:#FFFFFF;stroke:#646464;stroke-width:0.528;stroke-miterlimit:10;}
	.st16{fill:#FFFFFF;stroke:#646464;stroke-width:0.3765;stroke-miterlimit:10;}
	.st17{fill:#D7D7D7;}
	.st18{fill:#FFFFFF;stroke:#646464;stroke-width:0.7001;stroke-miterlimit:10;}
	.st19{fill:#FFFFFF;stroke:#646464;stroke-width:0.7011;stroke-miterlimit:10;}
	.st20{fill:#C3553A;stroke:#646464;stroke-width:0.9025;stroke-miterlimit:10;}
	.st21{fill:#B76F45;stroke:#646464;stroke-width:0.9401;stroke-miterlimit:10;}
	.st22{opacity:0.2;fill:#8B431F;}
	.st23{fill:#C0C0C0;stroke:#646464;stroke-width:0.7617;stroke-miterlimit:10;}
	.st24{fill:#FFFFFF;stroke:#646464;stroke-width:0.9025;stroke-miterlimit:10;}
	.st25{fill:#FFFFFF;stroke:#646464;stroke-width:0.7617;stroke-miterlimit:10;}
	.st26{fill:#A5D7EB;stroke:#646464;stroke-width:0.9025;stroke-miterlimit:10;}
	.st27{fill:#F26E70;stroke:#646464;stroke-width:1.8802;stroke-miterlimit:10;}
	.st28{fill:#F26E70;}
	.st29{fill:#FFFFFF;stroke:#646464;stroke-width:0.9609;stroke-miterlimit:10;}
	.st30{fill:#E7F5F6;stroke:#646464;stroke-width:1.4102;stroke-miterlimit:10;}
	.st31{fill:#9ED9DA;stroke:#646464;stroke-width:1.4102;stroke-miterlimit:10;}
	.st32{fill:#C5E8EB;stroke:#646464;stroke-width:0.975;stroke-miterlimit:10;}
	.st33{fill:none;stroke:#646464;stroke-width:0.9401;stroke-miterlimit:10;}
	.st34{opacity:0.3;fill:#33C3E2;}
	.st35{fill:none;stroke:#646464;stroke-width:2.3503;stroke-miterlimit:10;}
	.st36{fill:none;stroke:#646464;stroke-width:2;stroke-miterlimit:10;}
	.st37{fill:none;stroke:#646464;stroke-width:0.9401;stroke-linecap:round;stroke-linejoin:round;stroke-miterlimit:10;}
	.st38{fill:none;stroke:#646464;stroke-width:0.9401;stroke-linecap:round;stroke-miterlimit:10;}
	.st39{fill:none;stroke:#646464;stroke-width:1.8802;stroke-linecap:round;stroke-miterlimit:10;}
</style>
<ellipse id="XMLID_2_" class="st0" cx="290" cy="583.7" rx="105.8" ry="18.3"/>
<g>
	<polygon class="st1" points="313.9,544.8 313.7,546.9 300.3,546.7 300,544.1 	"/>
	<polygon class="st1" points="269.9,545.8 270.2,547.9 283.6,547.6 283.8,545.1 	"/>
	<path class="st2" d="M240.5,281.4"/>
	<path class="st3" d="M210.3,376.4c1-1.2,6.2-14.8-6.1-8.9c0,0-16.3,11.4-11.3,15.2c1.2,0.9,4,2.8,5.8,2
		C205.5,381.6,207.2,379.9,210.3,376.4z"/>
	<g>
		<path class="st4" d="M216.4,376.7l-12.8-12c2.2-9.1-8.1-12.6-5.8-18c1.2-2.8,4-7-0.5-8.8c-1.6-0.7-3.3-0.2-4.7,0.9
			c-3.5,3-2.9,8-3.4,10.4c-15.1-1.4-13.3,6.2-13.3,6.2c-1.2,16.7,15,22.4,18.3,20.9l10.1,16L216.4,376.7z"/>
		<g>
			<g>
				<path class="st5" d="M175.5,369.7c-0.6,4.9,4.8,7.2,8.9,6.4c1.5-0.3,2.6-1.4,2.4-3c-0.1-1.4-1.5-2.7-3-2.4
					c-0.5,0.1-0.9,0.1-1.4,0.1c0.6,0-0.3,0-0.3-0.1c-0.3,0-0.5-0.1-0.8-0.1c0.5,0.1-1-0.6-0.6-0.2c-0.6-0.4,0.2,0.4-0.2-0.2
					c0.1,0.1,0.2,0.3,0.2,0.4c0-0.3,0-0.3,0-0.1C181.3,367.1,176,366.2,175.5,369.7L175.5,369.7z"/>
			</g>
			<g>
				<path class="st5" d="M175.5,369.4c3.7,3.5,9,4.3,13.4,1.6c3.6-2.2,0.7-8.3-3-6c-1.7,1-4,1.5-5.5,0c-1.3-1.3-3.2-1.6-4.6-0.3
					C174.5,365.7,174.2,368.1,175.5,369.4L175.5,369.4z"/>
			</g>
			<g>
				<path class="st5" d="M175.4,363.9c3.6,4.5,11.4,5.6,15.1,0.7c2.6-3.5-3-7.2-5.6-3.7c0.3-0.3-0.3,0.1-0.1,0.1
					c-0.6,0.2-1,0.1-1.7,0c-1-0.1-2-0.8-2.6-1.6C177.7,355.9,172.7,360.4,175.4,363.9L175.4,363.9z"/>
			</g>
			<g>
				<path class="st5" d="M180.1,349.9c-3.1,0.8-4.2,2.1-4.7,3.4c-2.5,7.1,8.4,9.6,14.3,7.8c1.8-0.6,3-2.1,2.6-4
					c-0.4-1.7-2.3-3.2-4-2.6c-1.9,0.6-4.9,1.2-6.7-0.3"/>
			</g>
		</g>
		<path class="st4" d="M190.3,365c0,0,0.7,5.4,5,6"/>
	</g>
	<path class="st6" d="M313.8,404.5l-2-0.2c-2.2-4.8-6.3-8.7-10.3-11.1v-8.7h-17v7.6c-5,1.6-9.1,4.8-11.8,8.8l-0.3,0
		c-10.6,16.9-20.5,74.5-20.5,74.5l4.9,6.3l74.7,4.9C336.4,443.1,313.8,404.5,313.8,404.5z"/>
	<path class="st7" d="M233.6,308.3c0,0-26.8-3.3-14.1-23.9c0,0-11.3-19.7,1.9-28.1c0,0,8.9-5.6,18.3-5.6c0,0-5.2-31.4,16.5-38.4
		c0,0,21.6-8,53.6,5.6c0,0,16.5-9.4,30.6,1.4c0,0,10.8,9.8,11.3,18.3c0,0,9.4-6.1,16.5,5.2c0,0,5.2,11.3,1.4,19.7
		c0,0,14.1,4.2,6.6,18.3c0,0-4.2,6.3-10.3,8.1c0,0,9.9,8.8-2.8,20.9L233.6,308.3z"/>
	<path class="st3" d="M275.4,389.3c0,0,19-2.1,31.4,0l-11.6,21l-12,3.2L275.4,389.3z"/>
	<path class="st8" d="M313.8,404.5l-2-0.2c-2.2-4.8-6.3-8.7-10.3-11.1v-8.7h-17v7.6c-5,1.6-9.1,4.8-11.8,8.8l-0.3,0
		c-10.6,16.9-20.5,74.5-20.5,74.5l4.9,6.3l74.7,4.9C336.4,443.1,313.8,404.5,313.8,404.5z"/>
	<path class="st9" d="M292,394.5c4.5,0,7.8-4,8.7-7.8l0.8-2.7h-17v2.6C285,390,287.5,394.5,292,394.5z"/>
	<path class="st1" d="M313.8,404.5l-2.1-0.2c-0.7-1.5-1.6-3-2.5-4.3c-2.6,1.9-5.5,3.3-8.7,4c-4.5,1-9.1,0.8-13.5-0.3
		c-4.1-1-8.7-2.9-12-5.9c-0.9,1-1.8,2-2.6,3.2l-0.1,0c-10.6,16.9-20.4,74.5-20.4,74.5l4.9,6.3l74.7,4.9
		C336.3,443.1,313.8,404.5,313.8,404.5z"/>
	<path class="st3" d="M376.1,377.4c0,0,10.9,9.6,8.3-2.6c0,0-6.2-16.1-15-13.3C369.4,361.5,366.5,372,376.1,377.4z"/>
	<path class="st8" d="M396.3,336.1c-10.3,0.8-10,10.9-11.1,14.2c0-0.3-74.4,47.3-74.4,47.3l10.6,28.6c14.2-8.5,52.4-42.8,68.2-57.8
		c11.8,2.2,16.9-2.5,16.9-2.5s0-19.1,0-19.7C406.5,345.7,396.3,336.1,396.3,336.1z"/>
	<path class="st3" d="M300.3,546.7c0,0-3.3,6.8,3.3,7.7c0,0,14.3,3.3,19.3,0.9c0,0,2.1-7.3-11.5-9.1L300.3,546.7z"/>
	<path class="st3" d="M283.6,547.6c0,0,3.3,6.8-3.3,7.7c0,0-14.3,3.3-19.3,0.9c0,0-2.1-7.3,11.5-9.1L283.6,547.6z"/>
	<path class="st10" d="M328,459.3c-33.4,19.7-73.3,2.8-73.3,2.8c-5.8,21.9-2.7,44.6-0.7,50.4c5.9,31.2,16.9,33.5,16.9,33.5l12.9-1.2
		l6.9-45.3h4l5.4,44.3l12.9,1.1c0,0,13.6-3.9,15.3-37.1l4-0.8C333.7,478.5,328,459.3,328,459.3z"/>
	<path class="st11" d="M382.1,381c-13.9-5.4-14.4-19.3-14.4-19.3l-53.3,30h-11.8l-4.7,15.9l0.9,109.5c27.2-1.4,38.4-8.2,38.4-8.2
		c3.3-43.4-8.1-83-8.1-83s15.3-13.1,22.8-19.7C353.8,404.7,382.1,381,382.1,381z"/>
	<path class="st3" d="M334.6,468.3c0,0,2.7-3.3-7.6,0.9c0,0-23.5,8.9-17,8.7C310,477.9,327.1,478.7,334.6,468.3z"/>
	<path class="st11" d="M334.5,468.6c0,0-6.3,9-25.2,9.3l1.6,28.9c0,0,21.3,0.6,25.9-8.4L334.5,468.6z"/>
	<path class="st11" d="M335.1,476.6c0,0-5.3,10-25.4,7.3"/>
	<path class="st4" d="M374,308.1c-3.2-3.9-11.2-0.7-15,1.3c-0.2-1.8-0.4-2.8-0.4-2.8c0.3-39.2-58.5-35.7-64.2-35.3
		c-8.9-0.7-63.6-3.6-64,34.2c0,0-0.7,3-0.9,8c-2.2-1.2-13-6.9-16.8-2.1c0,0-5.3,7.1-1.8,18c0,0,5.7,12.1,12.8,10.5
		c0,0,1.5-0.1,3.4-0.7c-1.6,6.8,3.3,17.4,12.6,26.6c0,0,17.5,22.5,52.3,21.6l1.6,0c34.3,1.2,54.7-20.8,54.7-20.8
		c10.2-9.7,15.1-21.2,12.4-27.9c-0.4-0.9-0.7-1.8-0.9-2.7c1.8,0.6,3.3,0.6,3.3,0.6c7.1,1.6,12.7-10.6,12.7-10.6
		C379.3,315.1,374,308.1,374,308.1z"/>
	<path class="st9" d="M225,317c-5-0.7-9.3,3.6-10.3,6.3c-0.3,3.4,2,8.5,4.4,10.4c4.6,3.7,7-2.5,7.2-6.2
		C226.3,324.7,229.5,317.6,225,317z"/>
	<path class="st9" d="M361.7,314.4c5-0.7,9.3,3.6,10.3,6.3c0.3,3.4-2,8.5-4.4,10.4c-4.6,3.7-7-2.5-7.2-6.2
		C360.4,322,357.3,315,361.7,314.4z"/>
	<path class="st12" d="M116.7,380"/>
	<path class="st3" d="M264.4,332.7c-0.5,3.5-1.6,6.6-5.4,6.1c-3.3-0.4-3-3.8-2.6-7.2c0.5-3.5,1.1-6.5,4.6-6
		C264.1,326,264.9,329.2,264.4,332.7z"/>
	<path class="st3" d="M299.6,354.3c-3.1,0.3-2.7,1.7-6.8,2.2c-4.2-0.5-3.6-1.9-6.7-2.2c-3.8-0.4-7.4,3-5.6,7.9c0,0,2.3,6.8,12.3,7
		c10,0.2,12.6-7,12.6-7C307.1,357.3,303.4,353.9,299.6,354.3z"/>
	<path class="st13" d="M299.2,362.9c-3.5-0.3-6.9,0.4-10.2,1.4c-1.7,0.5-3.5,1.2-4.8,2.3c1.9,1.3,4.6,2.4,8.6,2.5
		c6.6,0.2,10-3,11.5-5.1C302.7,363.4,301,363,299.2,362.9z"/>
	<path class="st3" d="M325,332.7c0.4,3.5,1.5,6.7,5.2,6.2c3.3-0.4,3.1-3.7,2.7-7.2c-0.4-3.5-1-6.5-4.5-6.1
		C325.4,326,324.6,329.2,325,332.7z"/>
	<path class="st3" d="M259.5,293.9c-1.6-1.2-3.5-1.9-5.3-1.9c-4.1,0-7.9,3-9.4,7.4c-0.4,1.1-0.2,2.2,0.4,3.1c0.7,1,1.9,1.6,3.1,1.6
		c0,0,0,0,0,0c1.4,0,2.6-0.8,3.1-2.3c0.5-1.3,1.4-2.8,2.6-2.8c0.4,0,0.9,0.2,1.3,0.5c0.6,0.5,1.3,0.7,2,0.7c1.5,0,2.8-1.1,3.3-2.6
		C261.2,296.3,260.8,294.8,259.5,293.9z"/>
	<path class="st3" d="M338.9,297.8c-1-4.2-4.4-6.8-8.8-6.8c-2.1,0-4.2,0.6-6.1,1.8c-1.4,0.9-2,2.4-1.5,3.9c0.5,1.6,1.8,2.7,3.3,2.7
		c0.6,0,1.2-0.2,1.8-0.5c0.9-0.6,1.9-0.9,2.7-0.9c1,0,1.6,0.5,1.9,1.6c0.4,1.6,1.6,2.5,3.2,2.5c1.2,0,2.3-0.5,3-1.4
		C339,299.9,339.2,298.9,338.9,297.8z"/>
	<path class="st3" d="M224.2,309.3c0,0,4.7,13,4.2,23.9c-0.1,1.7,3.3,6.6,6.6,0.9c0,0,2.3-7.2-1.4-22.5c-2.1-8.8-1.9-24.8,15.5-32.8
		C249.1,278.8,213.3,274.1,224.2,309.3z"/>
	<path class="st3" d="M362.7,309.3c0,0-4.7,13-4.2,23.9c0.1,1.7-3.3,6.6-6.6,0.9c0,0-2.3-7.2,1.4-22.5c2.1-8.8,1.9-24.8-15.5-32.8
		C337.7,278.8,373.5,274.1,362.7,309.3z"/>
	<path class="st14" d="M309.5,396.1c0,0,13.4,10.2,10.6,42.1"/>
	<path class="st6" d="M300,389.1c0,0,8.2,0.2,13.1,4c0,0-1.9,4.6-2.7,6.3c-3.4,7.1-12.4,16.6-12.4,16.6s-4.6-9.5-4-13.1
		c0.5-3,6.1-10.4,6.1-10.4L300,389.1z"/>
	<ellipse class="st11" cx="320" cy="435.6" rx="8.1" ry="8.6"/>
	<ellipse class="st15" cx="320" cy="435.6" rx="4.6" ry="4.8"/>
	<ellipse class="st16" cx="320" cy="435.6" rx="3.2" ry="3.4"/>
	<path class="st11" d="M193.6,382.9c11.4,0.2,18.3-14.9,18.3-14.9s8.5,8.8,30.1,17.7c6.8,2.8,28.7,6.1,28.7,6.1h11.8l4.7,15.9
		l-0.9,109.5c-27.2-1.4-38.4-8.2-38.4-8.2c-3.3-43.4,6.3-82.4,6.3-82.4s-15.4-7.8-30.4-18C208.9,398.7,193.6,382.9,193.6,382.9z"/>
	<path class="st17" d="M256.8,417.3c-7.2-3.5-30.2-14.1-56.7-35.4c-2.4,0.7-2.9,1.4-5.5,1.3c0,0,15.3,15.8,30.1,25.8
		c13,8.8,26.9,16.1,30.2,17.8c0.3-1.8,0.4-3.3,0.6-4.7C255.9,420.1,256.3,419.4,256.8,417.3z"/>
	<path class="st14" d="M274.3,397.6c0,0-12,8.7-9.2,40.6"/>
	<g>
		<path class="st18" d="M274.2,462.1c0,2-0.5,3.9-2.2,5.2c-1.5,1.1-3.9,1.4-5.6,0.6c-0.9-0.4-0.1-1.8,0.8-1.4
			c1.2,0.5,2.7,0.1,3.8-0.5c1.5-0.7,1.7-2.5,1.7-4C272.6,461,274.2,461,274.2,462.1L274.2,462.1z"/>
	</g>
	<path class="st6" d="M267.5,464c0-0.3-0.2-0.5-0.5-0.5H267c-0.3,0-0.5,0.2-0.5,0.5v4.1c0,0.3,0.2,0.5,0.5,0.5h0.1
		c0.3,0,0.5-0.2,0.5-0.5V464z"/>
	<path class="st6" d="M266.5,463.4c0-0.5-0.4-0.9-0.9-0.9h-0.1c-0.5,0-0.9,0.4-0.9,0.9v6.1c0,0.5,0.4,0.9,0.9,0.9h0.1
		c0.5,0,0.9-0.4,0.9-0.9V463.4z"/>
	<g>
		<path class="st19" d="M252.1,461.1c0,2,0.5,3.9,2.2,5.2c1.5,1.1,3.9,1.4,5.7,0.6c0.9-0.4,0.1-1.8-0.8-1.4
			c-1.2,0.5-2.7,0.1-3.8-0.5c-1.5-0.8-1.7-2.5-1.7-4C253.6,460.1,252.1,460.1,252.1,461.1L252.1,461.1z"/>
	</g>
	<path class="st6" d="M259.5,467.3c0,0.3-0.2,0.2-0.5,0.2H259c-0.3,0-0.5,0.1-0.5-0.2v-4c0-0.3,0.2-0.8,0.5-0.8h0.1
		c0.3,0,0.5,0.5,0.5,0.8V467.3z"/>
	<path class="st6" d="M261.5,468.6c0,0.5-0.4,0.9-0.9,0.9h-0.1c-0.5,0-0.9-0.4-0.9-0.9v-6.1c0-0.5,0.4-0.9,0.9-0.9h0.1
		c0.5,0,0.9,0.4,0.9,0.9V468.6z"/>
	<g>
		<path class="st3" d="M274,462.8c0.9,0,1.6-0.7,1.6-1.6c0.1-2.7,1-26.5-10.5-28.3c-0.3,0-3.3-0.4-6.4,2.3
			c-4.5,3.8-7.1,11.7-7.1,23.3c0,3.1,0.7,2.9,1.6,2.9c0,0,0-0.2,0-0.2c0.9,0,1.5,0.2,1.6-2.7c0.7-13.2,2-15.1,4.3-18.4
			c1.6-2.2,5.3-1.3,5.3-1.3c7.2,1.1,8.1,15.6,7.8,22.1C272.3,462,273,462.7,274,462.8C274,462.8,274,462.8,274,462.8z"/>
	</g>
	<path class="st6" d="M284.5,389.1c0,0-7.3-1.1-12.2,2.7c0,0,1.4,5.1,2.2,6.8c3.4,7.1,12.6,18,12.6,18s4-10.5,3.5-14.1
		c-0.5-3-5.9-10.4-5.9-10.4V389.1z"/>
	<polygon class="st20" points="383.3,286.6 400.8,399.2 491.8,384.7 493.3,383.1 470.1,278.2 384.6,284.6 	"/>
	<polygon class="st21" points="384.8,284.7 402.6,395.7 493.2,382.9 471.6,276.3 	"/>
	<path class="st22" d="M437,305.1c7-1,13.9-2.3,20.7-4.1c2-0.5,4-0.3,3.5-2.9c-0.3-1.3-0.6-2.6-1.1-3.8c-1.2-3-0.3-3-2-5.8
		c-1.5-2.4-10.6-7.2-11.8-9.7l-36.3,3.6c-6.3,6.9-12.7,14.9-13.5,24C410,307.4,423.6,307,437,305.1z"/>
	<polygon class="st23" points="392.7,293.2 407.8,388.2 484.2,377.4 466,287.5 	"/>
	<line class="st24" x1="401.2" y1="397.5" x2="402.6" y2="395.7"/>
	<polygon class="st25" points="393.2,292.7 408.3,386.4 484.7,375.5 466.5,285.6 	"/>
	<polygon class="st26" points="414.1,280 410.3,295.8 451.8,290.5 441,277.7 	"/>
	<g>
		<path class="st26" d="M425.8,261.4c-4.9,0-8.9,4-8.9,8.9c0,4.9,4,8.9,8.9,8.9c4.9,0,8.9-4,8.9-8.9
			C434.7,265.4,430.7,261.4,425.8,261.4z M425.8,273.9c-2,0-3.6-1.6-3.6-3.6c0-2,1.6-3.6,3.6-3.6s3.6,1.6,3.6,3.6
			C429.4,272.3,427.8,273.9,425.8,273.9z"/>
	</g>
	<path class="st27" d="M447.3,314.4c-3.8,0-7.2,1.7-9.6,4.5c-2.4-2.8-5.8-4.5-9.6-4.5c-7.2,0-13,6.1-13.1,13.8
		c-0.2,10.1,17.5,26.3,25.5,25.2c6.1-0.8,20.2-15,19.9-25.2C460.2,320.6,454.6,314.4,447.3,314.4z"/>
	<g>
		<path id="XMLID_76_" class="st28" d="M437.1,335.8c1.1,2.8,5.8,1.9,6.1-1.1"/>
		<g id="XMLID_71_">
			<path id="XMLID_75_" class="st3" d="M436.5,336.2c1.5,3.4,6.9,2.2,7.4-1.3c0.1-0.9-1.2-1.3-1.4-0.4c-0.3,2.3-3.8,3.2-4.8,0.9
				C437.3,334.6,436.1,335.4,436.5,336.2L436.5,336.2z"/>
		</g>
	</g>
	<ellipse class="st3" cx="432.1" cy="328.9" rx="1.7" ry="2.1"/>
	<ellipse class="st3" cx="445.7" cy="328.4" rx="1.7" ry="2.1"/>
	<g>
		<g id="XMLID_59_">
			<path id="XMLID_63_" class="st3" d="M455.2,311.3c1.2-1.8,2.9-3.2,4.6-4.5c0.7-0.6-0.3-1.6-1-1c-1.8,1.4-3.5,2.9-4.8,4.8
				C453.5,311.4,454.7,312.1,455.2,311.3L455.2,311.3z"/>
		</g>
	</g>
	<g>
		<g id="XMLID_53_">
			<path id="XMLID_57_" class="st3" d="M464.3,325.4c1.2,0,2.4,0.3,3.6,0.6c0.9,0.2,1.3-1.1,0.4-1.4c-1.3-0.3-2.6-0.6-3.9-0.6
				C463.4,324,463.4,325.4,464.3,325.4L464.3,325.4z"/>
		</g>
	</g>
	<g>
		<g id="XMLID_47_">
			<path id="XMLID_51_" class="st3" d="M456.5,348.8c1.6,2.4,3.7,4.4,5.3,6.9c0.5,0.8,1.7,0.1,1.2-0.7c-1.6-2.4-3.7-4.4-5.3-6.9
				C457.3,347.4,456,348.1,456.5,348.8L456.5,348.8z"/>
		</g>
	</g>
	<g>
		<g id="XMLID_41_">
			<path id="XMLID_45_" class="st3" d="M436.5,359.1c-0.6,1.3-1,2.7-1,4.1c0,0.9,1.4,0.9,1.4,0c0-1.2,0.3-2.3,0.8-3.4
				C438.1,359,436.9,358.2,436.5,359.1L436.5,359.1z"/>
		</g>
	</g>
	<g>
		<g id="XMLID_35_">
			<path id="XMLID_39_" class="st3" d="M416.4,342.1c-2.6-0.3-5.2,0.3-7.7,1c-0.9,0.2-0.5,1.6,0.4,1.4c2.4-0.6,4.8-1.2,7.3-0.9
				C417.3,343.6,417.3,342.2,416.4,342.1L416.4,342.1z"/>
		</g>
	</g>
	<g>
		<g id="XMLID_29_">
			<path id="XMLID_33_" class="st3" d="M417.2,312.3c-1.6-1.9-3.4-3.7-5.3-5.3c-0.7-0.6-1.7,0.4-1,1c1.9,1.6,3.7,3.4,5.3,5.3
				C416.8,314,417.8,313,417.2,312.3L417.2,312.3z"/>
		</g>
	</g>
	<g>
		<g id="XMLID_23_">
			<path id="XMLID_27_" class="st3" d="M436.2,309.1c0-1.3,0.3-2.5,0.3-3.8c0-0.9-1.4-0.9-1.4,0c0,1.3-0.3,2.5-0.3,3.8
				C434.8,310,436.2,310,436.2,309.1L436.2,309.1z"/>
		</g>
	</g>
	<path class="st4" d="M384.2,351.5c0.4-0.3,17.6-11.4,21.5-4.1c0,0,3.1,6.4-12.5,9.5"/>
	<path class="st29" d="M219,285.1c0,0,29.7-16.6,78.2-16c21.4,0.3,46.4,5.8,74.3,13.8c0,0,2.1,2.6,1.6,5.9c-0.9,7.3-4,7.3-4,7.3
		s-85.8-34.6-151,4.5c0,0-3.1-3.9-2.2-9C216.7,287.3,219,285.1,219,285.1z"/>
	<ellipse class="st30" cx="293.6" cy="254" rx="32.8" ry="30.3"/>
	<ellipse class="st31" cx="293.6" cy="254" rx="18.2" ry="16.8"/>
	<ellipse class="st32" cx="293.6" cy="254" rx="12.6" ry="11.6"/>
	<path class="st33" d="M299.6,354.3c-3.1,0.3-2.7,1.7-6.8,2.2c-4.2-0.5-3.6-1.9-6.7-2.2c-3.8-0.4-7.4,3-5.6,7.9c0,0,2.3,6.8,12.3,7
		c10,0.2,12.6-7,12.6-7C307.1,357.3,303.4,353.9,299.6,354.3z"/>
	<ellipse class="st34" cx="259.2" cy="334.3" rx="27.7" ry="27"/>
	<ellipse class="st34" cx="330.2" cy="334.3" rx="27.7" ry="27"/>
	<path class="st35" d="M287,334.3c0,0,7.9-3.8,15.9,0.5"/>
	<path class="st36" d="M492.1,377.5l-20.5-101.2l-28.4,3l-2.2-1.6l-12.3,1.1c3.5-1.2,6-4.5,6-8.4c0-4.9-4-8.9-8.9-8.9
		c-4.9,0-8.9,4-8.9,8.9c0,4.4,3.3,8.1,7.5,8.8l-10.4,0.9l-1.7,1.9l-23.2,2.4l-4.5,0.3l-1.8,2.9l7.8,49.5c-5.4,3.2-4.8,10.8-5.8,13.4
		c0,0-6.6,4.8-16.3,10.9c0-0.3,0,0.2,0,0.2L314.4,393h-1.3c-2.8-3-11.2-4-12.6-4.1l-0.1-0.8c30.1-1.7,47.5-21.4,47.5-21.4
		c10.2-9.7,15.3-21.2,12.6-28c-0.4-0.9-0.6-1.8-0.8-2.7c1.8,0.6,3.3,0.6,3.3,0.6c7.1,1.6,12.7-10.6,12.7-10.6
		c3.4-10.9-1.9-18-1.9-18c-1.8-2.2-5.2-2.1-8.5-1.3c3.3-4.1,4-7.8,3.7-10.7c0.5-0.1,3.1-0.6,3.9-7.3c0.2-1.7-0.3-4.5-0.8-5.6
		c1.3,0.2,3.6-2.6,3.6-2.6c7.5-14.1-6.6-18.3-6.6-18.3c3.8-8.4-1.4-19.7-1.4-19.7c-7.1-11.3-16.5-5.2-16.5-5.2
		c-0.5-8.4-11.3-18.3-11.3-18.3c-14.1-10.8-30.6-1.4-30.6-1.4c-32-13.6-53.6-5.6-53.6-5.6c-21.6,7-16.5,38.4-16.5,38.4
		c-9.4,0-18.3,5.6-18.3,5.6c-12.4,8-3.3,24.9-2.2,26.9c-0.1,0.1,0,1.2,0,1.2s-2.5,3-3.2,7.4c-0.4,2.3,0,4.3,0.6,5.8
		c1,3.4,3.6,5.7,6.5,7.3c0.3,1.4,0.7,2.9,1.2,4.4c0,0,0.3,0.7,0.7,2c-4.1-1.7-9.6-3-12.1,0.1c0,0-5.3,7.1-1.8,18
		c0,0,5.7,12.1,12.8,10.5c0,0,0.9-0.3,2.8-0.9c-1.6,6.8,4,17.6,13.3,26.7c0,0,15.2,18.8,44.2,21.9v1c-5,0.3-8.2,1.8-8.2,1.8
		c-1.2,0.4-2.8,1.5-3.9,2.5h-1.2c0,0-21.9-3.9-28.7-6.7c-20.2-8.3-28.9-16.8-30-17.9c-0.5-1.8-2.2-3-5.4-1.7l-2.2-2.2
		c1.4-8.8-8.9-12.3-6.6-17.7c1.2-2.8,4-7-0.5-8.8c-1.6-0.7-3.3-0.3-4.7,0.9c-3.5,3-2.9,8-3.4,10.4c-4.3-0.4-7.2-0.1-9.2,0.6
		c0,0-3.8,1.1-4.6,3.4c-0.7,1.9-0.5,3.1,0.1,4.6c0.2,0.6,0.5,0.7,0.5,1.1c-1.3,1.1-2.5,3.3-1.1,5.1c0.2,0.2,0.3,0.4,0.5,0.6
		c-0.1,0-0.1,0.1-0.2,0.1c-1.2,1.1-1.4,3.9-0.1,5.1c0,0,0.1,0.1,0.1,0.1c0,0.1,0,0.1,0,0.2c-0.6,4.9,5.2,6.6,9.3,5.8
		c1.1-0.2,2-0.9,2.3-1.9c2.3,2.6,4.4,3,6.1,3.3c-2.1,2.5-1.9,3.9,0,5.3c0.4,0.3,1,0.8,1.7,1.2c3.7,3.7,16.6,16.3,29.1,24.7
		c15,10.2,30.4,18,30.4,18s-9.6,39-6.3,82.4c0,0,1.8,1.8,5.9,3.2c0.1,0.3,0.2,0.7,0.3,0.9c5,26.5,16,32.6,16,32.6l0.2,1.8
		c-11,2.3-9.1,8.7-9.1,8.7c4.9,2.3,19.3-0.9,19.3-0.9c6.6-0.9,3.3-7.7,3.3-7.7l0.2-2.6l6.9-45h4l5.4,44.1l0.2,2.6
		c0,0-3.3,6.8,3.3,7.7c0,0,14.3,3.3,19.3,0.9c0,0,1.9-6.4-9.1-8.7l0.2-1.8c0,0,11.8-6.6,14.1-31.5c6.5-1.9,9.3-4.4,9.3-4.4
		c3.3-43.4-8.1-83-8.1-83s15.3-13.1,22.8-19.7c1.8-1.6,30.1-25.3,30.1-25.3c-0.1,0-0.2-0.1-0.3-0.1c2.2,0.6,3.8-0.4,2.6-6
		c0,0,0.1,0-0.2-0.7c2.1-1.9,3.7-4.1,5.4-5.7c2.7,0.5,3.8,0.9,5.8,0.8l4.9,30l90.3-13.1l2.8-3L492.1,377.5z M422.2,270.3
		c0-2,1.6-3.6,3.6-3.6s3.6,1.6,3.6,3.6c0,2-1.6,3.6-3.6,3.6S422.2,272.3,422.2,270.3z"/>
	<g>
		<path class="st37" d="M360.6,314.2c0,0,11-0.9,11.1,8.1"/>
		<g>
			<g id="XMLID_17_">
				<path id="XMLID_21_" class="st3" d="M366.5,316c3.6,4.3-0.8,9.7-4.2,12.4c-0.7,0.6,0.3,1.6,1,1c4.2-3.3,8.3-9.5,4.2-14.4
					C366.9,314.3,365.9,315.3,366.5,316L366.5,316z"/>
			</g>
		</g>
		<path class="st38" d="M226.1,317.5c0,0-11-0.8-11.1,8.2"/>
		<g>
			<g id="XMLID_11_">
				<path id="XMLID_15_" class="st3" d="M219.8,318c-4,4.9-0.5,11.2,3.8,14.6c0.7,0.6,1.7-0.4,1-1c-3.5-2.8-7.3-8.3-3.8-12.6
					C221.3,318.3,220.4,317.3,219.8,318L219.8,318z"/>
			</g>
		</g>
	</g>
	<ellipse class="st35" cx="259.2" cy="334.3" rx="27.7" ry="27"/>
	<ellipse class="st35" cx="330.2" cy="334.3" rx="27.7" ry="27"/>
	<path class="st9" d="M289.8,346.3c0,0,0.1,3.7,3.9,4c0,0,4.5,1.1,4.5-4.4C298.3,345.9,294.8,349.8,289.8,346.3z"/>
	<path class="st39" d="M290.5,345.8c0,0,3.1,3.3,6.9,0.4"/>
	<path class="st17" d="M327.9,425.7c0,0,0.6-4.1-1.9-8.9l50.5-38.3c0,0,2.9,1.8,4.2,2.3L327.9,425.7z"/>
</g>
</svg>
