<?xml version="1.0" encoding="utf-8"?>
<!-- Generator: Adobe Illustrator 19.0.0, SVG Export Plug-In . SVG Version: 6.00 Build 0)  -->
<svg version="1.1" id="Layer_1" xmlns="http://www.w3.org/2000/svg" xmlns:xlink="http://www.w3.org/1999/xlink" x="0px" y="0px"
	 viewBox="0 0 600 600" style="enable-background:new 0 0 600 600;" xml:space="preserve">
<style type="text/css">
	.st0{fill:#212121;}
	.st1{fill:#0A8743;}
	.st2{fill:#0A8744;}
	.st3{fill:#8BC240;}
	.st4{fill:#FDDDD2;}
	.st5{fill:#010101;}
	.st6{fill:#203165;}
	.st7{fill:url(#XMLID_66_);}
	.st8{fill:#6E0E10;}
	.st9{fill:#A71E22;}
	.st10{fill:#0E4C9C;}
	.st11{fill:#FFFFFF;}
	.st12{fill:#E4E7EE;}
	.st13{fill:#232121;}
	.st14{fill:#121F48;}
	.st15{fill:#EAB6AC;}
	.st16{fill:#8BC23F;}
	.st17{fill:#1E1E1E;}
	.st18{fill:#5E1D17;}
	.st19{fill:#B86A4F;}
	.st20{fill:#959BA5;}
	.st21{fill:#3960AD;}
	.st22{fill:#2E86C7;}
	.st23{fill:url(#XMLID_92_);}
	.st24{fill:url(#XMLID_93_);}
</style>
<g id="XMLID_24_">
	<path id="XMLID_91_" class="st0" d="M292.5,204.7c0-4.4,0.4-7.9,1.1-9.9l0,0c1.9-5.9,3.8-9,4-13.1l0,0l1,0.1
		c-0.2,4.5-2.2,7.7-4,13.5l0,0c-0.6,1.7-1,5.2-1,9.5l0,0c0,9,1.7,21.6,6.6,30.9l0,0l-0.8,0.6C294.2,226.6,292.5,213.8,292.5,204.7
		L292.5,204.7z"/>
	<g id="XMLID_251_">
		<path id="XMLID_90_" class="st1" d="M246.3,303.2c-1.7,15.5-14.7,26.7-29.1,25l-56.4-6.5c-14.1-1.6-24.1-15.3-22.3-30.6
			l-1.9-118.6c1.7-15,14.4-26.1,28.4-24.8l70-0.4c14.2,1.3,24.4,14.8,22.8,30L246.3,303.2z"/>
		<g id="XMLID_253_">
			<path id="XMLID_89_" class="st2" d="M239,342.5c-0.8,20.8,10.4,148.9,10.4,148.9h-6.8l-22.2-136.2L239,342.5z"/>
			<path id="XMLID_88_" class="st2" d="M211.5,353.5c-0.9,23.8,10.7,157.1,10.7,157.1h-7.8l-22.8-157.1H211.5z"/>
			<path id="XMLID_87_" class="st1" d="M89.4,352.5c0.9,23.8-13.3,156.1-13.3,156.1h7.8l25.4-156.1H89.4z"/>
		</g>
		<path id="XMLID_86_" class="st3" d="M241.8,316.5c0,15.6-1,31.9-2.2,36.6c-1.3,4.7-15.1,17.7-24.1,19.3c-9,1.6-129.7-3.7-131-11.4
			c-0.4-2.4-3.1-15.6,1.9-21.9c11.5-14.5,38.3-26.2,44.6-27.3C140,310.2,241.8,316.5,241.8,316.5z"/>
	</g>
	<path id="XMLID_85_" class="st4" d="M239.8,136.6c-1.1,4-5.8,8.8-4.2,13.9c1.6,5,4.7,4.9,6.3,6.2c1.6,1.3-25.6,17.7-31.7,14.7
		c-6.2-2.9-19.1-18.8-16.4-20.8c2.6-1.9,11.4-7.7,12.5-17C207.3,124.4,239.8,136.6,239.8,136.6z"/>
	<path id="XMLID_84_" class="st5" d="M130.3,468.6c-3.7,10.5-34.7,33.4-27,40c15.1,12.8,29.7-10.3,45.7-7.1
		c9.8,1.9,4.4-26.6,4.2-32.5C153,463,130.3,468.6,130.3,468.6z"/>
	<path id="XMLID_83_" class="st5" d="M173.9,465.8c1.4,13.2-0.7,11.7-3.9,40.4c-1.3,12.3,18.2,22,29.2,11.1
		c9.2-9.1-4.6-33.7-2.4-51.2C197.5,460.3,173.9,465.8,173.9,465.8z"/>
	<path id="XMLID_82_" class="st6" d="M141,249.1c-5,10.6-11.6,39.6-11.6,39.6s40.3,22.3,44.1,26.8c3.7,4.5,6.4,40.9,42.5,26.4
		c21.3-8.5,17.6-39.7,17.6-39.7l-16-55.8L141,249.1z"/>
	<g id="XMLID_244_">
		<g id="XMLID_245_">
			
				<linearGradient id="XMLID_66_" gradientUnits="userSpaceOnUse" x1="142.2896" y1="285.9991" x2="119.6111" y2="209.977" gradientTransform="matrix(-0.9705 -0.2412 -0.2412 0.9705 398.0378 -57.0288)">
				<stop  offset="0" style="stop-color:#FFFFFF"/>
				<stop  offset="0.6429" style="stop-color:#C6C0B9"/>
			</linearGradient>
			<path id="XMLID_81_" class="st7" d="M219.5,124L219.5,124L219.5,124l0.1,0v0l10.9,4.1c-0.2,1.1,10,9.8,9.5,14.4
				c-3.8,4.2-31.7,40.6-37.1,39c-4.5-1.3-7.3-28-9.4-32.5c5.9-1.9,16.8-34.6,17-35.9L219.5,124z"/>
		</g>
	</g>
	<path id="XMLID_80_" class="st6" d="M135.9,288.2c-13.4,5.7-33.2,34.8-27.6,50.8c1,17.9,1.4,24.2,5.5,59.1
		c4.2,35.9,8.3,76.4,8.3,76.4s19.8,7.3,34.5-3.1c0,0,2.6-62.2,0.5-81.4c-1.1-10.2,0.2-30,1.7-46.4c0.6-0.3,1.3-0.6,1.9-0.9
		c15-6.8,26.7-39.8,26.7-39.8L135.9,288.2z"/>
	<path id="XMLID_79_" class="st8" d="M187.6,146.7c-14.2,4.1-17.6,3.3-25,7.3c-7.4,4-3.4,7.3-3.4,7.3s-2.8,33.4-2.5,35.1
		c0.6,3.4-15.6,34.2-23,87.2c-1,7.5,28.7-9.4,61,1.6c1.6,0.5,20.5-122.8,20.5-122.8s-12.6-2-18.7-20.5L187.6,146.7z"/>
	<g id="XMLID_235_">
		<g id="XMLID_239_">
			<g id="XMLID_240_">
				<path id="XMLID_78_" class="st4" d="M206.1,103c-0.5,20.5,11.1,38.8,18.8,41.7c18.3,6.7,22.6,1.7,27.5-27.5
					c3.6-21.2,5-47-16.9-51.2C215,62.1,206.6,81.5,206.1,103z"/>
			</g>
		</g>
		<path id="XMLID_77_" d="M243.1,65.6c4.2,1.3,22.2,12.1,14.4,36c-0.5,1.5-7-5.5-13.7-3.2c-6.7,2.3-6.1-3.8-6.1-3.8l-3.2,3.9l-7.1,0
			l-2.9-2.7l-5.3,6.9c0,0-4.6-24.6,2.7-34.2C229.3,58.9,243.1,65.6,243.1,65.6z"/>
		<path id="XMLID_76_" d="M231.5,63.7c-12,0.6-24.7,1.8-31.3,12.2c-4.1,6.4-21.3,40.7-15.9,59.9c1.9,6.8,0.8,18.9,3.4,19.7
			c8.4,0.3,28.2-3.4,28.2-3.4s-6.2-34.8,6.3-58.9C227.6,82.6,231.5,63.7,231.5,63.7z"/>
		<path id="XMLID_75_" d="M208.8,71.1c-6,7.8-12.8,67.9-4,83.3c-5-0.3-5-0.3-5-0.3s-3.1-16.7-2.8-18.9c-1.4,11.5-1.5,20.3-1.5,20.3
			l-8.3-0.3c0,0-9.2-15.5-0.4-46.8c8.8-31.3,17.6-38.7,20.8-38.6C210.8,69.8,208.8,71.1,208.8,71.1z"/>
	</g>
	<g id="XMLID_233_">
		<path id="XMLID_74_" class="st4" d="M130.2,285.2c10.2-2.4,12.1,2.6,12.8,7c0.7,4.4-0.1,10.5-2.3,11c-2.2,0.5-3.2-8.1-3.2-8.1
			s2,9.7-1.1,10.3c-2.6,0.5-4.6-8.3-4.6-8.3s2,6.8-0.1,8.2c-2,1.4-4.9-6.8-4.9-6.8s1.9,5.5,0.6,6.3c-1.4,0.8-6.7-6.1-6.2-10
			C122.2,287.3,130.2,285.2,130.2,285.2z"/>
	</g>
	<path id="XMLID_73_" class="st9" d="M162.6,154c-12.8-3.7-23.8,57.1-31.9,77.9c-5.5,14-9.7,21.3-12.6,32.2
		c-4.8,18.7,0.1,36.6,0.1,36.6s10.2-16.1,26.2-12.2c4.8,1.2,10.1-50.9,11.4-54.7c4.9-14.5,7-32.3,11.2-48.1
		C171.4,168.5,162.6,154,162.6,154z"/>
	<path id="XMLID_72_" class="st9" d="M261.9,163.1c-11.7-8.9-10,1-21.8-9.3c0,0-0.5-0.6-3.4,2.9c-7.2,6.5-21.2,5.2-21.2,5.3
		c-0.3-0.1-0.7-0.1-1-0.2l-1.5,6c-4.9,11.8-12.3,31.8-13.8,41.3c-1.7,11.4,0.5,29.7-2,35.9c-2.6,6.2-21.5,36.1-15.4,36.9
		c1.8,0.3,5.1,0.9,8.6,1.6c13.5,4.6,41.7,19,42.1,16.6c2.1-15.1,1.2-49.7,10.6-69.7C251.2,212.9,266.8,166.8,261.9,163.1z"/>
	<g id="XMLID_229_">
		<path id="XMLID_71_" class="st10" d="M157.9,390c-1.1-10.2,0.2-30,1.7-46.4c0.6-0.3,1.3-0.6,1.9-0.9c1.9-0.9,3.7-2.1,5.5-3.7
			c-1.8-15.3-3.1-26.4-3.1-26.4c-9.5,8.3-25.4,26-25.9,33.8c-1.3,23.6,6.6,111.6,8.6,129.6c3.4-0.9,9.9-0.5,13.1-3.1
			C161.8,426.7,161.4,422.6,157.9,390z"/>
	</g>
	<g id="XMLID_221_">
		<path id="XMLID_70_" class="st10" d="M211.2,349.1c16.7-10.7,21.6-28.9,7.3-43.3c-15.2-15.4-47.4-1.7-47.4-1.7
			s-12.7,28.8-10.6,41.8c-0.2,16.4,0.2,12.8,2.1,48.7c2.1,39.7,5.3,82.9,5.3,82.9s20.7,11.4,37.8-3.3c0,0,7.7-99.3,6.2-118.6
			C211.8,353.4,211.5,351.2,211.2,349.1z"/>
		<g id="XMLID_222_">
			<path id="XMLID_69_" class="st6" d="M170.2,303.6c0,0-12.8,28.8-10.6,41.7c-0.2,16.3,0.2,12.8,2.1,48.7c2,39.7,5.3,82.9,5.3,82.9
				s5.3,2.9,12.7,3.9c-1.2-32.5-5.6-132-4.9-143c0.6-9.7,16-27.7,26.2-39.7C186.3,296.7,170.2,303.6,170.2,303.6z"/>
		</g>
	</g>
	<g id="XMLID_212_">
		<g id="XMLID_217_">
			<rect id="XMLID_68_" x="459.5" y="274.9" class="st11" width="19.2" height="236.7"/>
		</g>
		<g id="XMLID_213_">
			<rect id="XMLID_67_" x="251.6" y="274.9" class="st11" width="19.2" height="236.7"/>
		</g>
	</g>
	<g id="XMLID_208_">
		<path id="XMLID_65_" class="st12" d="M201,273.2c0,0.6,0.9,1,2,1l316,0c1.1,0,2-0.4,2-1l-41.6-24c-2.1-0.8-2.9-1-4-1l-242.3,0
			c-1.2,0-2.7,0.3-5.5,1L201,273.2z"/>
		<path id="XMLID_64_" class="st11" d="M200.9,287c0,1.1,0.9,2,2,2h316.6c1.1,0,2-0.9,2-2v-12.8c0-1.1-0.9-2-2-2H202.8
			c-1.1,0-2,0.9-2,2V287z"/>
	</g>
	<g id="XMLID_205_">
		<path id="XMLID_63_" class="st11" d="M355.8,172.2c-0.7-0.1-1.1-0.9-1-1.7l0,0c0.4-3.3,4-33.4,8.9-46.2l0,0
			c2.7-7.1,8.1-10,12.7-10l0,0c4.1,0,7.8,2.1,9.1,5.9l0,0h0c0.2,0.8-0.1,1.6-0.7,1.9l0,0c-0.6,0.3-1.3-0.1-1.6-0.9l0,0
			c-0.6-2.1-3.4-4-6.8-4l0,0c-3.9,0-8.1,2.2-10.5,8.3l0,0c-4.7,12-8.3,42.2-8.7,45.4l0,0c-0.1,0.7-0.6,1.3-1.2,1.3l0,0
			C355.9,172.2,355.8,172.2,355.8,172.2L355.8,172.2z"/>
		<path id="XMLID_62_" class="st13" d="M387.1,119.8c-2.8-3.2-3.6-3-4.5-2.3c-0.9,0.7-1.1,2.4,0,6c1.2,3.8,3.2,3.8,4.8,2.5
			C388.3,125.3,390.5,123.6,387.1,119.8z"/>
	</g>
	<path id="XMLID_61_" class="st11" d="M362.4,174.2c-2.1-0.1-4.2-1.6-4-6.2l0,0c0-0.4,0-0.8,0-1.3l0,0c0-0.6,0-1.1,0-1.6l0,0
		c0-1.6-0.2-2.5-0.3-2.8l0,0c-0.1-0.2-0.1-0.2-0.1-0.2l0,0c0,0-0.1,0-0.1,0l0,0c0,0-0.1,0-0.2,0l0,0c-0.4,0.1-0.8-0.3-0.8-0.8l0,0
		c-0.1-0.5,0.2-0.9,0.6-1l0,0c0.1,0,0.2,0,0.4,0l0,0c1.2,0,2,1.4,2,4.8l0,0c0,0.5,0,1,0,1.7l0,0c0,0.4,0,0.8,0,1.2l0,0
		c0.2,4.2,0.8,4,2.7,4.5l0,0h0.1c0.6,0.2,2.1-2,2.7-5.8l0,0c0.7-4,2.2-4.8,3-4.8l0,0c0.2,0,0.2,0,0.3,0l0,0c0.4,0.1,0.6,0.6,0.5,1.1
		l0,0c-0.1,0.5-0.5,0.7-0.8,0.7l0,0c-0.1,0-0.8,0-1.5,3.4l0,0c-0.8,3.9-1.9,6.9-4.2,7.2l0,0C362.5,174.2,362.5,174.2,362.4,174.2
		L362.4,174.2z"/>
	<path id="XMLID_60_" class="st14" d="M359.5,185.5c-3.5-0.2-5-4.6-5-10.2l0,0c0-2.3,0.3-5,0.8-7.9l0,0h0c0.1-0.8,0.8-1.3,1.4-1.1
		l0,0c0.7,0.2,1.1,1,0.9,1.8l0,0c-0.5,2.7-0.7,5.2-0.7,7.2l0,0c0,5.3,1.4,7.2,2.6,7.2l0,0c0.1,0,0.1,0,0.1,0l0,0
		c2.7-0.1,5.2-2.8,8.3-16.1l0,0c0.2-0.8,0.8-1.2,1.5-1l0,0c0.6,0.2,1,1,0.8,1.8l0,0c-3,13.2-5.9,17.9-10.6,18.3l0,0
		C359.6,185.5,359.5,185.5,359.5,185.5L359.5,185.5z"/>
	<path id="XMLID_59_" class="st15" d="M257.4,171.1l-12.3,35.5l16.5,30.8L247,254.7c0,0,16.3,6.7,18.1,6.2
		c13.6-3.1,17.1-12.2,19.1-15.6C291.7,237.1,271.6,188.3,257.4,171.1z"/>
	<path id="XMLID_58_" class="st9" d="M260.2,161c5.6,2,8.8,15.2,10.7,21.8c2.1,7.3-0.2,9.4-0.2,9.4l-18.3,24.7l-10.8-9.1
		c0,0,3.1-43.9,7.7-46.2C254.7,159,260.2,161,260.2,161z"/>
	<g id="XMLID_195_">
		<g id="XMLID_196_">
			<polygon id="XMLID_57_" class="st16" points="338.2,510.3 333.9,510.3 347.7,360.7 350.8,339.3 451.4,340.8 451.4,371.9 
				451.2,371.9 456.6,505.9 452.3,505.9 436.4,371.9 365.4,371.9 			"/>
			<polygon id="XMLID_56_" class="st16" points="391,531.8 386.4,531.8 390.3,387.6 342.3,363.4 399.1,331.3 488.7,340.7 
				488.7,379.8 501.3,521.7 496.6,521.7 472.3,379.8 406.3,387.6 			"/>
			<path id="XMLID_55_" class="st16" d="M458.9,161c7.9-28.2,18.7-26.5,36.7-27.4c15.2-0.8,23.5,7.2,22.7,26.3l-30.2,179.6
				c0,11.1-11.3,4.2-26.3,0.5c-15-3.7-32.1-5.2-31-24.3L458.9,161z"/>
			<path id="XMLID_54_" class="st1" d="M485,346.3c5.3,0,4.6-6.2-0.2-8.8l-34.3-12.7c-4.8-2.7-13.1-4.8-18.3-4.8l-79.9,14.7
				c-5.3,0-9.8,3.7-5.7,7.7l14.2,0.5c4.2,3.9,40.2,27.2,45.5,27.2L485,346.3z"/>
		</g>
	</g>
	<path id="XMLID_53_" class="st12" d="M381.7,171.2c-5.4,5.7-19.8,35.2-25.2,36.1c-5.4,0.9-33.1-6.7-33.1-6.7l-3.3,26.2l40.7,17.8
		c0,0,13.1-3.9,19.2-14.1C381.2,228.2,381.7,171.2,381.7,171.2z"/>
	<g id="XMLID_181_">
		<g id="XMLID_186_">
			<g id="XMLID_190_">
				<path id="XMLID_52_" class="st15" d="M325.9,318c-1.5,14.5-3.1,50.8,0.5,57c3.5,6.1,15,89.9,14.4,96.1
					c-2,20.5-14.7,37.1-26.7,46.2c7.8,5.6,17.1,4,31.4-10.9c5.8-6.1,13.3-10.1,14.7-15.6c3.2-12.5-1.6-5.1-1.8-23.8
					c-0.3-18.7,10.7-73-0.6-101.8c-6.9-17.6-4.1-42.7-5.9-48.9C350,310.1,325.9,318,325.9,318z"/>
			</g>
			<path id="XMLID_51_" class="st17" d="M359.7,478.4c3,3,5,11.2,3.1,18.6c-1.9,7.3-7,11.1-7,28.9c-3.2,0.9-3.3,0-3.3,0
				s1.1-21.9-2-20.5c-3.1,1.4-7.6,11.3-13.1,18.5c-5.6,7.2-25.5,4.6-26.6,2.4c-1.2-2.2-2.4-9.3,2.5-11.3c4.9-2.1,6-3.9,6-3.9
				s7.8,6.1,15.2-1.3C343.8,500.3,359.7,478.4,359.7,478.4z"/>
		</g>
		<g id="XMLID_182_">
			<g id="XMLID_184_">
				<path id="XMLID_50_" class="st4" d="M331.1,323.4c-1.5,14.5-1.2,53,2.3,59.2c3.5,6.2,15,89.9,14.4,96.1
					c-1.9,20.5-14.7,37.2-26.7,46.3c7.8,5.6,17.1,4,31.4-10.9c5.8-6,13.2-10.1,14.7-15.6c3.2-12.5-1.6-5.1-1.9-23.8
					c-0.3-18.7,10.7-73-0.6-101.8c-6.9-17.6-4.1-42.8-5.9-48.9C357,317.7,331.1,323.4,331.1,323.4z"/>
			</g>
			<path id="XMLID_49_" class="st5" d="M366.8,486.1c3,3,5,11.2,3.1,18.5c-1.9,7.3-7,11.1-7,28.9c-3.2,0.9-3.3,0-3.3,0
				s1.1-22-2-20.5c-3.1,1.4-7.6,11.3-13.1,18.5c-5.6,7.2-25.5,4.6-26.6,2.4c-1.2-2.2-2.4-9.3,2.5-11.4c4.9-2.1,6-3.9,6-3.9
				s7.8,6.1,15.3-1.4C350.8,508,366.8,486.1,366.8,486.1z"/>
		</g>
	</g>
	<path id="XMLID_48_" class="st12" d="M403.7,138.1c-7.5,6-6.7,3.8-12.1,10.9c-3.6,4.8-15.7,42.8-15.7,42.8
		c-2.6,8.6-5.4,20.2-5.6,26.5c-0.3,8.9,4.2,17.3,7.4,20.7c3.2,3.4,6.8,17.4,7.9,22.9c0.5,2.2,2.1,10.5,3.9,19.6
		c1-1.2-61.8,35.1-67.4,39.7c-5.5,4.6-13.5,95.2-13.5,95.2l63.9,0.2c0,0-24.3-73.5,37-83.8C424.9,330.2,425,157.1,403.7,138.1z"/>
	<path id="XMLID_47_" class="st11" d="M447.5,272c-0.8-8.8-4.9-28.2-13.8-70.9c-4.6-22-10.2-46.4-32.2-65c-7.1,5.7-6.1,5.1-11,11.3
		c4.5,4.1,14.5,12.3,14.2,20.2c-1.6,43.6,12.6,92.6,14.2,98.3c0.3,6.2,1.1,15.1,0,18.5c-3.6,11.4-59.8,27.4-80.2,43.6
		c-7,5.6,0.8,63.5,1.6,88.6l39.4-0.1c0,0,3.7-60.4,3.4-64.3c10.7-9.2,36.8-8.9,63.2-14C464.7,334.8,461.4,299.4,447.5,272z"/>
	<path id="XMLID_46_" class="st4" d="M358.5,134.4c13.4,5.7,21.5,15.5,20.8,43c-0.2,8.1,5.2-17.8,13.4-27c7.2-8.1,7.6-6.9,12.7-10.5
		c-5.1-3.8-21.2-21.5-22.2-38.7C382.3,84.1,358.5,134.4,358.5,134.4z"/>
	<path id="XMLID_45_" class="st4" d="M364.5,67c16.5-3.1,28.7-1.9,31.9,23.1c3.2,25.1-14.3,52.5-30.4,57.4
		c-7.7,2.3-14.2-6.3-18.6-19.8c-2.5,0-4.8-0.6-4.9-2.7c0.9-4.4,1.3-7.8,1.5-10.6c-0.6-3.1-1.1-6.3-1.5-9.5
		C339.2,80,348,70.1,364.5,67z"/>
	<g id="XMLID_174_">
		<polygon id="XMLID_44_" class="st11" points="399.3,131.4 383.8,152.3 384.6,166.7 407.8,141.7 		"/>
		<path id="XMLID_43_" class="st11" d="M387.9,159.4l-10.5,4.6c0,0-4.4,34.8-5.1,39C371.6,207.1,387.9,159.4,387.9,159.4z"/>
	</g>
	<path id="XMLID_42_" class="st18" d="M340.7,92c-2.7-17.3,13.9-33.5,31.6-31.7c17.7,1.8,28.2,14.3,29.4,32.2
		c1.2,17.9-7.6,33.7-9.4,33.5c-1.8-0.2-9.1-9.8-9.1-9.8s1.8-16.8-3-18.8c-4.8-2-6.3,2.3-6.3,2.3s-9.4,2-21.1-5.1
		C341,87.6,340.7,92,340.7,92z"/>
	<path id="XMLID_41_" class="st18" d="M340.3,75.8c-6,5.8-14.4,17.4-3.6,20.3c10.8,2.9,26.5,7.3,26.5,13.1c0,5.8,6-16,2.4-20.3
		C362,84.6,340.3,75.8,340.3,75.8z"/>
	<path id="XMLID_40_" class="st18" d="M377.6,68.1c-2.4-18.9,13.2-20.3,20.5-11.6c7.2,8.7,13.2,24.7,8.4,30.5
		c-4.8,5.8-13.2,4.4-15.6-1.5C388.5,79.7,377.6,68.1,377.6,68.1z"/>
	<g id="XMLID_164_">
		<g id="XMLID_166_">
			<path id="XMLID_39_" class="st19" d="M74.2,508.9c0,2.2-1.7,4-3.8,4l0,0c-2.1,0-3.8-1.8-3.8-4V273.3c0-2.2,1.7-4,3.8-4l0,0
				c2.1,0,3.8,1.8,3.8,4V508.9z"/>
			<rect id="XMLID_38_" x="66.5" y="266.1" class="st18" width="3.8" height="239.8"/>
			<path id="XMLID_37_" class="st5" d="M76,287.5c0,4-2.7,7.3-6.1,7.3l0,0c-3.4,0-6.1-3.3-6.1-7.3v-17.4c0-4,2.7-7.3,6.1-7.3l0,0
				c3.3,0,6.1,3.3,6.1,7.3V287.5z"/>
			<path id="XMLID_36_" class="st5" d="M76.3,510.5c0,2-1.4,3.6-3,3.6h-6.1c-1.7,0-3-1.6-3-3.6v-13.7c0-2,1.4-3.7,3-3.7h6.1
				c1.7,0,3,1.6,3,3.7V510.5z"/>
		</g>
		<path id="XMLID_35_" class="st5" d="M69.1,263c3.4-0.8,13.1-1.3,16.4,2.9c3.2,4.2,2.3,7.7-0.3,6.4c-4.5-2.3-8.6-0.4-10.9,1.1
			C71.9,274.7,69.1,263,69.1,263z"/>
	</g>
	<g id="XMLID_162_">
		<path id="XMLID_34_" class="st20" d="M368.6,169c-0.6-0.3-1-1.1-0.7-1.9l0,0c4.4-14.9,11-44.7,11.8-47.7l0,0
			c1.1-4.2,1.5-7.3,1.5-9.3l0,0c-0.1-2.4-0.4-2.2-0.7-2.3l0,0c-0.3,0-1.2,0.3-2.2,1.1l0,0v0c-0.6,0.4-1.3,0.2-1.7-0.4l0,0
			c-0.4-0.7-0.2-1.6,0.4-2l0,0c1.3-1,2.4-1.6,3.6-1.6l0,0c2.1,0,3.1,2.6,3.1,5.2l0,0c0,2.5-0.5,5.8-1.6,10.1l0,0
			c-0.7,2.9-7.3,32.8-11.8,47.9l0,0c-0.2,0.6-0.7,1-1.2,1l0,0C368.9,169.1,368.8,169.1,368.6,169L368.6,169z"/>
	</g>
	<path id="XMLID_33_" class="st21" d="M260.8,236.2c-2.1-2.6-11.9-21.3-12.5-25.5c-1.7-13,12.7-31.7,23.3-20.3
		c2.7,3,12.9,31.7,13.4,34.3c-3.9-2.1-10.3-2.6-15.9,2.6C263.4,232.5,260.8,236.2,260.8,236.2z"/>
	<path id="XMLID_32_" class="st22" d="M257.6,189.4c4.4,7.9,14.2,31,14.2,31s7.1-4.9,13.1,1.3c2.6-1-11.6-34.9-11.6-34.9
		S254.6,183.9,257.6,189.4z"/>
	<path id="XMLID_31_" class="st14" d="M272.8,236.4c-0.5-0.5-0.6-1.4-0.2-2.1l0,0c0.4-0.6,1.2-0.7,1.7-0.2l0,0
		c10.9,10.6,22.6,14,32.5,14l0,0c11.4,0,20.6-4.6,23.1-7.2l0,0c1.6-1.6,24-23,28.6-57l0,0l0,0c0.1-0.8,0.7-1.4,1.4-1.2l0,0
		c0.7,0.1,1.1,0.9,1,1.7l0,0c-4.8,35.3-27.9,57.1-29.4,58.7l0,0c-3.3,3.5-12.7,7.9-24.7,8l0,0C296.4,251,284.1,247.5,272.8,236.4
		L272.8,236.4z"/>
	<g id="XMLID_153_">
		<path id="XMLID_30_" class="st4" d="M261.3,262.9c0.4-2.4,4.5-5.4,2.5-8.6c-2-3.2-8.1-8.5-8.1-8.5s-9.4,3-11.2,4.5
			c-1.8,1.5-1.3,7.4,0,8.6C245.8,260,261.3,262.9,261.3,262.9z"/>
		<g id="XMLID_155_">
			<path id="XMLID_29_" class="st15" d="M264.9,251.6c-1-1.7-3.5-5-5.1-4.5c-1.7,0.5-2.3,0.4-1.7,2.1c0.6,1.7,4.3,7.4,6.3,8.2
				C265.6,257.9,266.3,254.1,264.9,251.6z"/>
			<path id="XMLID_28_" class="st4" d="M265.3,251.2c-1-1.7-2.8-2.7-5-4c-1.6-0.9-2.4-0.1-1.8,1.6c0.6,1.7,4.1,6.5,5.2,7.5
				C264.7,257.3,266.8,253.7,265.3,251.2z"/>
		</g>
		<path id="XMLID_27_" class="st15" d="M262.1,261.6c0-1.8-1.9-5.7-3.1-7.7c-1.2-2-2-8.2-3.2-8.2c-1.2,0.1-1.4,0.1-1.6,2.9
			c-0.2,2.8,0.8,9.2,0.8,9.2l0.7,5.5c0,0-1.9-9.3-2.2-11c-0.3-1.6,0.9-6.5-0.2-7.5c-1.1-1-2.8,1.4-3.3,2.9c-0.6,1.5-1.5,8.2-1.6,9.1
			c0,0.9,0.2,5.4,0.2,5.4s0.2-10.3,0.3-11.6c0.1-1.3,1.8-5,0.7-5.1c-1.1-0.1-3.5,2.5-4,4.6c-0.5,2-2.3,8.2-2.3,8.2s3-9.9,2.5-10.3
			c-0.5-0.4-5.4,3.8-6.2,6.9c-0.8,3.1,1.2,6.3,1.8,6.2c1,0.9,4.9,5.7,5.9,4.5c2.2,0.9,6.5,3.9,7.7,1.1
			C260.3,268.9,262.1,261.6,262.1,261.6z"/>
	</g>
	<linearGradient id="XMLID_92_" gradientUnits="userSpaceOnUse" x1="276.5376" y1="273.6042" x2="276.5376" y2="238.7016">
		<stop  offset="0.6319" style="stop-color:#FFFFFF"/>
		<stop  offset="0.7711" style="stop-color:#CACACA"/>
		<stop  offset="0.967" style="stop-color:#7A7A7A"/>
	</linearGradient>
	<path id="XMLID_23_" class="st23" d="M280.5,240.1l4.4,5l-5.9,7.9l-10.7-17.2c0,0,5.2,3.1,6.8,3.5
		C276.6,239.8,280.5,240.1,280.5,240.1z"/>
	<g id="XMLID_137_">
		<g id="XMLID_145_">
			<g id="XMLID_124_">
				<g id="XMLID_125_">
					<path id="XMLID_127_" class="st12" d="M278.9,233.5c-2.2-1.2-6.7-2.7-8.5-2.1c-0.8,0.3-1.2,0.7-1.6,1.3c-1.5,2-0.1,5.7,3.2,7.5
						c3.2,1.8,7,1.9,8.6-0.1C282,238.1,282.2,235.2,278.9,233.5z"/>
				</g>
			</g>
		</g>
		<g id="XMLID_142_">
			<g id="XMLID_143_">
				<path id="XMLID_21_" class="st11" d="M278,231.1c-3.2-1.8-7-1.6-8.5,0.5c-1.5,2-0.1,5.1,3.2,6.9c3.2,1.8,7,1.6,8.5-0.5
					C282.6,236,281.2,232.9,278,231.1z"/>
			</g>
		</g>
		<path id="XMLID_19_" class="st12" d="M279,236.2c-1.3,0.9-7.7-0.2-7.5-4c1.4-4.2,1.7-3.4,1.7-3.4l6.7,2.5L279,236.2z"/>
		<path id="XMLID_18_" class="st11" d="M279.9,231.3c-0.2,0.8-1.8,0.8-3.7,0.1c-1.8-0.7-3.4-1.9-3.2-2.7c0.2-0.8,2.1-0.7,3.9,0
			C278.7,229.4,280.1,230.5,279.9,231.3z"/>
	</g>
	<g id="XMLID_114_">
		<path id="XMLID_17_" class="st15" d="M314.4,201.3c-1.1-1.5-5.3-5-7.5-6.2c-2.7-1.5-9.7-3.5-11.5-3.2c-3.1,0.6-6.1,17.8-1.8,22.6
			c4.2,4.8,16.2,3.2,19,2.6c2.8-0.5,7.3,2.3,7.3,2.3l2.5-14.9L314.4,201.3z"/>
		<path id="XMLID_16_" class="st4" d="M314.3,197c-1.2-2.3-2.1-6.5-4.8-7c-2.6-0.5-7-3.2-7.8-4c-0.8-0.8-2.4,2.5-0.7,4.7
			c1.3,1.7,3,2.7,3.8,4.3c0.8,1.6,2.4,5.8,4.8,6.9c2.4,1.1,10.2,7.5,10.7,8.6c0.4,1.1,0.3-6.9,0.3-6.9L314.3,197z"/>
		<path id="XMLID_15_" class="st10" d="M317.9,198.5c-0.7,4.8-3.7,22-3.7,22l6.5,1.7l3-21.7L317.9,198.5z"/>
		<g id="XMLID_120_">
			<path id="XMLID_14_" class="st0" d="M303.2,199.9c0.2,1.2-0.1,2.3-0.8,2.5l0,0c-0.7,0.2-1.4-0.6-1.7-1.8l-4.5-21.9
				c-0.2-1.2,0.1-2.3,0.8-2.5l0,0c0.7-0.2,1.4,0.6,1.7,1.8L303.2,199.9z"/>
			<g id="XMLID_126_">
				<path id="XMLID_13_" class="st5" d="M294.5,165.3c2,0.7,3.4,4.5,4.1,8.1c0.7,3.5,1.6,7.9,0.2,9.7c-0.5,0.6-2.4,0-3,0.1
					c-2.5,0.8-5.4-2.4-6.3-7.1c-0.9-4.7,0.3-9,2.9-9.8C292.9,166.2,294,165.1,294.5,165.3z"/>
				<path id="XMLID_12_" class="st5" d="M303.2,172c1.3,6.1,0.6,11.7-2.4,12.6c-3,0.9-6.4-3.3-7.7-9.4c-1.3-6.1,0.2-11.8,3.2-12.7
					C299.2,161.6,301.9,165.9,303.2,172z"/>
				<path id="XMLID_11_" class="st11" d="M301.6,172.6c1.1,5.2,0.5,9.8-1.1,10.3c-1.7,0.5-3.9-3.3-5-8.5c-1.1-5.2-0.5-9.8,1.1-10.3
					C298.4,163.6,300.6,167.4,301.6,172.6z"/>
			</g>
			<g id="XMLID_121_">
				<path id="XMLID_10_" class="st0" d="M310.8,207.2c1.3,7.8-0.9,14.9-5,15.9c-4,1-8.3-4.6-9.6-12.4c-1.3-7.8,0.9-14.9,5-15.9
					C305.2,193.8,309.5,199.4,310.8,207.2z"/>
				<g id="XMLID_122_">
					<path id="XMLID_9_" class="st5" d="M296.2,210.5c1.3,7.7,5.4,13.2,9.4,12.4l-5-28C297,196.4,295,203.2,296.2,210.5z"/>
				</g>
			</g>
		</g>
		<g id="XMLID_115_">
			<path id="XMLID_8_" class="st4" d="M296.2,191.8c1.2,3,5.9,8.1,4.7,9.8c-1.3,1.7-4.9-1.5-5.9-2.4c-1-0.9-2.5-0.6-2.6-4.1
				C292.2,191.5,296.2,191.8,296.2,191.8z"/>
			<path id="XMLID_7_" class="st4" d="M292.7,197.1c-1.6,1-2.7,2-1.3,5.6c1.4,3.7,2.4,3.7,5.5,4.5c3.1,0.8,6.9-1.2,5.5-2.7
				c-1.4-1.5-3.9-1.7-5.6-3.5C295,199.2,292.7,197.1,292.7,197.1z"/>
			<path id="XMLID_6_" class="st4" d="M291.3,202.8c-0.1,1.8-1.9,3.6-0.7,6.2c1.2,2.6,4,2.5,5.8,2.5c1.8,0,5.2,0.4,4.3-1.9
				c-0.5-1.3-1-0.7-3.9-1.6C293.7,207,291.3,202.8,291.3,202.8z"/>
			<path id="XMLID_5_" class="st4" d="M292.1,210.9c-0.5,1-0.5,3.6,0.8,4.6c1.3,1,1.6,0.8,4.3,0.2c1.7-0.4,2.7-0.5,2.5-2.1
				c-0.1-0.8-0.6-1.1-3.3-1.3C295.1,212.1,292.1,210.9,292.1,210.9z"/>
		</g>
	</g>
	<linearGradient id="XMLID_93_" gradientUnits="userSpaceOnUse" x1="347.7079" y1="354.2914" x2="336.6398" y2="228.3287">
		<stop  offset="0.6319" style="stop-color:#FFFFFF"/>
		<stop  offset="0.7711" style="stop-color:#CACACA"/>
		<stop  offset="0.967" style="stop-color:#7A7A7A"/>
	</linearGradient>
	<polygon id="XMLID_4_" class="st24" points="397.9,234.1 359.1,292.9 281.5,292.4 313.7,254.2 357.4,249.2 	"/>
	<g id="XMLID_25_">
		<path id="XMLID_3_" class="st4" d="M308.4,241.8c-3.2-0.7-10.5-9.5-10.5-9.5s-11.8-3-13.9-2.6c-2,0.3-10.1,1.2-8,2.6
			c2,1.4,9.5,0.9,9.5,0.9l6,1.2c0,0-14.5-0.5-15.6,0.2c-1,0.6-0.2,1.5,1.8,2.5c0.3,0.1,0.6,0.3,0.9,0.4c2.6,1.1,12,0.7,12,0.7
			s-13.5-0.7-12.6,0.5c0.9,1.2,2,1.7,4.8,2.2c2.8,0.5,7.5,1.8,8.4,2.2c0.9,0.3,4.3,4.1,7.7,6.6c3.4,2.6,15.1,4.6,15.1,4.6l-2-11.4
			L308.4,241.8z"/>
		<polygon id="XMLID_2_" class="st10" points="319,237.2 308,238.4 305.9,259.7 322,260.1 		"/>
		<g id="XMLID_26_">
			<path id="XMLID_1_" class="st11" d="M404.8,156.1c15.9-0.5,10.9,22.3,7.3,38c-9.4,40.6-20.8,52.4-32.8,58.3
				c-3.2,1.6-11.2,6.2-59.5,15.6l-7.5-31c0,0,50.9-14.7,52.7-16.4c5.5-4.9,22.8-39.1,25.8-48.9C395.5,157.2,404.8,156.1,404.8,156.1
				z"/>
		</g>
	</g>
</g>
</svg>
