<?xml version="1.0" encoding="utf-8"?>
<!-- Generator: Adobe Illustrator 19.0.0, SVG Export Plug-In . SVG Version: 6.00 Build 0)  -->
<svg version="1.1" id="Layer_1" xmlns="http://www.w3.org/2000/svg" xmlns:xlink="http://www.w3.org/1999/xlink" x="0px" y="0px"
	 viewBox="0 0 500 700" style="enable-background:new 0 0 500 700;" xml:space="preserve">
<style type="text/css">
	.st0{fill:#6BC288;}
	.st1{fill:#D5EDEC;}
	.st2{fill:#FCC290;}
	.st3{fill:#F3A06E;}
	.st4{fill:#4C2627;}
	.st5{fill:#F19D6E;}
	.st6{fill:#FFFEF6;}
	.st7{fill:#66687E;}
	.st8{fill:#412811;}
	.st9{fill:#F8E5D6;}
	.st10{fill:#D39060;}
	.st11{fill:#3E191B;}
	.st12{opacity:0.32;fill:#808884;}
	.st13{opacity:0.32;fill:#6BC288;}
	.st14{fill:#57C3BC;}
	.st15{opacity:0.45;fill:url(#XMLID_250_);}
	.st16{opacity:0.45;fill:url(#XMLID_251_);}
	.st17{opacity:0.32;fill:#06A89E;}
	.st18{fill:#29B4AB;}
	.st19{opacity:0.45;fill:#06A89E;}
	.st20{fill:#F0EEEC;}
	.st21{fill:#E2F3F2;}
	.st22{fill:#D9EFEE;}
	.st23{fill:#351415;}
	.st24{fill:#00A79B;}
	.st25{fill:#008D69;}
	.st26{opacity:0.32;}
	.st27{fill:url(#XMLID_252_);}
	.st28{opacity:0.55;fill:#CBC4BD;}
	.st29{fill:#F2A564;}
	.st30{fill:#965946;}
	.st31{opacity:0.55;fill:url(#XMLID_253_);}
	.st32{opacity:0.55;fill:url(#XMLID_254_);}
	.st33{fill:#12456A;}
	.st34{fill:#E5A990;}
	.st35{fill:#563335;}
	.st36{fill:#71A0B8;}
	.st37{opacity:0.32;fill:#F3A06E;}
	.st38{opacity:0.32;fill:#486FA3;}
	.st39{opacity:0.55;fill:#99C0D8;}
	.st40{opacity:0.55;fill:#6BC288;}
	.st41{fill:#FBB784;}
	.st42{fill:#426477;}
	.st43{fill:#3E6274;}
	.st44{opacity:0.32;fill:#91A5B0;}
	.st45{fill:#FEDCC4;}
	.st46{fill:#905456;}
	.st47{fill:#234B60;}
	.st48{fill:#587486;}
	.st49{fill:#A9B8C1;}
	.st50{fill:#94A7B2;}
	.st51{opacity:0.55;fill:#DFE3E7;}
	.st52{fill:#20495F;}
	.st53{fill:#768F9C;}
	.st54{fill:#E5E9E5;}
	.st55{fill:#C9C9C9;}
	.st56{opacity:0.55;fill:url(#XMLID_255_);}
	.st57{opacity:0.55;fill:url(#XMLID_256_);}
</style>
<path id="XMLID_1_" class="st0" d="M288.6,191.4"/>
<g id="XMLID_3_">
	<path id="XMLID_160_" class="st1" d="M145.1,132.1c0,0,42.3,8,46.2,7.9c3.9-0.1,5.7-3.9,5.7-3.9l-51-6.5L145.1,132.1z"/>
	<path id="XMLID_157_" class="st1" d="M179.9,133.9l17.2,2.2c0,0-1.8,3.8-5.7,3.9c-1.5,0-9-1.2-17.5-2.7
		C176.1,136.5,178,135.3,179.9,133.9z"/>
	<g id="XMLID_154_">
		<path id="XMLID_156_" class="st2" d="M148.8,117.1c2.6,2.8,6.2,4.9,9.4,6.9c0.9,0.6,1.7,1.1,2.6,1.6c0,0,0,0,0,0
			c5.6,3.7,12.1,7.1,19.1,8c1.1,8.3,3.2,19.9,6.1,23.4c5.6,7-42.5-3.1-42.5-3.1S150.6,138.3,148.8,117.1z"/>
		<path id="XMLID_155_" class="st3" d="M175.1,145.9c-5.3-1.3-11.7-7.1-17.3-4c-2.4,1.4-3.6,4.8-4.7,7.1c-1,2-1.5,4.2-2.3,6.3
			c-4.4-0.8-7.3-1.5-7.3-1.5s7.1-15.6,5.3-36.8c2.6,2.8,6.2,4.9,9.4,6.9c0.9,0.6,1.7,1.1,2.6,1.6c0,0,0,0,0,0
			c5.6,3.7,12.1,7.1,19.1,8c0.5,3.7,1.5,9.8,2.4,13.3C179.9,146.8,177.4,146.5,175.1,145.9z"/>
	</g>
	<path id="XMLID_153_" class="st4" d="M146.1,64.6c0,0-8.4,17-7.6,24.9c0.9,8,7.6,3.1,7.6,3.1l0.3-23.2L146.1,64.6z"/>
	<path id="XMLID_152_" class="st2" d="M143.9,75.8c-0.1-4.6,19.5-7,21.4-8.1c0,0,24.5-2.1,26.7,10c0.7,3.7,0.3,8.8,0.6,13.2
		c0.6,7.7,1.6,12.6,2.6,15.7c0,0.4,0.1,0.7,0.1,1.1c0,0,0,0.2,0,0.5c0,0.5,0,1-0.1,1.5c0,0.3,0,0.5,0,0.7c0,0.2-0.1,0.4-0.1,0.5
		c-0.6,2.4-0.3,4.7-0.3,7c-3.9,6.1-11.8,14.2-19.8,14.1c-11.8-0.2-27.7-12.5-27.3-14S144,80.4,143.9,75.8z"/>
	<g id="XMLID_149_">
		<path id="XMLID_151_" class="st2" d="M145.7,89c0,0-3.3-6.5-8.6-1.5c-5.4,5-1.9,12.1,1.6,13.9c3.5,1.8,6.9,3,7.2,3.4
			C146.3,105.2,146.8,91.2,145.7,89z"/>
		<path id="XMLID_150_" class="st5" d="M138,90.7c-0.1,0.1-0.2,0.3-0.3,0.4c-0.3,0.2-0.6,0.1-0.6-0.1c-0.1-0.2,0.1-0.6,0.2-0.8
			c0.8-1.6,3-1.2,4-0.9c3.5,1.3,3.8,5.9,3.3,9.2c-1.2,3.8-6-1.3-4.5-3.9c0.5-0.9,1.1-2,1-3c-0.1-1-1.2-1.6-2.2-1.5
			c-0.2,0-0.5,0.1-0.7,0.3C138.1,90.5,138.1,90.6,138,90.7z"/>
	</g>
	<path id="XMLID_148_" class="st3" d="M182.4,74.9c-5.3-0.6-24.7-0.2-30,0.6c-3.2,0.5-5.8,1.8-8.4,3.3c-0.1-1.4-0.2-2.5-0.2-3.1
		c-0.1-4.6,19.5-7,21.4-8.1c0,0,24.1-2,26.7,9.7C189.8,76.2,184.7,75.1,182.4,74.9z"/>
	<g id="XMLID_139_">
		<path id="XMLID_147_" class="st3" d="M152.7,92.2c1.4-2,2.9-3.2,4-3.7c2.5-1.2,4.8-1.1,6.8-0.4c2.8,1,3.8,4.1,4,4.7
			c0.1,0.1-0.4,1.2-0.6,1.6c-0.9,1.4-3.2,3.6-6.9,3.1C153.7,96.8,152.7,92.2,152.7,92.2z"/>
		<path id="XMLID_146_" class="st6" d="M166.9,92.8c0,0-2.5-3.5-6.4-3.2s-5.6,3.6-5.6,3.6s1,2.2,4.2,2.9
			C162.3,96.8,166.3,95.6,166.9,92.8z"/>
		<g id="XMLID_142_">
			<ellipse id="XMLID_145_" class="st7" cx="160.7" cy="92.8" rx="3.1" ry="3"/>
			<ellipse id="XMLID_144_" class="st8" cx="160.7" cy="92.6" rx="1.9" ry="1.8"/>
			<circle id="XMLID_143_" class="st9" cx="162.1" cy="91.6" r="0.6"/>
		</g>
		<path id="XMLID_141_" class="st10" d="M167.4,92.6c0,0-1.3-1.4-2.9-2.3c-2.4-1.3-5.9-1.7-10.6,2.5l1.1,0.8c0,0,1.7-2.9,5.8-3.1
			c0,0,3.8-0.1,6.1,2.6L167.4,92.6z"/>
		<path id="XMLID_140_" class="st10" d="M154.9,93c0.3,0,2.4,3.4,7.7,2.5c3-0.5,4.1-2.7,4.1-2.7l0.7-0.2c-0.1,1-2.7,4.9-7.3,4
			c-3.8-0.7-5.7-3.1-6.2-3.8C154.1,92.9,154.5,93,154.9,93z"/>
	</g>
	<path id="XMLID_138_" class="st3" d="M185.3,87c2.1-0.7,5.5,0.9,7.3,2.6c0,1,0.1,1,0.1,2.5c-0.4,1.4-2.3,3.8-5.6,4.2
		c-3.8,0.4-7-3.4-7-4.3c0,0,0-0.1,0.1-0.2C180.4,91.2,181.8,88.1,185.3,87z"/>
	<path id="XMLID_137_" class="st6" d="M191,91c0,0,0.7,4-5.8,4.4c0,0-4.3-1.7-4.5-3.2c0,0,1.4-3.2,5-3.2S190.2,90.1,191,91z"/>
	<g id="XMLID_133_">
		
			<ellipse id="XMLID_136_" transform="matrix(-0.9958 -9.134067e-002 9.134067e-002 -0.9958 360.8876 200.4209)" class="st7" cx="185" cy="92" rx="2.8" ry="2.7"/>
		
			<ellipse id="XMLID_135_" transform="matrix(-0.9958 -9.132423e-002 9.132423e-002 -0.9958 360.7321 200.1887)" class="st8" cx="184.9" cy="91.8" rx="1.7" ry="1.7"/>
		<circle id="XMLID_134_" class="st9" cx="186" cy="90.7" r="0.5"/>
	</g>
	<path id="XMLID_132_" class="st10" d="M180.2,92.3c0,0,2,3.6,6.6,3.2c3.6-0.3,4.8-4.2,4.8-4.2l-0.7,0c0,0-1.1,3-4.8,3.1
		s-5.5-2.5-5.5-2.5L180.2,92.3z"/>
	<path id="XMLID_131_" class="st10" d="M180.2,92.3c0,0,1.9-3.2,4.6-3.7c2.7-0.5,5.3,0.5,6.9,2.7L191,92c0,0-1.5-2-5.1-2.3
		c-3.6-0.2-5.2,2.7-5.2,2.7L180.2,92.3z"/>
	<path id="XMLID_130_" class="st6" d="M165.2,115c0,0,4,0.9,8.3,1.1c3.3,0.1,6.8-0.3,8.9-1.1c0,0-1.9,5.9-6.5,6.5
		C171.2,122,166.1,117.2,165.2,115z"/>
	<path id="XMLID_129_" class="st11" d="M180.6,409.6l10.1-0.4c0,0,27.5,18.6,19.4,21.8c-7.6,2.9-15.3-5.2-25-6.8
		c-1.4-0.2-2.6-1.3-2.9-2.8L180.6,409.6z"/>
	<path id="XMLID_128_" class="st11" d="M152.2,411.4l-11.4-3.6c0,0-29.5,20.5-20.2,23.4c8.6,2.7,16.6-6.9,27.4-9.4
		c1.6-0.4,2.8-1.7,3-3.3L152.2,411.4z"/>
	<g id="XMLID_123_">
		<path id="XMLID_125_" class="st0" d="M198.6,341.6c-5.3,0.2-10.5,0.1-15.8-0.1c-2.1-0.1-4.2-0.1-6.4,0c0.3,14.7,1.1,67-0.1,70.8
			c3.2-0.2,18.3-1,20.6,0.3C196.9,412.6,194.3,363.6,198.6,341.6z"/>
		<path id="XMLID_124_" class="st12" d="M198.6,341.6c-5.3,0.2-10.5,0.1-15.8-0.1c-2.1-0.1-4.2-0.1-6.4,0c0.1,3.4,0.2,8.9,0.2,15.3
			c10.5-0.7,12.1,16.2,12.6,23.6c0.5,7.5,0.4,31.2,0.5,31.5c3.4,0,6.3,0.2,7.2,0.7C196.9,412.6,194.3,363.6,198.6,341.6z"/>
	</g>
	<g id="XMLID_118_">
		<path id="XMLID_120_" class="st0" d="M159.9,334c0-0.1,0-0.2,0-0.2c-2.4,1.1-5.2,1.3-7.9,1.4c-5,0.2-10,0.3-15-0.2
			c0,7.4-2.7,49.9-4,76.4c0,0,8.9-1.3,20.5,0.2C153.6,411.5,159.1,350.6,159.9,334z"/>
		<path id="XMLID_119_" class="st13" d="M139.1,356.5c10.7-1.1,10.2,10.6,10.2,16c0.1,7.8-1.2,27.3-3,38.4c2.2,0.1,4.7,0.3,7.3,0.6
			c0,0,5.5-61,6.4-77.5c0-0.1,0-0.2,0-0.2c-2.4,1.1-5.2,1.3-7.9,1.4c-5,0.2-10,0.3-15-0.2c0,2.7-0.6,11.2-1.1,22.8
			C136.5,357.2,138.4,356.6,139.1,356.5z"/>
	</g>
	<path id="XMLID_115_" class="st14" d="M198.2,187.4c-0.8-4.8-18.6-27-32.6-38.2c3.7-0.2,7.5-0.8,10.8-2.3c2.6-1.2,4.5-3,6.6-4.9
		c4.4,2.5,10.8,6.2,16.3,9.5c15.5,9.1,8.1,4.1,11.9,14c3.5,8.9,8.8,23.3,12.9,37.4c5.9,20.3-40.8,14.4-45.4,13.6l2.5-11.6
		c0,0,21.3,2.5,20.2-1.4C200.7,201.6,199.6,195.7,198.2,187.4z"/>
	<path id="XMLID_114_" class="st0" d="M128.7,283.1c-1.2,18.9-1.8,49-1.9,62.1c3.4,0.4,6.9,0.5,9.7,0.8c10.4,1.3,21.1,0.5,31.5,0.8
		c14.9,0.5,30,1.1,44.8-0.8c3.1-46.4,0.1-71.7-1.5-93c-1.1-15.2-14.4-82.3-14.4-82.3L180.7,143c-0.9,0.5-1.8,1-2.8,1.5
		c-4.3,3.1-10.1,4.3-15.3,3.7c-1.1-0.1-2.1-0.5-2.9-1c-3.3-0.2-6.6-0.8-9.6-2.1c-0.9,1.4-2.3,2.4-4.4,2.5c-0.5,0.1-1,0.2-1.5,0.2
		c-1.3,0-2.3-0.4-3.1-0.9l-19.6,7.3C140.5,194.4,131.7,236.6,128.7,283.1z"/>
	<linearGradient id="XMLID_250_" gradientUnits="userSpaceOnUse" x1="204.7745" y1="245.1969" x2="208.3295" y2="365.3591">
		<stop  offset="0" style="stop-color:#58C3BC"/>
		<stop  offset="0.9786" style="stop-color:#6BC8C3"/>
	</linearGradient>
	<path id="XMLID_113_" class="st15" d="M206.5,301.3c-0.3,1.7-0.9,10.8-2.2,20.8c-1.1,9.3-2.6,19.4-4.2,25c4.3-0.2,8.5-0.5,12.7-1
		c3.1-46.4,0.1-71.7-1.5-93c-0.6-8.5-5.1-32.2-7.8-52.4c-0.3,1.7-3.2,2-3.3,3c-0.8,5.1-1,10.2-1,15.4
		C199.2,225.5,212.4,263.8,206.5,301.3z"/>
	<linearGradient id="XMLID_251_" gradientUnits="userSpaceOnUse" x1="132.0228" y1="244.1093" x2="135.5473" y2="353.3701">
		<stop  offset="0" style="stop-color:#58C3BC"/>
		<stop  offset="0.9786" style="stop-color:#6BC8C3"/>
	</linearGradient>
	<path id="XMLID_112_" class="st16" d="M136.5,346c0.3,0,0.7,0.1,1,0.1c-1.9-12.2-7.9-58.5,1.8-115.1c1.3-7.7,0.7-19-5.7-24.9
		c-0.3,24.9-3.1,49.6-4.9,77c-1.2,18.9-1.8,49-1.9,62.1C130.1,345.6,133.7,345.6,136.5,346z"/>
	<path id="XMLID_109_" class="st17" d="M129.9,207.3c1.3-7.2,2.2-14.4,2.5-21.6c6,1.7,9-7.7,15.1-4.5c6.5,3.5,22.5,23.2,30.6,21.1
		c8.8-2.3,17.2-16.1,20-24.5c1.7-1.4-0.5,4.8,0.9,3.1c1.2,12.2,7.3,36.4,9.8,53.7c-6.9,4.1-13.8,7.9-21.3,10.9
		c-9.6,3.8-19.3,7.4-29.5,8.8c-5.1,0.7-10.3,0.8-15.4-0.1c-5-0.8-7.6-2.7-11.1-6.3c0,0,2-21.8,1.8-28.4
		C133.4,215.4,130.1,211.4,129.9,207.3z"/>
	<path id="XMLID_108_" class="st0" d="M164.3,148.3c4.8,0.1,9.8-1.1,13.6-3.9c1.6-0.7,3.1-1.6,4.5-2.6c4.4,2.5,21.2,5.8,26.9,9.1
		c5.4,3.2,17.7,40.4,21.2,59.2c1.3,7-5.1,16.8-12.4,17.9c-14.4,2.1-36.6-10.8-39.6-11.4l2.5-11.6c0,0,19.5,0,19.3-4
		c-0.2-4.2-1.8-11.1-1.8-13.6C198.6,167.2,178.3,159.2,164.3,148.3z"/>
	<path id="XMLID_105_" class="st18" d="M228.8,209.2c-3-17.1-14.4-51.1-19.3-54c-0.1,0-0.2-0.1-0.2-0.1c2,2.5,15.1,41.6,17.5,54.2
		c1.1,6-4,14.3-10.2,16.1C217,225.3,230.7,220.3,228.8,209.2z"/>
	<path id="XMLID_102_" class="st18" d="M183.1,216c3.6,1.1,10.7,1.2,16.4,2.3c2.5,0.5,15.1,6.8,18,9.7c-18.3,0.6-36.5-11-38.9-11.4
		l1.1-5.1C183.9,212.6,179,214.8,183.1,216z"/>
	<path id="XMLID_99_" class="st18" d="M197,174.3c0.7,0.4,6.3,11.9,9.3,24c0.6,2.4,1.6,4.7,2.1,7c0,0,0,0,0,0
		c-1.1,0.3-2.2,0.5-3.3,0.7c-3.6,0.5-7.3,0.5-10.9,0.5c-4.6,0-9.2,0.1-13.6,1.1l0.6-2.7c0,0,19.5,0,19.3-4
		c-0.2-4.2-1.5-9.4-1.8-13.6C198.5,186.5,196.9,178.4,197,174.3z"/>
	<g id="XMLID_96_">
		<path id="XMLID_98_" class="st2" d="M199,225.2c-2.4,2.7-10.6,3.6-10.6,3.6l-5.5-9.5c0,0,0.2-0.9,1.8-2.1
			C185.6,218.5,188.9,220.5,199,225.2z"/>
		<path id="XMLID_97_" class="st3" d="M199,225.2c-2.4,2.7-10.6,3.6-10.6,3.6l-5.5-9.5c0,0,0.2-0.9,1.8-2.1
			C185.6,218.5,188.9,220.5,199,225.2z"/>
	</g>
	<path id="XMLID_93_" class="st19" d="M140.8,147c1,0.3,2,0.8,3,0.5c1.3-0.3,2.6-0.9,3.7-1.6c0.8-0.5,1.5-0.9,2.3-1.3
		c0.6-0.3,1.2-0.7,1.6-1.2c4,1.7,8.9,2.9,12.6,3.1c0.8,0.5,1.8,0.9,2.9,1c5.3,0.6,11.1-0.6,15.3-3.7c1-0.4,1.9-0.9,2.8-1.5l6.1,4.4
		c9.4,13.4-8.7,22.8-15.9,23.9c-18.8,3-38.2-6.4-41.6-21.1L140.8,147z"/>
	<path id="XMLID_92_" class="st2" d="M181.2,208.3l-2.2,7.7c0,0-8.4-0.3-17.2,0c-8.8,0.3-6.1-9.9-6.1-9.9s3.4-3.1,9.6-3.2
		C169.7,202.9,175.9,205,181.2,208.3z"/>
	<path id="XMLID_91_" class="st3" d="M159.1,204.2c0.4,0.5,0.8,0.9,1.1,1.4c0.7,0.9,1.3,2,2.2,2.7c2.7,2.4,5.5,3.9,9.1,4.4
		c3.1,0.4,6-0.1,8.8-1l-1.2,4.2c0,0-8.4-0.3-17.2,0c-8.8,0.3-6.1-9.9-6.1-9.9S156.9,205.1,159.1,204.2z"/>
	<polygon id="XMLID_90_" class="st20" points="189.5,204.6 187.8,219.5 178,218 179.6,204.9 	"/>
	<path id="XMLID_89_" class="st3" d="M168.7,80.4c0,0-0.9,5-2.2,5.2c-1.2,0.2-6-0.8-8.9-0.7c-2.8,0.1-8.9,2.1-8.9,2.1
		s2.2-4.9,2.9-5.6c0.7-0.7,9.8-1.7,10.8-1.7l1.2,2.7c0,0,0.9-2.7,1.2-2.7C165,79.7,166.6,79.5,168.7,80.4z"/>
	<path id="XMLID_88_" class="st3" d="M186.1,79.1l0.5,2.3l0.3-2.2c0,0,3.8,1,4.8,1.5c0.3,0.2,0.6,0.8,0.7,1.4c0,0,0,0,0,0.1
		c0,0.4,0,0.8,0.1,1.2c0,0,0,0,0,0c0,0,0,0,0,0c-0.1,0.4-0.1,0.7-0.1,1.3c-0.5-0.3-1.3-0.8-2.9-1c-2.6-0.3-7.7,0.8-9,0.7
		c-1.3-0.1-1.7-5.1-1.7-5.1C180.1,78.5,186.1,79.1,186.1,79.1z"/>
	<path id="XMLID_87_" class="st4" d="M168.9,79.6c0,0-0.9,5-2.2,5.2s-6-0.8-8.9-0.7c-2.8,0.1-8.9,2.1-8.9,2.1s2.2-4.9,2.9-5.6
		c0.7-0.7,9.8-1.7,10.8-1.7l1.2,2.7c0,0,0.9-2.7,1.2-2.7C165.2,79,166.8,78.8,168.9,79.6z"/>
	<polygon id="XMLID_84_" class="st21" points="142.2,147.4 138.1,146.6 138.6,135.5 140.2,131.9 	"/>
	<polygon id="XMLID_81_" class="st21" points="140.8,130.3 152.5,128.7 152.5,134.1 140.1,132.1 	"/>
	<path id="XMLID_78_" class="st22" d="M152.5,128.7c0,0,18.5,15,27.3,13.5c11.4-2,17.2-6.1,17.2-6.1s-4.1,26.3-24.6,28.5
		c-20.5,2.2-34.3-18-34.3-18S152.6,146,152.5,128.7z"/>
	<path id="XMLID_75_" class="st1" d="M151.1,137.1c3.2,9,9.8,16.5,19.9,18.1c6.7,1.1,13.5,0.4,19.3-2.1c-3.7,5.6-9.4,10.7-17.9,11.6
		c-20.5,2.2-34.3-18-34.3-18S147.4,146.2,151.1,137.1z"/>
	<path id="XMLID_74_" class="st4" d="M178.6,78.7c0,0,0.4,5,1.7,5.1c1.3,0.1,6.4-1,9-0.7c2.6,0.3,3.3,1.3,3.3,1.3s-0.2-3.8-1.1-4.4
		c-1-0.6-4.8-1.5-4.8-1.5l-0.3,2.2l-0.5-2.3C185.9,78.4,179.9,77.7,178.6,78.7z"/>
	<g id="XMLID_69_">
		<path id="XMLID_73_" class="st23" d="M148.1,70c0-0.1,0-0.1,0-0.1S151,71,148.1,70z"/>
		<path id="XMLID_70_" class="st4" d="M144.8,124.2c3.7,6.1,23.7,14.5,32.5,14.5c6.6,0,16.5-11.6,19.4-17.7
			c2.9-6.2-2.5-18.4-2.5-18.4c2.2,9.1-4.9,15.7-4.9,15.7c-0.9-3.1-3.7-6.5-5.8-8.3c-2.1-1.8-8.2-1.7-12.1-1.6s-8.4,3.1-9.5,3.8
			s-3.1,6.3-3.1,6.3c-4.4-2.4-7.6-4.3-9.4-9.4c-1.8-5-2.1-13.2-2.6-19.5c-0.9-11.8,1-18.6,1.3-19.5c-0.1,0-0.2-0.1-0.4-0.1
			c-3.5-1.2-4.8,5.9-4.8,5.9C146.8,94.6,141.2,118.3,144.8,124.2z M164.4,113.7c0.4-0.8,1.3-1.3,2.2-1.2c2.4,0.2,7.7,0.8,8.6,0.6
			c0.6-0.1,2.8-0.4,4.4-0.7c1.4-0.2,3.1-0.1,3.6,1.2c0.8,2,1.1,4.9-1.6,8.3c-4.4,5.4-12.5,3.1-14.9,0
			C165.3,120.1,162.9,116.6,164.4,113.7z"/>
	</g>
	<g id="XMLID_67_">
		<path id="XMLID_68_" class="st24" d="M191.4,75.6c0,0,0.7-22.9-10.4-29c-11.1-6.1-35.2,2.4-37.6,7c-2.4,4.6-5.2,23.2-3.5,26.7
			c0,0,2.3-7.4,30.2-7.4C182.1,72.9,190.3,73.2,191.4,75.6z"/>
	</g>
	<g id="XMLID_65_">
		<path id="XMLID_66_" class="st25" d="M191.4,75.6c0,0,0.7-22.9-10.4-29c-11.1-6.1-35.2,2.4-37.6,7c-2.4,4.6-5.2,23.2-3.5,26.7
			c0,0,2.3-7.4,30.2-7.4C182.1,72.9,190.3,73.2,191.4,75.6z"/>
	</g>
	<g id="XMLID_63_" class="st26">
		<linearGradient id="XMLID_252_" gradientUnits="userSpaceOnUse" x1="196.4624" y1="60.1339" x2="129.4688" y2="65.19">
			<stop  offset="0" style="stop-color:#54C3BB"/>
			<stop  offset="1" style="stop-color:#6BC8C3"/>
		</linearGradient>
		<path id="XMLID_64_" class="st27" d="M181,46.6c-0.7-0.4-1.4-0.7-2.2-1c0.5,9.3,1,20.3-10.8,21.7c-4.5,0.5-8.9,0.5-13.2,1.9
			c-4.1,1.3-8,3.1-12,4.7c-1.2,0.5-2.3,1-3.5,1.5c-0.1,2.3,0.1,4.1,0.5,5c0,0,2.3-7.4,30.2-7.4c12.1,0,20.3,0.3,21.4,2.6
			C191.4,75.6,192.1,52.7,181,46.6z"/>
	</g>
	<g id="XMLID_59_" class="st26">
		<path id="XMLID_60_" class="st3" d="M192.9,93.9c-0.9,2.5-4.1,4.4-7.8,4.4c-4.4,0-8-2.7-8-6c0-3.3,3.6-6,8-6
			c3.3,0,6.3,1.5,7.5,3.6c0-0.7-0.1-1.4-0.1-2c-1.7-1.6-4.5-2.6-7.5-2.6c-5.1,0-9.2,3-9.4,6.8c-4-2.1-6.4-0.1-7.2,0.8
			c-0.7-3.5-4.8-6.2-9.7-6.2c-5.4,0-9.9,3.3-9.9,7.3s4.4,7.3,9.9,7.3c5.4,0,9.8-3.3,9.9-7.3c2.6-2.8,5.8-1.6,7.2-0.9
			c0.5,3.5,4.5,6.2,9.3,6.2c3.4,0,6.5-1.4,8.2-3.4C193,95.3,193,94.7,192.9,93.9z M158.7,100.3c-4.6,0-8.4-2.8-8.4-6.3
			c0-3.5,3.8-6.3,8.4-6.3c4.6,0,8.4,2.8,8.4,6.3C167.1,97.5,163.3,100.3,158.7,100.3z"/>
	</g>
	<g id="XMLID_46_">
		<g id="XMLID_51_">
			<path id="XMLID_58_" class="st0" d="M117.6,156.9c4.9-4.8,10-3.9,10-3.9c24.6,10.7,28.3,60.3,33.3,61.5c4.2,1.1,17,0.3,20.5,0.1
				c0.5,5.3,2.5,10.3,4.4,15.2c-13.8,6-36.1,8.3-41.7,8.7c-3.6,0.3-8.3,0.5-10.1-2.6C121.4,215.1,111.9,162.5,117.6,156.9z"/>
			<path id="XMLID_55_" class="st18" d="M184.6,221.5c-2.2,0.9-26.9-2.3-28.9-5.4c-0.8-1.3-7.1-28.8-8-38.8
				c7.4,17.2,10,36.5,13.1,37.3c3.4,0.9,12.2,0.5,17.5,0.3C178.2,214.8,184.7,221.4,184.6,221.5z"/>
			<path id="XMLID_52_" class="st0" d="M117.6,156.9c0,0,2,49.9,22.3,73.8c4.4,5.2,20.3,2.6,27.1,1.9c6.4-0.6,12.3-1.9,17.7-5.4
				c0.7-0.5,1.5-1,2.2-1.5c0.1,0.1,0.2,0.3,0.3,0.4c0.1,0.1,0.2,0.3,0.2,0.5c0,0,0,0,0,0c0.2,0.7,0.5,1.3,0.9,1.9
				c-13.4,6.7-38.3,9.4-44.3,9.9c-3.6,0.3-8.3,0.5-10.1-2.6C121.4,215.1,111.9,162.5,117.6,156.9z"/>
		</g>
		<polygon id="XMLID_50_" class="st20" points="183.8,231.3 176.6,214.9 185.4,213.6 191.7,228.5 		"/>
		<path id="XMLID_49_" class="st28" d="M187.8,219.1c0,0-0.3-0.2-0.3-0.3c-1.8-1-6.2-2.9-7-3.2c-0.9-0.3-1.8-0.6-2.7-0.9l-1.1,0.2
			l3.6,8.2c3-0.1,6.1-0.4,9.1-0.4C189.2,222.4,188.1,219.9,187.8,219.1z"/>
		<path id="XMLID_48_" class="st18" d="M151.9,221.6c0,0,3.1-5.1,8.3-6.1c0,0-6.9,0-13.4,5.3C143.3,223.7,151.9,221.6,151.9,221.6z"
			/>
		<path id="XMLID_47_" class="st18" d="M148.6,217.3c0,0,6.1-3.8,11.3-2.6c0,0-4-2.3-15.7,1.3C139.8,217.3,148.6,217.3,148.6,217.3z
			"/>
	</g>
	<path id="XMLID_45_" class="st18" d="M210.1,207.5c0,0-4.2-3.5-9.8-3.4c0,0,7.1-1.1,14.8,2.1C219.3,207.9,210.1,207.5,210.1,207.5z
		"/>
	<path id="XMLID_44_" class="st18" d="M212.6,203.7c0,0-5.7-1.9-10.8-0.1c0,0,6.3-2,15-1.6C221.5,202.3,212.6,203.7,212.6,203.7z"/>
	<path id="XMLID_43_" class="st29" d="M177,81.1c0,0-1.7,4.7-1.7,5.9c0,1.2,6.4,17.9,6.7,19.3c0.3,1.3-1.3,5.9-12.1,3
		c0,0-2.3-1.3-2.4-3.6c-0.1-2,1.8-3.5,3.8-3c0.7,0.2,1.2,0.6,1.1,1.6c0,0-0.2,0.4-1.3,0.1c-1.2-0.3-2.2,1-1.5,2
		c0.2,0.3,0.5,0.5,1,0.7c2.3,1,8.5,1.6,9-0.7c0.5-2.3-5.5-17.4-5.5-19.3C173.9,85.2,177.1,79.2,177,81.1z"/>
	<g id="XMLID_6_">
		<path id="XMLID_7_" class="st30" d="M150.4,92.8c0,4,4.4,7.3,9.9,7.3c5.4,0,9.8-3.3,9.9-7.3c2.6-2.8,5.8-1.6,7.2-0.9
			c0.5,3.5,4.5,6.2,9.3,6.2c5.2,0,9.4-3.1,9.4-7c0-3.9-4.2-7-9.4-7c-5.1,0-9.2,3-9.4,6.8c-4-2.1-6.4-0.1-7.2,0.8
			c-0.7-3.5-4.8-6.2-9.7-6.2C154.8,85.5,150.4,88.8,150.4,92.8z M178.5,91.2c0-3.3,3.6-6,8-6s8,2.7,8,6c0,3.3-3.6,6-8,6
			S178.5,94.5,178.5,91.2z M151.8,92.8c0-3.5,3.8-6.3,8.4-6.3c4.6,0,8.4,2.8,8.4,6.3c0,3.5-3.8,6.3-8.4,6.3
			C155.6,99.1,151.8,96.3,151.8,92.8z"/>
	</g>
	
		<radialGradient id="XMLID_253_" cx="130.1905" cy="2282.573" r="6.1749" gradientTransform="matrix(0.9824 0.1869 -0.1466 0.771 363.7527 -1677.9423)" gradientUnits="userSpaceOnUse">
		<stop  offset="0" style="stop-color:#F9AA88"/>
		<stop  offset="0.3549" style="stop-color:#F9AD89"/>
		<stop  offset="0.631" style="stop-color:#FAB48B"/>
		<stop  offset="0.8803" style="stop-color:#FCC190"/>
		<stop  offset="0.8984" style="stop-color:#FCC290"/>
	</radialGradient>
	<path id="XMLID_5_" class="st31" d="M163.8,107.5c-0.5,2.5-3.9,3.9-7.6,3.2c-3.7-0.7-6.3-3.3-5.9-5.7c0.5-2.5,3.9-3.9,7.6-3.2
		C161.6,102.5,164.2,105.1,163.8,107.5z"/>
	
		<radialGradient id="XMLID_254_" cx="207.3499" cy="2361.9968" r="5.5896" gradientTransform="matrix(0.9575 -0.1596 0.129 0.7741 -315.6474 -1691.748)" gradientUnits="userSpaceOnUse">
		<stop  offset="0" style="stop-color:#F9AA88"/>
		<stop  offset="0.3549" style="stop-color:#F9AD89"/>
		<stop  offset="0.631" style="stop-color:#FAB48B"/>
		<stop  offset="0.8803" style="stop-color:#FCC190"/>
		<stop  offset="0.8984" style="stop-color:#FCC290"/>
	</radialGradient>
	<path id="XMLID_4_" class="st32" d="M193.5,102.6c0.4,2.2-2,4.5-5.3,5c-3.3,0.5-6.2-0.8-6.6-3c-0.4-2.2,2-4.5,5.3-5
		C190.2,99,193.2,100.4,193.5,102.6z"/>
</g>
<g id="XMLID_9_">
	<g id="XMLID_247_">
		<path id="XMLID_249_" class="st2" d="M397.9,293.2c0,0,12.5,8,6.8,8.6c-5.7,0.6-11.5-5.5-11.5-5.5L397.9,293.2z"/>
		<path id="XMLID_248_" class="st3" d="M397.9,293.2c0,0,12.5,8,6.8,8.6c-5.7,0.6-11.5-5.5-11.5-5.5L397.9,293.2z"/>
	</g>
	<path id="XMLID_246_" class="st33" d="M246.9,156.9c0,0,9,6.8,17.4-1.6C264.3,155.3,253.3,153.7,246.9,156.9z"/>
	<path id="XMLID_245_" class="st2" d="M251,165c0,0,1.4-16,0.7-17.5c-0.8-1.4,7,1.1,7,1.1s0.6,12.9,1.4,15
		C260.8,165.7,251,165,251,165z"/>
	<path id="XMLID_244_" class="st3" d="M260,163.6c-0.5-1.3-0.9-6.7-1.1-10.6c-0.1,0-0.1,0.1-0.2,0.1c-1.3,1.1-2.7,1.7-4.2,2
		c0.1,3.3,0.2,6.7,0.2,10C257.5,165.1,260.5,164.8,260,163.6z"/>
	<path id="XMLID_243_" class="st2" d="M255.5,151.4c0,0,2,0.8,4.5-1.1c2.5-2,5.1-4.9,6.7-5.6c1.6-0.7-1.8-6.9,3.3-14.2
		c0,0-1.6-8.3-3.4-9.7c-1.9-1.5-2.6,1.1-1.6,9.9c0,0,0.4,5-3.7,6.1c-4.1,1.1-0.4-9.9-1.3-12.9c-0.9-3-7.9-3.4-9.5,0.1
		c-1.6,3.5-2.8,12.8-1.5,16.1C250.4,143.5,251.3,150.3,255.5,151.4z"/>
	<path id="XMLID_242_" class="st2" d="M255.5,151.4c0,0-2.3,3-7.6-2.4c0,0-4.3-14.3-5.4-17.6c-1.1-3.3,6.8-5.9,6.8-5.9
		s7.7,6.7,7.6,15.6C256.9,150.2,255.5,151.4,255.5,151.4z"/>
	<path id="XMLID_241_" class="st3" d="M255.5,140.5c0.7,0,3-0.1,5.3-1.4c-0.6-8.3-11.5-13.5-11.5-13.5s-0.2,0.1-0.4,0.2
		c-0.2,2.6-0.5,4.9-0.3,7.2c0.2,1.7,0.8,3.3,1.7,4.8C251.2,138.9,253.8,140.4,255.5,140.5z"/>
	<path id="XMLID_240_" class="st2" d="M255.2,118.6c0,0,0.3-4.7,4.6-4.1c0,0,5.4,6.2,4.3,8.6c-1.1,2.4-3.9-1.2-6.2-5.2l0.1,2.1
		C258.1,120,255.6,119.9,255.2,118.6z"/>
	<path id="XMLID_239_" class="st3" d="M258.5,118.7c-0.6-1.3-0.8-2.6-0.8-4c-2.2,0.9-2.5,3.8-2.5,3.8c0.4,1.3,2.9,1.4,2.9,1.4
		l-0.1-2.1c0.2,0.3,0.4,0.7,0.6,1C258.5,118.9,258.5,118.8,258.5,118.7z"/>
	<path id="XMLID_238_" class="st2" d="M250.2,122.2l-0.4-1.9c0,0,1.6-6,3.6-5.8c2,0.2,0,9.7,0,9.7L250.2,122.2z"/>
	<path id="XMLID_237_" class="st3" d="M250.2,122.2l-0.4-1.9c0,0,1.6-6,3.6-5.8c2,0.2,0,9.7,0,9.7L250.2,122.2z"/>
	<path id="XMLID_236_" class="st2" d="M251.2,117c0,0,7.1,9.8,8.4,8c1.2-1.8-2.1-8.2-5.7-10.8C252.2,113.1,250.5,116.7,251.2,117z"
		/>
	<path id="XMLID_235_" class="st2" d="M245.8,125.8c0,0,1.4-4.4,1.6-5.1c0.2-0.7,5.2,7.7,5.2,7.7S245.9,125.3,245.8,125.8z"/>
	<path id="XMLID_234_" class="st3" d="M245.8,125.8c0,0,1.4-4.4,1.6-5.1c0.2-0.7,5.2,7.7,5.2,7.7S245.9,125.3,245.8,125.8z"/>
	<path id="XMLID_233_" class="st2" d="M256.4,129.4c0,0-0.7-4.5-1.4-5c-0.8-0.4-4.5-5.2-5.2-5.3c-0.7-0.1-3.3,0.6-2.7,2.5
		c0.6,2,3.6,4,4.6,4.3c1,0.3,1.4,6.5,3.6,6.1C257.4,131.7,256.4,129.4,256.4,129.4z"/>
	<path id="XMLID_232_" class="st2" d="M242.5,130.6c0,0,0.9-5.3,2.9-5.3c2-0.1,5.4,0.6,5.9,1c0.6,0.4,2.9,5.7,4.1,6.7
		c1.2,1-4.5,3.4-6.2-3.1c0,0-2.3,0.2-2.6-0.1c-0.3-0.3,1.2,2,1.2,2.4C247.7,132.5,242.7,132.9,242.5,130.6z"/>
	<g id="XMLID_229_" class="st26">
		<path id="XMLID_231_" class="st34" d="M252.9,119.3c2.2,2.8,5.8,6.9,6.6,5.7c0.7-1-0.1-3.5-1.5-5.9l-0.1-1.2
			c2.3,4,5.1,7.6,6.2,5.2c0.8-1.7-1.7-5.3-3.2-7.2C258,116.1,254.9,117.2,252.9,119.3z"/>
		<path id="XMLID_230_" class="st34" d="M254.9,124.4c-0.4-0.3-1.9-2-3.2-3.4c-0.8,1.6-1,3-1,4.5c0.4,0.2,0.7,0.4,0.9,0.5
			c0.4,0.2,0.8,1.5,1.2,2.9c-0.7-1.3-1.3-2.5-1.6-2.6c-0.1-0.1-0.3-0.1-0.6-0.2c0.1,2.5,0.8,4.9,1,7.7c2.1,1.2,4.5-0.1,3.6-0.8
			c-0.2-0.2-0.4-0.5-0.7-0.8c0.2,0.1,0.3,0.1,0.5,0c2.2-0.4,1.1-2.7,1.1-2.7S255.7,124.9,254.9,124.4z"/>
	</g>
	<path id="XMLID_228_" class="st3" d="M257,141.4c-0.6-1.1-1.5-2-2.2-3.2c0.5,0.7,1.8,4.5,1.9,5c0.7,2.4,0.5,5.9-1.2,8.4
		c0.1-0.1,0.1-0.1,0.1-0.1S259.8,148.8,257,141.4z"/>
	<path id="XMLID_227_" class="st3" d="M269.7,130.6c0,0-1.5-8-3.3-9.5c-1.8-1.4-2.6,1.1-1.5,9.6c0,0,0.4,4.9-3.6,6
		c-2.1,0.6-2.1-2.2-1.7-5.3c-1,0.2-1.9,1.1-1.7,3.3c0.4,5,5.2,2.5,6.7,0.8c1.5-1.8-1.5,5-1.5,5s-1.3,1.1-2.5,1.5
		c-0.2,1.2-0.8,2.3-1.9,3c-0.3,0.2-0.6,0.4-0.9,0.6c0,0,0,0,0,0.1c0,0.1,0,0.3-0.1,0.5c0,0.7-0.1,1.5-0.3,2.1
		c-0.2,0.7-0.4,1.4-0.8,2c-0.2,0.3-0.4,0.6-0.7,0.8c0.9,0.1,2.5,0,4.1-1.3c2.4-1.9,5-4.7,6.5-5.4
		C268.1,143.7,264.7,137.7,269.7,130.6z"/>
	<path id="XMLID_226_" class="st3" d="M255.4,132.9c-0.3-0.2-0.5-0.6-0.9-1c-0.3,0.4-0.9,0.6-2.1,0.3c-2.7-0.7-3.3-3.5-3.3-3.5
		s-2.4,0.3-3.4-0.5c0,0,0.2,2.2-0.3,2.9c-0.3,0.4,0.8,0.3,1.9,0.2c-0.4-0.8-1-1.8-0.8-1.6c0.3,0.3,2.6,0.1,2.6,0.1
		C250.9,136.3,256.7,133.8,255.4,132.9z"/>
	<path id="XMLID_225_" class="st2" d="M345.7,113.3c-2.6,2.8-6.2,4.9-9.4,6.9c-0.9,0.6-1.7,1.1-2.6,1.6c0,0,0,0,0,0
		c-5.6,3.7-11.1,1.7-18.1,2.7c-1.1,8.3-4.2,25.3-7.1,28.8c-5.6,7,42.5-3.1,42.5-3.1S343.9,134.6,345.7,113.3z"/>
	<path id="XMLID_224_" class="st3" d="M319.5,139.5c9.9-2.6,20.7,3.4,21.8,5.7c1,2,1.5,4.2,2.3,6.3c4.4-0.8,7.3-1.5,7.3-1.5
		s-7.1-15.6-5.3-36.8c-2.6,2.8-6.2,4.9-9.4,6.9c-0.9,0.6-1.7,1.1-2.6,1.6c0,0,0,0,0,0c-5.6,3.7-11.1,1.7-18.1,2.7
		c-0.5,3.7-2.6,15.2-3.5,18.7C315,140.7,317.2,140.1,319.5,139.5z"/>
	<path id="XMLID_223_" class="st2" d="M360,86.7c-2.6-3.8-8.9,2-11.3,4.5c0.3,4.6-0.3,9.7-1.1,14.5c0,0.4,0,0.8,0,1.2
		c0.8,0,1.7,0.1,2.8,0C359.3,106.5,363.3,91.4,360,86.7z"/>
	<path id="XMLID_222_" class="st2" d="M300.1,105c0.8-6.2,1.1-12.3,3.6-27.8c3.7-22.8,31-14.6,31-14.6c12.9,2.8,14.4,9.2,16,14.8
		c1.6,5.5-2.3,34-5.4,41c-4.1,9.3-17.4,14.8-24.1,16.2c-3.1,0.7-6.5,0.1-8.8-2.1C307,127,300.6,116.3,300.1,105z"/>
	<path id="XMLID_221_" class="st3" d="M317,133.7c1.2,0.1,2.5,0.1,3.7-0.2c6.7-1.5,20-6.9,24.1-16.2c0.7-1.6,1.5-4.4,2.2-7.7
		c-1.2,2.3-7,10.1-11.1,13.5C328.1,129.7,318.3,133.5,317,133.7z"/>
	<path id="XMLID_220_" class="st3" d="M351,87.6c0.3-4.8,0.3-8.6-0.2-10.2c-1.6-5.5-3.1-12-16-14.8c0,0-27.3-8.2-31,14.6
		c-0.2,1.1-0.4,2.3-0.5,3.3c3.1-2.7,2-0.2,6-0.6c5.5-0.5,9.5-1.4,12.8-3.4c11.2-6.7,19.2-9.4,19.2-9C339.2,77.9,350.1,86.2,351,87.6
		z"/>
	<path id="XMLID_219_" class="st3" d="M315.6,79.1c-0.1,0.1-0.2,0.2-0.3,0.4c-1.1,1.1-2.4,1.7-4,1.8c-0.3,0-0.7,0.1-1,0.1l-0.2,0.4
		c0,0-0.1-0.2-0.1-0.4c0,0-0.1,0-0.1,0c-0.2,0-0.3,0-0.5,0c-0.3,0-0.5,0.1-0.8,0.1c-0.5-0.1-1-0.1-1.5-0.2c-0.9-0.2-1.8-0.7-2.5-1.4
		c-1.5,0.9-2.8,2.4-2.6,5.2c0,0,6-1.7,12.5-0.4c0,0,1.6-3.4,1.2-5.4C315.8,79.2,315.7,79.2,315.6,79.1z"/>
	<path id="XMLID_218_" class="st3" d="M327.1,84.9c0,0-1.1-5.4,0-6.2c1.1-0.8,4.4,0,4.4,0l0.4,3.5l2.2-3.8c0,0,6.6,0.5,7.8,1.8
		c1.1,1.2,4.2,5,4.2,6.3c0,0.3-3.8-1.5-9-2C334.1,84,330.5,84.4,327.1,84.9z"/>
	<path id="XMLID_217_" class="st35" d="M327,84c0,0-1.2-5.2,0-5.6c0.7-0.2,4.4,0,4.4,0l0.4,3.2L334,78c0,0,6.6,0.5,7.8,1.6
		c1.1,1.1,4.2,4.6,4.2,5.7c0,0.3-3.8-1.3-9-1.9C334,83.2,330.4,83.6,327,84z"/>
	<path id="XMLID_216_" class="st3" d="M343.8,90.2c-2.3-2-3.6-3.1-4.9-3.8c-3-1.7-5.7-1.4-8.1-0.6c-3.7,1.2-4.3,5.6-4.5,6.4
		c-0.1,0.2,0.4,1.5,0.7,1.9c1,1.6,3.8,4.2,8.2,3.6C342.6,96.7,343.8,90.2,343.8,90.2z"/>
	<path id="XMLID_215_" class="st6" d="M327,92.1c0,0,3-4.1,7.5-3.7c4.6,0.4,6.6,4.2,6.6,4.2s-1.2,2.6-5,3.4
		C332.4,96.8,327.8,95.4,327,92.1z"/>
	<g id="XMLID_211_">
		<ellipse id="XMLID_214_" class="st36" cx="334.2" cy="92.1" rx="3.6" ry="3.5"/>
		<ellipse id="XMLID_213_" class="st8" cx="334.2" cy="91.9" rx="2.2" ry="2.1"/>
		<circle id="XMLID_212_" class="st9" cx="332.6" cy="90.7" r="0.7"/>
	</g>
	<path id="XMLID_210_" class="st10" d="M326.5,91.9c0,0,1.5-1.7,3.5-2.7c2.8-1.5,6.9-2.1,12.4,2.9l-1.3,0.9c0,0-2.1-3.4-6.9-3.7
		c0,0-4.5-0.1-7.2,3.1L326.5,91.9z"/>
	<path id="XMLID_209_" class="st10" d="M341.2,92.4c-0.4,0-2.8,4-9.1,3c-3.6-0.6-4.8-3.2-4.8-3.2l-0.8-0.2c0.1,1.1,3.2,5.7,8.6,4.7
		c4.5-0.8,6.7-3.6,7.3-4.5C342.1,92.3,341.7,92.4,341.2,92.4z"/>
	<path id="XMLID_208_" class="st3" d="M311,85.4c-2.4-1.1-6.5,0.4-8.9,2.3c-0.1,1.1-0.2,1.2-0.4,3c0.3,1.7,2.3,4.8,6.1,5.5
		c4.4,0.9,8.6-3.3,8.7-4.3c0,0,0-0.1-0.1-0.3C316.2,91,314.9,87.2,311,85.4z"/>
	<path id="XMLID_207_" class="st6" d="M303.7,89.8c0,0-0.8,4.7,6.9,5.1c0,0,4.9-1.3,5.1-3.1c0,0-1.5-4.5-5.7-4.5
		C305.7,87.5,304.6,88.7,303.7,89.8z"/>
	<g id="XMLID_203_">
		<ellipse id="XMLID_206_" class="st36" cx="310.3" cy="91.2" rx="3.3" ry="3.3"/>
		<ellipse id="XMLID_205_" class="st8" cx="310.4" cy="91.1" rx="2.1" ry="2.1"/>
		<circle id="XMLID_204_" class="st9" cx="309.2" cy="89.7" r="0.6"/>
	</g>
	<path id="XMLID_202_" class="st10" d="M316.4,92.2c0,0-2.7,4-8.1,3c-4.2-0.8-5.2-5.4-5.2-5.4l0.8,0.1c0,0,1,3.7,5.3,4.2
		c4.3,0.5,6.7-2.3,6.7-2.3L316.4,92.2z"/>
	<path id="XMLID_201_" class="st10" d="M316.4,92.2c0,0-1.9-4-5-4.8c-3.1-0.8-6.3,0-8.4,2.4l0.6,0.9c0,0,2-2.2,6.2-2.1
		c4.2,0.1,5.8,3.8,5.8,3.8L316.4,92.2z"/>
	<path id="XMLID_200_" class="st37" d="M323.3,112.6c-0.2,0-0.4,0.1-0.6,0.1c-1,0.2-2,0.5-3.1,0.6c-2.1,0.1-2.8-1.3-4.6-2.2
		c0.6,2.7,2.6,3.5,4.4,4.1c1.7,0.5,4.4-1.4,5-2.8C324.5,112.2,324.3,112.4,323.3,112.6z"/>
	<path id="XMLID_199_" class="st29" d="M318.1,84.3c0,0-1,8.1-2.3,15.5c-0.7,4-1.5,6.8-2.1,10.1c-0.9,5.1,13.1,4.2,13.3,1.5
		c0.1-2.2-0.9-4.6-3.1-4.2c-0.5,0.1-1,0.1-1.1,0.7c0,0-0.2,0.8,1.1,0.9c1.5,0.2,2.5,2.5-1.1,2.7c-2.7,0.2-7.7,0.5-7.4-2.3
		C315.5,107.9,321.1,83.5,318.1,84.3z"/>
	<path id="XMLID_198_" class="st35" d="M359.3,62.7c-2.2-0.8-4.3-1.1-6.3-1.1c-6.3,0.1-10.9,3.4-10.9,3.4s-1.7,8.7,4.6,14.8
		c4.7,4.6,4.6,8.6,4.2,10.3c0.4-1.3,1.8-3,4.1-3.7c1.4-0.4,2.8-0.5,5.2,0.5C360.2,86.9,367,65.5,359.3,62.7z"/>
	<path id="XMLID_197_" class="st6" d="M329.7,115.2c0,0-4.2,1.5-8.7,1.8c-3.4,0.2-7.9-0.5-10.1-1.8c0,0,3.2,7.2,8.1,8.1
		C323.8,124.2,328.7,118.6,329.7,115.2z"/>
	<path id="XMLID_196_" class="st11" d="M315.5,405.8l-11.7,0.4c0,0-25.7,17.7-17.1,18.8c8,1,17.5-5.5,26.6-9.4
		c1.3-0.6,2.2-1.9,2.2-3.4V405.8z"/>
	<path id="XMLID_195_" class="st0" d="M322.8,302.1c-5.3,0.2-13.4,0.2-18.6,0.1c-2.1-0.1-4.7-0.1-6.8-0.1
		c0.3,14.7,1.5,101.6,0.4,105.3c6,1.2,16.1,0.9,21.3,0.3c0,0-0.6-43.2,1-75.7C320.7,319.3,321.6,308.2,322.8,302.1z"/>
	<path id="XMLID_194_" class="st38" d="M320.1,332c0.4-8.7,1-16.7,1.7-22.8c0.3-2.9,0.5-5.3,0.9-6.9c-5.3,0.2-13.2-0.1-18.5-0.3
		c-2.1-0.1-4.7-0.1-6.8-0.1c0,2.1,0.1,6.5,0.2,11.2c0,1.3,0,2.7,0.1,4.1c0,3.4,0.1,6.6,0.1,8.8c14.9-3.6,12.4,41,12.9,48.4
		c0.3,3.7,0.4,14.7,0.5,21.8l-12.9,1c0,3.9,0,3.9-0.1,4.2c-0.1,3.3-0.2,5.3-0.3,5.9c6,1.2,16.1,0.9,21.3,0.3
		C319.1,407.7,318.4,364.5,320.1,332z"/>
	<path id="XMLID_193_" class="st0" d="M297.4,398.8l-0.4,8.5c0,0,5.1,2.3,22.8,1l0.2-8.4C320,399.9,304.8,399.2,297.4,398.8z"/>
	<path id="XMLID_192_" class="st11" d="M336.6,405.8l11.7,0.4c0,0,25.7,17.7,17.1,18.8c-8,1-17.5-5.5-26.6-9.4
		c-1.3-0.6-2.2-1.9-2.2-3.4V405.8z"/>
	<path id="XMLID_191_" class="st0" d="M355.4,301.8c-5.3,0.3-13.4,0.5-18.6,0.5c-2.1,0-4.7,0-6.8,0.1c0.6,14.7,3.8,101.5,2.7,105.3
		c6,1,16.1,0.6,21.3-0.2c0,0-1.6-43.2-0.7-75.7C353.7,319.1,354.3,308,355.4,301.8z"/>
	<path id="XMLID_190_" class="st38" d="M353.3,331.8c0.2-8.7,0.6-16.7,1.2-22.8c0.2-2.9,0.4-5.3,0.7-6.9c-5.3,0.3-13.2,0.2-18.5,0.2
		c-2.1,0-4.7,0-6.8,0.1c0.1,2.1,0.2,6.5,0.4,11.1c0,1.3,0.1,2.6,0.2,4.1c0.1,3.4,0.2,6.6,0.3,8.8c14.8-3.9,11.5,62.4,11.7,69.5
		l-9.7,1.7c0.1,3.9,0.1,3.9,0,4.2c0,3.3-0.1,5.4-0.2,5.9c6,1,16.1,0.6,21.3-0.2C354,407.5,352.4,364.3,353.3,331.8z"/>
	<path id="XMLID_189_" class="st0" d="M354.8,398.8l0.4,8.5c0,0-5.1,2.3-22.8,1l-0.2-8.4C332.2,399.9,347.4,399.2,354.8,398.8z"/>
	<path id="XMLID_188_" class="st0" d="M293.9,246.3c-1.4,8.3-3.5,44.1-4.1,67.9c8.1,2,57.5,2.5,69.9-0.1c0.1-24.4-1.7-55.6-6.4-86.5
		c-1.8-12,3.5-20.8,5.3-30.4c4.8-25.5,13.6-41.8,13.6-41.8c-3-2.3-23.7-13.6-23.7-13.6c0,6.2-26.4,15.5-37,1.9c0,0-14.3,5-18.4,6.3
		c-0.4,0.1-3.7,1-4,1.8c-4.3,11.5-7.6,18.8-0.7,34.7C293.2,197.5,296.2,232.5,293.9,246.3z"/>
	<path id="XMLID_187_" class="st39" d="M293.9,246.3c-1.4,8.3-3.5,44.1-4.1,67.9c1.2-0.2,2.2,0.7,3.4,0.6c-0.3-28,4.9-57.3,4.8-67.6
		c-0.1-9.4,4-14.9,2.9-24.3c-0.7-6.3-5.9-14.3-7.9-43.8c0,4.6-0.3,9.5-2.5,13.1C294.1,206.8,295.9,234.6,293.9,246.3z"/>
	<path id="XMLID_186_" class="st39" d="M344.1,289.5c-0.3,2.4-2.1,14.5-3.9,25.7c6.6,0,13.8,0.1,19.5-1.1
		c0.1-22.7-1.9-53.4-4.8-74.6c-0.5-4-1-7.9-1.6-11.9c-1.8-12,3.5-20.8,5.3-30.4c0.4-2.2,1.5-5.8,1.9-7.8
		c-2.1,1.8-14.1,19.7-15.2,24.4c-2.5,10.9-2.6,22.2-2.1,33.4C343.6,257.5,345,280.6,344.1,289.5z"/>
	<path id="XMLID_185_" class="st35" d="M315.7,78.9c0,0-5.2,0.1-6.3-0.3l-0.6,2.6l-0.5-2.7c-1.9,0.1-6.7,0.9-6.4,5.7
		c0,0,6-1.5,12.5-0.4C314.5,83.7,316.1,80.6,315.7,78.9z"/>
	<path id="XMLID_184_" class="st5" d="M358,90.9c0.1,0.1,0.2,0.3,0.4,0.3c0.3,0.1,0.7-0.1,0.8-0.4c0.1-0.3-0.1-0.7-0.3-1
		c-1-1.7-3.7-0.1-4.7,0.7c-3.2,2.6-3.5,6.8-2.6,9.7c1.1,3.6,5.7-1.3,4-4c-0.6-0.9-1.2-2-1.1-3.1c0.1-1.1,1.3-2.3,2.4-2.6
		c0.3-0.1,0.6-0.1,0.8,0.1C357.9,90.6,357.9,90.8,358,90.9z"/>
	<path id="XMLID_183_" class="st0" d="M289.7,151.2c-3.5,1-6.5,3.2-8.4,6.4c-9.7,16.3-11.9,41.7-15.6,56.6c-3.2,12.8-3.5,18-3.5,18
		s12.1-8.5,29.1-36.2C291.3,196,296.2,173.4,289.7,151.2z"/>
	<path id="XMLID_182_" class="st39" d="M275.5,212.8c-1.9,3.4-7.6,10.7-12.6,13.9c-0.7,3.8-0.8,5.6-0.8,5.6s12.1-8.5,29.1-36.2
		c0,0,1.6-7.5,1.8-18C287.4,195.8,285.2,195.5,275.5,212.8z"/>
	<path id="XMLID_181_" class="st0" d="M246.9,156.9c0,0,7.6,2.1,17.4-1.6c0,0,3.9,22.1,4,43.7c0.1,25.3-3.8,32.8-6.1,33.2
		C249.9,234.8,246.9,156.9,246.9,156.9z"/>
	<path id="XMLID_180_" class="st40" d="M263.1,161.1c0.6,4.7,1.5,21.2,1.6,36.5c0.1,21.5-2.6,27.9-4.1,28.3
		c-6.9,1.8-10.6-39.4-11.3-53.2c-0.1-1.7-0.3-3.4-0.5-5.1c-0.4-3-0.7-6.4-1.6-6.6c0.9,17.7,4.6,73.3,15,71.2c2.3-0.5,6.2-8,6.1-33.2
		c-0.1-15.7-2.8-36.1-4-43.7C263.5,156.1,262.8,157.9,263.1,161.1z"/>
	<path id="XMLID_179_" class="st0" d="M389.9,227.2c0-6.9-8.9-58.6-11.5-63.7c-1.5-2.9-2.2-5.6-6.2-8.2c-5.5,10.1-4.6,8.5-7.9,17.6
		c-3,8.2-4.7,20-4.7,20c2.3,16.8,20.6,79.1,24.3,87.4l12.2-3.3C396,277.1,390,232.3,389.9,227.2z"/>
	<path id="XMLID_178_" class="st39" d="M388,228.7c0-6.9-7.9-59.2-11.5-63.7c-0.7-0.8-2.1-3-3.6-4.3c0.6,2,1.8,4.8,2.3,6.8
		c0.1,0.4,8.6,29.4,10.4,61.8c0.3,4.8,5.6,46.4,6.1,49.6l-1.7,0.5c0,0,0,0.1,0,0.1l4.2-1.2C393.6,275.1,388,233.6,388,228.7z"/>
	<path id="XMLID_177_" class="st39" d="M382.5,270.1c-1.4-8.8-4.5-15.9-7.2-24.5c-3.8-11.9-5.1-25.1-9.7-36.7
		c-2.2-5.5-4.2-10.9-5.8-16.4c-0.1,0.3-0.1,0.5-0.1,0.5c2.3,16.8,20.6,79.1,24.3,87.4l1.5-0.4C383.5,277.1,382.9,272.7,382.5,270.1z
		"/>
	<path id="XMLID_176_" class="st39" d="M390.1,230c-2,4.2-5.7,7.2-8.3,8.9c-1.5,1-7.8,3-10.5,1.2c5.3,18.8,10.5,35.7,12.6,40.2
		l12.2-3.3C396,277.1,391.2,241.1,390.1,230z"/>
	<path id="XMLID_175_" class="st41" d="M385.7,278c-0.2,3.3,0.4,6.8,0.4,10.1c0,3.1,0.6,5.9,0.9,8.9c0.2,1.7,0.2,2.8,2,3.3
		c1.3,0.4,4.7,0.4,6.1,0c3.9-1,2.2-7.5,1.3-10.3c-0.7-2.1-2.3-3.9-3.4-5.9c-1.3-2.4-1.5-4.3-1.6-7
		C389.6,277.3,387.5,277.6,385.7,278z"/>
	<g id="XMLID_170_">
		<path id="XMLID_174_" class="st42" d="M397.9,238l-42.3,8.2c0,0,8.1,41.1,10.1,56.9l2.4,1.4c0,0,36.2-8.4,42.1-8.7l-9.5-56.7
			L397.9,238z"/>
		<path id="XMLID_173_" class="st43" d="M400.6,239.3l-42.5,8.4c0,0,10.2,51.9,10,56.9c0,0,36.3-8.2,42.1-8.5L400.6,239.3z"/>
		<path id="XMLID_172_" class="st44" d="M378.4,272.6c4-4.7,7.7-9.7,11.6-14.6c3.5-4.4,6.7-9.6,10.8-13.4c0.2-0.2,0.4-0.3,0.6-0.4
			l-0.8-4.9l-42.5,8.4c0,0,4.5,22.7,7.4,39.5C369.8,282.3,374.2,277.5,378.4,272.6z"/>
		<path id="XMLID_171_" class="st44" d="M403.4,255.9l-1-6.1c-3.2,3.5-30.5,37.1-35.8,43.5c0.6,3.3,1,6.2,1.3,8.2
			C374.9,292.8,403.4,255.9,403.4,255.9z"/>
	</g>
	<g id="XMLID_163_">
		<path id="XMLID_169_" class="st2" d="M380,306.4c1,1,1.7,1.3,2.3,1.2c1.1-0.2,1.3-1.3,1.7-1.1c1.1,0.7,1.6,0.9,2.7,0.2
			c0.4-0.3,0.9-1.5,1.4-1.4c0.8,0.1,1.4,1,2.6,0.6c1-0.4,1.2-1.1,1.7-1.7c0.6-0.9,1.9,0.1,3,0c0.2,0,0.4,0,0.6-0.1
			c2.2-0.4,1.9-1.4,2.6-3.5c0.3-0.8,0.3-1.7,0.3-2.7c0,0-2,0.6-2.7,0.4c-2.6-0.8-4-8.2-5.1-10.3c-1.8-3.3-5-1.2-2.9,4.4
			c1,2.7,2.7,7.9,2.7,7.9c-1.8-1.5-3.5-13.3-6.7-14c-4.9-1,1.8,13.5,1.9,15.1c-0.6,0.5-3.1-11.6-5.9-12.8
			c-5.2-1.5,1.2,11.6,1.7,13.1c-0.5,0.5-2.4-5.8-4.2-8.1c-0.8-1-1.8-1.1-2.2,0c-0.2,0.5,0,4.2,1.2,6.6
			C378,303,378.9,305.2,380,306.4z"/>
		<path id="XMLID_168_" class="st3" d="M396.1,298.4c-0.2-0.1-0.4-0.2-0.7-0.4c0,0.7-0.3,1.4-1,1.9c-0.4,0.5-0.9,0.8-1.7,0.8
			c0,0,0,0-0.1,0c0,0-0.1,0-0.1,0c-0.2,0-0.4,0-0.6-0.1c-0.6-0.1-1-0.3-1.4-0.6c0.1,0.2,0.1,0.3,0.1,0.3c-0.1-0.1-0.3-0.3-0.4-0.6
			c0,0.4-0.1,0.7-0.3,1c-0.3,0.7-1,1.2-2,1.2c-0.1,0-0.2,0-0.2,0c0,0,0,0,0,0c-0.8,0-1.4-0.3-1.8-0.8c0,0,0,0.1,0,0.1
			c0,0.1,0,0.2,0,0.3c0,0-0.1,0-0.1-0.1c-0.3,0.7-1,1.3-2,1.3c-1,0-1.7-0.6-2.1-1.3c0,0,0,0.1,0,0.1c0,0.1,0.1,0.2,0.1,0.2
			c0,0-0.1,0-0.1,0c-0.1,1-0.8,2-2.2,2c-0.6,0-1-0.2-1.4-0.4c0.6,1.3,1.2,2.4,1.9,3.1c1,1,1.7,1.3,2.3,1.2c1.1-0.2,1.3-1.3,1.7-1.1
			c1.1,0.7,1.6,0.9,2.7,0.2c0.4-0.3,0.9-1.5,1.4-1.4c0.8,0.1,1.4,1,2.6,0.6c1-0.4,1.2-1.1,1.7-1.7c0.6-0.9,1.9,0.1,3,0
			c0.2,0,0.4,0,0.6-0.1c2.2-0.4,2.1-1.3,2.6-3.5c0.3-1.1,0.3-1.7,0.3-2.7C398.8,298,396.8,298.6,396.1,298.4z"/>
		<path id="XMLID_167_" class="st45" d="M380,292.3c-1.1,0.2-1.7-2-1.6-2.1c0,0,0.1-1.5,2-1c0.3,0.7,0.9,1.7,0.8,2.2
			C381.1,291.9,380.4,292.2,380,292.3z"/>
		<path id="XMLID_166_" class="st45" d="M384.2,290.2c-1.1,0.2-1.8-2.2-1.7-2.3c0,0,0.2-1.5,2.1-1.1c0.3,0.7,0.7,1.7,0.7,2.2
			C385.3,289.9,384.7,290.2,384.2,290.2z"/>
		<path id="XMLID_165_" class="st45" d="M389.3,290.4c-1.1,0-1.6-2.4-1.5-2.4c0,0,0.4-1.5,2.2-0.8c0.3,0.7,0.7,1.8,0.6,2.4
			C390.5,290.2,389.7,290.4,389.3,290.4z"/>
		<path id="XMLID_164_" class="st45" d="M376.9,296.3c-0.9,0.2-1.3-1.7-1.2-2.2c0,0,0.4-1,1.4-0.6c0.6,0.7,0.9,1.5,0.9,2
			C377.9,296.1,377.2,296.2,376.9,296.3z"/>
	</g>
	<path id="XMLID_162_" class="st35" d="M304.5,59.6c8-6.4,15.8-12.7,26.3-14.2c22-3,24.4,17.2,24.4,17.2c-13.5,7.4-12.2,2.1-20,5.5
		s-9.8,6.6-26.5,9.1c-8.5,1.3-14.4-2.9-15.4-8.3c-0.2-1.3-0.4-4.6,0.3-6.7C293.6,62.3,297.7,65,304.5,59.6z"/>
	<path id="XMLID_161_" class="st46" d="M319.1,64c-1.9-0.9-3.8-1.9-4.7-3.8c1.9-0.9,2.8-2.8,2.8-3.8c-2.3-1.2-3.2-2.3-3.4-3.9
		c4.9-3.3,10.2-6,16.4-6.9c-0.9,2,4.1,3.1,4.1,3.1c0.5,0.8-1.1,2.6-2.9,4.9c2.8,0,4.4,1.8,4.4,1.8c0.2,1.1-0.9,2.7-2,4.5
		c-0.5,0.8,2.4,2.2,4.3,2.2c-2.4,2.4-2.8,6-2.9,6.1c-5.8,2.5-8.4,4.9-16.2,7c0.3-0.5-1.5-3,1-4.5C322.9,69,314.2,68.5,319.1,64z"/>
	<polygon id="XMLID_159_" class="st35" points="347.9,108.7 343.8,107.6 349.1,78.3 354.3,79.1 	"/>
	<path id="XMLID_158_" class="st39" d="M354.9,145.4c-0.2-0.1-0.4-0.2-0.6-0.3c-0.1-0.1-0.3-0.1-0.4-0.2c-0.2-0.1-0.4-0.2-0.5-0.3
		c-0.1-0.1-0.2-0.1-0.4-0.2c-0.1-0.1-0.3-0.1-0.4-0.2c-0.2-0.1-0.3-0.2-0.5-0.3c-0.1-0.1-0.3-0.1-0.4-0.2c0,0,0,0-0.1,0
		c-2.3,2-4.1,4.2-5.4,7.4c-5.3,13.2-14.5,34.9-17.3,31.9c-1.5-1.6-4.6-21.4-7.2-32.9c-0.9-0.1-2.9-0.9-4-1.3c0,0,7.3,31.8,7,39.3
		c-0.4,11-7.4,28.7-7.4,28.7l0.9,0.3c-2.5,4.3-11.9,19-24.1,26.7c0,0.5-0.1,0.9-0.2,1.3c-0.1,0.4-0.1,0.8-0.2,1.2c0,0,0,0,0,0
		c1.6-1.1,3.1-2.3,4.5-3.6c-1.4,1.6-3,3.1-4.6,4.4v0c0,0.2,0,0.3-0.1,0.5c0,0.1,0,0.3-0.1,0.4c0,0.2-0.1,0.4-0.1,0.7
		c0,0.1,0,0.2,0,0.3c0,0.3-0.1,0.6-0.1,0.9c0,0.1,0,0.1,0,0.2c0,0.3-0.1,0.7-0.1,1c0,0,0,0,0,0c15.5-9.1,25.1-27.7,27.5-33.1
		l1.1,0.4c0,0,7.5-25.1,9.9-29.8c1.4-2.7,11.8-18.8,17.3-34.3c0.5-1.4,1-2.6,1.7-3.7c0.2-0.4,0.5-0.8,0.8-1.2c0,0,0.1-0.1,0.1-0.1
		c0.5-0.8,1.1-1.5,1.7-2.1c0,0,0.1-0.1,0.1-0.1C353.9,146.4,354.5,145.9,354.9,145.4C355,145.4,355,145.4,354.9,145.4z"/>
	<g id="XMLID_13_">
		<g id="XMLID_121_">
			<path id="XMLID_122_" class="st47" d="M276.9,250.3c-2.1,0-4-0.8-5.7-2.3c-17.6-15.5-12.2-110.4-11.9-114.4l1.8,0.1
				c0,0,0,0,0-0.1l2.4,0.1c0,0.9-2.7,94.5,12.3,107.9c1.2,1.1,2.5,1.6,3.9,1.4c20.1-2.9,36.5-32.3,36.6-32.6l2.3,0.7
				c-0.4,1.5-14.8,34.5-40.2,39.2C278,250.2,277.4,250.3,276.9,250.3z M260.9,149.7c-0.3,16.6-1.6,37.8,0.9,61.8
				c1.7,16.6,5.6,31.2,10.6,35.7c1.6,1.4,3.3,1.9,5.3,1.6c7.2-1.3,26.4-13.4,32.7-26.3c-5.6,10.6-24.1,22-30.2,22.8
				c-2.1,0.3-4.1-0.4-5.9-1.9c-5.1-4.5-8.1-18.8-10.1-35.6C261.9,188.3,261,165.4,260.9,149.7z"/>
		</g>
		<ellipse id="XMLID_117_" class="st48" cx="261.7" cy="126.5" rx="10" ry="9.7"/>
		<ellipse id="XMLID_116_" class="st49" cx="261.7" cy="126.5" rx="9.4" ry="9.1"/>
		<ellipse id="XMLID_111_" class="st50" cx="261.7" cy="126.5" rx="8.8" ry="8.6"/>
		<path id="XMLID_110_" class="st51" d="M264.3,132.1c-1.3,1-2.4,2.2-3.5,3.3c0.1,0,0.2,0,0.3,0c5.3,0,9.6-4,9.9-9.1
			C268.8,128.3,266.6,130.2,264.3,132.1z"/>
		<path id="XMLID_107_" class="st51" d="M255.6,133.1c1.6-1.7,3.2-3.3,4.9-4.8c2.8-2.4,5.6-4.7,8.3-7.1c-0.4-0.5-0.8-0.9-1.3-1.3
			c-3.3,3.3-6.7,6.5-10.7,9.1c-1,0.7-2,1.3-3.1,2C254.3,131.7,254.9,132.4,255.6,133.1z"/>
		<ellipse id="XMLID_106_" class="st52" cx="261.7" cy="126.5" rx="5.6" ry="5.4"/>
		<path id="XMLID_104_" class="st43" d="M350,137.3c-2.7,2.3-4.8,4.6-6.3,8.2c-5.3,13.2-14.5,34.9-17.3,31.9c-2-2.2-6.3-19.1-9-30.3
			c-1.1-4.5-3.6-7.2-7-9.8h-5.6c0.4,0.4,0.8,0.7,1.3,1c4.1,3,7.1,5.4,8.4,10.4c2.9,10.9,7.6,29.4,7.8,33.7c0.4,11-7.4,28.7-7.4,28.7
			l4.4,1.6c0,0,7.5-25.1,9.9-29.8c1.4-2.7,11.8-18.8,17.3-34.3c1.8-5.1,4.9-8.1,9-11.4H350z"/>
		<path id="XMLID_103_" class="st53" d="M345,145.1c-0.1,0-0.1-0.1-0.2-0.1c0,0.1-0.1,0.2-0.1,0.3c-1.3,3.2-7,16.2-8.5,19.4
			c-1.3,2.8-2.6,5.5-4.2,8.1c-0.9,1.5-4.9,10.2-7.8,4.7c-0.5-0.9-1.4-3.4-1.8-4.4c-0.9-3-1.7-6.1-2.5-9.2c-0.9-3.7-1.7-7.3-2.6-11
			c-0.4-1.8-0.8-3.6-1.2-5.3c-0.5-2-1.4-3.7-2.6-5.2c-0.3,0.4-0.5,0.5-0.9,0.8c1.4,1.6,2.3,3.6,2.9,6c2.9,10.9,7.6,29.4,7.8,33.7
			c0.3,8.8-4.6,21.8-6.6,26.8c0.1,0.1,0.2,0.1,0.4,0.2c0.3,0.2,0.5,0.3,0.8,0.4c2-6.5,7.2-23.4,9.1-27.3
			c1.4-2.7,11.8-18.8,17.3-34.3c0.4-1.2,0.9-2.3,1.5-3.3C345.5,145.3,345.2,145.2,345,145.1z"/>
		<path id="XMLID_95_" class="st54" d="M352,93.5c-0.3,0.7-0.6,1.6-0.6,2.2c3,2.6,13.5,3.1,13.4,7.5c0,2.7-4,25.7-11.7,31.7
			c-3.3,2.6-6,4.7-8,7.9c0.5,0.3,0.9,0.7,1.4,1c0.3,0.2,1.2,1.2,1.5,1.4c2-3.4,4.9-5.9,8.4-8.6c8.9-7,12.6-30.4,12.3-33.1
			C367.9,96.1,354.1,95,352,93.5z"/>
		<path id="XMLID_85_" class="st55" d="M354.5,135.5c8.1-6.3,12.2-30.2,12.2-33.1c0.1-4.2-11.5-5.7-15.1-8c0,0-0.1,0.3-0.1,0.4
			c3.4,2.4,14.3,3.3,14.2,7.6c0,2.9-4.2,26.8-12.2,33.1c-3.2,2.5-5.9,4.6-7.9,7.5c0.2,0.2,0.5,0.3,0.7,0.5
			C348.3,140.7,351.4,137.9,354.5,135.5z"/>
		<path id="XMLID_57_" class="st54" d="M291.3,104.6c0-3,5.4-4.9,9.6-6.5c0-0.8,0-1.5,0.2-2.3c-5.1,1.6-13,3.7-13.7,8.9
			c-0.4,2.9,9.6,27.1,18.6,33.5c2.1,1.5,4,2.9,5.4,4.6c0.7-0.9,1.4-1.9,2.2-2.8c-1.4-1.5-3.1-2.8-5-4.1
			C300.6,130.4,291.4,107.3,291.3,104.6z"/>
		<path id="XMLID_32_" class="st55" d="M290.7,104.7c-0.1-3.6,5.8-5.6,10.2-7.2c0-0.2,0-0.5,0-0.7c-5,1.8-11.7,4.1-11.8,7.9
			c-0.1,2.7,9.5,26,17.6,31.6c1.7,1.2,4.4,3.6,5.9,5.1c0.2-0.3,0.5-0.6,0.7-0.8c-1.4-1.5-3.1-2.9-5-4.2
			C300.2,130.7,290.8,107.5,290.7,104.7z"/>
	</g>
	
		<radialGradient id="XMLID_255_" cx="346.8736" cy="2260.1494" r="7.0765" gradientTransform="matrix(0.9958 -9.120000e-002 7.160000e-002 0.7815 -172.2106 -1631.4225)" gradientUnits="userSpaceOnUse">
		<stop  offset="0" style="stop-color:#F9AA88"/>
		<stop  offset="0.3549" style="stop-color:#F9AD89"/>
		<stop  offset="0.631" style="stop-color:#FAB48B"/>
		<stop  offset="0.8803" style="stop-color:#FCC190"/>
		<stop  offset="0.8984" style="stop-color:#FCC290"/>
	</radialGradient>
	<path id="XMLID_11_" class="st56" d="M342.8,102.5c0.3,2.8-3,5.5-7.3,5.9c-4.3,0.4-8-1.6-8.3-4.4c-0.3-2.8,3-5.5,7.3-5.9
		C338.9,97.7,342.6,99.7,342.8,102.5z"/>
	
		<radialGradient id="XMLID_256_" cx="289.3879" cy="2280.7693" r="6.1762" gradientTransform="matrix(0.9884 0.152 -0.1193 0.7757 293.666 -1711.2723)" gradientUnits="userSpaceOnUse">
		<stop  offset="0" style="stop-color:#F9AA88"/>
		<stop  offset="0.3549" style="stop-color:#F9AD89"/>
		<stop  offset="0.631" style="stop-color:#FAB48B"/>
		<stop  offset="0.8803" style="stop-color:#FCC190"/>
		<stop  offset="0.8984" style="stop-color:#FCC290"/>
	</radialGradient>
	<path id="XMLID_10_" class="st57" d="M314.4,102.9c-0.4,2.5-3.7,4-7.5,3.4c-3.7-0.6-6.5-3-6.1-5.5c0.4-2.5,3.7-4,7.5-3.4
		C312,98,314.7,100.5,314.4,102.9z"/>
</g>
</svg>
