<?xml version="1.0" encoding="utf-8"?>
<!-- Generator: Adobe Illustrator 19.0.0, SVG Export Plug-In . SVG Version: 6.00 Build 0)  -->
<svg version="1.1" id="Layer_1" xmlns="http://www.w3.org/2000/svg" xmlns:xlink="http://www.w3.org/1999/xlink" x="0px" y="0px"
	 viewBox="0 0 500 700" style="enable-background:new 0 0 500 700;" xml:space="preserve">
<style type="text/css">
	.st0{fill:#FCC290;}
	.st1{fill:#F3A06E;}
	.st2{fill:#12456A;}
	.st3{opacity:0.32;}
	.st4{fill:#E5A990;}
	.st5{fill:#563335;}
	.st6{fill:#FFFEF6;}
	.st7{fill:#71A0B8;}
	.st8{fill:#412811;}
	.st9{fill:#F8E5D6;}
	.st10{fill:#D39060;}
	.st11{opacity:0.32;fill:#F3A06E;}
	.st12{fill:#F2A564;}
	.st13{fill:#3E191B;}
	.st14{fill:#ECF0F1;}
	.st15{opacity:0.32;fill:#486FA3;}
	.st16{opacity:0.55;fill:#99C0D8;}
	.st17{fill:#F19D6E;}
	.st18{opacity:0.55;fill:#ECF0F1;}
	.st19{fill:#FBB784;}
	.st20{fill:#426477;}
	.st21{fill:#3E6274;}
	.st22{opacity:0.32;fill:#91A5B0;}
	.st23{fill:#FEDCC4;}
	.st24{fill:#905456;}
	.st25{fill:#234B60;}
	.st26{fill:#587486;}
	.st27{fill:#A9B8C1;}
	.st28{fill:#94A7B2;}
	.st29{opacity:0.55;fill:#DFE3E7;}
	.st30{fill:#20495F;}
	.st31{fill:#768F9C;}
	.st32{fill:#E5E9E5;}
	.st33{fill:#C9C9C9;}
	.st34{opacity:0.55;fill:url(#XMLID_142_);}
	.st35{opacity:0.55;fill:url(#XMLID_143_);}
	.st36{fill:#D5EDEC;}
	.st37{fill:#4C2627;}
	.st38{fill:#66687E;}
	.st39{opacity:0.32;fill:#808884;}
	.st40{fill:#57C3BC;}
	.st41{opacity:0.45;fill:#ECF0F1;}
	.st42{opacity:0.45;fill:url(#XMLID_162_);}
	.st43{opacity:0.32;fill:#06A89E;}
	.st44{fill:#29B4AB;}
	.st45{opacity:0.45;fill:#06A89E;}
	.st46{fill:#F0EEEC;}
	.st47{fill:#E2F3F2;}
	.st48{fill:#D9EFEE;}
	.st49{fill:#351415;}
	.st50{fill:#00A79B;}
	.st51{fill:url(#XMLID_163_);}
	.st52{opacity:0.55;fill:#CBC4BD;}
	.st53{fill:#965946;}
	.st54{opacity:0.55;fill:url(#XMLID_165_);}
	.st55{opacity:0.55;fill:url(#XMLID_166_);}
	.st56{opacity:0.55;fill:#8BC23F;}
</style>
<g id="XMLID_2_">
	<g id="XMLID_118_">
		<path id="XMLID_120_" class="st0" d="M380.1,285.8c0,0,12.5,8,6.8,8.6c-5.7,0.6-11.5-5.5-11.5-5.5L380.1,285.8z"/>
		<path id="XMLID_119_" class="st1" d="M380.1,285.8c0,0,12.5,8,6.8,8.6c-5.7,0.6-11.5-5.5-11.5-5.5L380.1,285.8z"/>
	</g>
	<path id="XMLID_117_" class="st2" d="M229.2,149.6c0,0,9,6.8,17.4-1.6C246.6,147.9,235.6,146.3,229.2,149.6z"/>
	<path id="XMLID_116_" class="st0" d="M233.3,157.6c0,0,1.4-16,0.7-17.5c-0.8-1.4,7,1.1,7,1.1s0.6,12.9,1.4,15
		C243.1,158.4,233.3,157.6,233.3,157.6z"/>
	<path id="XMLID_115_" class="st1" d="M242.3,156.3c-0.5-1.3-0.9-6.7-1.1-10.6c-0.1,0-0.1,0.1-0.2,0.1c-1.3,1.1-2.7,1.7-4.2,2
		c0.1,3.3,0.2,6.7,0.2,10C239.7,157.7,242.7,157.5,242.3,156.3z"/>
	<path id="XMLID_114_" class="st0" d="M237.8,144.1c0,0,2,0.8,4.5-1.1c2.5-2,5.1-4.9,6.7-5.6c1.6-0.7-1.8-6.9,3.3-14.2
		c0,0-1.6-8.3-3.4-9.7c-1.9-1.5-2.6,1.1-1.6,9.9c0,0,0.4,5-3.7,6.1c-4.1,1.1-0.4-9.9-1.3-12.9s-7.9-3.4-9.5,0.1
		c-1.6,3.5-2.8,12.8-1.5,16.1C232.7,136.1,233.5,143,237.8,144.1z"/>
	<path id="XMLID_113_" class="st0" d="M237.8,144.1c0,0-2.3,3-7.6-2.4c0,0-4.3-14.3-5.4-17.6c-1.1-3.3,6.8-5.9,6.8-5.9
		s7.7,6.7,7.6,15.6C239.1,142.8,237.8,144.1,237.8,144.1z"/>
	<path id="XMLID_112_" class="st1" d="M237.8,133.1c0.7,0,3-0.1,5.3-1.4c-0.6-8.3-11.5-13.5-11.5-13.5s-0.2,0.1-0.4,0.2
		c-0.2,2.6-0.5,4.9-0.3,7.2c0.2,1.7,0.8,3.3,1.7,4.8C233.4,131.6,236,133,237.8,133.1z"/>
	<path id="XMLID_111_" class="st0" d="M237.5,111.2c0,0,0.3-4.7,4.6-4.1c0,0,5.4,6.2,4.3,8.6c-1.1,2.4-3.9-1.2-6.2-5.2l0.1,2.1
		C240.4,112.7,237.9,112.6,237.5,111.2z"/>
	<path id="XMLID_110_" class="st1" d="M240.8,111.4c-0.6-1.3-0.8-2.6-0.8-4c-2.2,0.9-2.5,3.8-2.5,3.8c0.4,1.3,2.9,1.4,2.9,1.4
		l-0.1-2.1c0.2,0.3,0.4,0.7,0.6,1C240.8,111.5,240.8,111.4,240.8,111.4z"/>
	<path id="XMLID_109_" class="st0" d="M232.4,114.8l-0.4-1.9c0,0,1.6-6,3.6-5.8c2,0.2,0,9.7,0,9.7L232.4,114.8z"/>
	<path id="XMLID_108_" class="st1" d="M232.4,114.8l-0.4-1.9c0,0,1.6-6,3.6-5.8c2,0.2,0,9.7,0,9.7L232.4,114.8z"/>
	<path id="XMLID_107_" class="st0" d="M233.4,109.6c0,0,7.1,9.8,8.4,8c1.2-1.8-2.1-8.2-5.7-10.8
		C234.5,105.7,232.8,109.3,233.4,109.6z"/>
	<path id="XMLID_106_" class="st0" d="M228,118.4c0,0,1.4-4.4,1.6-5.1c0.2-0.7,5.2,7.7,5.2,7.7S228.2,117.9,228,118.4z"/>
	<path id="XMLID_105_" class="st1" d="M228,118.4c0,0,1.4-4.4,1.6-5.1c0.2-0.7,5.2,7.7,5.2,7.7S228.2,117.9,228,118.4z"/>
	<path id="XMLID_104_" class="st0" d="M238.6,122c0,0-0.7-4.5-1.4-5c-0.8-0.4-4.5-5.2-5.2-5.3c-0.7-0.1-3.3,0.6-2.7,2.5
		c0.6,2,3.6,4,4.6,4.3c1,0.3,1.4,6.5,3.6,6.1C239.7,124.4,238.6,122,238.6,122z"/>
	<path id="XMLID_103_" class="st0" d="M224.8,123.2c0,0,0.9-5.3,2.9-5.3c2-0.1,5.4,0.6,5.9,1c0.6,0.4,2.9,5.7,4.1,6.7
		c1.2,1-4.5,3.4-6.2-3.1c0,0-2.3,0.2-2.6-0.1s1.2,2,1.2,2.4C230,125.2,224.9,125.6,224.8,123.2z"/>
	<g id="XMLID_100_" class="st3">
		<path id="XMLID_102_" class="st4" d="M235.2,111.9c2.2,2.8,5.8,6.9,6.6,5.7c0.7-1-0.1-3.5-1.5-5.9l-0.1-1.2c2.3,4,5.1,7.6,6.2,5.2
			c0.8-1.7-1.7-5.3-3.2-7.2C240.2,108.8,237.1,109.8,235.2,111.9z"/>
		<path id="XMLID_101_" class="st4" d="M237.2,117.1c-0.4-0.3-1.9-2-3.2-3.4c-0.8,1.6-1,3-1,4.5c0.4,0.2,0.7,0.4,0.9,0.5
			c0.4,0.2,0.8,1.5,1.2,2.9c-0.7-1.3-1.3-2.5-1.6-2.6c-0.1-0.1-0.3-0.1-0.6-0.2c0.1,2.5,0.8,4.9,1,7.7c2.1,1.2,4.5-0.1,3.6-0.8
			c-0.2-0.2-0.4-0.5-0.7-0.8c0.2,0.1,0.3,0.1,0.5,0c2.2-0.4,1.1-2.7,1.1-2.7S238,117.5,237.2,117.1z"/>
	</g>
	<path id="XMLID_99_" class="st1" d="M239.2,134c-0.6-1.1-1.5-2-2.2-3.2c0.5,0.7,1.8,4.5,1.9,5c0.7,2.4,0.5,5.9-1.2,8.4
		c0.1-0.1,0.1-0.1,0.1-0.1S242,141.4,239.2,134z"/>
	<path id="XMLID_98_" class="st1" d="M251.9,123.2c0,0-1.5-8-3.3-9.5c-1.8-1.4-2.6,1.1-1.5,9.6c0,0,0.4,4.9-3.6,6
		c-2.1,0.6-2.1-2.2-1.7-5.3c-1,0.2-1.9,1.1-1.7,3.3c0.4,5,5.2,2.5,6.7,0.8c1.5-1.8-1.5,5-1.5,5s-1.3,1.1-2.5,1.5
		c-0.2,1.2-0.8,2.3-1.9,3c-0.3,0.2-0.6,0.4-0.9,0.6c0,0,0,0,0,0.1c0,0.1,0,0.3-0.1,0.5c0,0.7-0.1,1.5-0.3,2.1
		c-0.2,0.7-0.4,1.4-0.8,2c-0.2,0.3-0.4,0.6-0.7,0.8c0.9,0.1,2.5,0,4.1-1.3c2.4-1.9,5-4.7,6.5-5.4S247,130.3,251.9,123.2z"/>
	<path id="XMLID_97_" class="st1" d="M237.7,125.5c-0.3-0.2-0.5-0.6-0.9-1c-0.3,0.4-0.9,0.6-2.1,0.3c-2.7-0.7-3.3-3.5-3.3-3.5
		s-2.4,0.3-3.4-0.5c0,0,0.2,2.2-0.3,2.9c-0.3,0.4,0.8,0.3,1.9,0.2c-0.4-0.8-1-1.8-0.8-1.6c0.3,0.3,2.6,0.1,2.6,0.1
		C233.2,128.9,238.9,126.5,237.7,125.5z"/>
	<path id="XMLID_96_" class="st0" d="M328,105.9c-2.6,2.8-6.2,4.9-9.4,6.9c-0.9,0.6-1.7,1.1-2.6,1.6c0,0,0,0,0,0
		c-5.6,3.7-11.1,1.7-18.1,2.7c-1.1,8.3-4.2,25.3-7.1,28.8c-5.6,7,42.5-3.1,42.5-3.1S326.2,127.2,328,105.9z"/>
	<path id="XMLID_95_" class="st1" d="M301.8,132.2c9.9-2.6,20.7,3.4,21.8,5.7c1,2,1.5,4.2,2.3,6.3c4.4-0.8,7.3-1.5,7.3-1.5
		s-7.1-15.6-5.3-36.8c-2.6,2.8-6.2,4.9-9.4,6.9c-0.9,0.6-1.7,1.1-2.6,1.6c0,0,0,0,0,0c-5.6,3.7-11.1,1.7-18.1,2.7
		c-0.5,3.7-2.6,15.2-3.5,18.7C297.2,133.4,299.5,132.8,301.8,132.2z"/>
	<path id="XMLID_94_" class="st0" d="M342.3,79.3c-2.6-3.8-8.9,2-11.3,4.5c0.3,4.6-0.3,9.7-1.1,14.5c0,0.4,0,0.8,0,1.2
		c0.8,0,1.7,0.1,2.8,0C341.6,99.2,345.5,84.1,342.3,79.3z"/>
	<path id="XMLID_93_" class="st0" d="M282.4,97.6c0.8-6.2,1.1-12.3,3.6-27.8c3.7-22.8,31-14.6,31-14.6c12.9,2.8,14.4,9.2,16,14.8
		c1.6,5.5-2.3,34-5.4,41c-4.1,9.3-17.4,14.8-24.1,16.2c-3.1,0.7-6.5,0.1-8.8-2.1C289.2,119.7,282.8,109,282.4,97.6z"/>
	<path id="XMLID_92_" class="st1" d="M299.3,126.3c1.2,0.1,2.5,0.1,3.7-0.2c6.7-1.5,20-6.9,24.1-16.2c0.7-1.6,1.5-4.4,2.2-7.7
		c-1.2,2.3-7,10.1-11.1,13.5C310.3,122.3,300.5,126.1,299.3,126.3z"/>
	<path id="XMLID_91_" class="st1" d="M333.2,80.2c0.3-4.8,0.3-8.6-0.2-10.2c-1.6-5.5-3.1-12-16-14.8c0,0-27.3-8.2-31,14.6
		c-0.2,1.1-0.4,2.3-0.5,3.3c3.1-2.7,2-0.2,6-0.6c5.5-0.5,9.5-1.4,12.8-3.4c11.2-6.7,19.2-9.4,19.2-9
		C321.4,70.5,332.4,78.8,333.2,80.2z"/>
	<path id="XMLID_90_" class="st1" d="M297.9,71.7c-0.1,0.1-0.2,0.2-0.3,0.4c-1.1,1.1-2.4,1.7-4,1.8c-0.3,0-0.7,0.1-1,0.1l-0.2,0.4
		c0,0-0.1-0.2-0.1-0.4c0,0-0.1,0-0.1,0c-0.2,0-0.3,0-0.5,0c-0.3,0-0.5,0.1-0.8,0.1c-0.5-0.1-1-0.1-1.5-0.2c-0.9-0.2-1.8-0.7-2.5-1.4
		c-1.5,0.9-2.8,2.4-2.6,5.2c0,0,6-1.7,12.5-0.4c0,0,1.6-3.4,1.2-5.4C298.1,71.9,298,71.8,297.9,71.7z"/>
	<path id="XMLID_89_" class="st1" d="M309.4,77.5c0,0-1.1-5.4,0-6.2c1.1-0.8,4.4,0,4.4,0l0.4,3.5l2.2-3.8c0,0,6.6,0.5,7.8,1.8
		c1.1,1.2,4.2,5,4.2,6.3c0,0.3-3.8-1.5-9-2C316.4,76.6,312.8,77.1,309.4,77.5z"/>
	<path id="XMLID_88_" class="st5" d="M309.3,76.6c0,0-1.2-5.2,0-5.6c0.7-0.2,4.4,0,4.4,0l0.4,3.2l2.2-3.5c0,0,6.6,0.5,7.8,1.6
		c1.1,1.1,4.2,4.6,4.2,5.7c0,0.3-3.8-1.3-9-1.9C316.3,75.8,312.7,76.2,309.3,76.6z"/>
	<path id="XMLID_87_" class="st1" d="M326,82.8c-2.3-2-3.6-3.1-4.9-3.8c-3-1.7-5.7-1.4-8.1-0.6c-3.7,1.2-4.3,5.6-4.5,6.4
		c-0.1,0.2,0.4,1.5,0.7,1.9c1,1.6,3.8,4.2,8.2,3.6C324.8,89.4,326,82.8,326,82.8z"/>
	<path id="XMLID_86_" class="st6" d="M309.3,84.7c0,0,3-4.1,7.5-3.7c4.6,0.4,6.6,4.2,6.6,4.2s-1.2,2.6-5,3.4
		C314.7,89.4,310.1,88.1,309.3,84.7z"/>
	<g id="XMLID_82_">
		<ellipse id="XMLID_85_" class="st7" cx="316.4" cy="84.7" rx="3.6" ry="3.5"/>
		<ellipse id="XMLID_84_" class="st8" cx="316.4" cy="84.5" rx="2.2" ry="2.1"/>
		<circle id="XMLID_83_" class="st9" cx="314.9" cy="83.4" r="0.7"/>
	</g>
	<path id="XMLID_81_" class="st10" d="M308.8,84.5c0,0,1.5-1.7,3.5-2.7c2.8-1.5,6.9-2.1,12.4,2.9l-1.3,0.9c0,0-2.1-3.4-6.9-3.7
		c0,0-4.5-0.1-7.2,3.1L308.8,84.5z"/>
	<path id="XMLID_80_" class="st10" d="M323.5,85c-0.4,0-2.8,4-9.1,3c-3.6-0.6-4.8-3.2-4.8-3.2l-0.8-0.2c0.1,1.1,3.2,5.7,8.6,4.7
		c4.5-0.8,6.7-3.6,7.3-4.5C324.3,84.9,323.9,85,323.5,85z"/>
	<path id="XMLID_79_" class="st1" d="M293.2,78.1c-2.4-1.1-6.5,0.4-8.9,2.3c-0.1,1.1-0.2,1.2-0.4,3c0.3,1.7,2.3,4.8,6.1,5.5
		c4.4,0.9,8.6-3.3,8.7-4.3c0,0,0-0.1-0.1-0.3C298.5,83.6,297.2,79.8,293.2,78.1z"/>
	<path id="XMLID_78_" class="st6" d="M285.9,82.4c0,0-0.8,4.7,6.9,5.1c0,0,4.9-1.3,5.1-3.1c0,0-1.5-4.5-5.7-4.5
		C288,80.1,286.9,81.3,285.9,82.4z"/>
	<g id="XMLID_74_">
		<ellipse id="XMLID_77_" class="st7" cx="292.6" cy="83.9" rx="3.3" ry="3.3"/>
		<ellipse id="XMLID_76_" class="st8" cx="292.7" cy="83.8" rx="2.1" ry="2.1"/>
		<circle id="XMLID_75_" class="st9" cx="291.5" cy="82.3" r="0.6"/>
	</g>
	<path id="XMLID_73_" class="st10" d="M298.6,84.9c0,0-2.7,4-8.1,3c-4.2-0.8-5.2-5.4-5.2-5.4l0.8,0.1c0,0,1,3.7,5.3,4.2
		c4.3,0.5,6.7-2.3,6.7-2.3L298.6,84.9z"/>
	<path id="XMLID_72_" class="st10" d="M298.6,84.9c0,0-1.9-4-5-4.8c-3.1-0.8-6.3,0-8.4,2.4l0.6,0.9c0,0,2-2.2,6.2-2.1
		c4.2,0.1,5.8,3.8,5.8,3.8L298.6,84.9z"/>
	<path id="XMLID_71_" class="st11" d="M305.6,105.2c-0.2,0-0.4,0.1-0.6,0.1c-1,0.2-2,0.5-3.1,0.6c-2.1,0.1-2.8-1.3-4.6-2.2
		c0.6,2.7,2.6,3.5,4.4,4.1c1.7,0.5,4.4-1.4,5-2.8C306.7,104.8,306.5,105.1,305.6,105.2z"/>
	<path id="XMLID_70_" class="st12" d="M300.4,77c0,0-1,8.1-2.3,15.5c-0.7,4-1.5,6.8-2.1,10.1c-0.9,5.1,13.1,4.2,13.3,1.5
		c0.1-2.2-0.9-4.6-3.1-4.2c-0.5,0.1-1,0.1-1.1,0.7c0,0-0.2,0.8,1.1,0.9c1.5,0.2,2.5,2.5-1.1,2.7c-2.7,0.2-7.7,0.5-7.4-2.3
		C297.8,100.6,303.4,76.2,300.4,77z"/>
	<path id="XMLID_69_" class="st5" d="M341.6,55.3c-2.2-0.8-4.3-1.1-6.3-1.1c-6.3,0.1-10.9,3.4-10.9,3.4s-1.7,8.7,4.6,14.8
		c4.7,4.6,4.6,8.6,4.2,10.3c0.4-1.3,1.8-3,4.1-3.7c1.4-0.4,2.8-0.5,5.2,0.5C342.5,79.5,349.2,58.2,341.6,55.3z"/>
	<path id="XMLID_68_" class="st6" d="M311.9,107.8c0,0-4.2,1.5-8.7,1.8c-3.4,0.2-7.9-0.5-10.1-1.8c0,0,3.2,7.2,8.1,8.1
		C306.1,116.8,310.9,111.2,311.9,107.8z"/>
	<path id="XMLID_67_" class="st13" d="M297.8,398.4l-11.7,0.4c0,0-25.7,17.7-17.1,18.8c8,1,17.5-5.5,26.6-9.4
		c1.3-0.6,2.2-1.9,2.2-3.4V398.4z"/>
	<path id="XMLID_66_" class="st14" d="M305.1,294.7c-5.3,0.2-13.4,0.2-18.6,0.1c-2.1-0.1-4.7-0.1-6.8-0.1
		c0.3,14.7,1.5,101.6,0.4,105.3c6,1.2,16.1,0.9,21.3,0.3c0,0-0.6-43.2,1-75.7C303,311.9,303.9,300.9,305.1,294.7z"/>
	<path id="XMLID_65_" class="st15" d="M302.3,324.7c0.4-8.7,1-16.7,1.7-22.8c0.3-2.9,0.5-5.3,0.9-6.9c-5.3,0.2-13.2-0.1-18.5-0.3
		c-2.1-0.1-4.7-0.1-6.8-0.1c0,2.1,0.1,6.5,0.2,11.2c0,1.3,0,2.7,0.1,4.1c0,3.4,0.1,6.6,0.1,8.8c14.9-3.6,12.4,41,12.9,48.4
		c0.3,3.7,0.4,14.7,0.5,21.8l-12.9,1c0,3.9,0,3.9-0.1,4.2c-0.1,3.3-0.2,5.3-0.3,5.9c6,1.2,16.1,0.9,21.3,0.3
		C301.3,400.4,300.7,357.1,302.3,324.7z"/>
	<path id="XMLID_64_" class="st14" d="M279.6,391.4l-0.4,8.5c0,0,5.1,2.3,22.8,1l0.2-8.4C302.2,392.5,287,391.8,279.6,391.4z"/>
	<path id="XMLID_63_" class="st13" d="M318.9,398.4l11.7,0.4c0,0,25.7,17.7,17.1,18.8c-8,1-17.5-5.5-26.6-9.4
		c-1.3-0.6-2.2-1.9-2.2-3.4V398.4z"/>
	<path id="XMLID_62_" class="st14" d="M337.6,294.4c-5.3,0.3-13.4,0.5-18.6,0.5c-2.1,0-4.7,0-6.8,0.1c0.6,14.7,3.8,101.5,2.7,105.3
		c6,1,16.1,0.6,21.3-0.2c0,0-1.6-43.2-0.7-75.7C335.9,311.7,336.6,300.6,337.6,294.4z"/>
	<path id="XMLID_61_" class="st15" d="M335.6,324.4c0.2-8.7,0.6-16.7,1.2-22.8c0.2-2.9,0.4-5.3,0.7-6.9c-5.3,0.3-13.2,0.2-18.5,0.2
		c-2.1,0-4.7,0-6.8,0.1c0.1,2.1,0.2,6.5,0.4,11.1c0,1.3,0.1,2.6,0.2,4.1c0.1,3.4,0.2,6.6,0.3,8.8c14.8-3.9,11.5,62.4,11.7,69.5
		l-9.7,1.7c0.1,3.9,0.1,3.9,0,4.2c0,3.3-0.1,5.4-0.2,5.9c6,1,16.1,0.6,21.3-0.2C336.3,400.1,334.7,357,335.6,324.4z"/>
	<path id="XMLID_60_" class="st14" d="M337.1,391.4l0.4,8.5c0,0-5.1,2.3-22.8,1l-0.2-8.4C314.5,392.5,329.7,391.8,337.1,391.4z"/>
	<path id="XMLID_59_" class="st14" d="M276.2,238.9c-1.4,8.3-3.5,44.1-4.1,67.9c8.1,2,57.5,2.5,69.9-0.1c0.1-24.4-1.7-55.6-6.4-86.5
		c-1.8-12,3.5-20.8,5.3-30.4c4.8-25.5,13.6-41.8,13.6-41.8c-3-2.3-23.7-13.6-23.7-13.6c0,6.2-26.4,15.5-37,1.9c0,0-14.3,5-18.4,6.3
		c-0.4,0.1-3.7,1-4,1.8c-4.3,11.5-7.6,18.8-0.7,34.7C275.5,190.2,278.5,225.2,276.2,238.9z"/>
	<path id="XMLID_58_" class="st16" d="M276.2,238.9c-1.4,8.3-3.5,44.1-4.1,67.9c1.2-0.2,2.2,0.7,3.4,0.6c-0.3-28,4.9-57.3,4.8-67.6
		c-0.1-9.4,4-14.9,2.9-24.3c-0.7-6.3-5.9-14.3-7.9-43.8c0,4.6-0.3,9.5-2.5,13.1C276.4,199.4,278.1,227.3,276.2,238.9z"/>
	<path id="XMLID_57_" class="st16" d="M326.4,282.1c-0.3,2.4-2.1,14.5-3.9,25.7c6.6,0,13.8,0.1,19.5-1.1c0.1-22.7-1.9-53.4-4.8-74.6
		c-0.5-4-1-7.9-1.6-11.9c-1.8-12,3.5-20.8,5.3-30.4c0.4-2.2,1.5-5.8,1.9-7.8c-2.1,1.8-14.1,19.7-15.2,24.4
		c-2.5,10.9-2.6,22.2-2.1,33.4C325.9,250.1,327.3,273.3,326.4,282.1z"/>
	<path id="XMLID_56_" class="st5" d="M298,71.5c0,0-5.2,0.1-6.3-0.3l-0.6,2.6l-0.5-2.7c-1.9,0.1-6.7,0.9-6.4,5.7c0,0,6-1.5,12.5-0.4
		C296.7,76.4,298.3,73.3,298,71.5z"/>
	<path id="XMLID_55_" class="st17" d="M340.3,83.5c0.1,0.1,0.2,0.3,0.4,0.3c0.3,0.1,0.7-0.1,0.8-0.4c0.1-0.3-0.1-0.7-0.3-1
		c-1-1.7-3.7-0.1-4.7,0.7c-3.2,2.6-3.5,6.8-2.6,9.7c1.1,3.6,5.7-1.3,4-4c-0.6-0.9-1.2-2-1.1-3.1c0.1-1.1,1.3-2.3,2.4-2.6
		c0.3-0.1,0.6-0.1,0.8,0.1C340.1,83.3,340.2,83.4,340.3,83.5z"/>
	<path id="XMLID_54_" class="st14" d="M272,143.8c-3.5,1-6.5,3.2-8.4,6.4c-9.7,16.3-11.9,41.7-15.6,56.6c-3.2,12.8-3.5,18-3.5,18
		s12.1-8.5,29.1-36.2C273.5,188.7,278.5,166,272,143.8z"/>
	<path id="XMLID_53_" class="st16" d="M257.8,205.5c-1.9,3.4-7.6,10.7-12.6,13.9c-0.7,3.8-0.8,5.6-0.8,5.6s12.1-8.5,29.1-36.2
		c0,0,1.6-7.5,1.8-18C269.7,188.4,267.5,188.2,257.8,205.5z"/>
	<path id="XMLID_52_" class="st14" d="M229.2,149.6c0,0,7.6,2.1,17.4-1.6c0,0,3.9,22.1,4,43.7c0.1,25.3-3.8,32.8-6.1,33.2
		C232.1,227.4,229.2,149.6,229.2,149.6z"/>
	<path id="XMLID_51_" class="st18" d="M245.4,153.8c0.6,4.7,1.5,21.2,1.6,36.5c0.1,21.5-2.6,27.9-4.1,28.3
		c-6.9,1.8-10.6-39.4-11.3-53.2c-0.1-1.7-0.3-3.4-0.5-5.1c-0.4-3-0.7-6.4-1.6-6.6c0.9,17.7,4.6,73.3,15,71.2c2.3-0.5,6.2-8,6.1-33.2
		c-0.1-15.7-2.8-36.1-4-43.7C245.7,148.7,245,150.5,245.4,153.8z"/>
	<path id="XMLID_50_" class="st14" d="M372.2,219.8c0-6.9-8.9-58.6-11.5-63.7c-1.5-2.9-2.2-5.6-6.2-8.2c-5.5,10.1-4.6,8.5-7.9,17.6
		c-3,8.2-4.7,20-4.7,20c2.3,16.8,20.6,79.1,24.3,87.4l12.2-3.3C378.3,269.7,372.2,224.9,372.2,219.8z"/>
	<path id="XMLID_49_" class="st16" d="M370.3,221.4c0-6.9-7.9-59.2-11.5-63.7c-0.7-0.8-2.1-3-3.6-4.3c0.6,2,1.8,4.8,2.3,6.8
		c0.1,0.4,8.6,29.4,10.4,61.8c0.3,4.8,5.6,46.4,6.1,49.6l-1.7,0.5c0,0,0,0.1,0,0.1l4.2-1.2C375.9,267.7,370.3,226.2,370.3,221.4z"/>
	<path id="XMLID_48_" class="st16" d="M364.7,262.7c-1.4-8.8-4.5-15.9-7.2-24.5c-3.8-11.9-5.1-25.1-9.7-36.7
		c-2.2-5.5-4.2-10.9-5.8-16.4c-0.1,0.3-0.1,0.5-0.1,0.5c2.3,16.8,20.6,79.1,24.3,87.4l1.5-0.4C365.8,269.7,365.2,265.4,364.7,262.7z
		"/>
	<path id="XMLID_47_" class="st16" d="M372.4,222.6c-2,4.2-5.7,7.2-8.3,8.9c-1.5,1-7.8,3-10.5,1.2c5.3,18.8,10.5,35.7,12.6,40.2
		l12.2-3.3C378.3,269.7,373.4,233.8,372.4,222.6z"/>
	<path id="XMLID_46_" class="st19" d="M368,270.6c-0.2,3.3,0.4,6.8,0.4,10.1c0,3.1,0.6,5.9,0.9,8.8c0.2,1.7,0.2,2.8,2,3.3
		c1.3,0.4,4.7,0.4,6.1,0c3.9-1,2.2-7.5,1.3-10.3c-0.7-2.1-2.3-3.9-3.4-5.9c-1.3-2.4-1.5-4.3-1.6-7
		C371.9,269.9,369.8,270.3,368,270.6z"/>
	<g id="XMLID_41_">
		<path id="XMLID_45_" class="st20" d="M380.2,230.7l-42.3,8.2c0,0,8.1,41.1,10.1,56.9l2.4,1.4c0,0,36.2-8.4,42.1-8.7l-9.5-56.7
			L380.2,230.7z"/>
		<path id="XMLID_44_" class="st21" d="M382.9,231.9l-42.5,8.4c0,0,10.2,51.9,10,56.9c0,0,36.3-8.2,42.1-8.5L382.9,231.9z"/>
		<path id="XMLID_43_" class="st22" d="M360.7,265.2c4-4.7,7.7-9.7,11.6-14.6c3.5-4.4,6.7-9.6,10.8-13.4c0.2-0.2,0.4-0.3,0.6-0.4
			l-0.8-4.9l-42.5,8.4c0,0,4.5,22.7,7.4,39.5C352,275,356.5,270.2,360.7,265.2z"/>
		<path id="XMLID_42_" class="st22" d="M385.7,248.5l-1-6.1c-3.2,3.5-30.5,37.1-35.8,43.5c0.6,3.3,1,6.2,1.3,8.2
			C357.2,285.4,385.7,248.5,385.7,248.5z"/>
	</g>
	<g id="XMLID_34_">
		<path id="XMLID_40_" class="st0" d="M362.3,299.1c1,1,1.7,1.3,2.3,1.2c1.1-0.2,1.3-1.3,1.7-1.1c1.1,0.7,1.6,0.9,2.7,0.2
			c0.4-0.3,0.9-1.5,1.4-1.4c0.8,0.1,1.4,1,2.6,0.6c1-0.4,1.2-1.1,1.7-1.7c0.6-0.9,1.9,0.1,3,0c0.2,0,0.4,0,0.6-0.1
			c2.2-0.4,1.9-1.4,2.6-3.5c0.3-0.8,0.3-1.7,0.3-2.7c0,0-2,0.6-2.7,0.4c-2.6-0.8-4-8.2-5.1-10.3c-1.8-3.3-5-1.2-2.9,4.4
			c1,2.7,2.7,7.9,2.7,7.9c-1.8-1.5-3.5-13.3-6.7-14c-4.9-1,1.8,13.5,1.9,15.1c-0.6,0.5-3.1-11.6-5.9-12.8
			c-5.2-1.5,1.2,11.6,1.7,13.1c-0.5,0.5-2.4-5.8-4.2-8.1c-0.8-1-1.8-1.1-2.2,0c-0.2,0.5,0,4.2,1.2,6.6
			C360.2,295.6,361.1,297.9,362.3,299.1z"/>
		<path id="XMLID_39_" class="st1" d="M378.3,291c-0.2-0.1-0.4-0.2-0.7-0.4c0,0.7-0.3,1.4-1,1.9c-0.4,0.5-0.9,0.8-1.7,0.8
			c0,0,0,0-0.1,0c0,0-0.1,0-0.1,0c-0.2,0-0.4,0-0.6-0.1c-0.6-0.1-1-0.3-1.4-0.6c0.1,0.2,0.1,0.3,0.1,0.3c-0.1-0.1-0.3-0.3-0.4-0.6
			c0,0.4-0.1,0.7-0.3,1c-0.3,0.7-1,1.2-2,1.2c-0.1,0-0.2,0-0.2,0c0,0,0,0,0,0c-0.8,0-1.4-0.3-1.8-0.9c0,0,0,0.1,0,0.1
			c0,0.1,0,0.2,0,0.3c0,0-0.1,0-0.1-0.1c-0.3,0.7-1,1.3-2,1.3c-1,0-1.7-0.6-2.1-1.3c0,0,0,0.1,0,0.1c0,0.1,0.1,0.2,0.1,0.2
			c0,0-0.1,0-0.1,0c-0.1,1-0.8,2-2.2,2c-0.6,0-1-0.2-1.4-0.4c0.6,1.3,1.2,2.4,1.9,3.1c1,1,1.7,1.3,2.3,1.2c1.1-0.2,1.3-1.3,1.7-1.1
			c1.1,0.7,1.6,0.9,2.7,0.2c0.4-0.3,0.9-1.5,1.4-1.4c0.8,0.1,1.4,1,2.6,0.6c1-0.4,1.2-1.1,1.7-1.7c0.6-0.9,1.9,0.1,3,0
			c0.2,0,0.4,0,0.6-0.1c2.2-0.4,2.1-1.3,2.6-3.5c0.3-1.1,0.3-1.7,0.3-2.7C381.1,290.6,379,291.2,378.3,291z"/>
		<path id="XMLID_38_" class="st23" d="M362.2,284.9c-1.1,0.2-1.7-2-1.6-2.1c0,0,0.1-1.5,2-1c0.3,0.7,0.9,1.7,0.8,2.2
			C363.3,284.5,362.7,284.9,362.2,284.9z"/>
		<path id="XMLID_37_" class="st23" d="M366.5,282.9c-1.1,0.2-1.8-2.2-1.7-2.3c0,0,0.2-1.5,2.1-1.1c0.3,0.7,0.7,1.7,0.7,2.2
			C367.6,282.5,367,282.8,366.5,282.9z"/>
		<path id="XMLID_36_" class="st23" d="M371.5,283c-1.1,0-1.6-2.4-1.5-2.4c0,0,0.4-1.5,2.2-0.8c0.3,0.7,0.7,1.8,0.6,2.4
			C372.7,282.9,372,283,371.5,283z"/>
		<path id="XMLID_35_" class="st23" d="M359.2,288.9c-0.9,0.2-1.3-1.7-1.2-2.2c0,0,0.4-1,1.4-0.6c0.6,0.7,0.9,1.5,0.9,2
			C360.2,288.7,359.5,288.9,359.2,288.9z"/>
	</g>
	<path id="XMLID_33_" class="st5" d="M286.8,52.2c8-6.4,15.8-12.7,26.3-14.2c22-3,24.4,17.2,24.4,17.2c-13.5,7.4-12.2,2.1-20,5.5
		c-7.8,3.4-9.8,6.6-26.5,9.1c-8.5,1.3-14.4-2.9-15.4-8.3c-0.2-1.3-0.4-4.6,0.3-6.7C275.9,55,280,57.7,286.8,52.2z"/>
	<path id="XMLID_32_" class="st24" d="M301.4,56.6c-1.9-0.9-3.8-1.9-4.7-3.8c1.9-0.9,2.8-2.8,2.8-3.8c-2.3-1.2-3.2-2.3-3.4-3.9
		c4.9-3.3,10.2-6,16.4-6.9c-0.9,2,4.1,3.1,4.1,3.1c0.5,0.8-1.1,2.6-2.9,4.9c2.8,0,4.4,1.8,4.4,1.8c0.2,1.1-0.9,2.7-2,4.5
		c-0.5,0.8,2.4,2.2,4.3,2.2c-2.4,2.4-2.8,6-2.9,6.1c-5.8,2.5-8.4,4.9-16.2,7c0.3-0.5-1.5-3,1-4.5C305.2,61.6,296.5,61.1,301.4,56.6z
		"/>
	<polygon id="XMLID_31_" class="st5" points="330.2,101.3 326,100.2 331.4,70.9 336.6,71.7 	"/>
	<path id="XMLID_30_" class="st16" d="M337.2,138c-0.2-0.1-0.4-0.2-0.6-0.3c-0.1-0.1-0.3-0.1-0.4-0.2c-0.2-0.1-0.4-0.2-0.5-0.3
		c-0.1-0.1-0.2-0.1-0.4-0.2c-0.1-0.1-0.3-0.1-0.4-0.2c-0.2-0.1-0.3-0.2-0.5-0.3c-0.1-0.1-0.3-0.1-0.4-0.2c0,0,0,0-0.1,0
		c-2.3,2-4.1,4.2-5.4,7.4c-5.3,13.2-14.5,34.9-17.3,31.9c-1.5-1.6-4.6-21.4-7.2-32.9c-0.9-0.1-2.9-0.9-4-1.3c0,0,7.3,31.8,7,39.3
		c-0.4,11-7.4,28.7-7.4,28.7l0.9,0.3c-2.5,4.3-11.9,19-24.1,26.7c0,0.5-0.1,0.9-0.2,1.3c-0.1,0.4-0.1,0.8-0.2,1.2c0,0,0,0,0,0
		c1.6-1.1,3.1-2.3,4.5-3.6c-1.4,1.6-3,3.1-4.6,4.4v0c0,0.2,0,0.3-0.1,0.5c0,0.1,0,0.3-0.1,0.4c0,0.2-0.1,0.4-0.1,0.7
		c0,0.1,0,0.2,0,0.3c0,0.3-0.1,0.6-0.1,0.9c0,0.1,0,0.1,0,0.2c0,0.3-0.1,0.7-0.1,1c0,0,0,0,0,0c15.5-9.1,25.1-27.7,27.5-33.1
		l1.1,0.4c0,0,7.5-25.1,9.9-29.8c1.4-2.7,11.8-18.8,17.3-34.3c0.5-1.4,1-2.6,1.7-3.7c0.2-0.4,0.5-0.8,0.8-1.2c0,0,0.1-0.1,0.1-0.1
		c0.5-0.8,1.1-1.5,1.7-2.1c0,0,0.1-0.1,0.1-0.1C336.2,139.1,336.7,138.6,337.2,138C337.3,138,337.2,138,337.2,138z"/>
	<g id="XMLID_5_">
		<g id="XMLID_26_">
			<path id="XMLID_27_" class="st25" d="M259.2,242.9c-2.1,0-4-0.8-5.7-2.3c-17.6-15.5-12.2-110.4-11.9-114.4l1.8,0.1c0,0,0,0,0-0.1
				l2.4,0.1c0,0.9-2.7,94.5,12.3,107.9c1.2,1.1,2.5,1.6,3.9,1.4c20.1-2.9,36.5-32.3,36.6-32.6l2.3,0.7c-0.4,1.5-14.8,34.5-40.2,39.2
				C260.2,242.9,259.7,242.9,259.2,242.9z M243.1,142.3c-0.3,16.6-1.6,37.8,0.9,61.8c1.7,16.6,5.6,31.2,10.6,35.7
				c1.6,1.4,3.3,1.9,5.3,1.6c7.2-1.3,26.4-13.4,32.7-26.3c-5.6,10.6-24.1,22-30.2,22.8c-2.1,0.3-4.1-0.4-5.9-1.9
				c-5.1-4.5-8.1-18.8-10.1-35.6C244.1,180.9,243.3,158,243.1,142.3z"/>
		</g>
		<ellipse id="XMLID_25_" class="st26" cx="244" cy="119.1" rx="10" ry="9.7"/>
		<ellipse id="XMLID_24_" class="st27" cx="244" cy="119.1" rx="9.4" ry="9.1"/>
		<ellipse id="XMLID_23_" class="st28" cx="244" cy="119.1" rx="8.8" ry="8.6"/>
		<path id="XMLID_22_" class="st29" d="M246.6,124.7c-1.3,1-2.4,2.2-3.5,3.3c0.1,0,0.2,0,0.3,0c5.3,0,9.6-4,9.9-9.1
			C251,121,248.8,122.8,246.6,124.7z"/>
		<path id="XMLID_21_" class="st29" d="M237.9,125.7c1.6-1.7,3.2-3.3,4.9-4.8c2.8-2.4,5.6-4.7,8.3-7.1c-0.4-0.5-0.8-0.9-1.3-1.3
			c-3.3,3.3-6.7,6.5-10.7,9.1c-1,0.7-2,1.3-3.1,2C236.5,124.3,237.2,125.1,237.9,125.7z"/>
		<ellipse id="XMLID_20_" class="st30" cx="244" cy="119.1" rx="5.6" ry="5.4"/>
		<path id="XMLID_19_" class="st21" d="M332.2,130c-2.7,2.3-4.8,4.6-6.3,8.2c-5.3,13.2-14.5,34.9-17.3,31.9c-2-2.2-6.3-19.1-9-30.3
			c-1.1-4.5-3.6-7.2-7-9.8H287c0.4,0.4,0.8,0.7,1.3,1c4.1,3,7.1,5.4,8.4,10.4c2.9,10.9,7.6,29.4,7.8,33.7c0.4,11-7.4,28.7-7.4,28.7
			l4.4,1.6c0,0,7.5-25.1,9.9-29.8c1.4-2.7,11.8-18.8,17.3-34.3c1.8-5.1,4.9-8.1,9-11.4H332.2z"/>
		<path id="XMLID_18_" class="st31" d="M327.3,137.7c-0.1,0-0.1-0.1-0.2-0.1c0,0.1-0.1,0.2-0.1,0.3c-1.3,3.2-7,16.2-8.5,19.4
			c-1.3,2.8-2.6,5.5-4.2,8.1c-0.9,1.5-4.9,10.2-7.8,4.7c-0.5-0.9-1.4-3.4-1.8-4.4c-0.9-3-1.7-6.1-2.5-9.2c-0.9-3.7-1.7-7.3-2.6-11
			c-0.4-1.8-0.8-3.6-1.2-5.3c-0.5-2-1.4-3.7-2.6-5.2c-0.3,0.4-0.5,0.5-0.9,0.8c1.4,1.6,2.3,3.6,2.9,6c2.9,10.9,7.6,29.4,7.8,33.7
			c0.3,8.8-4.6,21.8-6.6,26.8c0.1,0.1,0.2,0.1,0.4,0.2c0.3,0.2,0.5,0.3,0.8,0.4c2-6.5,7.2-23.4,9.1-27.3
			c1.4-2.7,11.8-18.8,17.3-34.3c0.4-1.2,0.9-2.3,1.5-3.3C327.7,137.9,327.5,137.9,327.3,137.7z"/>
		<path id="XMLID_15_" class="st32" d="M334.3,86.1c-0.3,0.7-0.6,1.6-0.6,2.2c3,2.6,13.5,3.1,13.4,7.5c0,2.7-4,25.7-11.7,31.7
			c-3.3,2.6-6,4.7-8,7.9c0.5,0.3,0.9,0.7,1.4,1c0.3,0.2,1.2,1.2,1.5,1.4c2-3.4,4.9-5.9,8.4-8.6c8.9-7,12.6-30.4,12.3-33.1
			C350.2,88.7,336.3,87.7,334.3,86.1z"/>
		<path id="XMLID_12_" class="st33" d="M336.8,128.1c8.1-6.3,12.2-30.2,12.2-33.1c0.1-4.2-11.5-5.7-15.1-8c0,0-0.1,0.3-0.1,0.4
			c3.4,2.4,14.3,3.3,14.2,7.6c0,2.9-4.2,26.8-12.2,33.1c-3.2,2.5-5.9,4.6-7.9,7.5c0.2,0.2,0.5,0.3,0.7,0.5
			C330.6,133.3,333.6,130.5,336.8,128.1z"/>
		<path id="XMLID_9_" class="st32" d="M273.6,97.2c0-3,5.4-4.9,9.6-6.5c0-0.8,0-1.5,0.2-2.3c-5.1,1.6-13,3.7-13.7,8.9
			c-0.4,2.9,9.6,27.1,18.6,33.5c2.1,1.5,4,2.9,5.4,4.6c0.7-0.9,1.4-1.9,2.2-2.8c-1.4-1.5-3.1-2.8-5-4.1
			C282.8,123.1,273.7,100,273.6,97.2z"/>
		<path id="XMLID_6_" class="st33" d="M273,97.4c-0.1-3.6,5.8-5.6,10.2-7.2c0-0.2,0-0.5,0-0.7c-5,1.8-11.7,4.1-11.8,7.9
			c-0.1,2.7,9.5,26,17.6,31.6c1.7,1.2,4.4,3.6,5.9,5.1c0.2-0.3,0.5-0.6,0.7-0.8c-1.4-1.5-3.1-2.9-5-4.2
			C282.5,123.4,273.1,100.1,273,97.4z"/>
	</g>
	
		<radialGradient id="XMLID_142_" cx="329.8851" cy="2248.7361" r="7.0765" gradientTransform="matrix(0.9958 -9.120000e-002 7.160000e-002 0.7815 -172.2106 -1631.4225)" gradientUnits="userSpaceOnUse">
		<stop  offset="0" style="stop-color:#F9AA88"/>
		<stop  offset="0.3549" style="stop-color:#F9AD89"/>
		<stop  offset="0.631" style="stop-color:#FAB48B"/>
		<stop  offset="0.8803" style="stop-color:#FCC190"/>
		<stop  offset="0.8984" style="stop-color:#FCC290"/>
	</radialGradient>
	<path id="XMLID_4_" class="st34" d="M325.1,95.2c0.3,2.8-3,5.5-7.3,5.9c-4.3,0.4-8-1.6-8.3-4.4c-0.3-2.8,3-5.5,7.3-5.9
		C321.1,90.3,324.9,92.3,325.1,95.2z"/>
	
		<radialGradient id="XMLID_143_" cx="270.7397" cy="2274.9221" r="6.1762" gradientTransform="matrix(0.9884 0.152 -0.1193 0.7757 293.666 -1711.2723)" gradientUnits="userSpaceOnUse">
		<stop  offset="0" style="stop-color:#F9AA88"/>
		<stop  offset="0.3549" style="stop-color:#F9AD89"/>
		<stop  offset="0.631" style="stop-color:#FAB48B"/>
		<stop  offset="0.8803" style="stop-color:#FCC190"/>
		<stop  offset="0.8984" style="stop-color:#FCC290"/>
	</radialGradient>
	<path id="XMLID_3_" class="st35" d="M296.6,95.6c-0.4,2.5-3.7,4-7.5,3.4c-3.7-0.6-6.5-3-6.1-5.5c0.4-2.5,3.7-4,7.5-3.4
		C294.3,90.6,297,93.1,296.6,95.6z"/>
</g>
<g id="XMLID_121_">
	<path id="XMLID_246_" class="st36" d="M139.1,117.7c0,0,42.3,8,46.2,7.9c3.9-0.1,5.7-3.9,5.7-3.9l-51-6.5L139.1,117.7z"/>
	<path id="XMLID_243_" class="st36" d="M173.8,119.5l17.2,2.2c0,0-1.8,3.8-5.7,3.9c-1.5,0-9-1.2-17.5-2.7
		C170,122,172,120.8,173.8,119.5z"/>
	<g id="XMLID_240_">
		<path id="XMLID_242_" class="st0" d="M142.7,102.6c2.6,2.8,6.2,4.9,9.4,6.9c0.9,0.6,1.7,1.1,2.6,1.6c0,0,0,0,0,0
			c5.6,3.7,12.1,7.1,19.1,8c1.1,8.3,3.2,19.9,6.1,23.4c5.6,7-42.5-3.1-42.5-3.1S144.5,123.9,142.7,102.6z"/>
		<path id="XMLID_241_" class="st1" d="M169.1,131.5c-5.3-1.3-11.7-7.1-17.3-4c-2.4,1.4-3.6,4.8-4.7,7.1c-1,2-1.5,4.2-2.3,6.3
			c-4.4-0.8-7.3-1.5-7.3-1.5s7.1-15.6,5.3-36.8c2.6,2.8,6.2,4.9,9.4,6.9c0.9,0.6,1.7,1.1,2.6,1.6c0,0,0,0,0,0
			c5.6,3.7,12.1,7.1,19.1,8c0.5,3.7,1.5,9.8,2.4,13.3C173.9,132.3,171.4,132,169.1,131.5z"/>
	</g>
	<path id="XMLID_239_" class="st37" d="M140,50.2c0,0-8.4,17-7.6,24.9c0.9,8,7.6,3.1,7.6,3.1l0.3-23.2L140,50.2z"/>
	<path id="XMLID_238_" class="st0" d="M137.9,61.3c-0.1-4.6,19.5-7,21.4-8.1c0,0,24.5-2.1,26.7,10c0.7,3.7,0.3,8.8,0.6,13.2
		c0.6,7.7,1.6,12.6,2.6,15.7c0,0.4,0.1,0.7,0.1,1.1c0,0,0,0.2,0,0.5c0,0.5,0,1-0.1,1.5c0,0.3,0,0.5,0,0.7c0,0.2-0.1,0.4-0.1,0.5
		c-0.6,2.4-0.3,4.7-0.3,7c-3.9,6.1-11.8,14.2-19.8,14.1c-11.8-0.2-27.7-12.5-27.3-14C142.2,102.1,138,65.9,137.9,61.3z"/>
	<g id="XMLID_235_">
		<path id="XMLID_237_" class="st0" d="M139.7,74.5c0,0-3.3-6.5-8.6-1.5c-5.4,5-1.9,12.1,1.6,13.9c3.5,1.8,6.9,3,7.2,3.4
			C140.2,90.7,140.8,76.7,139.7,74.5z"/>
		<path id="XMLID_236_" class="st17" d="M132,76.3c-0.1,0.1-0.2,0.3-0.3,0.4c-0.3,0.2-0.6,0.1-0.6-0.1c-0.1-0.2,0.1-0.6,0.2-0.8
			c0.8-1.6,3-1.2,4-0.9c3.5,1.3,3.8,5.9,3.3,9.2c-1.2,3.8-6-1.3-4.5-3.9c0.5-0.9,1.1-2,1-3c-0.1-1-1.2-1.6-2.2-1.5
			c-0.2,0-0.5,0.1-0.7,0.3C132.1,76,132,76.2,132,76.3z"/>
	</g>
	<path id="XMLID_234_" class="st1" d="M176.4,60.4c-5.3-0.6-24.7-0.2-30,0.6c-3.2,0.5-5.8,1.8-8.4,3.3c-0.1-1.4-0.2-2.5-0.2-3.1
		c-0.1-4.6,19.5-7,21.4-8.1c0,0,24.1-2,26.7,9.7C183.8,61.7,178.7,60.7,176.4,60.4z"/>
	<g id="XMLID_225_">
		<path id="XMLID_233_" class="st1" d="M146.7,77.7c1.4-2,2.9-3.2,4-3.7c2.5-1.2,4.8-1.1,6.8-0.4c2.8,1,3.8,4.1,4,4.7
			c0.1,0.1-0.4,1.2-0.6,1.6c-0.9,1.4-3.2,3.6-6.9,3.1C147.7,82.3,146.7,77.7,146.7,77.7z"/>
		<path id="XMLID_232_" class="st6" d="M160.9,78.3c0,0-2.5-3.5-6.4-3.2s-5.6,3.6-5.6,3.6s1,2.2,4.2,2.9
			C156.3,82.3,160.2,81.2,160.9,78.3z"/>
		<g id="XMLID_228_">
			<ellipse id="XMLID_231_" class="st38" cx="154.7" cy="78.3" rx="3.1" ry="3"/>
			<ellipse id="XMLID_230_" class="st8" cx="154.7" cy="78.2" rx="1.9" ry="1.8"/>
			<circle id="XMLID_229_" class="st9" cx="156" cy="77.2" r="0.6"/>
		</g>
		<path id="XMLID_227_" class="st10" d="M161.3,78.2c0,0-1.3-1.4-2.9-2.3c-2.4-1.3-5.9-1.7-10.6,2.5l1.1,0.8c0,0,1.7-2.9,5.8-3.1
			c0,0,3.8-0.1,6.1,2.6L161.3,78.2z"/>
		<path id="XMLID_226_" class="st10" d="M148.8,78.6c0.3,0,2.4,3.4,7.7,2.5c3-0.5,4.1-2.7,4.1-2.7l0.7-0.2c-0.1,1-2.7,4.9-7.3,4
			c-3.8-0.7-5.7-3.1-6.2-3.8C148.1,78.5,148.4,78.6,148.8,78.6z"/>
	</g>
	<path id="XMLID_224_" class="st1" d="M179.3,72.5c2.1-0.7,5.5,0.9,7.3,2.6c0,1,0.1,1,0.1,2.5c-0.4,1.4-2.3,3.8-5.6,4.2
		c-3.8,0.4-7-3.4-7-4.3c0,0,0-0.1,0.1-0.2C174.4,76.8,175.8,73.7,179.3,72.5z"/>
	<path id="XMLID_223_" class="st6" d="M184.9,76.6c0,0,0.7,4-5.8,4.4c0,0-4.3-1.7-4.5-3.2c0,0,1.4-3.2,5-3.2S184.2,75.6,184.9,76.6z
		"/>
	<g id="XMLID_219_">
		
			<ellipse id="XMLID_222_" transform="matrix(-0.9958 -9.134067e-002 9.134067e-002 -0.9958 350.1827 170.9893)" class="st38" cx="179" cy="77.5" rx="2.8" ry="2.7"/>
		
			<ellipse id="XMLID_221_" transform="matrix(-0.9958 -9.132423e-002 9.132423e-002 -0.9958 350.027 170.7572)" class="st8" cx="178.9" cy="77.4" rx="1.7" ry="1.7"/>
		<circle id="XMLID_220_" class="st9" cx="180" cy="76.3" r="0.5"/>
	</g>
	<path id="XMLID_218_" class="st10" d="M174.2,77.8c0,0,2,3.6,6.6,3.2c3.6-0.3,4.8-4.2,4.8-4.2l-0.7,0c0,0-1.1,3-4.8,3.1
		c-3.6,0.1-5.5-2.5-5.5-2.5L174.2,77.8z"/>
	<path id="XMLID_217_" class="st10" d="M174.2,77.8c0,0,1.9-3.2,4.6-3.7c2.7-0.5,5.3,0.5,6.9,2.7l-0.6,0.7c0,0-1.5-2-5.1-2.3
		c-3.6-0.2-5.2,2.7-5.2,2.7L174.2,77.8z"/>
	<path id="XMLID_216_" class="st6" d="M159.2,100.5c0,0,4,0.9,8.3,1.1c3.3,0.1,6.8-0.3,8.9-1.1c0,0-1.9,5.9-6.5,6.5
		C165.2,107.6,160.1,102.7,159.2,100.5z"/>
	<path id="XMLID_215_" class="st13" d="M174.5,395.2l10.1-0.4c0,0,27.5,18.6,19.4,21.8c-7.6,2.9-15.3-5.2-25-6.8
		c-1.4-0.2-2.6-1.3-2.9-2.8L174.5,395.2z"/>
	<path id="XMLID_214_" class="st13" d="M146.1,396.9l-11.4-3.6c0,0-29.5,20.5-20.2,23.4c8.6,2.7,16.6-6.9,27.4-9.4
		c1.6-0.4,2.8-1.7,3-3.3L146.1,396.9z"/>
	<g id="XMLID_209_">
		<path id="XMLID_211_" class="st14" d="M192.5,327.2c-5.3,0.2-10.5,0.1-15.8-0.1c-2.1-0.1-4.2-0.1-6.4,0c0.3,14.7,1.1,67-0.1,70.8
			c3.2-0.2,18.3-1,20.6,0.3C190.9,398.2,188.2,349.1,192.5,327.2z"/>
		<path id="XMLID_210_" class="st39" d="M192.5,327.2c-5.3,0.2-10.5,0.1-15.8-0.1c-2.1-0.1-4.2-0.1-6.4,0c0.1,3.4,0.2,8.9,0.2,15.3
			c10.5-0.7,12.1,16.2,12.6,23.6c0.5,7.5,0.4,31.2,0.5,31.5c3.4,0,6.3,0.2,7.2,0.7C190.9,398.2,188.2,349.1,192.5,327.2z"/>
	</g>
	<g id="XMLID_204_">
		<path id="XMLID_206_" class="st14" d="M153.9,319.5c0-0.1,0-0.2,0-0.2c-2.4,1.1-5.2,1.3-7.9,1.4c-5,0.2-10,0.3-15-0.2
			c0,7.4-2.7,49.9-4,76.4c0,0,8.9-1.3,20.5,0.2C147.6,397,153,336.1,153.9,319.5z"/>
		<path id="XMLID_205_" class="st39" d="M133,342c10.7-1.1,10.2,10.6,10.2,16c0.1,7.8-1.2,27.3-3,38.4c2.2,0.1,4.7,0.3,7.3,0.6
			c0,0,5.5-61,6.4-77.5c0-0.1,0-0.2,0-0.2c-2.4,1.1-5.2,1.3-7.9,1.4c-5,0.2-10,0.3-15-0.2c0,2.7-0.6,11.2-1.1,22.8
			C130.5,342.7,132.4,342.1,133,342z"/>
	</g>
	<path id="XMLID_201_" class="st40" d="M192.1,173c-0.8-4.8-18.6-27-32.6-38.2c3.7-0.2,7.5-0.8,10.8-2.3c2.6-1.2,4.5-3,6.6-4.9
		c4.4,2.5,10.8,6.2,16.3,9.5c15.5,9.1,8.1,4.1,11.9,14c3.5,8.9,8.8,23.3,12.9,37.4c5.9,20.3-40.8,14.4-45.4,13.6l2.5-11.6
		c0,0,21.3,2.5,20.2-1.4C194.7,187.2,193.5,181.2,192.1,173z"/>
	<path id="XMLID_200_" class="st14" d="M122.7,268.6c-1.2,18.9-1.8,49-1.9,62.1c3.4,0.4,6.9,0.5,9.7,0.8c10.4,1.3,21.1,0.5,31.5,0.8
		c14.9,0.5,30,1.1,44.8-0.8c3.1-46.4,0.1-71.7-1.5-93c-1.1-15.2-14.4-82.3-14.4-82.3l-16.3-27.7c-0.9,0.5-1.8,1-2.8,1.5
		c-4.3,3.1-10.1,4.3-15.3,3.7c-1.1-0.1-2.1-0.5-2.9-1c-3.3-0.2-6.6-0.8-9.6-2.1c-0.9,1.4-2.3,2.4-4.4,2.5c-0.5,0.1-1,0.2-1.5,0.2
		c-1.3,0-2.3-0.4-3.1-0.9l-19.6,7.3C134.5,179.9,125.6,222.2,122.7,268.6z"/>
	<path id="XMLID_199_" class="st41" d="M200.4,286.8c-0.3,1.7-0.9,10.8-2.2,20.8c-1.1,9.3-2.6,19.4-4.2,25c4.3-0.2,8.5-0.5,12.7-1
		c3.1-46.4,0.1-71.7-1.5-93c-0.6-8.5-5.1-32.2-7.8-52.4c-0.3,1.7-3.2,2-3.3,3c-0.8,5.1-1,10.2-1,15.4
		C193.1,211,206.3,249.3,200.4,286.8z"/>
	<linearGradient id="XMLID_162_" gradientUnits="userSpaceOnUse" x1="125.9969" y1="229.6385" x2="129.5214" y2="338.8992">
		<stop  offset="0" style="stop-color:#58C3BC"/>
		<stop  offset="0.9786" style="stop-color:#6BC8C3"/>
	</linearGradient>
	<path id="XMLID_198_" class="st42" d="M130.5,331.5c0.3,0,0.7,0.1,1,0.1c-1.9-12.2-7.9-58.5,1.8-115.1c1.3-7.7,0.7-19-5.7-24.9
		c-0.3,24.9-3.1,49.6-4.9,77c-1.2,18.9-1.8,49-1.9,62.1C124.1,331.1,127.6,331.1,130.5,331.5z"/>
	<path id="XMLID_195_" class="st43" d="M123.9,192.8c1.3-7.2,2.2-14.4,2.5-21.6c6,1.7,9-7.7,15.1-4.5c6.5,3.5,22.5,23.2,30.6,21.1
		c8.8-2.3,17.2-16.1,20-24.5c1.7-1.4-0.5,4.8,0.9,3.1c1.2,12.2,7.3,36.4,9.8,53.7c-6.9,4.1-13.8,7.9-21.3,10.9
		c-9.6,3.8-19.3,7.4-29.5,8.8c-5.1,0.7-10.3,0.8-15.4-0.1c-5-0.8-7.6-2.7-11.1-6.3c0,0,2-21.8,1.8-28.4
		C127.3,200.9,124.1,196.9,123.9,192.8z"/>
	<path id="XMLID_194_" class="st14" d="M158.3,133.8c4.8,0.1,9.8-1.1,13.6-3.9c1.6-0.7,3.1-1.6,4.5-2.6c4.4,2.5,21.2,5.8,26.9,9.1
		c5.4,3.2,17.7,40.4,21.2,59.2c1.3,7-5.1,16.8-12.4,17.9c-14.4,2.1-36.6-10.8-39.6-11.4l2.5-11.6c0,0,19.5,0,19.3-4
		c-0.2-4.2-1.8-11.1-1.8-13.6C192.6,152.7,172.3,144.7,158.3,133.8z"/>
	<path id="XMLID_191_" class="st44" d="M222.7,194.7c-3-17.1-14.4-51.1-19.3-54c-0.1,0-0.2-0.1-0.2-0.1c2,2.5,15.1,41.6,17.5,54.2
		c1.1,6-4,14.3-10.2,16.1C211,210.8,224.7,205.8,222.7,194.7z"/>
	<path id="XMLID_188_" class="st44" d="M177,201.5c3.6,1.1,10.7,1.2,16.4,2.3c2.5,0.5,15.1,6.8,18,9.7c-18.3,0.6-36.5-11-38.9-11.4
		l1.1-5.1C177.9,198.1,173,200.3,177,201.5z"/>
	<path id="XMLID_185_" class="st44" d="M191,159.9c0.7,0.4,6.3,11.9,9.3,24c0.6,2.4,1.6,4.7,2.1,7c0,0,0,0,0,0
		c-1.1,0.3-2.2,0.5-3.3,0.7c-3.6,0.5-7.3,0.5-10.9,0.5c-4.6,0-9.2,0.1-13.6,1.1l0.6-2.7c0,0,19.5,0,19.3-4
		c-0.2-4.2-1.5-9.4-1.8-13.6C192.4,172,190.9,164,191,159.9z"/>
	<g id="XMLID_182_">
		<path id="XMLID_184_" class="st0" d="M192.9,210.7c-2.4,2.7-10.6,3.6-10.6,3.6l-5.5-9.5c0,0,0.2-0.9,1.8-2.1
			C179.6,204,182.9,206,192.9,210.7z"/>
		<path id="XMLID_183_" class="st1" d="M192.9,210.7c-2.4,2.7-10.6,3.6-10.6,3.6l-5.5-9.5c0,0,0.2-0.9,1.8-2.1
			C179.6,204,182.9,206,192.9,210.7z"/>
	</g>
	<path id="XMLID_179_" class="st45" d="M134.7,132.5c1,0.3,2,0.8,3,0.5c1.3-0.3,2.6-0.9,3.7-1.6c0.8-0.5,1.5-0.9,2.3-1.3
		c0.6-0.3,1.2-0.7,1.6-1.2c4,1.7,8.9,2.9,12.6,3.1c0.8,0.5,1.8,0.9,2.9,1c5.3,0.6,11.1-0.6,15.3-3.7c1-0.4,1.9-0.9,2.8-1.5l6.1,4.4
		c9.4,13.4-8.7,22.8-15.9,23.9c-18.8,3-38.2-6.4-41.6-21.1L134.7,132.5z"/>
	<path id="XMLID_178_" class="st0" d="M175.2,193.8l-2.2,7.7c0,0-8.4-0.3-17.2,0c-8.8,0.3-6.1-9.9-6.1-9.9s3.4-3.1,9.6-3.2
		C163.7,188.4,169.9,190.5,175.2,193.8z"/>
	<path id="XMLID_177_" class="st1" d="M153.1,189.7c0.4,0.5,0.8,0.9,1.1,1.4c0.7,0.9,1.3,2,2.2,2.7c2.7,2.4,5.5,3.9,9.1,4.4
		c3.1,0.4,6-0.1,8.8-1l-1.2,4.2c0,0-8.4-0.3-17.2,0c-8.8,0.3-6.1-9.9-6.1-9.9S150.9,190.6,153.1,189.7z"/>
	<polygon id="XMLID_176_" class="st46" points="183.5,190.1 181.7,205 172,203.5 173.6,190.4 	"/>
	<path id="XMLID_175_" class="st1" d="M162.7,65.9c0,0-0.9,5-2.2,5.2s-6-0.8-8.9-0.7c-2.8,0.1-8.9,2.1-8.9,2.1s2.2-4.9,2.9-5.6
		c0.7-0.7,9.8-1.7,10.8-1.7l1.2,2.7c0,0,0.9-2.7,1.2-2.7C159,65.2,160.6,65,162.7,65.9z"/>
	<path id="XMLID_174_" class="st1" d="M180.1,64.7l0.5,2.3l0.3-2.2c0,0,3.8,1,4.8,1.5c0.3,0.2,0.6,0.8,0.7,1.4c0,0,0,0,0,0.1
		c0,0.4,0,0.8,0.1,1.2c0,0,0,0,0,0c0,0,0,0,0,0c-0.1,0.4-0.1,0.7-0.1,1.3c-0.5-0.3-1.3-0.8-2.9-1c-2.6-0.3-7.7,0.8-9,0.7
		c-1.3-0.1-1.7-5.1-1.7-5.1C174,64,180.1,64.7,180.1,64.7z"/>
	<path id="XMLID_173_" class="st37" d="M162.8,65.2c0,0-0.9,5-2.2,5.2s-6-0.8-8.9-0.7c-2.8,0.1-8.9,2.1-8.9,2.1s2.2-4.9,2.9-5.6
		c0.7-0.7,9.8-1.7,10.8-1.7l1.2,2.7c0,0,0.9-2.7,1.2-2.7C159.2,64.5,160.8,64.3,162.8,65.2z"/>
	<polygon id="XMLID_170_" class="st47" points="136.2,132.9 132,132.1 132.5,121 134.2,117.4 	"/>
	<polygon id="XMLID_167_" class="st47" points="134.7,115.9 146.5,114.3 146.5,119.6 134.1,117.7 	"/>
	<path id="XMLID_164_" class="st48" d="M146.5,114.3c0,0,18.5,15,27.3,13.5c11.4-2,17.2-6.1,17.2-6.1s-4.1,26.3-24.6,28.5
		c-20.5,2.2-34.3-18-34.3-18S146.6,131.6,146.5,114.3z"/>
	<path id="XMLID_161_" class="st36" d="M145,122.6c3.2,9,9.8,16.5,19.9,18.1c6.7,1.1,13.5,0.4,19.3-2.1c-3.7,5.6-9.4,10.7-17.9,11.6
		c-20.5,2.2-34.3-18-34.3-18S141.4,131.7,145,122.6z"/>
	<path id="XMLID_160_" class="st37" d="M172.6,64.2c0,0,0.4,5,1.7,5.1c1.3,0.1,6.4-1,9-0.7c2.6,0.3,3.3,1.3,3.3,1.3
		s-0.2-3.8-1.1-4.4c-1-0.6-4.8-1.5-4.8-1.5l-0.3,2.2l-0.5-2.3C179.9,63.9,173.9,63.3,172.6,64.2z"/>
	<g id="XMLID_155_">
		<path id="XMLID_159_" class="st49" d="M142.1,55.6c0-0.1,0-0.1,0-0.1S145,56.6,142.1,55.6z"/>
		<path id="XMLID_156_" class="st37" d="M138.8,109.7c3.7,6.1,23.7,14.5,32.5,14.5c6.6,0,16.5-11.6,19.4-17.7
			c2.9-6.2-2.5-18.4-2.5-18.4c2.2,9.1-4.9,15.7-4.9,15.7c-0.9-3.1-3.7-6.5-5.8-8.3c-2.1-1.8-8.2-1.7-12.1-1.6s-8.4,3.1-9.5,3.8
			s-3.1,6.3-3.1,6.3c-4.4-2.4-7.6-4.3-9.4-9.4c-1.8-5-2.1-13.2-2.6-19.5c-0.9-11.8,1-18.6,1.3-19.5c-0.1,0-0.2-0.1-0.4-0.1
			c-3.5-1.2-4.8,5.9-4.8,5.9C140.8,80.1,135.2,103.9,138.8,109.7z M158.4,99.2c0.4-0.8,1.3-1.3,2.2-1.2c2.4,0.2,7.7,0.8,8.6,0.6
			c0.6-0.1,2.8-0.4,4.4-0.7c1.4-0.2,3.1-0.1,3.6,1.2c0.8,2,1.1,4.9-1.6,8.3c-4.4,5.4-12.5,3.1-14.9,0
			C159.3,105.6,156.8,102.1,158.4,99.2z"/>
	</g>
	<g id="XMLID_153_">
		<path id="XMLID_154_" class="st50" d="M185.3,61.1c0,0,0.7-22.9-10.4-29c-11.1-6.1-35.2,2.4-37.6,7c-2.4,4.6-5.2,23.2-3.5,26.7
			c0,0,2.3-7.4,30.2-7.4C176.1,58.4,184.3,58.7,185.3,61.1z"/>
	</g>
	<g id="XMLID_151_">
		<path id="XMLID_152_" class="st14" d="M185.3,61.1c0,0,0.7-22.9-10.4-29c-11.1-6.1-35.2,2.4-37.6,7c-2.4,4.6-5.2,23.2-3.5,26.7
			c0,0,2.3-7.4,30.2-7.4C176.1,58.4,184.3,58.7,185.3,61.1z"/>
	</g>
	<g id="XMLID_149_" class="st3">
		<linearGradient id="XMLID_163_" gradientUnits="userSpaceOnUse" x1="190.4365" y1="45.6631" x2="123.4428" y2="50.7191">
			<stop  offset="0" style="stop-color:#54C3BB"/>
			<stop  offset="1" style="stop-color:#6BC8C3"/>
		</linearGradient>
		<path id="XMLID_150_" class="st51" d="M175,32.1c-0.7-0.4-1.4-0.7-2.2-1c0.5,9.3,1,20.3-10.8,21.7c-4.5,0.5-8.9,0.5-13.2,1.9
			c-4.1,1.3-8,3.1-12,4.7c-1.2,0.5-2.3,1-3.5,1.5c-0.1,2.3,0.1,4.1,0.5,5c0,0,2.3-7.4,30.2-7.4c12.1,0,20.3,0.3,21.4,2.6
			C185.3,61.1,186,38.2,175,32.1z"/>
	</g>
	<g id="XMLID_145_" class="st3">
		<path id="XMLID_146_" class="st1" d="M186.9,79.5c-0.9,2.5-4.1,4.4-7.8,4.4c-4.4,0-8-2.7-8-6c0-3.3,3.6-6,8-6
			c3.3,0,6.3,1.5,7.5,3.6c0-0.7-0.1-1.4-0.1-2c-1.7-1.6-4.5-2.6-7.5-2.6c-5.1,0-9.2,3-9.4,6.8c-4-2.1-6.4-0.1-7.2,0.8
			c-0.7-3.5-4.8-6.2-9.7-6.2c-5.4,0-9.9,3.3-9.9,7.3c0,4,4.4,7.3,9.9,7.3c5.4,0,9.8-3.3,9.9-7.3c2.6-2.8,5.8-1.6,7.2-0.9
			c0.5,3.5,4.5,6.2,9.3,6.2c3.4,0,6.5-1.4,8.2-3.4C187,80.8,187,80.2,186.9,79.5z M152.7,85.9c-4.6,0-8.4-2.8-8.4-6.3
			c0-3.5,3.8-6.3,8.4-6.3c4.6,0,8.4,2.8,8.4,6.3C161.1,83.1,157.3,85.9,152.7,85.9z"/>
	</g>
	<g id="XMLID_132_">
		<g id="XMLID_137_">
			<path id="XMLID_144_" class="st14" d="M111.5,142.4c4.9-4.8,10-3.9,10-3.9c24.6,10.7,28.3,60.3,33.3,61.5
				c4.2,1.1,17,0.3,20.5,0.1c0.5,5.3,2.5,10.3,4.4,15.2c-13.8,6-36.1,8.3-41.7,8.7c-3.6,0.3-8.3,0.5-10.1-2.6
				C115.3,200.6,105.8,148.1,111.5,142.4z"/>
			<path id="XMLID_141_" class="st44" d="M178.6,207c-2.2,0.9-26.9-2.3-28.9-5.4c-0.8-1.3-7.1-28.8-8-38.8
				c7.4,17.2,10,36.5,13.1,37.3c3.4,0.9,12.2,0.5,17.5,0.3C172.1,200.4,178.7,207,178.6,207z"/>
			<path id="XMLID_138_" class="st14" d="M111.5,142.4c0,0,2,49.9,22.3,73.8c4.4,5.2,20.3,2.6,27.1,1.9c6.4-0.6,12.3-1.9,17.7-5.4
				c0.7-0.5,1.5-1,2.2-1.5c0.1,0.1,0.2,0.3,0.3,0.4c0.1,0.1,0.2,0.3,0.2,0.5c0,0,0,0,0,0c0.2,0.7,0.5,1.3,0.9,1.9
				c-13.4,6.7-38.3,9.4-44.3,9.9c-3.6,0.3-8.3,0.5-10.1-2.6C115.3,200.6,105.8,148.1,111.5,142.4z"/>
		</g>
		<polygon id="XMLID_136_" class="st46" points="177.7,216.8 170.6,200.4 179.4,199.1 185.7,214 		"/>
		<path id="XMLID_135_" class="st52" d="M181.7,204.6c0,0-0.3-0.2-0.3-0.3c-1.8-1-6.2-2.9-7-3.2c-0.9-0.3-1.8-0.6-2.7-0.9l-1.1,0.2
			l3.6,8.2c3-0.1,6.1-0.4,9.1-0.4C183.2,207.9,182.1,205.4,181.7,204.6z"/>
		<path id="XMLID_134_" class="st44" d="M145.8,207.1c0,0,3.1-5.1,8.3-6.1c0,0-6.9,0-13.4,5.3C137.3,209.3,145.8,207.1,145.8,207.1z
			"/>
		<path id="XMLID_133_" class="st44" d="M142.6,202.8c0,0,6.1-3.8,11.3-2.6c0,0-4-2.3-15.7,1.3C133.8,202.9,142.6,202.8,142.6,202.8
			z"/>
	</g>
	<path id="XMLID_131_" class="st44" d="M204.1,193.1c0,0-4.2-3.5-9.8-3.4c0,0,7.1-1.1,14.8,2.1C213.3,193.4,204.1,193.1,204.1,193.1
		z"/>
	<path id="XMLID_130_" class="st44" d="M206.5,189.3c0,0-5.7-1.9-10.8-0.1c0,0,6.3-2,15-1.6C215.5,187.9,206.5,189.3,206.5,189.3z"
		/>
	<path id="XMLID_129_" class="st12" d="M170.9,66.6c0,0-1.7,4.7-1.7,5.9c0,1.2,6.4,17.9,6.7,19.3c0.3,1.3-1.3,5.9-12.1,3
		c0,0-2.3-1.3-2.4-3.6c-0.1-2,1.8-3.5,3.8-3c0.7,0.2,1.2,0.6,1.1,1.6c0,0-0.2,0.4-1.3,0.1c-1.2-0.3-2.2,1-1.5,2
		c0.2,0.3,0.5,0.5,1,0.7c2.3,1,8.5,1.6,9-0.7c0.5-2.3-5.5-17.4-5.5-19.3C167.8,70.7,171.1,64.8,170.9,66.6z"/>
	<g id="XMLID_124_">
		<path id="XMLID_125_" class="st53" d="M144.3,78.4c0,4,4.4,7.3,9.9,7.3c5.4,0,9.8-3.3,9.9-7.3c2.6-2.8,5.8-1.6,7.2-0.9
			c0.5,3.5,4.5,6.2,9.3,6.2c5.2,0,9.4-3.1,9.4-7c0-3.9-4.2-7-9.4-7c-5.1,0-9.2,3-9.4,6.8c-4-2.1-6.4-0.1-7.2,0.8
			c-0.7-3.5-4.8-6.2-9.7-6.2C148.7,71.1,144.3,74.3,144.3,78.4z M172.5,76.7c0-3.3,3.6-6,8-6s8,2.7,8,6c0,3.3-3.6,6-8,6
			S172.5,80,172.5,76.7z M145.8,78.4c0-3.5,3.8-6.3,8.4-6.3c4.6,0,8.4,2.8,8.4,6.3c0,3.5-3.8,6.3-8.4,6.3
			C149.5,84.6,145.8,81.8,145.8,78.4z"/>
	</g>
	
		<radialGradient id="XMLID_165_" cx="121.5677" cy="2265.8945" r="6.1749" gradientTransform="matrix(0.9824 0.1869 -0.1466 0.771 363.7527 -1677.9423)" gradientUnits="userSpaceOnUse">
		<stop  offset="0" style="stop-color:#F9AA88"/>
		<stop  offset="0.3549" style="stop-color:#F9AD89"/>
		<stop  offset="0.631" style="stop-color:#FAB48B"/>
		<stop  offset="0.8803" style="stop-color:#FCC190"/>
		<stop  offset="0.8984" style="stop-color:#FCC290"/>
	</radialGradient>
	<path id="XMLID_123_" class="st54" d="M157.7,93.1c-0.5,2.5-3.9,3.9-7.6,3.2c-3.7-0.7-6.3-3.3-5.9-5.7c0.5-2.5,3.9-3.9,7.6-3.2
		C155.6,88.1,158.2,90.6,157.7,93.1z"/>
	
		<radialGradient id="XMLID_166_" cx="203.677" cy="2342.5459" r="5.5896" gradientTransform="matrix(0.9575 -0.1596 0.129 0.7741 -315.6474 -1691.748)" gradientUnits="userSpaceOnUse">
		<stop  offset="0" style="stop-color:#F9AA88"/>
		<stop  offset="0.3549" style="stop-color:#F9AD89"/>
		<stop  offset="0.631" style="stop-color:#FAB48B"/>
		<stop  offset="0.8803" style="stop-color:#FCC190"/>
		<stop  offset="0.8984" style="stop-color:#FCC290"/>
	</radialGradient>
	<path id="XMLID_122_" class="st55" d="M187.5,88.1c0.4,2.2-2,4.5-5.3,5c-3.3,0.5-6.2-0.8-6.6-3c-0.4-2.2,2-4.5,5.3-5
		C184.2,84.5,187.1,85.9,187.5,88.1z"/>
</g>
<path id="XMLID_139_" class="st56" d="M229.1,435c0,0-26.4,23.2-69.3,21.6c-20.2-0.7-43.4-2-70.5-23.6
	C89.3,433,168.8,396.6,229.1,435z"/>
<path id="XMLID_1_" class="st56" d="M382.2,435.6c0,0-26.4,15.9-69.3,14.8c-20.2-0.5-43.4-1.4-70.5-16.2
	C242.4,434.3,321.9,409.4,382.2,435.6z"/>
</svg>
