<?xml version="1.0" encoding="utf-8"?>
<!-- Generator: Adobe Illustrator 19.0.0, SVG Export Plug-In . SVG Version: 6.00 Build 0)  -->
<svg version="1.1" id="Layer_1" xmlns="http://www.w3.org/2000/svg" xmlns:xlink="http://www.w3.org/1999/xlink" x="0px" y="0px"
	 viewBox="0 0 350 300" style="enable-background:new 0 0 350 300;" xml:space="preserve">
<style type="text/css">
	.st0{opacity:0.5;fill:#6BC288;}
	.st1{fill:#193257;}
	.st2{opacity:0.39;fill:#193257;}
	.st3{fill:#38464E;}
	.st4{opacity:0.24;fill:#38464E;}
	.st5{fill:#91B4CC;}
	.st6{fill:#6BC288;}
	.st7{opacity:0.12;fill:#193257;}
	.st8{opacity:0.31;fill:#A9A9AD;}
	.st9{fill:#FFDBAB;}
	.st10{opacity:0.27;fill:#F7986C;}
	.st11{opacity:0.13;fill:#614C46;}
	.st12{fill:#223D6E;}
	.st13{fill:#614C46;}
	.st14{fill:#F7986C;}
	.st15{fill:#ACD8F2;}
	.st16{opacity:0.31;}
	.st17{fill:#A9A9AD;}
	.st18{opacity:0.1;fill:#38464E;}
	.st19{fill:#ECF0F1;}
</style>
<g id="XMLID_2_">
	<g id="XMLID_22_">
		<ellipse id="XMLID_76_" class="st0" cx="93.7" cy="292.7" rx="77.3" ry="7.3"/>
		<g id="XMLID_73_">
			<path id="XMLID_75_" class="st1" d="M53.6,267.3l-2.7,7.4c-0.5,1.3,0.8,2.5,2.6,2.5h29.6c1.8,0,3.1-1.3,2.6-2.6l-3.8-8.9
				c-0.4-0.9-1.6-1.5-2.8-1.4l-23,1.5C54.8,265.9,53.9,266.5,53.6,267.3z"/>
			<path id="XMLID_74_" class="st2" d="M80.7,264.6l-18.2,1.2c-1.1,0.1-2.1,0.7-2.4,1.5l-2.7,7.4c-0.5,1.3,0.8,2.5,2.6,2.5h-6.5
				c-1.8,0-3.1-1.2-2.6-2.5l2.7-7.4c0.3-0.8,1.2-1.4,2.4-1.5l23-1.5C79.6,264.3,80.2,264.4,80.7,264.6z"/>
		</g>
		<g id="XMLID_70_">
			<path id="XMLID_72_" class="st1" d="M95.4,266v8.2c0,1,1,1.7,2.3,1.8l37.4,1c2.2,0.1,3-1.7,1.7-3.1c-4.4-4.6-13.7-9.3-13.7-9.3
				c-0.4-0.3-1-0.5-1.6-0.5H97.9C96.5,264.2,95.4,265,95.4,266z"/>
			<path id="XMLID_71_" class="st2" d="M136.3,276.9c-0.3,0.1-0.7,0.2-1.1,0.2l-37.4-1c-1.3,0-2.3-0.8-2.3-1.8V266
				c0-1,1.1-1.8,2.4-1.8h6.5c-1.3,0-2.4,0.8-2.4,1.8v8.2c0,1,1,1.7,2.3,1.8L136.3,276.9z"/>
		</g>
		<g id="XMLID_65_">
			<path id="XMLID_69_" class="st3" d="M44.4,185.4c0.3,4.7,3.2,57.7,7.1,80.3c0.2,1.4,1.7,2.6,3.6,2.8c5.1,0.6,15.3,1.5,26.3,0.1
				c2.5-0.3,4.3-1.8,4.5-3.7l5.4-55.6c0-0.4,0.9-0.4,0.9,0c0.5,12.4,1.5,39.5,1.4,55.6c0,1.7,1.6,3.2,3.9,3.6
				c8.8,1.5,19.7,1,27.3-0.3c2.2-0.4,3.8-1.7,4-3.3c2.1-12,10.5-63,6.5-80.5c0-0.2-0.2-0.3-0.4-0.3l-90.1,0.9
				C44.6,185.1,44.4,185.2,44.4,185.4z"/>
			<g id="XMLID_66_">
				<path id="XMLID_68_" class="st4" d="M100.9,268.5c3.2,0.6,6.6,0.9,10,0.9c-4.5,0.1-9.2-0.2-13.4-0.9c-2.3-0.4-3.9-1.8-3.9-3.6
					c0-8.6-0.3-20.4-0.6-31.4l-0.8-24.2c0-0.4,1.8-1.7,2.1,0c2.3,12.3,3,39.5,3,55.6C97.3,266.7,98.8,268.1,100.9,268.5z"/>
				<path id="XMLID_67_" class="st4" d="M62.1,268.5c2.3,0.3,5.8,0.7,10,0.8c-7.2,0.2-13.4-0.4-17-0.8c-1.9-0.2-3.4-1.4-3.6-2.8
					c-3.8-22.6-6.8-75.6-7.1-80.3c0-0.2,0.2-0.3,0.4-0.3l3.8,0l4.1,0c-0.2,0-0.4,0.2-0.4,0.3c0.2,4.7,3,57.7,6.5,80.3
					C59,267.1,60.4,268.3,62.1,268.5z"/>
			</g>
		</g>
		<path id="XMLID_64_" class="st5" d="M129.3,185.7c0,0-45.2,5.9-66,2.3c-14.3-2.4-17.3-3-17.8-3.1c0,0,0.1,0,0.1,0v-71.6
			c0,0,8-7.3,22-11.3c0,0,0.1,0,0.1,0c3.1-0.9,6.5-1.6,10.2-2c1.2-0.1,2.5-0.3,3.8-0.3c0.8,0,1.7-0.1,2.6-0.1c2.5-0.1,5,0.1,7.4,0.5
			c0.5,0.1,1,0.2,1.5,0.3c3.4,0.6,6.7,1.6,9.7,2.8c0,0,0,0,0,0c0.9,0.3,1.8,0.7,2.6,1.1c12.8,5.7,21,14.8,21,14.8L129.3,185.7z"/>
		<path id="XMLID_63_" class="st6" d="M83.4,231.2c0,0-23.3,5.8-59,1.1c-1.1-4.7-1-19.7-0.8-30.5c0.1-6.7,0.3-11.7,0.3-11.7
			c-1-0.7-1.2-1.4-1.2-1.4s-1.3-5.9-1.9-14.7c-1.4-21.4,1.7-59.8,39.3-70.4C60,103.7,89.3,141.8,83.4,231.2z"/>
		<path id="XMLID_62_" class="st7" d="M104.1,103.7c53.1,15,46.3,118.5,44.6,126.1c-18.1,4.3-34.2,0-34.2,0
			C108.6,140.3,104.1,103.7,104.1,103.7z"/>
		<path id="XMLID_61_" class="st6" d="M106,103.7c53.1,15,46.3,118.5,44.6,126.1c-18.1,4.3-34.2,0-34.2,0
			C110.5,140.3,106,103.7,106,103.7z"/>
		<path id="XMLID_60_" class="st7" d="M91.4,107.4l3.8,5.3l10.3-8.4c-0.9-0.5-1.7-0.9-2.6-1.3c0,0,0,0,0,0c-3-1.2-6.3-2.2-9.7-2.8
			c-0.4,1.3-1.1,2.8-2.1,4c-0.2,0.2-0.4,0.4-0.6,0.6l-0.2-0.1c-0.1,0.1-0.2,0.2-0.3,0.2c-1,0.7-2.4,1-4,0.8
			c-0.8-0.1-1.5-0.3-2.2-0.6s-1.3-0.6-1.9-0.9c-0.4-0.3-0.9-0.6-1.3-0.9c0,0,0,0,0,0c-1.2-1.1-2.1-2.4-2.7-3.4
			c-3.7,0.4-7.1,1.1-10.2,2L78,112.7l1.8-2.3c0.5,0.5,1,0.9,1.4,1.1c-0.4,5.5-1.7,24.3-0.9,31.2c0.1,0.7,8.2,9.3,9.2,9.4
			c1.2,0.1,6.3-8.9,6.3-9.9c0-7.2-5.5-25.7-7.1-30.9C89.8,110.8,90.8,108.8,91.4,107.4z"/>
		<path id="XMLID_59_" class="st8" d="M52,152.1c-6.7,9.7-18.7,0-18.7,0c-1.9,4.2-10.9,17.8-12.6,21.9c0.6,8.8,1.9,14.7,1.9,14.7
			s0.2,0.6,1.2,1.4c0,0-0.2,5.1-0.3,11.7c3.2,3.3,12.2,3.6,17.9,2c4.7-1.2,3.6-7.1,3.6-7.1s0,0,3-0.6c3-0.6,0-4,0-4l4.2-1.4
			C48.5,176.4,50.5,167,52,152.1z"/>
		<g id="XMLID_56_">
			<path id="XMLID_58_" class="st9" d="M21.9,186.4c0,0-7.6,15.1,12,15.5c5.7,0.1,9.1-1.9,8.3-9.7c0.9,1.4,1.5,3.3,2.6,3
				c3.3-0.9-0.8-8.9-0.8-8.9L21.9,186.4z"/>
			<path id="XMLID_57_" class="st10" d="M42.3,192.9c0.6,7.3-2.8,9.2-8.3,9.1c-12.3-0.3-13.9-6.3-13.4-10.8c0.5,3.8,3.5,7.8,13.4,8
				C38.7,199.2,41.8,197.9,42.3,192.9z"/>
		</g>
		<path id="XMLID_55_" class="st10" d="M44.8,195.3c-1.1,0.3-1.7-1.5-2.5-2.9c0-0.9,0-1.9-0.1-2.9c0.9,1.4,1.5,3.3,2.6,3
			c0.6-0.2,0.9-0.5,1.1-1C46.3,193.2,46.3,194.9,44.8,195.3z"/>
		<path id="XMLID_54_" class="st10" d="M42.3,192.4c0,0.2,0,0.3,0,0.5c0-0.2,0-0.4-0.1-0.6C42.2,192.3,42.3,192.4,42.3,192.4z"/>
		<path id="XMLID_53_" class="st6" d="M52.8,146.6c-6,14.2-3.9,43.6-3.9,43.6c-29.1,5.6-32.7-1.8-32.7-1.8S7,118.6,60.1,103.7"/>
		<polygon id="XMLID_52_" class="st8" points="78,148 60.1,134.6 67.5,121.4 45.5,118.6 63.4,123.8 57,134.9 		"/>
		<path id="XMLID_51_" class="st9" d="M136.7,88.8c-9.2,7.5-21.7,10.2-33.8,11c-2.9,0.2-5.7,0.3-8.5,0.3c0,0.1-0.1,0.2-0.1,0.3
			c-0.1,0.3-0.2,0.5-0.4,0.8c-0.5,1-1.2,2.2-2.1,3.1c-0.3,0.3-0.5,0.5-0.8,0.7c-0.1,0.1-0.2,0.2-0.4,0.3c-0.1,0-0.2,0.1-0.2,0.1
			c-1.1,0.7-2.5,1-4.3,0.8c-0.9-0.1-1.7-0.4-2.5-0.7c-0.1,0-0.2-0.1-0.3-0.1c-0.7-0.3-1.3-0.6-1.8-0.9c-0.5-0.3-1-0.7-1.4-1
			c-1.1-0.9-2-1.9-2.6-2.7c-0.2-0.3-0.4-0.5-0.6-0.8c-0.1-0.1-0.1-0.2-0.2-0.3c-2.9,0-5.7-0.2-8.2-0.4C39.3,96.7,33,82.6,33,82.6
			S6.4,84.3,7.5,64.1c0.9-16.5,20.8-7.2,22.5,1.1C29.4,55.1,30.3,44.9,45.2,36c14.9-8.9,88.9,0,88.9,0S149.8,78.1,136.7,88.8z"/>
		<path id="XMLID_50_" class="st6" d="M8.9,57.9c-1.4-15.6-8.3-42.2,36.4-53c49-11.8,84.3,8.3,94,7.3c4.7-0.5,7.1-1.8,8.4-3.1
			c1-1,3.1-0.8,3.9,0.3c4.5,6.5,10.5,24.3-10,32.7c-26.5,10.9-88.1-1.8-101.1,3.3c-3.2,1.3-5.1,9.3-4.8,15.5c0.3,5-4.3,5.3-5.5,3.6
			c-2-2.9-3.1-5.2-6.2-6.9C16.3,53.5,12.3,54.6,8.9,57.9z"/>
		<path id="XMLID_49_" class="st11" d="M146.1,40.1c-1.3,0.8-2.8,1.5-4.5,2.2c-26.5,10.9-88.1-1.8-101.1,3.3
			c-3.2,1.3-5.1,9.3-4.8,15.5c0.3,5-4.3,5.3-5.5,3.6c-2-2.9-3.1-5.2-6.2-6.9c-7.8-4.4-11.8-3.2-15.2,0.1c-1.4-15.2-8-41,33.4-52.2
			C15.8,18.3,12.4,41,22.1,44.5c9.7,3.5,11.9-2.3,15.8-3.8C59,32.7,87.8,49.2,146.1,40.1z"/>
		<g id="XMLID_46_">
			<path id="XMLID_48_" class="st1" d="M90.1,110h-6.9c0,0-2,24.6-1,32.8c0.1,0.7,8.3,9.3,9.2,9.4c1.2,0.1,6.3-8.9,6.3-9.9
				C97.7,133.9,90.1,110,90.1,110z"/>
			<path id="XMLID_47_" class="st12" d="M95.1,106.3c0,0-1.6,5.2-3.7,6.3c-1.4,0.7-6.6,1-8.1,0.3c-2.4-0.9-6-6.7-6-6.7l4.2-1.8
				c1.3,0.8,2.8,1.4,4.6,1.7c2.5,0.4,4.4-0.5,5.7-1.9L95.1,106.3z"/>
		</g>
		<path id="XMLID_45_" class="st13" d="M70.6,64.3c0.3,2.5-1.5,4.7-4,4.8c-2.5,0.2-4.8-1.7-5.1-4.2c-0.3-2.5,1.5-4.7,4-4.8
			S70.3,61.8,70.6,64.3z"/>
		<path id="XMLID_44_" class="st13" d="M127.4,59.8c0.3,2.5-1.5,4.7-4,4.8c-2.5,0.2-4.8-1.7-5.1-4.2c-0.3-2.5,1.5-4.7,4-4.8
			C124.8,55.4,127,57.3,127.4,59.8z"/>
		<path id="XMLID_43_" class="st14" d="M80.2,72.9c0,0,20.6,0.8,33.9-1.6c0,0,3.8,18-14.4,19.5C81.5,92.3,80.2,72.9,80.2,72.9z"/>
		<ellipse id="XMLID_42_" class="st10" cx="59" cy="79.2" rx="10.8" ry="7.9"/>
		<ellipse id="XMLID_41_" class="st10" cx="129.8" cy="75.4" rx="10.8" ry="7.9"/>
		<g id="XMLID_38_">
			<path id="XMLID_40_" class="st15" d="M83.3,105.5l-5.3,5.9l-10.5-9.4c2.9-0.8,6-1.5,9.4-1.9c0.2,0.2,0.3,0.5,0.6,0.8
				c0.7,0.9,1.5,1.8,2.6,2.7c0.4,0.4,0.9,0.7,1.4,1C82.1,104.9,82.7,105.2,83.3,105.5z"/>
			<path id="XMLID_39_" class="st15" d="M105.5,104.1l-10.3,7.2l-4.8-5.8c0.1,0,0.2-0.1,0.2-0.1c0.1-0.1,0.2-0.2,0.4-0.3
				c0.3-0.2,0.6-0.5,0.8-0.7c0.9-0.9,1.6-2,2.1-3.1c0.1-0.3,0.3-0.6,0.4-0.8C98.3,101.2,102.1,102.5,105.5,104.1z"/>
		</g>
		<path id="XMLID_37_" class="st10" d="M16.4,64.1c0,0,3.1-3.1,8.1,1.9c5,5,5,9.5,0,9.3c-5-0.2-8.9-4.5-3.7-6.1
			C20.8,69.2,24.5,64.5,16.4,64.1z"/>
		<g id="XMLID_34_" class="st16">
			<path id="XMLID_36_" class="st17" d="M60.9,106.4c5.8-4.5,14.6-4,14.7-4c0.3,0,0.6,0,0.9-0.1c-0.3-0.4-0.5-0.7-0.7-1
				c-2.9,0-5.7-0.2-8.2-0.4c-2.9,0.6-6.1,1.8-8.9,4c-5.2,4.1-7.1,10.3-5.7,18.7c-0.1,0-0.1,0-0.1,0.1c-0.3,0.1-0.4,0.4-0.4,0.6
				l0,0.2c-5.9,0.7-8.6,3.2-9.8,5.3c-3.6,6.4,1.6,16.4,6.9,20.8c2.2,1.8,4,2.3,5.3,2.3c0.4,0,0.7,0,1-0.1c0.8-0.2,1.3-0.8,1.1-1.4
				c-0.2-0.6-1.1-1-1.9-0.8c-0.5,0.1-1.7-0.3-3.1-1.5c-4.5-3.8-9.4-13-6.3-18.4c1.2-2.1,3.6-3.4,7.1-3.9c0.2,0.1,0.4,0.2,0.7,0.2
				c0.7-0.1,1.7-0.1,2.9-0.1c0.3,0,0.5-0.1,0.7-0.2c8.5,0.3,12.5,4.8,14.4,8.7c3.2,6.5,1.8,13.3,0.6,14.3c-0.7,0-1.4,0.4-1.5,1
				c-0.1,0.6,0.5,1.2,1.3,1.3c0.6,0.1,1.8,0,2.8-1.1c2.7-2.9,2.9-12.7-2.1-19.3c-3.5-4.6-8.9-7.1-15.7-7.3l0-0.1
				c-0.1-0.4-0.3-0.6-0.5-0.7C54.7,115.6,56.3,109.9,60.9,106.4z"/>
			<path id="XMLID_35_" class="st17" d="M110.8,105.2c-2.7-2.1-6-3.3-8.9-4c-2.9,0.2-5.7,0.3-8.5,0.3c-0.1,0.4-0.3,0.8-0.5,1.2
				c0.3,0.1,0.6,0.2,0.9,0.1c0.1,0,8.8-0.6,14.7,4c4.9,3.8,6.4,10.1,4.6,18.7c-0.1,0.6,0.4,1.2,1.3,1.3c0.1,0,0.2,0,0.3,0
				c0.8,0,1.4-0.4,1.6-1C118.2,116.5,116.4,109.6,110.8,105.2z"/>
		</g>
		<g id="XMLID_29_">
			<g id="XMLID_31_">
				<path id="XMLID_33_" class="st1" d="M73.3,129.9c5,6.6,4.8,16.4,2.1,19.3c-1,1.1-2.2,1.1-2.8,1.1c-0.9-0.1-1.5-0.7-1.3-1.3
					c0.1-0.6,0.8-1,1.5-1c1.2-1,2.7-7.8-0.6-14.3c-2.1-4.2-6.6-9.1-16.3-8.7c-4.8,0.2-8,1.6-9.5,4.1c-3.1,5.4,1.8,14.6,6.3,18.4
					c1.5,1.2,2.7,1.6,3.1,1.5c0.8-0.2,1.7,0.2,1.9,0.8c0.3,0.6-0.2,1.3-1.1,1.4c-0.3,0.1-0.6,0.1-1,0.1c-1.3,0-3.1-0.5-5.3-2.3
					c-5.3-4.4-10.5-14.4-6.9-20.8c1.2-2.2,4.1-4.8,10.5-5.4c-1.6-8.7,0.3-15.3,5.6-19.4c2.7-2.1,6-3.3,8.9-4
					c2.6,0.2,5.3,0.4,8.2,0.4c0.2,0.3,0.5,0.7,0.7,1c-0.3,0.1-0.6,0.1-0.9,0.1c-0.1,0-8.9-0.6-14.7,4c-4.7,3.7-6.3,9.6-4.7,17.7
					C64.1,122.7,69.7,125.2,73.3,129.9z"/>
				<path id="XMLID_32_" class="st1" d="M117.1,124.4c-0.1,0.6-0.8,1-1.6,1c-0.1,0-0.2,0-0.3,0c-0.9-0.1-1.4-0.7-1.3-1.3
					c1.9-8.6,0.3-14.9-4.6-18.7c-5.8-4.6-14.6-4-14.7-4c-0.3,0-0.6,0-0.9-0.1c0.2-0.4,0.4-0.8,0.5-1.2c2.8,0,5.6-0.1,8.5-0.3
					c2.9,0.6,6.1,1.8,8.9,4C117.4,108.1,119.2,115.1,117.1,124.4z"/>
			</g>
			<path id="XMLID_30_" class="st5" d="M53.2,122.7l0,2c0,0.4,0.4,0.7,0.9,0.6c0.7-0.1,1.7-0.1,2.9-0.1c0.6,0,1-0.4,0.9-0.8
				l-0.4-1.8c-0.1-0.4-0.3-0.6-0.5-0.7c-0.6-0.2-1.8-0.5-3.3,0.2C53.4,122.2,53.3,122.4,53.2,122.7z"/>
		</g>
		<g id="XMLID_23_">
			<path id="XMLID_28_" class="st3" d="M110.1,107.7l71.1,6.7c3.4,0.3,5.8,2.7,5,5.2l-17.9,60.5c-0.7,2.2-3.5,3.7-6.6,3.4l-64.1-6.5
				c-3.2-0.3-5.5-2.5-5.1-4.9l11-60.8C103.9,109,106.9,107.4,110.1,107.7z"/>
			<path id="XMLID_27_" class="st18" d="M174.5,159l-6.3,21.2c-0.7,2.2-3.5,3.7-6.6,3.4l-64.1-6.5c-3.2-0.3-5.5-2.5-5.1-4.9l11-60.8
				c0.4-2.4-9.3,37.7,26.1,50.7C163.4,174.5,174.5,159,174.5,159z"/>
			<path id="XMLID_26_" class="st17" d="M126.1,108.2l-0.4,1.8c-0.3,1.4,1,2.7,2.9,2.9l38,3.7c1.9,0.2,3.6-0.8,3.8-2.1l0.4-2.1
				c0.3-1.4-1.1-2.7-3-2.9l-38-3.4C128.1,105.9,126.4,106.8,126.1,108.2z"/>
			<ellipse id="XMLID_25_" class="st17" cx="128" cy="118.6" rx="2.3" ry="1.7"/>
			<ellipse id="XMLID_24_" class="st17" cx="162.2" cy="122.1" rx="2.3" ry="1.7"/>
		</g>
	</g>
	<g id="XMLID_19_">
		<path id="XMLID_21_" class="st9" d="M165,142.9c-4,2.4-6.3,16.1,8.6,14.1c14.9-2,11.5-14.2,7.3-14.9
			C176.8,141.3,169,140.5,165,142.9z"/>
		<path id="XMLID_20_" class="st10" d="M184.3,149.9c-0.8,3.1-3.8,6.2-10.6,7.1c-14.6,1.9-12.7-11.2-8.9-13.9
			c-1.4,4.8,0.4,11.7,11.2,10.2C179.9,152.7,182.6,151.5,184.3,149.9z"/>
	</g>
	<g id="XMLID_3_">
		<path id="XMLID_18_" class="st19" d="M156,80.8c0,0,11.8,1.2,15.5-2.8s-2.8-36.2,7.9-48.8c10.2-12,119.4-17.2,145,0
			c25.6,17.2,8.3,61.6-0.9,69.6c-9.3,8-10.9,8-29.4,7.6c-18.5-0.4-80.7,1.1-94.9,0.1c-14.2-0.9-22.4-5.1-25.1-16.8
			C171.5,78,162.9,90,156,80.8z"/>
		<g id="XMLID_4_">
			<g id="XMLID_16_">
				<path id="XMLID_17_" class="st6" d="M306.4,86.6h-58.8c-1.7,0-3-1-3-2.2c0-1.2,1.3-2.2,3-2.2h58.8c1.7,0,3,1,3,2.2
					C309.4,85.6,308,86.6,306.4,86.6z"/>
			</g>
			<g id="XMLID_5_">
				<g id="XMLID_14_">
					<path id="XMLID_15_" class="st6" d="M260,41.8h-58.8c-1.7,0-3-1-3-2.2c0-1.2,1.3-2.2,3-2.2H260c1.7,0,3,1,3,2.2
						C263,40.8,261.6,41.8,260,41.8z"/>
				</g>
				<g id="XMLID_12_">
					<path id="XMLID_13_" class="st6" d="M306.1,55.3H201.2c-1.7,0-3-1-3-2.2s1.3-2.2,3-2.2h104.9c1.7,0,3,1,3,2.2
						S307.8,55.3,306.1,55.3z"/>
				</g>
				<g id="XMLID_10_">
					<path id="XMLID_11_" class="st6" d="M306.1,68.9H201.2c-1.7,0-3-1-3-2.2c0-1.2,1.3-2.2,3-2.2h104.9c1.7,0,3,1,3,2.2
						C309.1,67.9,307.8,68.9,306.1,68.9z"/>
				</g>
				<g id="XMLID_8_">
					<path id="XMLID_9_" class="st6" d="M235.8,86.6h-34.6c-1.7,0-3-1-3-2.2c0-1.2,1.3-2.2,3-2.2h34.6c1.7,0,3,1,3,2.2
						C238.8,85.6,237.5,86.6,235.8,86.6z"/>
				</g>
				<g id="XMLID_6_">
					<path id="XMLID_7_" class="st6" d="M306.4,41.8h-34.6c-1.7,0-3-1-3-2.2c0-1.2,1.3-2.2,3-2.2h34.6c1.7,0,3,1,3,2.2
						C309.4,40.8,308,41.8,306.4,41.8z"/>
				</g>
			</g>
		</g>
	</g>
</g>
</svg>
