<?xml version="1.0" encoding="utf-8"?>
<!-- Generator: Adobe Illustrator 19.0.0, SVG Export Plug-In . SVG Version: 6.00 Build 0)  -->
<svg version="1.1" id="Layer_1" xmlns="http://www.w3.org/2000/svg" xmlns:xlink="http://www.w3.org/1999/xlink" x="0px" y="0px"
	 viewBox="0 0 200 300" style="enable-background:new 0 0 200 300;" xml:space="preserve">
<style type="text/css">
	.st0{opacity:0.5;fill:#8BC240;}
	.st1{fill:#193257;}
	.st2{opacity:0.39;fill:#193257;}
	.st3{fill:#38464E;}
	.st4{opacity:0.24;fill:#38464E;}
	.st5{fill:#0A8743;}
	.st6{fill:#FFFFFF;}
	.st7{opacity:0.12;fill:#193257;}
	.st8{opacity:0.31;fill:#A9A9AD;}
	.st9{fill:#FFDBAB;}
	.st10{opacity:0.27;fill:#F7986C;}
	.st11{fill:#614C46;}
	.st12{opacity:0.13;fill:#614C46;}
	.st13{fill:#223D6E;}
	.st14{fill:#F7986C;}
	.st15{fill:#ACD8F2;}
	.st16{opacity:0.31;}
	.st17{fill:#A9A9AD;}
	.st18{fill:#91B4CC;}
	.st19{opacity:0.1;fill:#38464E;}
	.st20{fill:#599CCC;}
</style>
<g id="XMLID_57_">
	<g id="XMLID_78_">
		<path id="XMLID_5_" class="st0" d="M156.8,246.5c0.1,8.5-34.4,17.7-64.8,16.2c-21.5-1.1-48.8-7.9-48.8-15.5
			c-0.1-7.7,27.5-15.1,49.7-16.2C122.6,229.5,156.7,238.1,156.8,246.5z"/>
		<g id="XMLID_129_">
			<path id="XMLID_54_" class="st1" d="M80,234.1l-1.2,3.7c-0.2,0.6,0.4,1.2,1.2,1.2l13.4,0c0.8,0,1.4-0.6,1.2-1.3l-1.7-4.4
				c-0.2-0.4-0.7-0.7-1.3-0.7L81,233.4C80.5,233.4,80.1,233.7,80,234.1z"/>
			<path id="XMLID_53_" class="st2" d="M92.2,232.8l-8.2,0.6c-0.5,0-0.9,0.3-1.1,0.7l-1.2,3.7c-0.2,0.6,0.4,1.2,1.2,1.2l-2.9,0
				c-0.8,0-1.4-0.6-1.2-1.2l1.2-3.7c0.1-0.4,0.6-0.7,1.1-0.7l10.4-0.8C91.7,232.6,92,232.7,92.2,232.8z"/>
		</g>
		<g id="XMLID_126_">
			<path id="XMLID_52_" class="st1" d="M98.9,233.5l0,4.1c0,0.5,0.5,0.9,1.1,0.9l16.9,0.5c1,0,1.4-0.9,0.8-1.5
				c-2-2.3-6.2-4.6-6.2-4.6c-0.2-0.2-0.5-0.2-0.7-0.2l-10.7,0C99.3,232.6,98.9,233,98.9,233.5z"/>
			<path id="XMLID_51_" class="st2" d="M117.3,238.9c-0.1,0.1-0.3,0.1-0.5,0.1l-16.9-0.5c-0.6,0-1.1-0.4-1.1-0.9l0-4.1
				c0-0.5,0.5-0.9,1.1-0.9l2.9,0c-0.6,0-1.1,0.4-1.1,0.9l0,4.1c0,0.5,0.5,0.9,1.1,0.9L117.3,238.9z"/>
		</g>
		<g id="XMLID_121_">
			<path id="XMLID_50_" class="st3" d="M75.8,193.4c0.1,2.3,1.5,28.7,3.2,40c0.1,0.7,0.8,1.3,1.6,1.4c2.3,0.3,6.9,0.7,11.9,0.1
				c1.1-0.2,2-0.9,2-1.8l2.5-27.7c0-0.2,0.4-0.2,0.4,0c0.2,6.2,0.7,19.7,0.6,27.7c0,0.9,0.7,1.6,1.8,1.8c4,0.7,8.9,0.5,12.3-0.1
				c1-0.2,1.7-0.8,1.8-1.6c0.9-6,4.8-31.4,2.9-40.1c0-0.1-0.1-0.1-0.2-0.1L76,193.2C75.9,193.2,75.8,193.3,75.8,193.4z"/>
			<g id="XMLID_122_">
				<path id="XMLID_49_" class="st4" d="M101.3,234.7c1.4,0.3,3,0.4,4.5,0.5c-2,0-4.2-0.1-6-0.5c-1-0.2-1.8-0.9-1.8-1.8
					c0-4.3-0.1-10.2-0.3-15.6l-0.4-12c0-0.2,0.8-0.9,1,0c1,6.1,1.4,19.7,1.3,27.7C99.7,233.8,100.4,234.5,101.3,234.7z"/>
				<path id="XMLID_48_" class="st4" d="M83.8,234.7c1.1,0.2,2.6,0.3,4.5,0.4c-3.2,0.1-6-0.2-7.7-0.4c-0.9-0.1-1.5-0.7-1.6-1.4
					c-1.7-11.3-3.1-37.6-3.2-40c0-0.1,0.1-0.2,0.2-0.2l1.7,0l1.9,0c-0.1,0-0.2,0.1-0.2,0.2c0.1,2.3,1.3,28.7,2.9,40
					C82.4,234,83,234.6,83.8,234.7z"/>
			</g>
		</g>
		<path id="XMLID_47_" class="st5" d="M114.1,193.5c0,0-20.4,2.9-29.8,1.1c-6.5-1.2-7.8-1.5-8-1.5c0,0,0,0,0,0l0-35.7
			c0,0,3.6-3.6,9.9-5.6c0,0,0,0,0.1,0c1.4-0.4,2.9-0.8,4.6-1c0.6-0.1,1.1-0.1,1.7-0.2c0.4,0,0.8,0,1.2-0.1c1.1,0,2.3,0.1,3.3,0.2
			c0.2,0,0.5,0.1,0.7,0.1c1.6,0.3,3,0.8,4.4,1.4c0,0,0,0,0,0c0.4,0.2,0.8,0.4,1.2,0.6c5.8,2.9,9.5,7.3,9.5,7.3L114.1,193.5z"/>
		<path id="XMLID_46_" class="st6" d="M93.4,216.2c0,0-10.5,2.9-26.7,0.5c-0.5-2.3-0.5-9.8-0.4-15.2c0.1-3.3,0.1-5.8,0.1-5.8
			c-0.4-0.4-0.5-0.7-0.5-0.7s-0.6-2.9-0.9-7.3c-0.6-10.7,0.8-29.8,17.8-35C82.9,152.7,96.1,171.7,93.4,216.2z"/>
		<path id="XMLID_45_" class="st7" d="M102.8,152.7c24,7.4,20.9,59,20.1,62.8c-8.2,2.2-15.4,0-15.4,0
			C104.8,170.9,102.8,152.7,102.8,152.7z"/>
		<path id="XMLID_44_" class="st6" d="M103.6,152.7c24,7.4,20.9,59,20.1,62.8c-8.2,2.2-15.4,0-15.4,0
			C105.7,170.9,103.6,152.7,103.6,152.7z"/>
		<path id="XMLID_43_" class="st7" d="M97.1,154.5l1.7,2.6l4.7-4.2c-0.4-0.2-0.8-0.4-1.2-0.6c0,0,0,0,0,0c-1.4-0.6-2.9-1.1-4.4-1.4
			c-0.2,0.6-0.5,1.4-1,2c-0.1,0.1-0.2,0.2-0.3,0.3l-0.1-0.1c-0.1,0-0.1,0.1-0.1,0.1c-0.5,0.3-1.1,0.5-1.8,0.4
			c-0.4-0.1-0.7-0.2-1-0.3c-0.3-0.1-0.6-0.3-0.8-0.5c-0.2-0.1-0.4-0.3-0.6-0.4c0,0,0,0,0,0c-0.5-0.6-0.9-1.2-1.2-1.7
			c-1.7,0.2-3.2,0.6-4.6,1l4.7,5.4l0.8-1.1c0.2,0.2,0.4,0.4,0.6,0.6c-0.2,2.7-0.8,12.1-0.4,15.6c0,0.4,3.7,4.7,4.2,4.7
			c0.6,0,2.8-4.5,2.8-4.9c0-3.6-2.5-12.8-3.2-15.4C96.3,156.2,96.8,155.3,97.1,154.5z"/>
		<path id="XMLID_42_" class="st8" d="M79.3,176.8c-3,4.8-8.5,0-8.5,0c-0.9,2.1-4.9,8.9-5.7,10.9c0.3,4.4,0.9,7.3,0.9,7.3
			s0.1,0.3,0.5,0.7c0,0-0.1,2.5-0.1,5.8c1.5,1.7,5.5,1.8,8.1,1c2.1-0.6,1.6-3.5,1.6-3.5s0,0,1.4-0.3c1.4-0.3,0-2,0-2l1.9-0.7
			C77.7,188.9,78.6,184.2,79.3,176.8z"/>
		<g id="XMLID_112_">
			<path id="XMLID_41_" class="st9" d="M65.7,193.9c0,0-3.5,7.5,5.4,7.7c2.6,0.1,4.1-0.9,3.7-4.8c0.4,0.7,0.7,1.7,1.2,1.5
				c1.5-0.4-0.4-4.4-0.4-4.4L65.7,193.9z"/>
			<path id="XMLID_40_" class="st10" d="M74.8,197.1c0.3,3.6-1.3,4.6-3.8,4.5c-5.6-0.1-6.3-3.2-6-5.4c0.2,1.9,1.6,3.9,6,4
				C73.2,200.2,74.6,199.6,74.8,197.1z"/>
		</g>
		<path id="XMLID_39_" class="st10" d="M76,198.3c-0.5,0.2-0.8-0.8-1.1-1.4c0-0.4,0-0.9,0-1.5c0.4,0.7,0.7,1.7,1.2,1.5
			c0.3-0.1,0.4-0.3,0.5-0.5C76.7,197.3,76.6,198.1,76,198.3z"/>
		<path id="XMLID_38_" class="st10" d="M74.9,196.9c0,0.1,0,0.2,0,0.2C74.8,197,74.8,196.9,74.9,196.9
			C74.8,196.8,74.8,196.8,74.9,196.9z"/>
		<path id="XMLID_37_" class="st6" d="M79.6,174.1c-2.7,7.1-1.8,21.7-1.8,21.7c-13.2,2.8-14.8-0.9-14.8-0.9s-4.2-34.7,19.8-42.2"/>
		<polygon id="XMLID_36_" class="st8" points="91,174.7 82.9,168.1 86.3,161.5 76.3,160.1 84.4,162.7 81.5,168.3 		"/>
		<path id="XMLID_35_" class="st9" d="M117.5,145.3c-4.1,3.7-9.8,5.1-15.3,5.5c-1.3,0.1-2.6,0.1-3.8,0.1c0,0.1,0,0.1-0.1,0.2
			c0,0.1-0.1,0.3-0.2,0.4c-0.2,0.5-0.5,1.1-0.9,1.5c-0.1,0.1-0.2,0.3-0.4,0.4c-0.1,0-0.1,0.1-0.2,0.1c0,0-0.1,0-0.1,0.1
			c-0.5,0.3-1.1,0.5-1.9,0.4c-0.4-0.1-0.8-0.2-1.1-0.3c0,0-0.1,0-0.1-0.1c-0.3-0.1-0.6-0.3-0.8-0.5c-0.2-0.2-0.4-0.3-0.6-0.5
			c-0.5-0.4-0.9-0.9-1.2-1.4c-0.1-0.1-0.2-0.3-0.3-0.4c0,0-0.1-0.1-0.1-0.1c-1.3,0-2.6-0.1-3.7-0.2c-13.2-1.3-16-8.3-16-8.3
			s-12,0.8-11.5-9.2c0.4-8.2,9.4-3.6,10.2,0.6c-0.3-5,0.1-10.1,6.9-14.5c6.8-4.4,40.2,0,40.2,0S123.4,140,117.5,145.3z"/>
		<path id="XMLID_34_" class="st11" d="M59.8,129.9c-0.6-7.8-3.7-21,16.5-26.4c22.1-5.9,38.1,4.1,42.5,3.7c2.1-0.2,3.2-0.9,3.8-1.5
			c0.5-0.5,1.4-0.4,1.8,0.2c2,3.3,4.8,12.1-4.5,16.3c-12,5.4-39.8-0.9-45.7,1.7c-1.5,0.6-2.3,4.6-2.2,7.7c0.1,2.5-2,2.6-2.5,1.8
			c-0.9-1.4-1.4-2.6-2.8-3.4C63.1,127.7,61.3,128.3,59.8,129.9z"/>
		<path id="XMLID_33_" class="st12" d="M121.8,121c-0.6,0.4-1.3,0.8-2,1.1c-12,5.4-39.8-0.9-45.7,1.7c-1.5,0.6-2.3,4.6-2.2,7.7
			c0.1,2.5-2,2.6-2.5,1.8c-0.9-1.4-1.4-2.6-2.8-3.4c-3.5-2.2-5.3-1.6-6.9,0c-0.6-7.6-3.6-20.4,15.1-26c-12,6.3-13.5,17.6-9.1,19.3
			c4.4,1.7,5.4-1.1,7.1-1.9C82.4,117.4,95.4,125.6,121.8,121z"/>
		<g id="XMLID_102_">
			<path id="XMLID_32_" class="st1" d="M96.5,155.8l-3.1,0c0,0-0.9,12.2-0.5,16.3c0,0.4,3.7,4.7,4.2,4.7c0.6,0,2.8-4.5,2.8-4.9
				C99.9,167.7,96.5,155.8,96.5,155.8z"/>
			<path id="XMLID_31_" class="st13" d="M98.7,154c0,0-0.7,2.6-1.7,3.1c-0.6,0.4-3,0.5-3.7,0.2c-1.1-0.5-2.7-3.3-2.7-3.3l1.9-0.9
				c0.6,0.4,1.3,0.7,2.1,0.8c1.1,0.2,2-0.3,2.6-0.9L98.7,154z"/>
		</g>
		<path id="XMLID_30_" class="st11" d="M87.7,133.1c0.1,1.2-0.7,2.3-1.8,2.4c-1.1,0.1-2.2-0.9-2.3-2.1c-0.1-1.2,0.7-2.3,1.8-2.4
			C86.5,130.9,87.5,131.9,87.7,133.1z"/>
		<path id="XMLID_29_" class="st11" d="M113.3,130.9c0.1,1.2-0.7,2.3-1.8,2.4c-1.1,0.1-2.2-0.9-2.3-2.1c-0.1-1.2,0.7-2.3,1.8-2.4
			C112.1,128.7,113.2,129.6,113.3,130.9z"/>
		<path id="XMLID_28_" class="st14" d="M92,137.4c0,0,9.3,0.4,15.3-0.8c0,0,1.7,9-6.5,9.7C92.6,147,92,137.4,92,137.4z"/>
		<ellipse id="XMLID_27_" class="st10" cx="82.4" cy="140.5" rx="4.9" ry="3.9"/>
		<ellipse id="XMLID_26_" class="st10" cx="114.4" cy="138.6" rx="4.9" ry="3.9"/>
		<g id="XMLID_94_">
			<path id="XMLID_25_" class="st15" d="M93.4,153.6l-2.4,2.9l-4.8-4.7c1.3-0.4,2.7-0.7,4.2-1c0.1,0.1,0.2,0.2,0.3,0.4
				c0.3,0.4,0.7,0.9,1.2,1.4c0.2,0.2,0.4,0.3,0.6,0.5C92.8,153.3,93.1,153.5,93.4,153.6z"/>
			<path id="XMLID_24_" class="st15" d="M103.4,152.9l-4.7,3.6l-2.2-2.9c0,0,0.1,0,0.1-0.1c0.1,0,0.1-0.1,0.2-0.1
				c0.1-0.1,0.3-0.2,0.4-0.4c0.4-0.5,0.7-1,0.9-1.5c0.1-0.1,0.1-0.3,0.2-0.4C100.2,151.5,101.9,152.1,103.4,152.9z"/>
		</g>
		<path id="XMLID_23_" class="st10" d="M63.2,133c0,0,1.4-1.5,3.6,0.9c2.2,2.5,2.2,4.7,0,4.6c-2.2-0.1-4-2.2-1.7-3
			C65.1,135.5,66.8,133.2,63.2,133z"/>
		<g id="XMLID_90_" class="st16">
			<path id="XMLID_22_" class="st17" d="M83.2,154c2.6-2.3,6.6-2,6.6-2c0.1,0,0.3,0,0.4-0.1c-0.1-0.2-0.2-0.4-0.3-0.5
				c-1.3,0-2.6-0.1-3.7-0.2c-1.3,0.3-2.8,0.9-4,2c-2.3,2-3.2,5.1-2.6,9.3c0,0,0,0-0.1,0c-0.1,0.1-0.2,0.2-0.2,0.3l0,0.1
				c-2.7,0.4-3.9,1.6-4.4,2.7c-1.6,3.2,0.7,8.2,3.1,10.4c1,0.9,1.8,1.2,2.4,1.2c0.2,0,0.3,0,0.5-0.1c0.4-0.1,0.6-0.4,0.5-0.7
				c-0.1-0.3-0.5-0.5-0.9-0.4c-0.2,0.1-0.8-0.2-1.4-0.8c-2.1-1.9-4.3-6.5-2.9-9.1c0.6-1.1,1.6-1.7,3.2-1.9c0.1,0.1,0.2,0.1,0.3,0.1
				c0.3,0,0.8-0.1,1.3-0.1c0.1,0,0.2-0.1,0.3-0.1c3.8,0.2,5.7,2.4,6.5,4.3c1.5,3.3,0.8,6.6,0.3,7.1c-0.3,0-0.6,0.2-0.7,0.5
				c-0.1,0.3,0.2,0.6,0.6,0.7c0.3,0,0.8,0,1.3-0.5c1.2-1.5,1.3-6.3-1-9.6c-1.6-2.3-4-3.5-7.1-3.6l0,0c0-0.2-0.1-0.3-0.2-0.3
				C80.5,158.6,81.2,155.8,83.2,154z"/>
			<path id="XMLID_21_" class="st17" d="M105.8,153.5c-1.2-1.1-2.7-1.7-4-2c-1.3,0.1-2.6,0.1-3.8,0.1c-0.1,0.2-0.1,0.4-0.2,0.6
				c0.1,0.1,0.3,0.1,0.4,0.1c0,0,4-0.3,6.6,2c2.2,1.9,2.9,5,2.1,9.3c-0.1,0.3,0.2,0.6,0.6,0.7c0,0,0.1,0,0.1,0
				c0.3,0,0.6-0.2,0.7-0.5C109.1,159.1,108.3,155.6,105.8,153.5z"/>
		</g>
		<g id="XMLID_85_">
			<g id="XMLID_87_">
				<path id="XMLID_20_" class="st1" d="M88.9,165.7c2.3,3.3,2.2,8.2,1,9.6c-0.5,0.5-1,0.6-1.3,0.5c-0.4,0-0.7-0.3-0.6-0.7
					c0.1-0.3,0.3-0.5,0.7-0.5c0.6-0.5,1.2-3.9-0.3-7.1c-0.9-2.1-3-4.5-7.4-4.4c-2.2,0.1-3.6,0.8-4.3,2.1c-1.4,2.7,0.8,7.3,2.9,9.1
					c0.7,0.6,1.2,0.8,1.4,0.8c0.4-0.1,0.8,0.1,0.9,0.4c0.1,0.3-0.1,0.6-0.5,0.7c-0.1,0-0.3,0.1-0.5,0.1c-0.6,0-1.4-0.2-2.4-1.2
					c-2.4-2.2-4.8-7.2-3.1-10.4c0.6-1.1,1.9-2.4,4.7-2.7c-0.7-4.3,0.1-7.6,2.5-9.7c1.2-1.1,2.7-1.7,4-2c1.2,0.1,2.4,0.2,3.7,0.2
					c0.1,0.2,0.2,0.3,0.3,0.5c-0.1,0-0.3,0.1-0.4,0.1c0,0-4-0.3-6.6,2c-2.1,1.8-2.8,4.8-2.1,8.8C84.7,162.1,87.2,163.4,88.9,165.7z"
					/>
				<path id="XMLID_19_" class="st1" d="M108.7,163c-0.1,0.3-0.4,0.5-0.7,0.5c0,0-0.1,0-0.1,0c-0.4,0-0.7-0.3-0.6-0.7
					c0.8-4.3,0.1-7.4-2.1-9.3c-2.6-2.3-6.6-2-6.6-2c-0.1,0-0.3,0-0.4-0.1c0.1-0.2,0.2-0.4,0.2-0.6c1.3,0,2.5,0,3.8-0.1
					c1.3,0.3,2.8,0.9,4,2C108.8,154.9,109.6,158.4,108.7,163z"/>
			</g>
			<path id="XMLID_18_" class="st18" d="M79.8,162.1l0,1c0,0.2,0.2,0.3,0.4,0.3c0.3,0,0.8-0.1,1.3-0.1c0.3,0,0.5-0.2,0.4-0.4
				l-0.2-0.9c0-0.2-0.1-0.3-0.2-0.3c-0.3-0.1-0.8-0.2-1.5,0.1C79.9,161.9,79.8,162,79.8,162.1z"/>
		</g>
		<g id="XMLID_79_">
			<path id="XMLID_17_" class="st3" d="M105.5,154.7l32.1,3.4c1.6,0.2,2.6,1.4,2.3,2.6l-8.1,30.1c-0.3,1.1-1.6,1.8-3,1.7l-29-3.2
				c-1.5-0.2-2.5-1.2-2.3-2.4l5-30.2C102.7,155.4,104,154.5,105.5,154.7z"/>
			<path id="XMLID_16_" class="st19" d="M134.6,180.2l-2.8,10.5c-0.3,1.1-1.6,1.8-3,1.7l-28.9-3.2c-1.5-0.2-2.5-1.2-2.3-2.4l5-30.2
				c0.2-1.2-4.2,18.8,11.8,25.2C129.6,188,134.6,180.2,134.6,180.2z"/>
			<path id="XMLID_15_" class="st17" d="M112.7,154.9l-0.2,0.9c-0.1,0.7,0.5,1.3,1.3,1.4l17.2,1.9c0.8,0.1,1.6-0.4,1.7-1.1l0.2-1
				c0.1-0.7-0.5-1.3-1.3-1.4l-17.2-1.7C113.6,153.8,112.9,154.3,112.7,154.9z"/>
			<ellipse id="XMLID_14_" class="st17" cx="113.6" cy="160.1" rx="1.1" ry="0.9"/>
			<ellipse id="XMLID_13_" class="st17" cx="129" cy="161.8" rx="1.1" ry="0.9"/>
		</g>
		<path id="XMLID_4_" class="st20" d="M109.2,232.4"/>
	</g>
	<g id="XMLID_75_">
		<path id="XMLID_12_" class="st9" d="M134.3,174c-1.8,1.2-2.8,8,3.9,7c6.7-1,5.2-7.1,3.3-7.4C139.6,173.2,136.1,172.8,134.3,174z"
			/>
		<path id="XMLID_11_" class="st10" d="M143,177.5c-0.4,1.6-1.7,3.1-4.8,3.5c-6.6,1-5.7-5.6-4-6.9c-0.6,2.4,0.2,5.8,5.1,5.1
			C141.1,178.9,142.3,178.2,143,177.5z"/>
	</g>
</g>
</svg>
