<?xml version="1.0" encoding="utf-8"?>
<!-- Generator: Adobe Illustrator 19.0.0, SVG Export Plug-In . SVG Version: 6.00 Build 0)  -->
<svg version="1.1" id="Layer_1" xmlns="http://www.w3.org/2000/svg" xmlns:xlink="http://www.w3.org/1999/xlink" x="0px" y="0px"
	 viewBox="0 0 612 792" style="enable-background:new 0 0 612 792;" xml:space="preserve">
<style type="text/css">
	.st0{fill:#7B8F96;}
	.st1{fill:#2A4D64;}
	.st2{opacity:0.5;fill:#153246;}
	.st3{fill:#979899;}
	.st4{fill:#BABABC;}
	.st5{fill:#FFFFFF;}
	.st6{fill:#A7C3D1;}
	.st7{fill:#67ADC1;}
	.st8{fill:#F9B29A;}
	.st9{opacity:0.5;fill:#CC8A79;}
	.st10{fill:none;stroke:#D9D9DB;stroke-linecap:round;stroke-miterlimit:10;}
	.st11{fill:#0A6A7D;}
	.st12{opacity:0.5;fill:#0A6A7D;}
	.st13{fill:#9FD4E0;}
	.st14{fill:#3D1B0E;}
	.st15{fill:#8D5C47;}
	.st16{fill:#5C3A2B;}
	.st17{fill:#754C3A;}
	.st18{fill:#4F291D;}
	.st19{fill:#AD7A5A;}
	.st20{fill:#D89B88;}
	.st21{fill:#28100C;}
	.st22{fill:#94ABB3;}
	.st23{fill:#BACFD7;}
	.st24{fill:#5C96C2;}
	.st25{fill:#E29386;}
	.st26{fill:#B65166;}
	.st27{fill:#F38599;}
</style>
<g id="XMLID_24_">
	<path id="XMLID_25_" class="st0" d="M172.5,273.8l-10-4.4c0,0,11.4-18.3,37.2-14.9l3.4,9.2L172.5,273.8z"/>
	<path id="XMLID_26_" class="st1" d="M388.7,691.5c2.5,12.9,6.6,33.6,6.6,34c0,0.4-0.6,9.6-1,14.5l-8-7.3l-34.9,1.4l-4.8,8.2l-0.5,1
		l-1-15.1c0,0,1.5-12.7,2.9-24.5l3.3-147l0.1-4.3l2.5-110.4h-33.4l2.5,110.4l0,1.2l3.4,150c1.4,11.8,2.9,24.5,2.9,24.5l-1,15.1
		l-0.5-1l-4.8-8.2l-34.8-1.4l-8,7.3c-0.3-4.9-1-14.1-1-14.5c0-0.4,4.1-21.1,6.6-34l-1.9-135.7l-0.1-6.4l-1.6-114.8l-0.2-15.4
		c-0.4-1.2-0.8-2.7-1.2-4.4c-1.5-7.9-1.8-20.6-1.8-28.7c0-4.5,0.1-7.6,0.1-7.6h116.1c0,0,0,3.1,0,7.6c0,8.1-0.3,20.8-1.8,28.7
		c-0.3,1.7-0.7,3.3-1.2,4.4l-0.2,15.4l-1.7,121.2l-0.1,5.2L388.7,691.5z"/>
	<path id="XMLID_27_" class="st2" d="M395.5,386.1c0,8.1-0.3,20.8-1.8,28.7c-0.3,1.7-0.7,3.3-1.2,4.4l-0.2,15.4l-1.7,121.2l-0.1,5.2
		l-39-4.2l0.1-4.3l2.5-110.4h-33.4l2.5,110.4l0,1.2l-39.1-4.3l-1.6-114.8l-0.2-15.4c-0.4-1.2-0.8-2.7-1.2-4.4
		c-1.5-7.9-1.8-20.6-1.8-28.7c0-4.5,0.1-7.6,0.1-7.6h116.1C395.5,378.5,395.5,381.6,395.5,386.1z"/>
	<rect id="XMLID_28_" x="305.2" y="410.9" class="st3" width="64.2" height="127.9"/>
	<path id="XMLID_29_" class="st4" d="M369.5,410.9v36.3c-18.4,8.4-45.6,15-64.2,18.8v-55.2H369.5z"/>
	<path id="XMLID_30_" class="st5" d="M445.9,344l-33-4.8c-0.6-6-1-10.1-1.2-11.4c-0.1-0.4-0.2-1.1-0.5-2.1
		c-1.1-3.3-3.4-9.3-5.9-15.4c-4-9.7-8.4-19.7-9-19.7c-15.4,1.8-14.7-51.8-14.7-51.8l9.7-8.5c0,0,19.9,1.8,22.6,6.8
		c0,0,32.2,64.8,37.3,94.6C453.3,343.8,449.6,343.6,445.9,344z"/>
	<path id="XMLID_31_" class="st5" d="M278.9,295.5c-0.5,0-1.1-0.1-1.7-0.1c-0.7,2.3-1.8,5.4-3,9c-1.7,4.8-3.8,10.4-6.2,16.1
		c-7.7,18-18.4,36.7-28.6,32.3c-18.1-7.8-76.8-83.5-76.8-83.5c13.9-0.4,37.2-14.9,37.2-14.9c2.5,3,22.5,27.5,32,39
		c3,3.6,4.9,6,4.9,6l2.3-6.7l18-53.5c2.2-5.2,21.8-8.6,21.8-8.6l10.5,7.6C289.1,238.3,294.4,296,278.9,295.5z"/>
	<path id="XMLID_32_" class="st6" d="M274.2,304.4c-1.7,4.8-3.8,10.4-6.2,16.1c-4.8-3-18-10.8-28.1-14c-8.7-2.8-8.9-9.3-8.2-13.1
		c3,3.6,4.9,6,4.9,6l2.3-6.7l2.2,3.4l17.1,5.2L274.2,304.4z"/>
	<path id="XMLID_33_" class="st7" d="M399.4,278.7c1-4.7,2.2-11,3-18.6c0.7-7.7,1-16.7,0-27.1c0,0-6.6-0.4-16-4.6
		c-9.5-4.2-21.8-12.3-33.4-12.9h-7h-7h-1.7h-1.7h-7h-7c-11.6,0.6-24,8.7-33.4,12.9c-9.5,4.2-16,4.6-16,4.6
		c-0.9,10.4-0.7,19.5,0,27.1c0.7,7.7,1.9,13.9,3,18.6c0.4,5.9,0.9,13.9,1.3,21.8c0.4,7.9,0.6,15.7,0.4,21.3
		c-0.2,8.3-0.9,26.3-1.4,42.2c-0.5,15.9-1,29.7-1,29.7s7.8,0.6,18.6,1.3c10.7,0.7,24.4,1.4,35.9,1.5v0v0h1.7h1.7h4.9h4.9h1.7h1.7v0
		v0c11.6-0.1,25.2-0.8,35.9-1.5c10.7-0.7,18.6-1.3,18.6-1.3s-0.5-13.8-1-29.7c-0.5-15.9-1.2-33.9-1.4-42.2
		c-0.2-5.6,0.1-13.4,0.4-21.3C398.5,292.6,399,284.6,399.4,278.7z"/>
	<path id="XMLID_34_" class="st8" d="M349.4,194.1v32.5c0,0.7-0.1,1.7-0.2,2.4h-23.5c-0.2-0.8-0.3-1.8-0.3-2.6v-32.3H349.4z"/>
	<path id="XMLID_35_" class="st9" d="M349.4,194.1v19.2c-10.4-1-18.5-3.4-24-5.5v-13.7H349.4z"/>
	<line id="XMLID_36_" class="st10" x1="403.4" y1="404.7" x2="378" y2="404.7"/>
	<polygon id="XMLID_37_" class="st11" points="351.8,388 346.1,400.5 337.3,419 328.6,400.5 322.9,388 331.5,246.8 331.9,240.6 
		332.6,238.2 342,238.2 342.8,240.6 343.1,245.2 	"/>
	<path id="XMLID_38_" class="st12" d="M343.1,245.2c-3.5,1.1-8.5,1.5-11.7,1.6l0.4-6.2l0.8-2.4h9.4l0.8,2.4L343.1,245.2z"/>
	<path id="XMLID_39_" class="st11" d="M339.5,224.7c0,0.2-1.1,0-1.9-0.1v-0.1c0,0-0.1,0-0.3,0.1c-0.2,0-0.3-0.1-0.3-0.1v0.1
		c-0.7,0.1-1.9,0.3-1.9,0.1l-8.4,8.2l4.8,10.3h5.5h0.6h5.5l4.8-10.3L339.5,224.7z"/>
	<path id="XMLID_40_" class="st13" d="M360.8,216l-11.2-4.5l-12.2,12.8l-12.2-12.8l-11.2,4.5l10.7,20.9c2.4-4.5,11.8-11,12.8-12.3
		c0.9,1.3,10.6,8,13,12.5L360.8,216z"/>
	<path id="XMLID_41_" class="st5" d="M410.3,542.5h-64.1c-2.4-2.5-6-7.3-7.7-13.9c-0.3-1.1-0.5-2.1-0.6-3.3h-1.2
		c-0.1,1.1-0.3,2.2-0.6,3.2c-1.6,6.6-5.4,11.5-7.7,14h-64.1c0,0-0.6-129.9,9.4-163c0,0-1.4-26.1-2.7-56.4
		c-0.3-6.3-0.5-12.9-0.7-19.4c-1.2-33.1-1.8-65.7,0.1-71.3c0,0,5.1-2.2,12.1-4.9c1.2-0.5,2.5-1,3.9-1.5c3.3-1.2,6.9-2.5,10.5-3.6
		c2.4-1.2,5-2.4,7.4-3.5c1.1-0.5,2.2-1,3.1-1.4c1.1-0.5,2-0.8,2.7-1.1c1.2-0.4,2.9-0.7,4.8-0.9c-0.6,1.8-1.9,5.3-3.4,10.1
		c-2.2,7.1-4.8,16.8-5.8,27.5c-1,10.7,6.2,29.5,13.7,45.6c1.9,4.1,4,8.1,6.1,11.7c4.4,7.6,8.6,13.6,10.6,16.3
		c0.2,0.3,0.4,0.5,0.5,0.7c0.4,0.6,0.7,0.9,0.7,0.9s0.5-0.6,1.2-1.7c1.4-1.9,3.7-5.3,6.5-9.6c3.2-5.1,6.9-11.5,10.1-18.3
		c7.5-16.1,14.7-34.9,13.7-45.6c-1-10.7-3.6-20.4-5.8-27.5c-1.5-4.8-2.8-8.3-3.4-10.1c1.9,0.2,3.6,0.5,4.8,0.9
		c2.8,1,8.4,3.6,13.2,5.9c3.6,1.1,7.2,2.4,10.5,3.6c1.3,0.5,2.6,1,3.9,1.5c7,2.7,12.1,4.9,12.1,4.9c2.5,7.5,0.6,62.6-1.2,103.2
		c-0.4,9.5-0.8,18.3-1.2,25.4c-0.6,11.3-1,18.6-1,18.6C410.9,412.7,410.3,542.5,410.3,542.5z"/>
	<path id="XMLID_42_" class="st6" d="M348.8,318.3c0,0-4.6,14.9-16.2,11.5c-11.7-3.4-28.2-6.3-44.2-4.4c-10.7,1.2-15.3-0.8-17.3-2.2
		c-0.3-6.3-0.5-12.9-0.7-19.4l9.3,1.7l34.6,1.1l11.4,3.8l19.5,6.6L348.8,318.3z"/>
	<g id="XMLID_43_">
		<path id="XMLID_44_" class="st6" d="M336.5,327.5c-29.6-10.9-49.3-39.2-49.3-39.2l12-6.5l-15.3-6.5c0,0,3.5-20,9.2-35.7
			c3.4-9.3,7.9-16.4,11-20.7c1.1-0.5,2.2-1,3.1-1.4c1.1-0.5,2-0.8,2.7-1.1c1.2-0.4,2.9-0.7,4.8-0.9c-0.6,1.8-1.9,5.3-3.4,10.1
			c-2.2,7.1-4.8,16.8-5.8,27.5c-1,10.7,6.2,29.5,13.7,45.6C325.7,312.5,334.1,324.3,336.5,327.5z"/>
		<path id="XMLID_45_" class="st6" d="M338.2,327.5c29.6-10.9,49.3-39.2,49.3-39.2l-12-6.5l15.3-6.5c0,0-3.5-20-9.2-35.7
			c-3.4-9.3-7.9-16.4-11-20.7c-1.1-0.5-2.2-1-3.1-1.4c-1.1-0.5-2-0.8-2.7-1.1c-1.2-0.4-2.9-0.7-4.8-0.9c0.6,1.8,1.9,5.3,3.4,10.1
			c2.2,7.1,4.8,16.8,5.8,27.5c1,10.7-6.2,29.5-13.7,45.6C349,312.5,340.6,324.3,338.2,327.5z"/>
	</g>
	<g id="XMLID_46_">
		<g id="XMLID_47_">
			<polygon id="XMLID_48_" class="st14" points="291.5,730.3 276.2,744.3 262.1,764.7 262.1,773.8 332.7,773.8 332.7,753.2 
				323.8,730.7 			"/>
			<path id="XMLID_285_" class="st15" d="M333.5,774.6h-57.6c-0.6,0-1-0.5-1-1v-9.7c0-0.6,0.5-1,1-1h57.6c0.6,0,1,0.5,1,1v9.7
				C334.5,774.1,334.1,774.6,333.5,774.6z"/>
			<path id="XMLID_284_" class="st16" d="M281.9,737.8c0,0-0.5-1.7,2-4.1c1.2-1.2,15-1.5,18.6,0.8c2.9,1.8-0.4,5.9-0.4,5.9
				L281.9,737.8z"/>
			<path id="XMLID_283_" class="st17" d="M279,741.2c0,0-0.6-1.7,2.1-4.1c1.3-1.2,16.4-1.5,20.3,0.8c3.2,1.8-0.4,5.9-0.4,5.9
				L279,741.2z"/>
			<path id="XMLID_282_" class="st15" d="M276,744.8c0,0-0.6-1.6,2.2-4.2c1.5-1.4,17.8-1.5,22.2,0.6c3.5,1.7-0.3,5.9-0.3,5.9
				L276,744.8z"/>
			<path id="XMLID_49_" class="st18" d="M259.5,764.7h5.8c0,0,50.8-0.3,50.5,0c-0.3,0.3-2.1-15.1-2.1-15.1l-11-5.5l-25.2-1.3
				L267,751L259.5,764.7z"/>
			<path id="XMLID_280_" class="st19" d="M316.7,774.6H259c-0.6,0-1-0.5-1-1v-9.7c0-0.6,0.5-1,1-1h57.6c0.6,0,1,0.5,1,1v9.7
				C317.7,774.1,317.2,774.6,316.7,774.6z"/>
			<path id="XMLID_279_" class="st15" d="M285.1,746.4c0.6,1.4-1.7,3.5-5.2,4.8c-3.5,1.3-6.7,1.3-7.3-0.1c-0.6-1.4,1.7-3.5,5.2-4.8
				C281.2,745,284.5,745.1,285.1,746.4z"/>
		</g>
		<g id="XMLID_50_">
			<polygon id="XMLID_51_" class="st14" points="383.4,730.3 398.7,744.3 412.7,764.7 412.7,773.8 342.1,773.8 342.1,753.2 
				351.1,730.7 			"/>
			<path id="XMLID_276_" class="st15" d="M341.4,774.6H399c0.6,0,1-0.5,1-1v-9.7c0-0.6-0.5-1-1-1h-57.6c-0.6,0-1,0.5-1,1v9.7
				C340.3,774.1,340.8,774.6,341.4,774.6z"/>
			<path id="XMLID_275_" class="st16" d="M393,737.8c0,0,0.5-1.7-2-4.1c-1.2-1.2-15-1.5-18.6,0.8c-2.9,1.8,0.4,5.9,0.4,5.9
				L393,737.8z"/>
			<path id="XMLID_274_" class="st17" d="M395.9,741.2c0,0,0.6-1.7-2.1-4.1c-1.3-1.2-16.4-1.5-20.3,0.8c-3.2,1.8,0.4,5.9,0.4,5.9
				L395.9,741.2z"/>
			<path id="XMLID_273_" class="st15" d="M398.8,744.8c0,0,0.6-1.6-2.2-4.2c-1.5-1.4-17.8-1.5-22.2,0.6c-3.5,1.7,0.3,5.9,0.3,5.9
				L398.8,744.8z"/>
			<path id="XMLID_52_" class="st18" d="M415.4,764.7h-5.8c0,0-50.8-0.3-50.5,0c0.3,0.3,2.1-15.1,2.1-15.1l11-5.5l25.2-1.3l10.5,8.2
				L415.4,764.7z"/>
			<path id="XMLID_271_" class="st19" d="M358.2,774.6h57.6c0.6,0,1-0.5,1-1v-9.7c0-0.6-0.5-1-1-1h-57.6c-0.6,0-1,0.5-1,1v9.7
				C357.2,774.1,357.6,774.6,358.2,774.6z"/>
			<path id="XMLID_270_" class="st15" d="M389.8,746.4c-0.6,1.4,1.7,3.5,5.2,4.8c3.5,1.3,6.7,1.3,7.3-0.1c0.6-1.4-1.7-3.5-5.2-4.8
				C393.7,745,390.4,745.1,389.8,746.4z"/>
		</g>
	</g>
	<g id="XMLID_53_">
		<path id="XMLID_54_" class="st5" d="M337.3,328.4c-20.9-11.7-44.6-41.2-44.6-41.2l12-6.6l-17.1-8c0,0-0.3-2.8,4.6-24
			c3.2-13.7,10.5-24.8,15.2-30.9c1.1-0.5,2-0.8,2.7-1.1c1.2-0.4,2.9-0.7,4.8-0.9c-0.6,1.8-1.9,5.3-3.4,10.1
			c-2.2,7.1-4.8,16.8-5.8,27.5c-1,10.7,6.2,29.5,13.7,45.6C327,314.9,337.3,328.4,337.3,328.4z"/>
		<path id="XMLID_55_" class="st5" d="M337.3,328.4c20.9-11.7,44.6-41.2,44.6-41.2l-12-6.6l17.1-8c0,0,0.3-2.8-4.6-24
			c-3.2-13.7-10.5-24.8-15.2-30.9c-1.1-0.5-2-0.8-2.7-1.1c-1.2-0.4-2.9-0.7-4.8-0.9c0.6,1.8,1.9,5.3,3.4,10.1
			c2.2,7.1,4.8,16.8,5.8,27.5c1,10.7-6.2,29.5-13.7,45.6C347.7,314.9,337.3,328.4,337.3,328.4z"/>
	</g>
	<path id="XMLID_56_" class="st6" d="M338.6,326.7v201.9c-0.3-1.1-0.5-2.1-0.6-3.3h-1.2c-0.1,1.1-0.3,2.2-0.6,3.2V326.8
		c0.2,0.3,0.4,0.5,0.5,0.7c0.4,0.6,0.7,0.9,0.7,0.9S337.8,327.8,338.6,326.7z"/>
	<ellipse id="XMLID_57_" class="st6" cx="345.7" cy="344.4" rx="3.5" ry="3.2"/>
	<ellipse id="XMLID_58_" class="st6" cx="345.7" cy="368.1" rx="3.5" ry="3.2"/>
	<ellipse id="XMLID_59_" class="st6" cx="345.7" cy="391.7" rx="3.5" ry="3.2"/>
	<ellipse id="XMLID_60_" class="st6" cx="345.7" cy="415.4" rx="3.5" ry="3.2"/>
	<ellipse id="XMLID_61_" class="st6" cx="345.7" cy="439.1" rx="3.5" ry="3.2"/>
	<ellipse id="XMLID_62_" class="st6" cx="345.7" cy="462.7" rx="3.5" ry="3.2"/>
	<path id="XMLID_63_" class="st6" d="M415.2,326.7l-3.9-0.9c-1.1-3.3-3.4-9.3-5.9-15.4c10.7,2.5,34.7,8.7,39,14
		C449.8,331.2,415.2,326.7,415.2,326.7z"/>
	<path id="XMLID_64_" class="st6" d="M403.1,335.6c-0.4,9.5-0.8,18.3-1.2,25.4l-76.4-20v-12.3L403.1,335.6z"/>
	<g id="XMLID_65_">
		<path id="XMLID_255_" class="st20" d="M122.2,236.1c0,0-17.3-5.2-21.7-5c-4.3,0.2-4.4,3.7-4.4,3.7l30.4,9.3L122.2,236.1z"/>
		<path id="XMLID_66_" class="st8" d="M193.7,258c-5.5,3-13.9,7.2-21.7,9.6l-3.6-4.1l-0.8-0.9l-3.3-1.3c-0.2,0-0.3,0-0.3,0
			c0,0-5.7-1-10.5-0.8c-4.8,0.2-16.1,0.5-19-0.4c-2.2-0.7-17.6-10.5-27.2-16.2c-3.8-1.4-7.9-2.9-10.2-3.6c-0.2-0.1-0.4-0.1-0.6-0.2
			c-4.3-1.1-5.3-5.2-2.7-6.9c0.4-0.3,0.8-0.4,1.3-0.5c1.2-0.3,2.6-0.2,3.9,0c0.2-0.1,7.3,0.8,19.6,5.3c1.2,0.4,1.8,0.8,1.9,0.8v0
			c0-0.2-0.2-1.4,0-2.7c0.4-1.5,1.4-3,4.1-3.2c5.4-0.4,11.3,2.2,16.2,4.5c0,0,3.3,0.5,6.3-0.3c3-0.8,13.5-4.8,20.8,0
			c6.6,4.2,13.7,8,16.4,11.7l7.6,7.8L193.7,258z"/>
		<path id="XMLID_67_" class="st9" d="M193.7,258c-5.5,3-13.9,7.2-21.7,9.6l-3.6-4.1c10.7-1.9,19.4-5.3,23.6-7.1L193.7,258z"/>
		<path id="XMLID_252_" class="st9" d="M168.1,245.9c-8.5-5.4-14.3-4.7-26.7-4.5c-12.4,0.1-20.9-2.8-20.9-2.8l0,0
			c0-0.2-0.2-1.4,0-2.7c0.7,0.6,1.4,1.1,2.1,1.4c2.7,1.3,16.9,2,16.9,2s9.8-0.1,17.7,0.9C165.2,241.3,168.1,245.9,168.1,245.9z"/>
	</g>
	<g id="XMLID_68_">
		<path id="XMLID_69_" class="st21" d="M325.3,207.8c-23.1,5.9-41,28.6-43.9,56.7h4.5c2.8-25.5,18.7-46.1,39.4-52V207.8z"/>
		<path id="XMLID_70_" class="st21" d="M349.4,207.7v4.7c22.8,6.5,39.9,30.9,39.9,60h4.4C393.7,240.8,374.7,214.2,349.4,207.7z"/>
	</g>
	<g id="XMLID_71_">
		<g id="XMLID_72_">
			<path id="XMLID_247_" class="st22" d="M377.4,290.4c-1.9,6.8,2.6,13.8,10.1,15.6c7.5,1.8,15-2.3,16.9-9.1
				c1.9-6.8-2.6-13.8-10.1-15.6C386.9,279.5,379.3,283.6,377.4,290.4z"/>
		</g>
		<polygon id="XMLID_192_" class="st22" points="394.2,283.3 388.3,283.1 388.7,271.6 394.5,271.8 		"/>
		<g id="XMLID_73_">
			<path id="XMLID_244_" class="st23" d="M379.2,290.8c-1.6,5.9,2.3,12,8.8,13.6c6.5,1.6,13.1-2,14.7-7.9c1.6-5.9-2.3-12-8.8-13.6
				C387.4,281.3,380.8,284.9,379.2,290.8z"/>
		</g>
		<path id="XMLID_242_" class="st24" d="M385.5,293.5c-0.1,2.7,2.3,5,5.3,5.1s5.5-2.1,5.6-4.8c0.1-2.7-2.3-5-5.3-5.1
			C388.1,288.6,385.6,290.7,385.5,293.5z"/>
	</g>
	<g id="XMLID_74_">
		<path id="XMLID_75_" class="st22" d="M308.6,325.3c-1.7,1.8-4,2.8-6.4,2.8h-10.8V324h10.8c1.1,0,2.2-0.5,3-1.4
			c1.1-1.2,1.6-2.9,1.4-4.5l-5.7-37.7c0-0.2-0.1-0.5-0.1-0.7c-1.3-7-6.9-12-13.5-12h-6.2c-6.6,0-12.2,5-13.5,12
			c-0.1,0.2-0.1,0.5-0.1,0.7l-5.7,37.7c-0.2,1.7,0.3,3.4,1.4,4.5c0.8,0.9,1.9,1.4,3,1.4h10.7v4.2h-10.7c-2.4,0-4.7-1-6.4-2.8
			c-2-2.1-2.8-5-2.4-7.9l5.7-37.7c0,0,0-0.1,0-0.1c1.4-9.4,9-16.2,18-16.2h6.2c9,0,16.6,6.8,18,16.2c0,0,0,0.1,0,0.1l5.7,37.7
			C311.4,320.4,310.6,323.2,308.6,325.3z"/>
		<path id="XMLID_76_" class="st21" d="M287.3,262.9h-6.2c-9.3,0-17.1,7-18.6,16.7c0,0.2,0,0.3,0.1,0.5c0.1,0.1,0.3,0.2,0.5,0.2h4.5
			c0.3,0,0.6-0.2,0.6-0.5c1.3-6.7,6.7-11.6,12.9-11.6h6.2c6.2,0,11.6,4.9,12.9,11.6c0.1,0.3,0.3,0.5,0.6,0.5h4.5
			c0.2,0,0.3-0.1,0.5-0.2c0.1-0.1,0.2-0.3,0.1-0.5C304.4,269.9,296.6,262.9,287.3,262.9z"/>
		<g id="XMLID_77_">
			<path id="XMLID_238_" class="st21" d="M277.1,329.5L277.1,329.5c-1.6,0-3-1.3-3-2.8v-1.4c0-1.5,1.3-2.8,3-2.8l0,0
				c1.6,0,3,1.3,3,2.8v1.4C280,328.3,278.7,329.5,277.1,329.5z"/>
			<path id="XMLID_237_" class="st21" d="M291.4,329.5L291.4,329.5c-1.6,0-3-1.3-3-2.8v-1.4c0-1.5,1.3-2.8,3-2.8l0,0
				c1.6,0,3,1.3,3,2.8v1.4C294.3,328.3,293,329.5,291.4,329.5z"/>
		</g>
	</g>
	<g id="XMLID_78_">
		<path id="XMLID_234_" class="st8" d="M257.5,306.4c-0.4-0.1-13.8-4.1-18.7-5c-0.2,0-0.4-0.1-0.6-0.1c-4.3-0.7-5.8-4.7-3.4-6.6
			c0.3-0.3,0.8-0.5,1.2-0.6c2.8-0.9,7.4,0,7.4,0C250.8,297,257.3,306.1,257.5,306.4z"/>
		<path id="XMLID_233_" class="st9" d="M257.5,306.4c-0.4-0.1-13.8-4.1-18.7-5c-3.3-2.5-3.2-5.6-2.8-7.4c2.8-0.9,7.4,0,7.4,0
			C250.8,297,257.3,306.1,257.5,306.4z"/>
		<path id="XMLID_79_" class="st8" d="M344.5,304l-4.8,17.2l-1.5-0.2l-21.7-2.9l-5.2-0.7l-3.4-1c-0.2,0.1-0.3,0.1-0.3,0
			c0,0-5.8-0.5-10.5,0.1c-4.8,0.6-16,1.9-19,1.3c-3-0.6-31.2-15.4-36.2-17c-5.1-1.7-6.3-6.1-1.4-7.3c3.9-0.9,14.9,2.3,19.4,3.7
			c1.2,0.4,1.9,0.6,2,0.6c0,0,0,0,0,0c-0.1-0.5-1.5-5.5,3.6-6.3c5.3-0.8,11.5,1.2,16.6,3.1c0,0,3.3,0.2,6.2-0.9
			c2.9-1.1,13-6,20.8-1.9c6.9,3.6,14.5,6.7,17.5,10.1l0.5,0.1l13.8,1.6L344.5,304z"/>
		<path id="XMLID_80_" class="st9" d="M340.9,303.5l-2.7,17.4l-21.7-2.9c2.8-7.5,8.1-13.5,10.6-16.1L340.9,303.5z"/>
		<path id="XMLID_230_" class="st9" d="M298,308.3c0,0-6.2,1.3-12,0.3c-5.8-1.1-6-1-10.4-2c-4.5-1-7.6-3.4-7.6-3.4s-4.5,0.2-8.1-6
			c1.2,0.4,1.9,0.6,2,0.6l0,0c0,0,1.4,2.8,6.3,3.6c0,0,3.6,2.1,7.5,3.2c3.8,1.1,5.4,0.3,10.5,1.9C291.3,308.1,298,308.3,298,308.3z"
			/>
	</g>
	<path id="XMLID_81_" class="st5" d="M447.6,323.8l-114.7-27.5c0,0-11,17.2-9.8,35.5l113.3,22.4c8.3,1.6,16-4.6,15.5-12.5
		C451.5,335.4,452.1,332.6,447.6,323.8z"/>
	<g id="XMLID_82_">
		<rect id="XMLID_227_" x="279" y="397.5" class="st6" width="31.8" height="2.3"/>
		<rect id="XMLID_226_" x="363.9" y="397.5" class="st6" width="31.8" height="2.3"/>
	</g>
	<g id="XMLID_83_">
		<path id="XMLID_84_" class="st21" d="M378.8,122.4c-1.2-8.4-10.8-22.3-26.3-24.4c-6.2-0.8-11.5-0.8-15.5-0.6
			c-4.1-0.3-9.3-0.3-15.5,0.6c-15.5,2.1-25.1,16-26.3,24.4c-1.2,8.4,1.2,26.3,1.2,26.3l1.8,10.9l33.4,3.7l0.1,1.2l5.5-0.6l5.5,0.6
			l0.1-1.2l33.4-3.7l1.8-10.9C377.6,148.8,379.9,130.8,378.8,122.4z"/>
		<g id="XMLID_85_">
			<g id="XMLID_86_">
				<path id="XMLID_223_" class="st20" d="M303.6,151c0,0-4.3-6.7-9.1-5.2c-4.8,1.5-8.8,18.5,10.2,22.9
					C304.7,168.7,308.8,158.1,303.6,151z"/>
				<path id="XMLID_87_" class="st9" d="M304.5,157.2c0,0-3.5-7.6-7.1-6.6c-3.5,1-1.8,4.2,1.5,5.6c0,0-1.8,3.1,0,5.9
					c1.8,2.7,6.9,3.4,6.9,3.4l0.1-6.3L304.5,157.2z"/>
			</g>
			<g id="XMLID_88_">
				<path id="XMLID_220_" class="st20" d="M370.2,151c0,0,4.3-6.7,9.1-5.2c4.8,1.5,8.8,18.5-10.2,22.9
					C369.1,168.7,365.1,158.1,370.2,151z"/>
				<path id="XMLID_89_" class="st9" d="M369.3,157.2c0,0,3.5-7.6,7.1-6.6c3.5,1,1.8,4.2-1.5,5.6c0,0,1.8,3.1,0,5.9
					c-1.8,2.7-6.9,3.4-6.9,3.4l-0.1-6.3L369.3,157.2z"/>
			</g>
		</g>
		<path id="XMLID_90_" class="st8" d="M374.8,136.5c-0.3,1.1-0.8,3-1.3,5.5c-1.7,7.6-4,20.3-2.3,28.5c2.4,11.6-3.1,33.5-26.1,34
			h-16.4c-23-0.5-28.6-22.4-26.2-34c2.3-10.8-2.3-29.3-3.6-33.9c0,0,0,0,0,0c-0.1-1.2-1.5-20.5,3.2-25.5c1.3-1.4,3.1-3,5.2-4.4
			c5.6-3.7,14-6.9,26.6-6.9h5.8c3.4,0,6.5,0.2,9.3,0.6c11.7,1.7,18.6,6.5,22.5,10.6C376.5,116.1,374.8,136.5,374.8,136.5z"/>
		<path id="XMLID_91_" class="st9" d="M374.8,136.5c-0.3,1.1-0.8,3-1.3,5.5c-7.6-4.5-14.3-16.1-14.3-16.1
			c-16.7,9.7-59.2,12.2-59.2,12.2l-1-1.7c-0.1-1.2-1.5-20.5,3.2-25.5c1.3-1.4,3.1-3,5.2-4.4l41.7-6.3c11.7,1.7,18.6,6.5,22.5,10.6
			C376.5,116.1,374.8,136.5,374.8,136.5z"/>
		<ellipse id="XMLID_92_" class="st25" cx="336.7" cy="160.9" rx="8.2" ry="3.3"/>
		<g id="XMLID_93_">
			<g id="XMLID_94_">
				<path id="XMLID_213_" class="st21" d="M311.5,141.5c0.9,0.4,1.8-0.3,2.6-0.8c2.1-1.1,4.7-1.1,6.9-0.6c1.1,0.3,3,1.6,4,1.5
					c1.2-0.1,2.1-2.9,2-4c-1.2-1.4-3.2-1.8-4.9-2.2c-2-0.4-4.1-0.9-6.1-0.4c-1.6,0.4-3.5,0.8-4.9,1.8c-0.8,0.6-1,1.2-0.9,2.4
					C310.3,140.1,310.8,141.2,311.5,141.5z"/>
				<g id="XMLID_95_">
					<ellipse id="XMLID_96_" class="st21" cx="318.7" cy="150.4" rx="2.7" ry="4.9"/>
					<ellipse id="XMLID_97_" class="st5" cx="317.6" cy="148.2" rx="0.7" ry="1.2"/>
				</g>
			</g>
			<g id="XMLID_98_">
				<path id="XMLID_208_" class="st21" d="M362.3,141.5c-0.9,0.4-1.8-0.3-2.6-0.8c-2.1-1.1-4.7-1.1-6.9-0.6c-1.1,0.3-3,1.6-4,1.5
					c-1.2-0.1-2.1-2.9-2-4c1.2-1.4,3.2-1.8,4.9-2.2c2-0.4,4.1-0.9,6.1-0.4c1.6,0.4,3.5,0.8,4.9,1.8c0.8,0.6,1,1.2,0.9,2.4
					C363.6,140.1,363,141.2,362.3,141.5z"/>
				<g id="XMLID_99_">
					<ellipse id="XMLID_100_" class="st21" cx="355.2" cy="150.4" rx="2.7" ry="4.9"/>
					<ellipse id="XMLID_101_" class="st5" cx="354.2" cy="148.2" rx="0.7" ry="1.2"/>
				</g>
			</g>
		</g>
		<path id="XMLID_102_" class="st26" d="M354.3,174.5c-0.5,3.9-2.8,7.4-6.2,9.9c-3,2.2-6.9,3.5-11.2,3.5c-4.3,0-8.2-1.3-11.2-3.5
			c-3.4-2.4-5.6-5.9-6.2-9.9H354.3z"/>
		<rect id="XMLID_103_" x="323.6" y="174.5" class="st5" width="26.7" height="3.3"/>
		<path id="XMLID_104_" class="st27" d="M348.1,184.3c-3,2.2-6.9,3.5-11.2,3.5c-4.3,0-8.2-1.3-11.2-3.5c1.8-2.2,6.1-3.8,11.2-3.8
			S346.3,182.1,348.1,184.3z"/>
		<g id="XMLID_105_">
			<path id="XMLID_106_" class="st21" d="M303,129.7c0,0,2.8,22,1.3,30.1l-2.4-1.4c0,0-3.2-13.9-4.1-17.6c-0.9-3.7-1.5-7.4-1.5-7.4
				L303,129.7z"/>
			<path id="XMLID_107_" class="st21" d="M370.8,129.7c0,0-2.8,22-1.3,30.1l2.4-1.4c0,0,3.2-13.9,4.1-17.6c0.9-3.7,1.5-7.4,1.5-7.4
				L370.8,129.7z"/>
		</g>
		<path id="XMLID_108_" class="st21" d="M378.8,118.9c-0.4-4.1-7.8-23.4-20-19.9c-3.3-6.5-14.4-5.3-25.1-5.2
			c-12.9,0.2-27.5,5-34.4,13.9c-7,8.9-2.9,28.9-2.9,28.9c25.6-2.7,54.1-11.6,64.6-19.3c3.1,5.1,7.9,14.7,16.1,17.6
			C377,134.8,379.2,123.2,378.8,118.9z"/>
	</g>
</g>
</svg>
