<?xml version="1.0" encoding="utf-8"?>
<!-- Generator: Adobe Illustrator 19.0.0, SVG Export Plug-In . SVG Version: 6.00 Build 0)  -->
<svg version="1.1" id="Layer_1" xmlns="http://www.w3.org/2000/svg" xmlns:xlink="http://www.w3.org/1999/xlink" x="0px" y="0px"
	 viewBox="0 0 300 300" style="enable-background:new 0 0 300 300;" xml:space="preserve">
<style type="text/css">
	.st0{fill:#F4F6F7;stroke:#F4F6F7;stroke-miterlimit:10;}
	.st1{fill:#8BC23F;stroke:#F4F6F7;stroke-miterlimit:10;}
	.st2{fill:#C5D92D;}
	.st3{opacity:0.8;fill:#FFFFFF;}
	.st4{fill:#FFFFFF;stroke:#263238;stroke-width:0.75;stroke-linecap:round;stroke-linejoin:round;stroke-miterlimit:10;}
	.st5{fill:#263238;stroke:#263238;stroke-width:0.75;stroke-linecap:round;stroke-linejoin:round;stroke-miterlimit:10;}
	.st6{fill:#263238;}
	.st7{fill:#C5D92D;stroke:#263238;stroke-width:0.75;stroke-linecap:round;stroke-linejoin:round;stroke-miterlimit:10;}
	.st8{fill:#FFFFFF;}
	.st9{fill:none;stroke:#263238;stroke-width:0.75;stroke-linecap:round;stroke-linejoin:round;stroke-miterlimit:10;}
	.st10{fill:none;stroke:#263238;stroke-linecap:round;stroke-linejoin:round;stroke-miterlimit:10;}
	.st11{fill:#263238;stroke:#263238;stroke-linecap:round;stroke-linejoin:round;stroke-miterlimit:10;}
	.st12{fill:#FFFFFF;stroke:#263238;stroke-linecap:round;stroke-linejoin:round;stroke-miterlimit:10;}
	.st13{clip-path:url(#XMLID_65_);}
	.st14{clip-path:url(#XMLID_67_);fill:#C5D92D;}
	.st15{opacity:0.5;clip-path:url(#XMLID_67_);fill:#FFFFFF;}
	.st16{clip-path:url(#XMLID_70_);fill:#C5D92D;}
	.st17{opacity:0.5;clip-path:url(#XMLID_70_);fill:#FFFFFF;}
	.st18{clip-path:url(#XMLID_71_);fill:#C5D92D;}
	.st19{opacity:0.5;clip-path:url(#XMLID_71_);fill:#FFFFFF;}
	.st20{clip-path:url(#XMLID_71_);fill:#263238;}
	.st21{fill:none;stroke:#FFFFFF;stroke-linecap:round;stroke-miterlimit:10;}
	
		.st22{opacity:0.5;clip-path:url(#XMLID_72_);fill:#FFFFFF;stroke:#263238;stroke-width:0.75;stroke-linecap:round;stroke-linejoin:round;stroke-miterlimit:10;}
	.st23{clip-path:url(#XMLID_75_);fill:#C5D92D;}
	.st24{opacity:0.5;clip-path:url(#XMLID_75_);fill:#FFFFFF;}
	.st25{clip-path:url(#XMLID_77_);fill:#C5D92D;}
	.st26{opacity:0.5;clip-path:url(#XMLID_77_);fill:#FFFFFF;}
</style>
<path id="XMLID_1_" class="st0" d="M300,300H0C0,201.7,0,103.4,0,5.2C0,3.4,0,1.7,0,0c100,0,200,0,300,0V300z"/>
<path id="XMLID_2_" class="st1" d="M0-2c15.9,17.2,36,32.3,59.9,34.4c27,2.3,36.9-13.9,66.1-12c30.2,2,39.5,20.8,62.8,28.6
	c23.5,8,58.8,3.9,109.7-50C199-1.3,99.5-1.7,0-2z"/>
<g id="XMLID_316_">
	<path id="XMLID_64_" class="st2" d="M142.2,116.9c-1.1-11.7-3.9-23.1-7.3-31.2c-8.1-19.5-31-32.5-48.4-29
		c-14.8,3-22,20.4-35.3,26.5c-12.3,5.6-23.3,10-29.2,24.7c-12.4,31.1,17.4,64.8,43,62c8.1-0.9,15.3-4.9,23.6-3.1
		c16.8,3.7,22.4,7.8,37.3,0.1C140.8,159.2,144.1,137.5,142.2,116.9z"/>
	<path id="XMLID_63_" class="st3" d="M142.2,116.9c-1.1-11.7-3.9-23.1-7.3-31.2c-8.1-19.5-31-32.5-48.4-29
		c-14.8,3-22,20.4-35.3,26.5c-12.3,5.6-23.3,10-29.2,24.7c-12.4,31.1,17.4,64.8,43,62c8.1-0.9,15.3-4.9,23.6-3.1
		c16.8,3.7,22.4,7.8,37.3,0.1C140.8,159.2,144.1,137.5,142.2,116.9z"/>
</g>
<g id="XMLID_139_">
	<polyline id="XMLID_203_" class="st4" points="85.1,200.4 74.1,151.6 100.8,151.6 133.8,194.6 	"/>
	<polygon id="XMLID_23_" class="st5" points="82.4,198.5 74.1,154.9 74.1,151.6 85.8,202.7 	"/>
	<g id="XMLID_188_">
		<polygon id="XMLID_186_" class="st4" points="89.4,153.7 100.8,180 86.9,186.3 79.1,156.9 		"/>
		<polygon id="XMLID_187_" class="st5" points="86.9,186.3 86.9,187.1 100.5,181.7 100.8,180 		"/>
		<g id="XMLID_189_">
			<polygon id="XMLID_190_" class="st6" points="88.9,163.1 89.5,164.8 91,164 90.4,162.4 			"/>
			<polygon id="XMLID_191_" class="st6" points="94.5,173.5 93.8,171.6 92.2,172.5 92.8,174.4 			"/>
			<polygon id="XMLID_192_" class="st6" points="87.7,159.6 88.2,160.9 89.6,160.2 89.1,159 			"/>
			<polygon id="XMLID_193_" class="st6" points="90.4,167.4 91.2,169.8 92.8,168.9 92,166.6 			"/>
			<polygon id="XMLID_245_" class="st6" points="94.6,168.5 93.2,169.2 93.9,171.1 95.4,170.3 			"/>
			<polygon id="XMLID_246_" class="st6" points="91.4,170.2 92,172.1 93.7,171.2 93,169.3 			"/>
			<polygon id="XMLID_247_" class="st6" points="86.2,160.3 86.6,161.7 87.9,161 87.5,159.7 			"/>
			<polygon id="XMLID_248_" class="st6" points="89.7,165.2 90.3,167 91.8,166.2 91.2,164.4 			"/>
			<polygon id="XMLID_249_" class="st6" points="88.3,161.3 88.8,162.7 90.2,162 89.7,160.6 			"/>
			<polygon id="XMLID_250_" class="st6" points="85.3,164.6 84.9,163 83.3,163.8 83.7,165.4 			"/>
			<polygon id="XMLID_251_" class="st6" points="83,168.3 84.1,167.7 83.6,165.9 82.5,166.5 			"/>
			<polygon id="XMLID_252_" class="st6" points="85.7,158.8 86,159.9 87.3,159.3 87,158.3 			"/>
			<polygon id="XMLID_253_" class="st6" points="84.7,162.6 84.3,161.1 82.7,161.8 83.2,163.4 			"/>
			<polygon id="XMLID_254_" class="st6" points="84.1,159.4 84.4,160.6 85.8,160 85.4,158.9 			"/>
			<polygon id="XMLID_255_" class="st6" points="81.9,164 82.9,163.5 82.5,161.9 81.4,162.4 			"/>
			<polygon id="XMLID_256_" class="st6" points="82.3,160.2 82.6,161.4 84.2,160.7 83.9,159.5 			"/>
			<polygon id="XMLID_257_" class="st6" points="87.3,164 87.9,165.7 89.3,165 88.7,163.3 			"/>
			<polygon id="XMLID_258_" class="st6" points="91,169.9 90.2,167.6 88.7,168.4 89.4,170.7 			"/>
			<polygon id="XMLID_259_" class="st6" points="84.6,161 85,162.5 86.3,161.8 85.9,160.4 			"/>
			<polygon id="XMLID_260_" class="st6" points="84.9,170.4 83.8,171.1 84.3,173.2 85.5,172.6 			"/>
			<polygon id="XMLID_261_" class="st6" points="88,166.1 88.6,168 90,167.2 89.4,165.4 			"/>
			<polygon id="XMLID_262_" class="st6" points="87,163.7 86.5,162.2 85.1,162.9 85.5,164.4 			"/>
			<polygon id="XMLID_263_" class="st6" points="89.5,179.7 88,180.5 88.5,182.5 90.1,181.7 			"/>
			<polygon id="XMLID_264_" class="st6" points="87.1,157.7 88.5,157.2 87.7,155.2 86.4,155.7 			"/>
			<polygon id="XMLID_265_" class="st6" points="83.8,159.1 83.1,156.7 81.4,157.3 82.1,159.7 			"/>
			<polygon id="XMLID_266_" class="st6" points="85.9,166.8 85.4,165 83.8,165.8 84.3,167.6 			"/>
			<polygon id="XMLID_267_" class="st6" points="89.9,173.2 89.3,171.2 87.7,172 88.3,174.1 			"/>
			<polygon id="XMLID_268_" class="st6" points="89.2,170.8 88.5,168.5 86.9,169.3 87.5,171.6 			"/>
			<polygon id="XMLID_269_" class="st6" points="91.8,172.2 91.1,170.3 89.5,171.1 90.2,173.1 			"/>
			<polygon id="XMLID_270_" class="st6" points="87.6,165.8 87.1,164.1 85.6,164.8 86.1,166.6 			"/>
			<polygon id="XMLID_271_" class="st6" points="86.7,162.1 87.2,163.6 88.6,162.8 88.1,161.4 			"/>
			<polygon id="XMLID_272_" class="st6" points="88.3,168.1 87.8,166.3 86.3,167 86.8,168.9 			"/>
			<polygon id="XMLID_273_" class="st6" points="92.6,174.6 91.9,172.7 90.3,173.5 90.9,175.5 			"/>
			<polygon id="XMLID_274_" class="st6" points="91.5,178.2 90.8,176 89,177 89.7,179.2 			"/>
			<polygon id="XMLID_275_" class="st6" points="86.2,175.2 85.6,173.1 84.4,173.6 85,175.8 			"/>
			<polygon id="XMLID_276_" class="st6" points="84.2,168.1 83.1,168.7 83.6,170.6 84.8,170 			"/>
			<polygon id="XMLID_277_" class="st6" points="89.4,179.3 88.8,177.1 87.2,177.9 87.8,180.1 			"/>
			<polygon id="XMLID_278_" class="st6" points="86.6,169 86,167.2 84.5,168 85,169.9 			"/>
			<polygon id="XMLID_279_" class="st6" points="87.2,158.2 87.6,159.2 89,158.6 88.6,157.6 			"/>
			<polygon id="XMLID_280_" class="st6" points="81.3,161.9 82.4,161.5 82,160.3 81,160.7 			"/>
			<polygon id="XMLID_281_" class="st6" points="85.6,158.4 86.8,157.8 86.1,155.8 84.9,156.2 			"/>
			<polygon id="XMLID_282_" class="st6" points="84,159 85.3,158.5 84.6,156.3 83.4,156.7 			"/>
			<polygon id="XMLID_283_" class="st6" points="83.5,165.5 83,163.9 82,164.4 82.4,166.1 			"/>
			<polygon id="XMLID_284_" class="st6" points="88.7,157.1 89.9,156.6 89.1,154.8 88,155.2 			"/>
			<polygon id="XMLID_285_" class="st6" points="81.9,159.8 81.2,157.4 80.2,157.7 80.9,160.3 			"/>
			<polygon id="XMLID_286_" class="st6" points="87.7,180.6 86.5,181.2 87,183.3 88.3,182.6 			"/>
			<polygon id="XMLID_287_" class="st6" points="93.6,177.7 91.9,178.5 92.5,180.6 94.3,179.7 			"/>
			<polygon id="XMLID_288_" class="st6" points="91.6,178.7 89.8,179.6 90.4,181.6 92.3,180.7 			"/>
			<polygon id="XMLID_289_" class="st6" points="95.7,176.6 93.9,177.5 94.6,179.6 96.5,178.6 			"/>
			<polygon id="XMLID_290_" class="st6" points="97.5,175.7 96,176.5 96.7,178.5 98.3,177.7 			"/>
			<polygon id="XMLID_291_" class="st6" points="87,178.1 85.8,178.7 86.4,180.8 87.6,180.2 			"/>
			<polygon id="XMLID_292_" class="st6" points="90.7,175.6 90.1,173.6 88.4,174.5 88.9,176.5 			"/>
			<polygon id="XMLID_293_" class="st6" points="93.5,177.2 92.7,175 91.1,175.9 91.8,178.1 			"/>
			<polygon id="XMLID_294_" class="st6" points="88.7,176.7 88.1,174.7 86.6,175.5 87.1,177.5 			"/>
			<polygon id="XMLID_295_" class="st6" points="85.7,178.3 86.9,177.6 86.3,175.6 85.2,176.3 			"/>
			<polygon id="XMLID_296_" class="st6" points="87.3,171.7 86.7,169.5 85.1,170.3 85.7,172.5 			"/>
			<polygon id="XMLID_297_" class="st6" points="95.6,176.2 94.7,173.9 93,174.9 93.7,177.1 			"/>
			<polygon id="XMLID_298_" class="st6" points="88,174.3 87.4,172.1 85.8,172.9 86.4,175.1 			"/>
			<polygon id="XMLID_299_" class="st6" points="92.2,166.5 93.1,168.8 94.5,168.1 93.5,165.7 			"/>
			<polygon id="XMLID_300_" class="st6" points="90.5,161.8 91.7,161.2 91.2,159.8 90,160.4 			"/>
			<polygon id="XMLID_301_" class="st6" points="89.4,158.9 89.8,160 91,159.4 90.6,158.4 			"/>
			<polygon id="XMLID_302_" class="st6" points="97.3,175.3 96.4,173 94.9,173.8 95.8,176.1 			"/>
			<polygon id="XMLID_303_" class="st6" points="90.6,162.3 91.3,163.9 92.5,163.2 91.9,161.6 			"/>
			<polygon id="XMLID_304_" class="st6" points="94.1,171.5 94.8,173.4 96.3,172.6 95.5,170.7 			"/>
			<polygon id="XMLID_305_" class="st6" points="89.2,158.5 90.4,158 90,157 88.9,157.5 			"/>
			<polygon id="XMLID_306_" class="st6" points="92.1,166.1 93.4,165.3 92.7,163.6 91.4,164.3 			"/>
		</g>
	</g>
	<g id="XMLID_149_">
		<path id="XMLID_195_" class="st4" d="M102.6,156.6v4.2c0,0-0.3,0.6-0.7,1.1c-0.4,0.5-3.6,1.5-3.6,1.5l4.1,8.8c0,0,3.7-0.8,4.8-1.4
			c1.1-0.6,0.9-8.5,0.9-8.5L102.6,156.6z"/>
		<path id="XMLID_62_" class="st5" d="M102.6,156.6v4.2c0,0-0.1,0.1-0.2,0.3l4.8,9.7c1-0.9,0.8-8.5,0.8-8.5L102.6,156.6z"/>
		<polygon id="XMLID_183_" class="st4" points="95.3,103.2 95.3,147.5 112.4,174.1 112.4,105.6 		"/>
		<polygon id="XMLID_184_" class="st7" points="96.5,105.5 96.5,142.8 110.9,160.3 110.9,108 		"/>
		<rect id="XMLID_185_" x="112.4" y="105.6" class="st5" width="1.7" height="68.5"/>
		<polygon id="XMLID_197_" class="st4" points="97.5,107.8 97.5,141.1 109.5,154.6 109.5,113.3 101.3,110.9 100.8,108.6 		"/>
		<polygon id="XMLID_200_" class="st7" points="98.2,111.8 98.2,140.2 108.8,151.3 108.8,115.5 		"/>
		<g id="XMLID_196_">
			<path id="XMLID_194_" class="st6" d="M106.2,133.6c0-4.1-1.3-8.1-3-8.9c-1.6-0.8-3,1.9-3,6c0,4.1,1.3,8.1,3,8.9
				C104.8,140.4,106.2,137.7,106.2,133.6z"/>
			<path id="XMLID_201_" class="st8" d="M103.5,132.6l1-2.2c0.1-0.3,0.1-0.9,0-1.3c-0.2-0.4-0.4-0.5-0.5-0.2l-1,2.1l-1-3.1
				c-0.1-0.4-0.4-0.6-0.5-0.3c-0.2,0.3-0.2,0.9,0,1.3l1,3.2l-1,2.2c-0.1,0.3-0.1,0.9,0,1.3c0.1,0.2,0.2,0.3,0.3,0.4
				c0.1,0,0.2,0,0.3-0.2l1-2.1l1,3.1c0.1,0.2,0.2,0.4,0.3,0.4c0.1,0,0.2,0,0.3-0.1c0.2-0.3,0.2-0.9,0-1.3L103.5,132.6z"/>
		</g>
		<line id="XMLID_198_" class="st9" x1="100.1" y1="121.4" x2="106.1" y2="124.9"/>
		<line id="XMLID_199_" class="st9" x1="99.9" y1="118.2" x2="107.6" y2="122.4"/>
	</g>
	<g id="XMLID_146_">
		<path id="XMLID_61_" class="st4" d="M105.2,191.2c0,0-3.7,0.7-5.1,2.9c-1.4,2.2-0.3,3.3,1,4c1.3,0.7,7.2-0.4,8-1.9
			C109.8,194.6,109,190.9,105.2,191.2z"/>
		<path id="XMLID_60_" class="st5" d="M109,196.1c0.1-0.3,0.2-0.7,0.3-1.1c-1.7-0.2-3.9,0.8-5.9,2c-0.8,0.5-1.5,0.8-2.1,1.1
			C103.1,198.6,108.3,197.5,109,196.1z"/>
	</g>
	<g id="XMLID_140_">
		<line id="XMLID_59_" class="st10" x1="91.9" y1="109.9" x2="94.6" y2="112.7"/>
		<line id="XMLID_58_" class="st10" x1="90.3" y1="108.2" x2="91.1" y2="109.1"/>
		<line id="XMLID_57_" class="st10" x1="92.5" y1="124" x2="93.4" y2="124.3"/>
		<line id="XMLID_56_" class="st10" x1="88.9" y1="123.2" x2="91.4" y2="123.8"/>
		<line id="XMLID_55_" class="st10" x1="93.1" y1="137.2" x2="90" y2="138.9"/>
	</g>
</g>
<g id="XMLID_133_">
	<path id="XMLID_136_" class="st6" d="M97.3,62.3c-6.3,0-11.5,6.6-11.5,14.7c0,8.1,5.1,14.7,11.5,14.7c6.3,0,11.5-6.6,11.5-14.7
		C108.8,68.8,103.6,62.3,97.3,62.3z M97.3,88.7c-5.1,0-9.2-5.3-9.2-11.8c0-6.5,4.1-11.8,9.2-11.8c5.1,0,9.2,5.3,9.2,11.8
		C106.5,83.4,102.4,88.7,97.3,88.7z"/>
	<ellipse id="XMLID_52_" class="st6" cx="97.3" cy="76.9" rx="0.8" ry="1"/>
	<polyline id="XMLID_51_" class="st10" points="94.5,82.3 97.3,76.9 101.9,81.8 	"/>
</g>
<g id="XMLID_118_">
	<g id="XMLID_130_">
		<polyline id="XMLID_50_" class="st2" points="36.3,88.2 34.9,83.4 35.6,84.4 35.6,82.8 37.2,85.8 35.8,74.9 37.7,80.9 37.8,75.6 
			38.1,77.4 38.5,71.4 39.1,80.5 40.1,77.4 39.9,81.5 42.4,72.1 41.2,83.8 42.9,82.2 41.9,84.3 43.2,83.1 41.7,88.5 36.4,88.6 		"/>
		<polygon id="XMLID_49_" class="st11" points="42.2,100 36.4,100 34.9,87.3 43.7,87.3 		"/>
	</g>
	<g id="XMLID_119_">
		<rect id="XMLID_48_" x="28.9" y="100" class="st12" width="29.1" height="98.7"/>
		<g id="XMLID_126_">
			<rect id="XMLID_47_" x="30.6" y="103.2" class="st10" width="25.4" height="23.8"/>
			<rect id="XMLID_46_" x="38.2" y="112.9" class="st6" width="10.2" height="4.3"/>
		</g>
		<g id="XMLID_123_">
			<rect id="XMLID_45_" x="30.6" y="130.9" class="st10" width="25.4" height="23.8"/>
			<rect id="XMLID_44_" x="38.2" y="140.7" class="st6" width="10.2" height="4.3"/>
		</g>
		<g id="XMLID_120_">
			<rect id="XMLID_43_" x="30.6" y="158.7" class="st10" width="25.4" height="23.8"/>
			<rect id="XMLID_42_" x="38.2" y="168.4" class="st6" width="10.2" height="4.3"/>
		</g>
	</g>
</g>
<g id="XMLID_66_">
	<defs>
		<rect id="XMLID_24_" x="11.4" y="82.7" width="77" height="116.5"/>
	</defs>
	<clipPath id="XMLID_65_">
		<use xlink:href="#XMLID_24_"  style="overflow:visible;"/>
	</clipPath>
	<g id="XMLID_68_" class="st13">
		<path id="XMLID_22_" class="st5" d="M52.9,193c0,0,12.2-8.2,18.7-8.8l4.8,16.1H40.3L52.9,193z"/>
		<g id="XMLID_73_">
			<g id="XMLID_107_">
				<g id="XMLID_113_">
					<defs>
						<path id="XMLID_21_" d="M67.8,95.9c0,0,8.6,15.5,10.4,18.4c1.8,2.9,1.9,4.9,1.3,6.2c-0.6,1.3-5,3.6-9.5,8.1
							c-4.5,4.4-17.4,15.8-17.5,16.2c-0.1,0.4-1.4-13.8-1.4-13.8l21.5-13.5l-0.1-1l-7-19.7L67.8,95.9z"/>
					</defs>
					<use xlink:href="#XMLID_21_"  style="overflow:visible;fill:#FFFFFF;"/>
					<clipPath id="XMLID_67_">
						<use xlink:href="#XMLID_21_"  style="overflow:visible;"/>
					</clipPath>
					<path id="XMLID_41_" class="st14" d="M76,118.9l-10-22.2l-0.5,0.2l7,19.7l0.1,1l-21.5,13.5c0,0,0,0.2,0.1,0.7l1.4,4.9L76,118.9
						z"/>
					<path id="XMLID_40_" class="st15" d="M76,118.9l-10-22.2l-0.5,0.2l7,19.7l0.1,1l-21.5,13.5c0,0,0,0.2,0.1,0.7l1.4,4.9L76,118.9
						z"/>
					
						<use xlink:href="#XMLID_21_"  style="overflow:visible;fill:none;stroke:#263238;stroke-width:0.75;stroke-linecap:round;stroke-linejoin:round;stroke-miterlimit:10;"/>
				</g>
				<path id="XMLID_20_" class="st4" d="M60.9,89.1c0,0-1-1.4-1.5,0c-0.5,1.4-0.6,3.6-0.3,3.8c0.3,0.2,1.6-0.1,1.8-0.7
					C61.1,91.7,60.9,89.1,60.9,89.1z"/>
				<path id="XMLID_19_" class="st4" d="M62.7,88.4c0,0-1.1-1.8-1.8-1.1s-0.5,4.4-0.3,4.7c0.3,0.3,1.8-0.5,2-1
					C62.9,90.6,62.7,88.4,62.7,88.4z"/>
				<path id="XMLID_18_" class="st4" d="M65.2,88.5c0,0-1-2.1-1.9-2.1c-0.9,0-1.5,4.9-1.2,5.3c0.3,0.4,2.5-0.1,2.6-0.4
					C64.8,91.1,65.2,88.5,65.2,88.5z"/>
				<path id="XMLID_17_" class="st4" d="M67.1,91.9c0-0.6-0.2-5.7-1.4-5.4c-1.2,0.3-2.4,4.4-2.3,5.1C63.4,92.3,67.1,91.9,67.1,91.9z
					"/>
				<path id="XMLID_16_" class="st4" d="M72.6,117.6c0,0,3.3,1.9,4.5,1.8"/>
			</g>
			<g id="XMLID_103_">
				<defs>
					<path id="XMLID_15_" d="M45.6,200.4c3.5-0.9,8-4.6,9.3-9.2c-1-8-2.3-19.3-2.3-26.2c0-11.6,2-18.2,1.1-26.1
						c-0.9-7.9-2.8-13-4.9-15.1c0,0-3.2,1.3-6.4,5.9c-3.2,4.6-6.1,12.6-7.2,20.2c-1.1,7.6-2.6,30.9-2.6,37c0,6.1-0.3,13.7-0.3,13.7
						c3.9,0,7.7,0,11.6,0C44.5,200.6,45,200.6,45.6,200.4z"/>
				</defs>
				<use xlink:href="#XMLID_15_"  style="overflow:visible;fill:#FFFFFF;"/>
				<clipPath id="XMLID_70_">
					<use xlink:href="#XMLID_15_"  style="overflow:visible;"/>
				</clipPath>
				<path id="XMLID_39_" class="st16" d="M54.9,191.2c-2,2.5-10.8,7.5-12.1,8c-1.3,0.4-0.6-3.7,1.4-7.9c2-4.2-2.4,1.5-3.2,2
					c-0.7,0.4,0.3-8.1,0.3-12.2c0-4.2,2.6-39.6,2.6-39.6l4.9-13.6l1.7-1.5c-0.5-1-1.1-1.9-1.7-2.4c0,0-3.2,1.3-6.4,5.9
					c-3.2,4.6-6.1,12.6-7.2,20.2c-1.1,7.6-2.6,30.9-2.6,37c0,6.1-0.3,13.7-0.3,13.7c3.9,0,7.7,0,11.6,0c0.5,0,1-0.1,1.6-0.2
					C49.1,199.5,53.5,195.8,54.9,191.2z"/>
				<path id="XMLID_38_" class="st17" d="M54.9,191.2c-2,2.5-10.8,7.5-12.1,8c-1.3,0.4-0.6-3.7,1.4-7.9c2-4.2-2.4,1.5-3.2,2
					c-0.7,0.4,0.3-8.1,0.3-12.2c0-4.2,2.6-39.6,2.6-39.6l4.9-13.6l1.7-1.5c-0.5-1-1.1-1.9-1.7-2.4c0,0-3.2,1.3-6.4,5.9
					c-3.2,4.6-6.1,12.6-7.2,20.2c-1.1,7.6-2.6,30.9-2.6,37c0,6.1-0.3,13.7-0.3,13.7c3.9,0,7.7,0,11.6,0c0.5,0,1-0.1,1.6-0.2
					C49.1,199.5,53.5,195.8,54.9,191.2z"/>
				
					<use xlink:href="#XMLID_15_"  style="overflow:visible;fill:none;stroke:#263238;stroke-width:0.75;stroke-linecap:round;stroke-linejoin:round;stroke-miterlimit:10;"/>
			</g>
			<g id="XMLID_100_">
				<path id="XMLID_37_" class="st5" d="M48.6,125.7l5.5,15.4l0.3,8.4c0,0,1.5-6,0.9-10C54.6,135.6,48.6,125.7,48.6,125.7z"/>
				<polygon id="XMLID_36_" class="st5" points="54.5,149.5 52.9,185.2 54.6,192.5 55.8,177.8 54.8,148.5 				"/>
			</g>
			<g id="XMLID_85_">
				<g id="XMLID_93_">
					<defs>
						<path id="XMLID_11_" d="M52.9,111.3c0,0,0.2,3.8,0.4,5.7c0.2,1.9-2.8,7.1-2.8,7.1l4.4,10.1l5-5.9c0,0,7-0.8,7.7-1.7
							c0.6-0.9,0.6-10.6,0.6-10.6l1.7-1.5c0,0-1.5-10.2-1.9-12.5c-0.4-2.3-0.4-2.3-0.4-2.3s2.3-1.2,1.7-4.6
							c-0.5-3.4-3.8-5.1-7.1-4.3c-3.3,0.8-4.1,2.7-4.1,2.7s-4.6-0.1-7.3,3.2c-2.6,3.3-1,8.7-0.2,10.5
							C51.4,109.1,52.9,111.3,52.9,111.3z"/>
					</defs>
					<use xlink:href="#XMLID_11_"  style="overflow:visible;fill:#FFFFFF;"/>
					<clipPath id="XMLID_71_">
						<use xlink:href="#XMLID_11_"  style="overflow:visible;"/>
					</clipPath>
					<path id="XMLID_35_" class="st18" d="M60.7,125c-1.3-2.4,0-11.6,1-16.2c1-4.6-1.4-6.6-1.4-6.6l7.3-1.9
						c-0.1-0.6-0.1-0.6-0.1-0.6s0.7-0.4,1.3-1.4l0.4-3.6c-0.7-3.2-3.8-4.8-7-4c-3.3,0.8-4.1,2.7-4.1,2.7s-4.6-0.1-7.3,3.2
						c-2.6,3.3-1,8.7-0.2,10.5c0.8,1.9,2.4,4,2.4,4s0.2,3.8,0.4,5.7c0.2,1.9-2.8,7.1-2.8,7.1l4.4,10.1l5-5.9c0,0,5.4-0.6,7.2-1.3
						l0.5-0.3C67.5,126.6,62,127.4,60.7,125z"/>
					<path id="XMLID_34_" class="st19" d="M60.7,125c-1.3-2.4,0-11.6,1-16.2c1-4.6-1.4-6.6-1.4-6.6l7.3-1.9
						c-0.1-0.6-0.1-0.6-0.1-0.6s0.7-0.4,1.3-1.4l0.4-3.6c-0.7-3.2-3.8-4.8-7-4c-3.3,0.8-4.1,2.7-4.1,2.7s-4.6-0.1-7.3,3.2
						c-2.6,3.3-1,8.7-0.2,10.5c0.8,1.9,2.4,4,2.4,4s0.2,3.8,0.4,5.7c0.2,1.9-2.8,7.1-2.8,7.1l4.4,10.1l5-5.9c0,0,5.4-0.6,7.2-1.3
						l0.5-0.3C67.5,126.6,62,127.4,60.7,125z"/>
					<path id="XMLID_14_" class="st20" d="M64.5,106.7c0,0,0-0.2,0-0.4c0-0.8,0.1-2.4,0.9-2.9c1.1-0.6,2,1,2,1l0.1,1.6
						c0,0-0.5-1-1.4-0.8C65.2,105.5,64.5,106.7,64.5,106.7z"/>
					<ellipse id="XMLID_13_" class="st20" cx="66" cy="109.9" rx="0.3" ry="1.5"/>
					<path id="XMLID_12_" class="st20" d="M64.3,120.2c-0.4,0.6-0.8,0.8-1.1,0.4c-0.2-0.3-0.1-1.1,0.2-1.6c0.4-0.6,0.8-0.8,1.1-0.4
						C64.8,118.9,64.7,119.6,64.3,120.2z"/>
					
						<use xlink:href="#XMLID_11_"  style="overflow:visible;fill:none;stroke:#263238;stroke-width:0.75;stroke-linecap:round;stroke-linejoin:round;stroke-miterlimit:10;"/>
				</g>
				<g id="XMLID_89_">
					<path id="XMLID_10_" class="st5" d="M59.1,101.6c1.2-1.2,8.4-1.9,8.4-1.9s2.3-1.2,1.7-4.6c-0.5-3.4-3.8-5.1-7.1-4.3
						c-3.3,0.8-4.1,2.7-4.1,2.7s-4.6-0.1-7.3,3.2c-2.6,3.3-1,8.7-0.2,10.5c0.8,1.9,2.4,4,2.4,4s0.1,2.1,0.2,4l2,0.9l2.2-1.8l2.2-0.8
						c0,0-1.6-1.9-0.7-3.6c0.9-1.8,2.6-2.4,2.6-3.7C61.6,104.8,58,102.8,59.1,101.6z"/>
					<path id="XMLID_33_" class="st21" d="M66.2,95.9c0,0-0.8-2.1,0.6-1.7c1.4,0.4,1.4,4,0.3,4.8c-1.1,0.8-7.3-1-10.7,0.6
						c-3.4,1.5-5.8,5.8-5.8,5.8"/>
					<path id="XMLID_32_" class="st21" d="M52.4,108.6c0,0,2.6-3.5,4.8-4c2.1-0.6,3.3-0.6,0.9,1.5c-2.4,2.1-0.8,1.7,0.8,1"/>
				</g>
				<g id="XMLID_86_">
					<defs>
						<path id="XMLID_8_" d="M58,116.2c0,0-0.4-6.2-2.4-6.4c-2-0.2-1.9,4.2-1.4,7.3c0.6,3.1,2,4,3.2,2.5"/>
					</defs>
					<use xlink:href="#XMLID_8_"  style="overflow:visible;fill:#C5D92D;"/>
					<clipPath id="XMLID_72_">
						<use xlink:href="#XMLID_8_"  style="overflow:visible;"/>
					</clipPath>
					<path id="XMLID_9_" class="st22" d="M58,116.2c0,0-0.4-6.2-2.4-6.4c-2-0.2-1.9,4.2-1.4,7.3c0.6,3.1,2,4,3.2,2.5"/>
					
						<use xlink:href="#XMLID_8_"  style="overflow:visible;fill:none;stroke:#263238;stroke-width:0.75;stroke-linecap:round;stroke-linejoin:round;stroke-miterlimit:10;"/>
				</g>
			</g>
			<g id="XMLID_81_">
				<defs>
					<path id="XMLID_7_" d="M50.7,120.3l6.5,15l-3,5.8c0,0-2.3-6.7-4.5-11.4c-2.2-4.7-2.5-5.5-2.5-5.5L50.7,120.3z"/>
				</defs>
				<use xlink:href="#XMLID_7_"  style="overflow:visible;fill:#FFFFFF;"/>
				<clipPath id="XMLID_75_">
					<use xlink:href="#XMLID_7_"  style="overflow:visible;"/>
				</clipPath>
				<path id="XMLID_31_" class="st23" d="M50.7,120.3l-3.4,3.8c0,0,0.2,0.6,1.6,3.7l3.6-3.3L50.7,120.3z"/>
				<path id="XMLID_30_" class="st24" d="M50.7,120.3l-3.4,3.8c0,0,0.2,0.6,1.6,3.7l3.6-3.3L50.7,120.3z"/>
				
					<use xlink:href="#XMLID_7_"  style="overflow:visible;fill:none;stroke:#263238;stroke-width:0.75;stroke-linecap:round;stroke-linejoin:round;stroke-miterlimit:10;"/>
			</g>
			<g id="XMLID_74_">
				<path id="XMLID_6_" class="st4" d="M67.3,157.5c0,0,1-3.2,1.2-5.3c0.2-2.1,0.3-3.2,1-4.2c0.8-1,3.3-4.9,3.7-6.4
					c0.4-1.5,0.6-0.1,0.8,1.1c0.2,1.2,0.1,2.3-0.5,3c-0.6,0.7-1.2,1.8-1.2,1.8l0.6,0.7c0,0,8.1-4.6,8.9-5.1c0.8-0.5,1.6-0.1,1.7,0.9
					c0.1,1-0.2,1.1-0.6,1.4c-0.4,0.3-4.6,2.6-5.2,3c-0.6,0.4-0.6,0.4-0.6,0.4l0.5,0.7c0,0,2.3-0.1,3.5-0.2c1.2-0.1,2.9-0.4,3.2,0.2
					c0.3,0.6,0.1,1.3-0.2,1.7c-0.3,0.4-0.5,0.5-1,0.5c-0.6,0-5.5,0.6-5.5,0.6l0.1,1.1c0,0,5.3,1.3,5.5,1.7c0.2,0.4,0.2,0.6,0,1.2
					c-0.2,0.6-0.3,0.6-0.8,0.6c-0.5,0-4.7-1-4.7-1s2.1,1.8,2.3,2.1c0.3,0.3,1.2,0.5,0.9,1.2c-0.3,0.7-0.4,0.9-0.8,0.8
					c-0.4-0.1-3.2-2-3.2-2s-2.8,0.6-3.7,0.7c-0.9,0.1-2-0.1-2-0.1l-2.6,2.6L67.3,157.5z"/>
				<g id="XMLID_76_">
					<defs>
						<path id="XMLID_5_" d="M48.9,153.1c0,0-1.9-11.9-2.6-14.6c-0.8-2.7-5.2-5.1-7.3,0.7c-2.1,5.8-0.2,12.4,0.6,17.1
							c0.8,4.7,5.7,26.1,6.4,28.7c0.7,2.7,2,2.1,2.7,1.8c0.7-0.3,20.3-24.4,20.3-24.4l-1.5-5.3L52.2,169L48.9,153.1z"/>
					</defs>
					<use xlink:href="#XMLID_5_"  style="overflow:visible;fill:#FFFFFF;"/>
					<clipPath id="XMLID_77_">
						<use xlink:href="#XMLID_5_"  style="overflow:visible;"/>
					</clipPath>
					<path id="XMLID_29_" class="st25" d="M48.4,179.3c0,0,1-4.6,1.7-6.8c0.7-2.2-3.4,5-4.3,1.1c-0.9-3.9-6.3-23.6-5.3-30.2
						c0.6-4.1,2.2-6.4,3.3-7.5c-1.6-0.6-3.6,0-4.8,3.4c-2.1,5.8-0.2,12.4,0.6,17.1c0.8,4.7,5.7,26.1,6.4,28.7c0.7,2.7,2,2.1,2.7,1.8
						c0.5-0.2,11.1-13.1,16.7-20L48.4,179.3z"/>
					<path id="XMLID_28_" class="st26" d="M48.4,179.3c0,0,1-4.6,1.7-6.8c0.7-2.2-3.4,5-4.3,1.1c-0.9-3.9-6.3-23.6-5.3-30.2
						c0.6-4.1,2.2-6.4,3.3-7.5c-1.6-0.6-3.6,0-4.8,3.4c-2.1,5.8-0.2,12.4,0.6,17.1c0.8,4.7,5.7,26.1,6.4,28.7c0.7,2.7,2,2.1,2.7,1.8
						c0.5-0.2,11.1-13.1,16.7-20L48.4,179.3z"/>
					
						<use xlink:href="#XMLID_5_"  style="overflow:visible;fill:none;stroke:#263238;stroke-width:0.75;stroke-linecap:round;stroke-linejoin:round;stroke-miterlimit:10;"/>
				</g>
				<line id="XMLID_4_" class="st4" x1="65.2" y1="159.1" x2="66.9" y2="164.5"/>
			</g>
		</g>
		<g id="XMLID_69_">
			<path id="XMLID_27_" class="st4" d="M24.3,131.9l-8.9,9.4c0,0,4.4,7.1,3.9,25.7c-0.3,14.2,0.9,30.3,2.7,33.6h9.5
				c0,0-3.3-27.6-3-43.4C28.6,145.2,26.2,136.9,24.3,131.9z"/>
			<path id="XMLID_26_" class="st5" d="M25.3,131.9l-8.9,9.4c0,0,4.4,7.1,3.9,25.7c-0.3,14.2,0.9,30.3,2.7,33.6h9.5
				c0,0-3.3-27.6-3-43.4C29.7,145.2,27.3,136.9,25.3,131.9z"/>
			<polygon id="XMLID_25_" class="st4" points="24.3,131.9 25.3,131.9 16.4,141.4 15.4,141.4 			"/>
		</g>
	</g>
</g>
</svg>
