<?xml version="1.0" encoding="utf-8"?>
<!-- Generator: Adobe Illustrator 19.0.0, SVG Export Plug-In . SVG Version: 6.00 Build 0)  -->
<svg version="1.1" id="Layer_1" xmlns="http://www.w3.org/2000/svg" xmlns:xlink="http://www.w3.org/1999/xlink" x="0px" y="0px"
	 viewBox="0 0 350 300" style="enable-background:new 0 0 350 300;" xml:space="preserve">
<style type="text/css">
	.st0{fill:#ECF0F1;}
	.st1{fill:#C2D6EF;}
	.st2{clip-path:url(#XMLID_83_);fill:#EAA164;}
	.st3{clip-path:url(#XMLID_83_);fill:#C5DFF4;}
	.st4{clip-path:url(#XMLID_83_);}
	.st5{fill:#EAA164;}
	.st6{fill:#9FBEE4;}
	.st7{clip-path:url(#XMLID_83_);fill:none;stroke:#C2D6EF;stroke-width:6.8384;stroke-miterlimit:10;}
	.st8{fill:none;stroke:#8CC23F;stroke-width:13.6769;stroke-miterlimit:10;}
	.st9{fill:#6BC289;}
	.st10{fill:#487CBF;}
	.st11{fill:#8CC23F;}
	.st12{fill:#3166B1;}
	.st13{fill:none;stroke:#3166B1;stroke-width:13.6769;stroke-miterlimit:10;}
	.st14{fill:#E17E28;}
	.st15{fill:#416AB3;}
	.st16{fill:#7099D0;}
	.st17{fill:#F1A71E;}
	.st18{fill:#D87027;}
	.st19{fill:#5985C4;}
	.st20{fill:#D2912A;}
	.st21{fill:#1E3358;}
	.st22{fill:#648FCA;}
	.st23{fill:#504F4F;}
	.st24{fill:#C5DFF4;}
</style>
<path id="XMLID_1_" class="st0" d="M351.6,300H-1.3c-1.5,0-2.8-1.2-2.8-2.8V1.4c0-1.5,1.2-2.8,2.8-2.8h352.9c1.5,0,2.8,1.2,2.8,2.8
	v295.9C354.4,298.8,353.1,300,351.6,300z"/>
<g id="XMLID_2_">
	<g id="XMLID_149_">
		<g id="XMLID_3_">
			<path id="XMLID_4_" class="st1" d="M71,104.3h-5.9v5.1h-5.2v-5.1h-5.9v-4.5h5.9v-5.1h5.2v5.1H71V104.3z"/>
		</g>
		<g id="XMLID_6_">
			<path id="XMLID_7_" class="st1" d="M173,106.7h-5.9v5.1h-5.2v-5.1h-5.9v-4.5h5.9v-5.1h5.2v5.1h5.9V106.7z"/>
		</g>
		<g id="XMLID_9_">
			<path id="XMLID_10_" class="st1" d="M279.3,83.9h-5.9V89h-5.2v-5.1h-5.9v-4.5h5.9v-5.1h5.2v5.1h5.9V83.9z"/>
		</g>
		<g id="XMLID_12_">
			<path id="XMLID_13_" class="st1" d="M71,187.5h-5.9v5.1h-5.2v-5.1h-5.9v-4.5h5.9V178h5.2v5.1H71V187.5z"/>
		</g>
		<g id="XMLID_15_">
			<path id="XMLID_16_" class="st1" d="M295.8,178.5c0-1.1-0.9-1.8-2.7-1.8c-2,0-3.3,1.2-4,2.7l-5.1-2.5c1.6-3.3,5.2-5.1,9.4-5.1
				c4.2,0,8.5,2.2,8.5,6.4c0,4.7-5.9,6.2-5.9,8.4h-5.9C289.8,182.8,295.8,181.3,295.8,178.5z M289.3,191.9c0-1.7,1.6-3,3.5-3
				c1.9,0,3.5,1.4,3.5,3c0,1.7-1.6,3-3.5,3C290.9,194.9,289.3,193.5,289.3,191.9z"/>
		</g>
		<g id="XMLID_19_">
			<path id="XMLID_20_" class="st1" d="M96.8,73.7c0-1.1-0.9-1.8-2.7-1.8c-2,0-3.3,1.2-4,2.7L84.9,72c1.6-3.3,5.2-5.1,9.4-5.1
				c4.2,0,8.5,2.2,8.5,6.4c0,4.7-5.9,6.2-5.9,8.4h-5.9C90.9,78,96.8,76.5,96.8,73.7z M90.3,87.1c0-1.7,1.6-3,3.5-3
				c1.9,0,3.5,1.4,3.5,3c0,1.7-1.6,3-3.5,3C91.9,90.1,90.3,88.7,90.3,87.1z"/>
		</g>
		<g id="XMLID_23_">
			<path id="XMLID_24_" class="st1" d="M307.5,66.1c0-1.1-0.9-1.8-2.7-1.8c-2,0-3.3,1.2-4,2.7l-5.1-2.5c1.6-3.3,5.2-5.1,9.4-5.1
				c4.2,0,8.5,2.2,8.5,6.4c0,4.7-5.9,6.2-5.9,8.4h-5.9C301.5,70.4,307.5,68.9,307.5,66.1z M301,79.5c0-1.7,1.6-3,3.5-3
				c1.9,0,3.5,1.4,3.5,3c0,1.7-1.6,3-3.5,3C302.6,82.5,301,81.1,301,79.5z"/>
		</g>
		<g id="XMLID_27_">
			<path id="XMLID_28_" class="st1" d="M313.4,105.2l-0.5,2.5h3.9l-0.6,3.5h-4l-0.9,4.8h-4.2l0.9-4.8h-3.4l-0.9,4.8h-4.2l0.9-4.8
				h-3.9l0.7-3.5h3.9l0.5-2.5h-4l0.7-3.5h4l0.9-4.8h4.2l-0.9,4.8h3.4l0.9-4.8h4.2l-0.9,4.8h3.9l-0.7,3.5H313.4z M309.2,105.2h-3.4
				l-0.5,2.5h3.4L309.2,105.2z"/>
		</g>
		<g id="XMLID_31_">
			<path id="XMLID_32_" class="st1" d="M205.7,92l-0.5,2.5h3.9l-0.6,3.5h-4l-0.9,4.8h-4.2l0.9-4.8h-3.4l-0.9,4.8h-4.2l0.9-4.8h-3.9
				l0.7-3.5h3.9l0.5-2.5h-4l0.7-3.5h4l0.9-4.8h4.2l-0.9,4.8h3.4l0.9-4.8h4.2l-0.9,4.8h3.9l-0.7,3.5H205.7z M201.4,92H198l-0.5,2.5
				h3.4L201.4,92z"/>
		</g>
		<g id="XMLID_35_">
			<path id="XMLID_36_" class="st1" d="M55.6,215.2l-0.5,2.5H59l-0.6,3.5h-4l-0.9,4.8h-4.2l0.9-4.8h-3.4l-0.9,4.8h-4.2l0.9-4.8h-3.9
				l0.7-3.5h3.9l0.5-2.5h-4l0.7-3.5h4l0.9-4.8h4.2l-0.9,4.8H52L53,207h4.2l-0.9,4.8h3.9l-0.7,3.5H55.6z M51.4,215.2H48l-0.5,2.5h3.4
				L51.4,215.2z"/>
		</g>
		<g id="XMLID_39_">
			<path id="XMLID_40_" class="st1" d="M321.3,215.2l-0.5,2.5h3.9l-0.6,3.5h-4l-0.9,4.8H315l0.9-4.8h-3.4l-0.9,4.8h-4.2l0.9-4.8
				h-3.9l0.7-3.5h3.9l0.5-2.5h-4l0.7-3.5h4l0.9-4.8h4.2l-0.9,4.8h3.4l0.9-4.8h4.2l-0.9,4.8h3.9l-0.7,3.5H321.3z M317.1,215.2h-3.4
				l-0.5,2.5h3.4L317.1,215.2z"/>
		</g>
	</g>
	<g id="XMLID_80_">
		<defs>
			<rect id="XMLID_81_" x="4.1" y="-1.4" width="350.3" height="300"/>
		</defs>
		<clipPath id="XMLID_83_">
			<use xlink:href="#XMLID_81_"  style="overflow:visible;"/>
		</clipPath>
		<path id="XMLID_148_" class="st2" d="M248.2,195.1c-0.4,0.5-1.6,0.5-2.2,0.4c-0.8-0.1-1.4-0.5-2-0.9c-1.8-1.2-3.7-2.4-5.4-3.8
			c-0.8-0.7-1.9-1.3-2.6-2.1c-0.1-0.2-0.1-0.9-0.1-1.1c0-0.4,0.5-0.3,0.8-0.3c1.9,0.1,3.6,1,5.2,1.9c0.6,0.3,1.1,0.8,1.7,1.1
			c0.9,0.5,1.8,1,2.7,1.7c0.6,0.5,1.2,1.1,1.7,1.8c0.2,0.3,0.5,0.8,0.4,1.1C248.3,195.1,248.1,195.3,248.2,195.1z"/>
		<path id="XMLID_147_" class="st2" d="M236.5,189.3c-0.5-0.3-0.5-0.8-0.7-1.2c-0.4-1.4-0.5-3-0.7-4.4c-0.1-1.2,0.1-2.5-0.2-3.7
			c-0.3-1.2-0.9-2.3-1-3.4c-0.1-0.6-0.1-1.7,0.3-2.4c0.2-0.3,0.6-0.3,0.9-0.1c0.1,0.1,0.2,0.2,0.3,0.3c0.2,0.3,0.2,0.7,0.3,1
			c0.2,0.6,0.5,1.2,0.7,1.8c0.1-0.3,0.1-0.7,0-1.2c0-0.1,0.2-0.2,0.3,0c0.2,0.6,0.4,1.3,0.5,1.7c0.1,0.6-0.3,1.4-0.2,1.9
			c0.1,1,0.6,1.8,0.9,2.8c0.5,1.7,1.4,3.5,1.2,5.2c-0.1,0.4,0.1,1.2-0.4,1.5C238.3,189.5,236.9,189.6,236.5,189.3z"/>
		<path id="XMLID_146_" class="st3" d="M250.5,192.6c-0.4-0.3-1.1-0.3-1.7-0.4c-0.7-0.2-1.5-0.5-2.1-0.8c-0.3-0.2-0.7-0.4-1-0.5
			c-0.4-0.1-0.8-0.2-1.1-0.4c-0.3-0.2-0.5-0.4-0.8-0.2c-0.3,0.2-0.5,0.5-0.8,0.7c-0.5,0.4-1,0.8-1.3,1.3c-0.2,0.4-0.2,0.8-0.4,1.1
			c0.4,0.2,0.7,0.5,1.1,0.7c0.5,0.3,1,0.5,1.5,0.9c0.4,0.3,0.6,0.6,0.9,0.9c0.5,0.6,0.4,1,0.3,1.7c-0.1,1.1-0.4,2.1-0.4,3.2
			c0.2-0.1,0.4-0.3,0.6-0.4c0.3-0.2,0.8-0.3,1.1-0.5c0.6-0.5,0.7-1.4,0.8-2.1c0.3-1.1,0.8-2.2,1.7-3.1c0.4-0.4,0.7-0.7,1-1.2
			C250.1,193,250.3,192.7,250.5,192.6C250.4,192.6,250.3,192.7,250.5,192.6z"/>
		<g id="XMLID_43_" class="st4">
			<path id="XMLID_145_" class="st5" d="M98.4,172.9c0-0.1,0-0.3,0.1-0.4c0.2-1.2,0.4-2.3,0.9-3.4c0.2-0.5,0.5-1,0.7-1.5
				c0.2-0.5,0.2-1.1,0-1.6c-0.4,0.5-0.7,1-0.7,1.6c0-1.2,0.1-2.5,0.3-3.7c-0.1-0.1-0.3,0-0.4,0c-0.6,0.2-1.1,0.6-1.5,1
				c-0.2,0.2-0.4,0.4-0.5,0.7c-0.1,0.3-0.1,0.6-0.1,0.9c0.1,0.8,0.5,1.7,0.2,2.5c-0.1,0.4-0.1,0.6-0.5,1.2c-0.5,0.9-1.1,1.8-1.6,2.7
				c-0.6,1-2,3.5-1.4,4.7c0.4,0.7,0.9,1,1.7,0.9c0.9-0.1,1.3-0.8,1.7-1.4C97.7,175.9,98.3,173.9,98.4,172.9z"/>
			<path id="XMLID_144_" class="st5" d="M94.6,190.1c0.2-0.3,0.3-0.7,0.4-1.1c1-3.6,1.9-7.3,1.6-11.1c0-0.4-0.1-0.8-0.3-1.2
				c-0.2-0.4-0.6-0.7-1.2-0.8c-0.5-0.1-1,0.1-1.3,0.5c-0.3,0.3-0.5,0.7-0.6,1.1c-1.3,3.3-2.1,6.7-2.1,10.1c0,0.8,0,1.7,0.6,2.4
				c0.3,0.4,0.9,0.8,1.5,0.9C93.9,190.9,94.3,190.5,94.6,190.1z"/>
			<path id="XMLID_143_" class="st6" d="M95.4,189.6c0.3-0.4,0.4-0.9,0.6-1.3c0.1-0.4,0.3-0.7,0.4-1.1c0.1-0.3,0.2-0.7,0.3-1
				c0.1-0.3,0.1-0.7,0.2-1c0.1-0.6,0.2-1.2,0.2-1.7c-2.3-0.7-4.9-0.8-7.2-0.2c-0.1,0.9-0.1,1.8,0,2.8c0.1,0.9,0.2,1.8,0.7,2.6
				c0.4,0.8,1.3,1.6,2.2,2C93.8,191.2,94.9,190.4,95.4,189.6z"/>
		</g>
		<path id="XMLID_44_" class="st7" d="M-67,240c14.8-1.4,68.8,5.8,84.4,5.5c37.6-0.7,69.8-9.4,69.8-9.4"/>
		<g id="XMLID_45_" class="st4">
			<path id="XMLID_46_" class="st8" d="M44.7,144.6c-32.8,0-55.2-17.8-86.8-19.9c-31.6-2.1-80,29.5-123.3,34.3
				c-43.2,4.8-104.1-31.6-146.1-31.6"/>
			<path id="XMLID_47_" class="st9" d="M117.1,144.7l2.3-35.7c0,0-11.9,0-19.1,0c-11.4,0-16.6,17.7-27.9,22.9
				c-9.4,4.3-17.7,4.4-22.5,4.4c-4.8,0-5.2,7.6-5.2,7.6s0.4,7.6,5.2,7.6c4.8,0,13.1,0.1,22.5,4.4c11.4,5.2,16.5,22.9,27.9,22.9
				c7.2,0,19.1,0,19.1,0l-2.4-34.1L117.1,144.7z"/>
			<path id="XMLID_48_" class="st10" d="M141.6,143.9c0-12.2-2-23.2-5.3-30.9v-11h-11c-9,0-16.2,18.8-16.2,41.9
				c0,23.1,7.3,41.9,16.2,41.9h11v-11C139.6,167.1,141.6,156.1,141.6,143.9z"/>
			<ellipse id="XMLID_137_" class="st9" cx="135.6" cy="143.9" rx="16.2" ry="41.9"/>
			<g id="XMLID_49_">
				<ellipse id="XMLID_50_" class="st11" cx="135.6" cy="128.3" rx="2.1" ry="5.4"/>
				<rect id="XMLID_135_" x="135.6" y="122.9" class="st11" width="34.7" height="10.9"/>
				<ellipse id="XMLID_134_" class="st11" cx="171.3" cy="128.3" rx="6.3" ry="5.4"/>
			</g>
			<g id="XMLID_51_">
				<ellipse id="XMLID_52_" class="st12" cx="135.6" cy="159.4" rx="2.1" ry="5.4"/>
				<rect id="XMLID_131_" x="135.6" y="154" class="st11" width="34.7" height="10.9"/>
				<ellipse id="XMLID_130_" class="st11" cx="171.3" cy="159.4" rx="6.3" ry="5.4"/>
			</g>
		</g>
		<path id="XMLID_53_" class="st7" d="M274.4,240c14.8-1.4,54.7,5.5,70.3,5.5c34.3,0,87-13.4,87-13.4"/>
		<g id="XMLID_54_" class="st4">
			<path id="XMLID_55_" class="st13" d="M305.1,143.6c32.8,0,64.3,17.9,95.9,15.8c31.6-2.1,87.6-26.3,130.9-21.5s81,20.5,129.4-11.5
				"/>
			<path id="XMLID_56_" class="st9" d="M306.6,136.3c-4.8,0-13.1-0.1-22.5-4.4c-11.4-5.2-16.5-22.9-27.9-22.9c-7.2,0-19.1,0-19.1,0
				l2.6,34l-0.3,0l-2.3,35.8c0,0,11.9,0,19.1,0c11.4,0,16.6-17.7,27.9-22.9c9.4-4.3,17.7-4.4,22.5-4.4c4.8,0,5.2-7.6,5.2-7.6
				S311.4,136.3,306.6,136.3z"/>
			<path id="XMLID_57_" class="st11" d="M214.9,143.9c0-12.2,2-23.2,5.3-30.9v-11h11c9,0,16.2,18.8,16.2,41.9
				c0,23.1-7.3,41.9-16.2,41.9h-11v-11C216.9,167.1,214.9,156.1,214.9,143.9z"/>
			<ellipse id="XMLID_123_" class="st9" cx="220.9" cy="143.9" rx="16.2" ry="41.9"/>
			<g id="XMLID_58_">
				<ellipse id="XMLID_59_" class="st12" cx="220.9" cy="128.3" rx="2.1" ry="5.4"/>
			</g>
			<g id="XMLID_60_">
				<ellipse id="XMLID_61_" class="st12" cx="220.9" cy="159.4" rx="2.1" ry="5.4"/>
			</g>
		</g>
		<g id="XMLID_62_" class="st4">
			<ellipse id="XMLID_63_" class="st1" cx="104.3" cy="236.3" rx="27.9" ry="2.9"/>
			<path id="XMLID_116_" class="st5" d="M118.8,176.4c0.1-0.1,0.3-0.2,0.4-0.3c1-0.8,2.1-1.6,2.8-2.5c0.4-0.4,0.6-0.9,1-1.3
				c0.4-0.4,0.9-0.8,1.5-0.9c-0.2,0.5-0.6,1-1.1,1.4c1.2-0.7,2.4-1.4,3.5-2.3c0.1,0,0.2,0.2,0.2,0.3c0.1,0.6,0.1,1.1-0.1,1.7
				c-0.1,0.3-0.2,0.5-0.4,0.7c-0.2,0.2-0.5,0.4-0.8,0.5c-0.8,0.4-1.9,0.6-2.5,1.3c-0.3,0.3-0.5,0.4-0.9,1c-0.6,0.9-1.2,1.8-1.8,2.7
				c-0.7,1-2.2,3.4-3.8,3.6c-0.9,0.1-1.5-0.1-1.8-0.7c-0.4-0.7,0-1.3,0.4-2C116.2,178.7,117.8,177.1,118.8,176.4z"/>
			<path id="XMLID_115_" class="st5" d="M117.7,181.9c0,0.1,0,0.1-0.1,0.2c-0.2,0.4-0.6,0.6-0.9,0.9c-2.1,1.5-4.3,2.9-6.8,4.1
				c-1.1,0.5-2.2,1-3.4,1.4c-0.9,0.3-1.8,0.6-2.8,0.4c-0.5-0.1-1.3-0.4-1.5-0.9c-0.3-0.4,0-1,0.3-1.3c0.3-0.3,0.6-0.5,1-0.8
				c3.5-2.2,7.2-4.2,11.4-5.5c0.5-0.1,0.9-0.3,1.4-0.2c0.5,0,1,0.2,1.3,0.6C117.8,181.2,117.8,181.6,117.7,181.9z"/>
			<path id="XMLID_64_" class="st5" d="M102.7,182c-0.2,0.4-0.6,0.9-1.1,1c-0.2,0-0.6,0-1.1-0.1c-0.1,0-0.2,0-0.4,0
				c-0.5-0.1-0.9-0.2-1.1-0.3c-0.3-0.2-0.9-1-0.9-1.1c0,0,0-0.1-0.1-0.1c0-0.1-0.1-0.2-0.2-0.2c-0.2-0.3-0.4-0.6-0.4-0.8
				c0-1.4,0.7-1.8,1.3-2.5c0.6-0.7,1.5-1.2,2.5-1.5c0.5-0.2,1.1-0.3,1.7-0.1c0.5,0.1,0.4,0.4,0.4,0.8
				C103.6,178.8,103.5,180.4,102.7,182z"/>
			<path id="XMLID_65_" class="st5" d="M101.3,185.2c-1.2,1.1-3.1,1.6-4.8,1.3c-0.5-0.1-1-0.3-1.5-0.3c0.7-0.4,1.1-1.1,1.2-1.8
				c0.2-0.8,0.2-1.6-0.1-2.4c0-0.2-0.5-0.8-0.3-0.9c0.2-0.1,1.1,0.2,1.3,0.2c0.3,0,0.6-0.1,0.8-0.2c0,0,0.1,0,0.1,0l0,0
				c0.3-0.1,0.6-0.2,0.9-0.3c0.1,0,0.1,0,0.2,0c0.1,0,0.1,0,0.1,0.1c0.4,0.3,0.8,0.6,1.2,0.9c-0.1,0.3-0.2,0.7-0.3,1
				c0,0,0,0.1,0,0.1c-0.1,0.3-0.1,0.7-0.1,1c0,0.1,0,0.2,0,0.3c0,0.1,0,0.2,0.1,0.4C100.4,184.9,100.8,185.2,101.3,185.2z"/>
			<path id="XMLID_66_" class="st14" d="M100.2,182.9c-0.1,0.3-0.1,0.7-0.1,1c0,0.1,0,0.2,0,0.3c-0.1-0.1-0.2-0.2-0.3-0.2
				c-0.2-0.1-0.3-0.3-0.5-0.4c-0.5-0.5-0.8-1-1-1.6c-0.1-0.2-0.1-0.3-0.2-0.5c0-0.1,0-0.2,0-0.3c0,0,0,0,0,0l0,0
				c0.4,0.4,0.8,0.8,1.3,1.2C99.6,182.5,99.9,182.6,100.2,182.9c0-0.1,0.1-0.1,0.1,0c0.1,0,0.2,0.1,0.2,0.1
				C100.4,182.9,100.3,182.9,100.2,182.9z"/>
			<path id="XMLID_67_" class="st15" d="M98.9,182.4c0.3-0.2,0.6-0.5,0.9-0.8c0.6-0.7,0.8-1.6,1.3-2.3c0.3-0.5,0.8-0.9,1.3-1.2
				c0.5-0.2,1-0.4,1.4-0.7c0.6-0.5,0.9-1.2,0.9-1.9c0-0.7-0.3-1.4-0.6-2c-0.3,0.3-0.8,0.4-1.3,0.4c-1.3,0.1-2.6,0-3.8,0.2
				c-1.3,0.1-2.6,0.4-3.4,1.3c-0.9,0.9-1,2.1-1.1,3.3c0,0.6,0,1.2,0.1,1.8c0.2,0.7,0.6,1.5,1.1,2.1
				C96.6,183.5,97.9,183.2,98.9,182.4z"/>
			<path id="XMLID_68_" class="st5" d="M101.3,179.1c-0.1-0.1-0.2-0.3-0.4-0.3c-0.2-0.1-0.4-0.1-0.5,0.1c-0.1,0.1-0.1,0.2-0.1,0.4
				c0,0.1,0.1,0.3,0.1,0.4c0.2,0.4,0.4,0.8,0.7,1.2c0.1,0.1,0.1,0.1,0.2,0.1c0.1,0,0.1-0.1,0.1-0.1c0-0.1,0.2-0.3,0.2-0.4
				c0-0.2,0.1-0.3,0.1-0.5c0,0,0,0,0,0C101.5,179.7,101.5,179.3,101.3,179.1z"/>
			<path id="XMLID_69_" class="st16" d="M93.9,235.3c0,0.3-0.1,0.6,0,0.9c0.2,0.6,1,0.9,1.8,0.8c0.7-0.1,1.4-0.4,2-0.7
				c1-0.5,2-1.1,2.9-1.8c0.3-0.3,0.6-0.6,0.8-0.9c0.2-0.4,0.2-0.8,0-1.1c-0.3-0.5-1.2-0.7-1.9-0.5c-0.7,0.1-1.3,0.5-1.9,0.8
				c-0.9,0.3-1.4,0.6-2.3,0.9C94.4,234.1,94.1,234.4,93.9,235.3z"/>
			<path id="XMLID_70_" class="st17" d="M92.7,206.3c-0.2,1.9,0.2,3.9,0.5,5.8c0.3,2,0.6,4.1,0.8,6.1c0.1,0.6,0.1,1.3,0,1.9
				c-0.1,1-0.6,2-0.8,3c-0.4,1.7-0.2,3.4,0,5.2c0.1,1.1,0.3,2.3,0.4,3.4c0.1,1.1,0.3,2.2,0.6,3.2c1.1,0.4,1.8,0,2.2-0.4
				c0.2-3,0.8-6,1.7-8.9c0.3-0.9,0.6-1.8,0.8-2.7c0.2-1,0.2-2.1,0.3-3.2c0.3-4,1.4-8.1,0.9-12.1c-0.2-1.6-0.5-3.1-0.9-4.6
				c0-0.1-0.1-0.3-0.2-0.4c-0.1-0.1-0.3-0.1-0.5-0.2c-1-0.1-1.9-0.3-2.9-0.4c-0.6-0.1-1.4-0.3-1.8,0.1c-0.5,0.4-0.5,1.4-0.7,1.9
				C93,204.9,92.8,205.6,92.7,206.3z"/>
			<path id="XMLID_71_" class="st16" d="M103.5,236.9c-0.1,0.3-0.1,0.7,0,1c0.2,0.7,1.1,1,1.9,1c0.8,0,1.5-0.4,2.2-0.7
				c1.1-0.5,2.2-1,3.2-1.6c0.6-0.3,1.2-0.7,1.5-1.3c0.3-0.6,0.2-1.3-0.4-1.6c-0.7-0.3-1.5,0-2.2,0.2c-0.8,0.3-1.6,0.4-2.4,0.5
				c-0.8,0.1-2.3,0.1-3,0.5C103.6,235.3,103.6,236.3,103.5,236.9z"/>
			<path id="XMLID_72_" class="st17" d="M98.4,209.9c0.5,0.6,1.1,1.2,1.5,1.8c0.6,0.9,1,1.8,1.3,2.8c1,2.6,2,5.3,2,8
				c0,1.9-0.4,3.8-0.5,5.8c0,1.3,0.1,2.6,0.2,3.8c0.1,1.3,0.3,2.6,0.4,3.9c1.2,0.1,2.5-0.1,3.6-0.6c-0.2-3.2,0.2-6.5,0.8-9.7
				c0.3-1.5,0.7-3.1,0.8-4.6c0.3-2.9-0.1-5.7-0.5-8.6c-0.5-3.5-1-7.1-2.5-10.5c0.1,0.2-6.9,0.8-7.5,0.9c-2.2,0.2-1.6,2.5-1.3,3.9
				C97.1,207.9,97.6,209,98.4,209.9z"/>
			<path id="XMLID_73_" class="st18" d="M96.8,218.1c0.2,0.6,0.5,1.3,0.6,2c0.1,0.8,0,1.6,0,2.3c-0.1,0.9-0.2,1.8-0.3,2.6
				c-0.2,2.3-0.4,4.6-0.9,6.8c-0.2,0.9,0.2,1.6,0.3,2.7c1-2.9,1.5-5.6,2.1-8.5c0.7-3.3,0.9-6.7,1.1-10.1c0.1-1,0.1-2,0.2-2.9
				c0-0.5,0.1-1-0.2-1.5c-0.3-0.4-0.8-0.7-1.3-0.9c-1.3-0.7-2.1-1.7-3.2-2.4c-0.4,0.5,0,1.6,0,2.2c0.1,0.9,0.2,1.8,0.3,2.6
				C95.8,214.7,96.2,216.4,96.8,218.1z"/>
			<path id="XMLID_74_" class="st6" d="M106.1,196.1c0.1-0.6,0.2-1.2,0.2-1.8c0-1.1-0.4-2.2-0.8-3.2c-0.5-1.4-1-2.8-1.5-4.2
				c-0.2-0.5-0.4-1-0.7-1.5c-0.8,0.1-1.6,0.1-2.4-0.1l0.1,0.1c-1.1,0.8-2.5,1.2-3.9,1.1c0,0,0,0,0,0c-0.2-0.1-0.4,0-0.6-0.1
				c-0.2-0.1-0.4-0.2-0.5-0.2c-0.2-0.1-0.5-0.4-0.4-0.7c-0.5,0.3-0.8,0.4-1.3,0.4c-0.4,0-0.9,0-1.2,0.3c-0.5,0.4-0.8,1-0.9,1.6
				c0,0,0,0.1,0,0.1c-0.2,0.5-0.1,1.1-0.1,1.6c0.1,1.1,0.3,2.2,0.6,3.3c0.2,0.7,0.5,1.3,0.6,2c0.6,2.8-0.7,5.7-0.1,8.4
				c0.4,0,0.7,0.2,1,0.4c1.1,0.7,2.4,1,3.8,1c1.3,0,2.7-0.1,4-0.2c1.5,0,3.2,0.1,4.4-0.8C106,201.1,105.8,198.6,106.1,196.1z"/>
			<path id="XMLID_75_" class="st19" d="M103.2,186.3c-0.4-0.2-1,0-1.3,0.3c-0.3,0.3-0.3,0.8-0.3,1.2c-0.1,2.5,0.8,5,1,7.5
				c0.1,0.5,0.1,1.1-0.1,1.6c-0.1,0.5-0.5,0.9-0.6,1.4c-0.4,1-0.3,2-0.1,3c0.2,1,0.5,2,0.6,3c1.4-0.1,2.9-0.3,4.2-0.8
				c0.1,0,0.2-0.1,0.2-0.1c0-0.1,0-0.2,0-0.2c-0.6-2.4-0.5-4.8-0.3-7.2c0-0.6,0.1-1.2,0-1.8c-0.1-0.6-0.2-1.1-0.3-1.7
				c-0.3-1.3-0.7-2.7-1.8-3.7c-0.4-0.4-0.8-0.7-1.2-1.1C103,187.3,102.8,186.7,103.2,186.3c0.1,0.1,0.2,0.3,0.3,0.5"/>
			<path id="XMLID_102_" class="st6" d="M101.4,186.6c0.3-0.4,0.7-0.7,1.1-1.1c0.3-0.3,0.7-0.5,1-0.8c0.3-0.2,0.6-0.5,0.9-0.7
				c0.3-0.2,0.6-0.4,1-0.6c0.6-0.3,1.1-0.6,1.7-0.9c1.8,1.4,3,3.4,3.4,5.5c-0.9,0.5-1.9,0.9-2.9,1.2c-1,0.3-2,0.6-3,0.6
				c-1,0-2.2-0.3-3.1-0.8C100.5,188.5,100.9,187.2,101.4,186.6z"/>
			<path id="XMLID_76_" class="st19" d="M100.3,184.2C100.3,184.2,100.3,184.2,100.3,184.2C100.3,184.2,100.3,184.2,100.3,184.2z"/>
		</g>
		<g id="XMLID_77_" class="st4">
			<ellipse id="XMLID_78_" class="st1" cx="253" cy="240" rx="27.9" ry="2.9"/>
			<path id="XMLID_98_" class="st20" d="M245.8,192.2c0.3,0.1,0.6,0.1,1,0.1c0.6,0,1.3,0,1.9-0.2c1-0.2,1.8-0.8,2.7-1.2
				c0.3-0.1,0.5-0.3,0.8-0.4c0.1-0.1,0.3-0.1,0.4-0.2c-0.2-0.1-0.5,0-0.8-0.1c-0.7-0.3-1.1-0.9-1.4-1.5c-0.1-0.2-0.2-0.5-0.2-0.7
				c-0.1-0.2-0.1-0.3-0.1-0.5c0-0.1,0-0.2,0-0.3c0-0.3,0-0.6,0.1-0.9c0,0,0.1-0.1,0.1-0.1c-0.1,0-0.3-0.1-0.4-0.1
				c-0.2,0-0.4,0.2-0.6,0.3c-0.4,0.3-0.7,0.6-1.2,0.7c-0.6,0.1-1.4,0.3-2,0.2c0.2,0.3,0.3,0.7,0.4,1c0,0,0,0.1,0,0.1
				c0.1,0.3,0.2,0.7,0.2,1c0,0,0,0,0,0c0,0.4-0.1,0.7-0.2,1.1C246.3,191,246.1,191.6,245.8,192.2z"/>
			<path id="XMLID_97_" class="st5" d="M244.5,182.8c-0.1,0.4-0.3,0.8-0.4,1.2c0,0.6,0,1.3,0.2,1.8c0.4,1.2,1.4,2.4,2.4,3.2
				c1.6,1.2,3.2-1.1,3.6-2.3c0.3-1,0.6-2.3,0-3.3c-0.5-0.7-1.3-1.5-2.3-1.7c-0.7-0.2-1.7-0.1-2.3,0.2
				C245.2,182.2,244.8,182.9,244.5,182.8z"/>
			<path id="XMLID_96_" class="st21" d="M249.7,184.5c-1-1.2-2.6-0.8-3.2-0.8c-1.2-0.1-2-1-2.1-1.9c-0.1-0.5-0.1-1.2,0-1.7
				c0.5,0.1,0.9,0.3,1.4,0.2c0.6-0.1,1.1-0.3,1.7-0.3c1.2,0,2.5,0.2,3.3,1c1,1,1.5,2.4,1.5,3.8c0,0.4-1.3,3.8-2.1,3.3
				c-0.3-0.2-0.2-1.6-0.2-2C250,185.6,249.9,184.7,249.7,184.5z"/>
			<path id="XMLID_95_" class="st21" d="M245.1,181.6c-1-0.1-1.7,1.1-1.8,2c-0.1,0.8,0.3,1.6,0.6,2.3c0.2,0.4,0.4,0.8,0.6,1.1
				c0.1,0.1,0.5,0.8,0.7,0.8c0.4,0-0.2-0.9-0.2-1.1c-0.2-0.5-0.4-1-0.5-1.5c-0.1-0.8-0.1-1.6,0.3-2.3
				C245.1,182.4,245.3,182.1,245.1,181.6z"/>
			<path id="XMLID_94_" class="st5" d="M249.7,185.1c0.1-0.3,0.1-0.5,0.4-0.7c0.2-0.1,0.4-0.2,0.6,0c0.4,0.4-0.1,0.9-0.3,1.3
				c-0.1,0.2-0.3,0.4-0.4,0.5c-0.1-0.2-0.1-0.4-0.1-0.7C249.8,185.4,249.8,185,249.7,185.1z"/>
			<path id="XMLID_93_" class="st22" d="M255.5,235.5c0.3,0.5,0,1.3,0.1,1.8c0.1,0.5,0.5,0.9,0.9,1.4c0.5,0.6,2.1,1.8,1.6,2.7
				c-0.6,1.1-2.2,0.6-3,0.1c-0.9-0.6-1.1-1.5-1.8-2.2c-0.5-0.6-0.6-1-0.4-1.7c0.2-0.7,0.1-1.3,0.2-2.1c0.5-0.1,1.1,0.1,1.6,0.1
				C254.9,235.6,255.6,235.6,255.5,235.5z"/>
			<path id="XMLID_92_" class="st22" d="M248.3,235.4c0.1,0.6-0.2,1.3,0,2c0.1,0.5,0.7,1.2,0.5,1.8c-0.2,0.6-1.1,0.6-1.7,0.8
				c-0.6,0.2-1,0.5-1.4,0.9c-0.8,0.9-2.7,1.1-3.7,0.2c-0.5-0.4-0.6-1.1-0.1-1.5c0.5-0.4,1.3-0.4,1.9-0.6c1.5-0.8,2.3-2,2.2-3.6
				C246.8,235.5,247.5,235.6,248.3,235.4C248.2,235.6,248.2,235.6,248.3,235.4z"/>
			<path id="XMLID_91_" class="st17" d="M254,204.9c0.7,0.2,1,1.7,1.3,2.3c0.4,0.9,0.7,1.8,0.8,2.8c0.4,2.6,0,5.2-0.3,7.9
				c-0.1,1-0.4,2.1-0.5,3.1c-0.1,1.1,0.3,2.5,0.7,3.4c0.5,1.1,0.8,3,0.6,4.2c-0.2,1.2-0.1,1.3-0.2,2.5c-0.1,1.1-0.3,2.2-0.3,3.4
				c0,0.4-0.1,0.8-0.1,1.3c0,0.5-0.1,0.9-0.1,1.3c0,0.1-0.1,0.1-0.2,0.1c-1.1,0-2.5,0-3.5-0.3c0,0-0.1,0-0.1-0.1
				c-0.3-2-0.7-3.9-1.2-5.9c-0.7-3-1.4-6.1-2.1-9.1c-0.6-2.8-1.3-5.7-1.7-8.6c-0.2-1.4-0.3-2.7-0.3-4.1c0-0.7,0-1.3,0.1-2
				c0-0.3-0.1-0.9,0.2-1c0.3-0.2,1.6-0.1,2-0.1c0.8-0.1,1.5-0.1,2.3-0.3c0.9-0.2,1.9-0.5,2.8-0.7C254.1,205,253.8,205.1,254,204.9z"
				/>
			<path id="XMLID_90_" class="st23" d="M249.6,206.1c0,0,0.1,0,0.1,0C249.6,206.1,249.6,206.1,249.6,206.1z"/>
			<path id="XMLID_89_" class="st17" d="M241.6,214.7c0,3,0.7,5.9,1.4,8.7c0.7,2.9,1.3,5.9,1.8,8.8c0.2,1.1,0.3,2.3,0.5,3.4
				c0,0.2,0.1,0.7,0.2,0.8c0.2,0.3,0.7,0.2,1.2,0.2c0.4,0,0.9,0.1,1.3,0c0.6-0.1,0.6-0.3,0.7-0.8c0.3-1.8,0.3-3.3,0.4-4.7
				c0.1-1.2,0.2-2.2,0.1-3.3c0-0.1,0-0.1,0-0.2c-0.2-1.9-0.6-3.7-0.9-5.6c-0.1-0.8-0.1-1.5,0-2.3c0.1-0.9,0.2-1.9,0.3-2.8
				c0.3-3.5-0.1-7,0.7-10.4c0-0.1,0.1-0.3,0.1-0.4c-2.2,0-5.3,1.1-7.2-0.2c0,1.5-0.5,2.9-0.6,4.3
				C241.7,211.8,241.6,213.2,241.6,214.7z"/>
			<path id="XMLID_88_" class="st24" d="M242,206.1c0.1-1.5,0.2-3,0.2-4.5c0-1.4,0-2.9,0.1-4.3c0-0.6,0.1-1.3,0-1.9
				c-0.1-0.6-0.2-1.3-0.2-1.9c0-0.6-0.1-1.8,0.7-2.1c0.6-0.2,1.1-0.4,1.7-0.6c0.6-0.3,1.4-0.7,2.1-0.8c0,0.1,0,0.2,0,0.3
				c0,0,0,0,0,0c0.1,0.7,0.8,1,1.5,1.1c1,0.1,1.8-0.1,2.5-0.7c0.3-0.2,0.6-0.6,0.7-0.9c0.4,0.2,0.8,0.2,1.3,0.2
				c0.2,0.1,0.5,0.2,0.7,0.2c0.4,0.1,0.9,0.2,1.3,0.4c0.4,0.2,0.8,0.4,1.2,0.5c0.3,0.1,0.6,0.3,0.8,0.4c0.1,0.1,0.1,0.3,0.1,0.4
				c0.2,1,0.4,1.8-0.3,2.7c-0.3,0.4-1.7,2.4-1.8,2.5c-0.1,0.3,0,0.8,0,1.2v0.2c0,0.5,0,0.9,0,1.4c0,1.7,0.4,3.3,0.7,5
				c0.1,0.6,0.2,1.2,0.4,1.8c0,0.1,0.1,0.2,0.1,0.3c0.1,0.4,0.3,0.9,0.2,1.3c-0.2,0-0.5,0.1-0.7,0.1c-1,0.2-1.9,0.6-2.8,0.7
				c-1.6,0.2-3.2,0.2-4.8,0.3c-1.8,0-3.9,0.4-5.5-0.6c-0.3-0.2-0.2-0.5-0.2-0.9C242,207.3,241.9,206.7,242,206.1z"/>
			<path id="XMLID_87_" class="st5" d="M253.3,193.8c0.6,0.4,1.7,0.1,2.3-0.2c0.7-0.3,1.3-0.9,1.7-1.4c1.5-1.7,3-3.3,4.3-5.2
				c0.6-0.9,1.5-1.7,2-2.7c0.1-0.2-0.1-0.9-0.2-1.1c-0.1-0.4-0.6-0.2-0.9-0.1c-1.9,0.6-3.3,1.9-4.6,3.2c-0.5,0.5-0.9,1-1.4,1.5
				c-0.8,0.7-1.5,1.5-2.2,2.3c-0.5,0.6-0.9,1.4-1.1,2.2c-0.1,0.4-0.3,0.9-0.1,1.3C253.2,193.8,253.4,193.9,253.3,193.8z"/>
			<path id="XMLID_86_" class="st5" d="M263.1,184.7c0.5-0.3,0.6-0.8,0.7-1.2c0.4-1.4,0.6-2.9,0.8-4.4c0.2-1.2,0-2.5,0.3-3.7
				c0.3-1.1,0.9-2.3,1.1-3.4c0.1-0.6,0.1-1.7-0.3-2.4c-0.2-0.3-0.6-0.3-0.8-0.1c-0.1,0.1-0.2,0.2-0.3,0.3c-0.2,0.3-0.2,0.7-0.3,1
				c-0.2,0.6-0.6,1.2-0.7,1.8c-0.1-0.3-0.1-0.7,0-1.2c0-0.1-0.2-0.2-0.3,0c-0.2,0.6-0.4,1.3-0.5,1.7c-0.1,0.6,0.3,1.4,0.2,1.9
				c-0.1,1-0.6,1.8-1,2.8c-0.5,1.7-1.5,3.5-1.3,5.2c0,0.4-0.1,1.2,0.3,1.5C261.2,184.8,262.6,185,263.1,184.7z"/>
			<path id="XMLID_85_" class="st23" d="M241.4,198.2C241.4,198.1,241.4,198.1,241.4,198.2C241.3,198.2,241.4,198.2,241.4,198.2z"/>
			<path id="XMLID_84_" class="st18" d="M246.4,215.2c0.2,1.5,0.4,3,1,4.5c0.5,1.1,0.7,2.3,0.7,3.5c0,0.5-0.1,1-0.1,1.5
				c0,0.6,0.1,1.2,0.2,1.7c0.1,0.5,0.3,1,0.5,1.5c0.2,0.3,0.3,0.7,0.5,1c0-0.3,0-0.7,0-1c0-0.1,0-0.1,0-0.2
				c-0.2-1.9-0.6-3.7-0.9-5.6c-0.1-0.8-0.1-1.5,0-2.3c-0.2-0.6-0.3-1.3-0.4-1.9c-0.1-0.6-0.2-1.3-0.3-1.9c0-0.6,0-1.5-0.3-2.1
				c-0.2-0.5-0.9-0.7-1.3-1C246.2,213.6,246.3,214.4,246.4,215.2z"/>
			<path id="XMLID_79_" class="st24" d="M260.2,188.7c-0.2-0.3-0.5-0.5-0.8-0.7c-0.3-0.2-0.6-0.5-0.9-0.8c-0.2-0.1-0.4-0.3-0.6-0.4
				c-0.2-0.1-0.6-0.2-0.8-0.4c-0.2,0.1-0.5,0.5-0.8,0.7c-0.4,0.3-0.9,0.6-1.3,0.9c-0.4,0.4-1,0.8-1.5,1.1c-0.6,0.4-1.4,0.8-2.2,0.9
				c-0.1,0.2-0.2,0.4-0.4,0.6c-0.1,0.2-0.3,0.4-0.5,0.5c0,0,0,0,0,0c0,0.3,0,0.7-0.1,1c-0.1,0.3-0.2,0.7-0.1,1
				c0.3,0.8,1,1.3,1.6,1.8c0.8,0.6,1.3,1.4,1.9,2.1c0.1,0.1,0.2,0.2,0.2,0.3c0-0.3,0.1-0.6,0.3-0.8c0.4-0.7,1.1-1.5,1.8-2
				c0.1,0,0.1-0.1,0.2-0.1c0.3-0.4,0.6-0.8,0.9-1.1c0.5-0.7,0.8-1.4,1.2-2.1c0.3-0.4,0.6-0.8,0.9-1.2c0.2-0.3,0.4-0.7,0.6-0.9
				C260.3,189,260.4,189,260.2,188.7z"/>
		</g>
	</g>
</g>
</svg>
