<?xml version="1.0" encoding="utf-8"?>
<!-- Generator: Adobe Illustrator 19.0.0, SVG Export Plug-In . SVG Version: 6.00 Build 0)  -->
<svg version="1.1" id="Layer_1" xmlns="http://www.w3.org/2000/svg" xmlns:xlink="http://www.w3.org/1999/xlink" x="0px" y="0px"
	 viewBox="0 0 1200 1200" style="enable-background:new 0 0 1200 1200;" xml:space="preserve">
<style type="text/css">
	.st0{fill:#F4F4F4;}
	.st1{fill:#8BC23A;}
	.st2{fill:#474747;}
	.st3{fill:#CECECE;}
	.st4{fill:#FFFFFF;}
	.st5{opacity:0.12;fill:#474747;}
	.st6{fill:#048739;}
</style>
<rect x="0" y="0" class="st0" width="1200" height="1200"/>
<g>
	<g>
		<g>
			<rect x="151.8" y="414.8" class="st1" width="267.7" height="463.9"/>
			<rect x="147" y="399.7" class="st2" width="277.2" height="32.7"/>
			<g>
				<rect x="227.5" y="646.8" class="st3" width="116.1" height="228.6"/>
				<rect x="233.4" y="655.2" class="st4" width="104.5" height="211.8"/>
				<rect x="282.4" y="646.8" class="st3" width="6.4" height="228.6"/>
			</g>
			<g>
				<g>
					<rect x="179" y="490.7" class="st3" width="55.5" height="107.1"/>
					<rect x="181.7" y="494.6" class="st4" width="50" height="99.3"/>
					<rect x="205.2" y="490.7" class="st3" width="3.1" height="107.1"/>
					<rect x="179" y="542.3" class="st3" width="55.5" height="3.8"/>
				</g>
				<g>
					<rect x="257.9" y="490.7" class="st3" width="55.5" height="107.1"/>
					<rect x="260.6" y="494.6" class="st4" width="50" height="99.3"/>
					<rect x="284.1" y="490.7" class="st3" width="3.1" height="107.1"/>
					<rect x="257.9" y="542.3" class="st3" width="55.5" height="3.8"/>
				</g>
				<g>
					<rect x="336.7" y="490.7" class="st3" width="55.5" height="107.1"/>
					<rect x="339.5" y="494.6" class="st4" width="50" height="99.3"/>
					<rect x="363" y="490.7" class="st3" width="3.1" height="107.1"/>
					<rect x="336.7" y="542.3" class="st3" width="55.5" height="3.8"/>
				</g>
			</g>
			<rect x="147" y="852.3" class="st2" width="277.2" height="32.7"/>
		</g>
		<g>
			<rect x="868.5" y="414.8" class="st1" width="267.7" height="463.9"/>
			<rect x="863.8" y="399.7" class="st2" width="277.2" height="32.7"/>
			<g>
				<rect x="944.3" y="646.8" class="st3" width="116.1" height="228.6"/>
				<rect x="950.1" y="655.2" class="st4" width="104.5" height="211.8"/>
				<rect x="999.2" y="646.8" class="st3" width="6.4" height="228.6"/>
			</g>
			<g>
				<g>
					<rect x="895.7" y="490.7" class="st3" width="55.5" height="107.1"/>
					<rect x="898.5" y="494.6" class="st4" width="50" height="99.3"/>
					<rect x="922" y="490.7" class="st3" width="3.1" height="107.1"/>
					<rect x="895.7" y="542.3" class="st3" width="55.5" height="3.8"/>
				</g>
				<g>
					<rect x="974.6" y="490.7" class="st3" width="55.5" height="107.1"/>
					<rect x="977.4" y="494.6" class="st4" width="50" height="99.3"/>
					<rect x="1000.8" y="490.7" class="st3" width="3.1" height="107.1"/>
					<rect x="974.6" y="542.3" class="st3" width="55.5" height="3.8"/>
				</g>
				<g>
					<rect x="1053.5" y="490.7" class="st3" width="55.5" height="107.1"/>
					<rect x="1056.3" y="494.6" class="st4" width="50" height="99.3"/>
					<rect x="1079.7" y="490.7" class="st3" width="3.1" height="107.1"/>
					<rect x="1053.5" y="542.3" class="st3" width="55.5" height="3.8"/>
				</g>
			</g>
			<rect x="863.8" y="852.3" class="st2" width="277.2" height="32.7"/>
		</g>
	</g>
	<rect x="413" y="434.7" class="st5" width="461.3" height="445.9"/>
	<g>
		<rect x="419.6" y="247.2" class="st1" width="448" height="637.3"/>
		<g>
			<g>
				<rect x="535.5" y="641.6" class="st3" width="216.1" height="200.4"/>
				<rect x="544.6" y="650" class="st4" width="198" height="183.7"/>
				<rect x="639.5" y="642.9" class="st3" width="8.2" height="197.7"/>
			</g>
			<rect x="524" y="821.2" class="st2" width="239.3" height="26.3"/>
			<rect x="527.5" y="637.8" class="st2" width="232.1" height="18.2"/>
		</g>
		<g>
			<g>
				<rect x="479.5" y="497.4" class="st3" width="62.9" height="102.1"/>
				<rect x="482.7" y="501.1" class="st4" width="56.6" height="94.6"/>
				<rect x="509.2" y="497.4" class="st3" width="3.5" height="102.1"/>
				<rect x="479.5" y="546.6" class="st3" width="62.8" height="3.7"/>
			</g>
			<g>
				<rect x="567.9" y="497.4" class="st3" width="62.9" height="102.1"/>
				<rect x="571.1" y="501.1" class="st4" width="56.6" height="94.6"/>
				<rect x="597.6" y="497.4" class="st3" width="3.5" height="102.1"/>
				<rect x="567.9" y="546.6" class="st3" width="62.8" height="3.7"/>
			</g>
			<g>
				<rect x="656.4" y="497.4" class="st3" width="62.9" height="102.1"/>
				<rect x="659.5" y="501.1" class="st4" width="56.6" height="94.6"/>
				<rect x="686.1" y="497.4" class="st3" width="3.5" height="102.1"/>
				<rect x="656.4" y="546.6" class="st3" width="62.8" height="3.7"/>
			</g>
			<g>
				<rect x="744.8" y="497.4" class="st3" width="62.9" height="102.1"/>
				<rect x="747.9" y="501.1" class="st4" width="56.6" height="94.6"/>
				<rect x="774.5" y="497.4" class="st3" width="3.5" height="102.1"/>
				<rect x="744.8" y="546.6" class="st3" width="62.8" height="3.7"/>
			</g>
		</g>
		<rect x="419.6" y="842.9" class="st2" width="448" height="41.6"/>
		<rect x="412.2" y="238.6" class="st2" width="462.8" height="42.5"/>
		<g>
			<ellipse class="st4" cx="643.6" cy="384.8" rx="73.7" ry="85.7"/>
			<g>
				<path class="st6" d="M659.9,444.6h-32.5c-0.7,0-1.2-0.6-1.2-1.2V326.2c0-0.7,0.6-1.2,1.2-1.2h32.5c0.7,0,1.2,0.6,1.2,1.2v117.1
					C661.1,444,660.5,444.6,659.9,444.6z"/>
				<path class="st6" d="M592.2,403.9v-38.2c0-0.7,0.6-1.2,1.2-1.2h100.3c0.7,0,1.2,0.6,1.2,1.2v38.2c0,0.7-0.6,1.2-1.2,1.2H593.4
					C592.7,405.1,592.2,404.6,592.2,403.9z"/>
			</g>
		</g>
	</g>
</g>
</svg>
