<?xml version="1.0" encoding="utf-8"?>
<!-- Generator: Adobe Illustrator 19.0.0, SVG Export Plug-In . SVG Version: 6.00 Build 0)  -->
<svg version="1.1" id="Layer_2" xmlns="http://www.w3.org/2000/svg" xmlns:xlink="http://www.w3.org/1999/xlink" x="0px" y="0px"
	 viewBox="0 0 1358 474" style="enable-background:new 0 0 1358 474;" xml:space="preserve">
<style type="text/css">
	.st0{fill:#FDEADA;}
	.st1{fill:#FDEEE1;}
	.st2{fill:#E8D2CE;}
	.st3{fill:#FFDFD9;}
	.st4{fill:#FEF7F0;}
	.st5{fill:#F0F0EE;}
	.st6{fill:#B9786B;}
	.st7{opacity:0.4;fill:#5E433E;}
	.st8{fill:#230702;}
	.st9{fill:#7F756D;}
	.st10{fill:#288397;}
	.st11{fill:#FFF9F8;}
	.st12{fill:#C1BCBC;}
	.st13{fill:#44C3D8;}
	.st14{fill:#0A2126;}
	.st15{fill:#9DA6A8;}
	.st16{fill:#B2BEBF;}
	.st17{opacity:0.39;fill:#9CAAAD;}
	.st18{fill:#3E4241;}
	.st19{fill:#353C3D;}
	.st20{fill:#E4EFEE;}
	.st21{fill:#778482;}
	.st22{fill:#08191C;}
	.st23{fill:#DCECEF;}
	.st24{fill:#8590C8;}
	.st25{fill:#F2FBFC;}
	.st26{fill:#ACBABC;}
	.st27{fill:#4D67EF;}
	.st28{fill:#94A4F5;}
	.st29{fill:#525A5B;}
	.st30{opacity:0.42;}
	.st31{fill:#C0DBDD;}
	.st32{fill:#C7DEE0;}
	.st33{fill:#FC4B29;}
	.st34{fill:#FFFFFF;}
	.st35{opacity:0.29;fill:#444747;}
	.st36{fill:#8F9D9E;}
	.st37{opacity:0.23;fill:#DCECEF;}
	.st38{fill:#EDF4F4;}
	.st39{opacity:0.25;fill:#3F3D3D;}
	.st40{fill:#FCFAFA;}
	.st41{fill:#938685;}
	.st42{fill:#A3A3A3;}
	.st43{fill:#F7F7F5;}
	.st44{fill:#E6EA3F;}
	.st45{fill:#595956;}
	.st46{fill:#F2F2EB;}
	.st47{fill:#B7B6A1;}
	.st48{fill:#727165;}
	.st49{fill:#EDEDDF;}
	.st50{fill:#EF4C20;}
	.st51{fill:#112C60;}
	.st52{fill:#F9F9EF;}
	.st53{fill:#999998;}
	.st54{opacity:0.32;fill:#666665;}
	.st55{fill:#5E3B0D;}
	.st56{fill:#695300;}
	.st57{fill:#F6B899;}
	.st58{opacity:0.32;fill:#4E3E00;}
	.st59{fill:#F7F5ED;}
	.st60{fill:#B5B3AC;}
	.st61{fill:#F7F9F9;}
	.st62{opacity:0.4;fill:#717D7F;}
	.st63{fill:#717D7F;}
	.st64{fill:#BF6A0D;}
	.st65{fill:#513214;}
	.st66{fill:#A56530;}
	.st67{fill:#898684;}
	.st68{fill:#E81D13;}
	.st69{fill:#FFF8F8;}
	.st70{fill:#D13226;}
	.st71{fill:#95A1BA;}
	.st72{fill:#707B8E;}
	.st73{fill:#717A89;}
	.st74{fill:#848FA3;}
	.st75{fill:#4260B2;}
	.st76{fill:#B8C4DD;}
	.st77{fill:#1C397C;}
	.st78{fill:#172E5E;}
	.st79{fill:#69717F;}
	.st80{opacity:0.44;fill:#23494F;}
	.st81{fill:#87CBD6;}
	.st82{fill:#373A3A;}
	.st83{opacity:0.5;fill:#7C7976;}
	.st84{fill:#FFF6F0;}
	.st85{opacity:0.24;fill:#B5B1B0;}
	.st86{fill:#33842C;}
	.st87{fill:#2F3447;}
	.st88{fill:#31385E;}
	.st89{fill:#D8CD4A;}
	.st90{fill:#595959;}
	.st91{fill:#EA9483;}
	.st92{fill:#9E1A00;}
	.st93{fill:#B02286;}
	.st94{fill:#9E4800;}
	.st95{fill:#919090;}
	.st96{fill:#6D2B5A;}
	.st97{fill:#913977;}
	.st98{fill:#7300C6;}
	.st99{fill:#8A557B;}
	.st100{fill:#6D2B59;}
	.st101{fill:#1E1E1E;}
	.st102{fill:#999493;}
	.st103{fill:#F77DA2;}
	.st104{fill:#DFE8E3;}
	.st105{fill:#77185B;}
	.st106{fill:#9533DA;}
	.st107{fill:#928EA3;}
	.st108{fill:#4040B5;}
	.st109{fill:#F3FFFF;}
	.st110{fill:#626868;}
	.st111{fill:#F0F4C1;}
	.st112{fill:#F8FFFF;}
	.st113{fill:#BED3D2;}
	.st114{fill:#C9D3D3;}
	.st115{fill:#599B99;}
	.st116{fill:#7E9190;}
	.st117{opacity:0.15;fill:#D9EDEC;}
	.st118{fill:#2A2C38;}
	.st119{fill:#56585E;}
	.st120{opacity:0.2;fill:#F7F7F7;}
	.st121{fill:#303030;}
	.st122{fill:#494646;}
	.st123{fill:#2E3DBF;}
	.st124{opacity:0.28;fill:#2A2C38;}
	.st125{fill:#131D63;}
</style>
<g>
	<rect y="104.2" class="st0" width="1358" height="369.8"/>
	<rect class="st1" width="1358" height="130.8"/>
	<g>
		<rect y="58.4" class="st2" width="1358" height="45.8"/>
	</g>
	<g>
		<rect y="209.2" class="st3" width="1358" height="177.1"/>
	</g>
	<g>
		<rect y="386.3" class="st4" width="1358" height="12.5"/>
	</g>
	<g>
		<rect x="676.3" y="386.3" class="st5" width="681.7" height="12.5"/>
	</g>
	<g>
		<rect x="0" y="398.8" class="st6" width="1358" height="75.2"/>
		<path class="st7" d="M1358,398.8v13.4C641.9,421.4,264.5,449.3,67.1,474H0v-75.2H1358z"/>
	</g>
</g>
<g>
	<polygon class="st8" points="545.1,310.9 545.1,353.1 399.8,307.1 245.1,353.2 245.1,310.9 239.9,310.9 239.9,386.6 245.1,386.6 
		245.1,356.1 399.7,310 545.1,356.1 545.1,386.6 550.3,386.6 550.3,310.9 	"/>
	<g>
		<rect x="231.1" y="305.8" class="st9" width="329.1" height="6.9"/>
		<path class="st10" d="M370.8,305.8H232.4c-3.5,0-6.3-2.8-6.3-6.3v-3.9c0-3.5,2.8-6.3,6.3-6.3h138.4c3.5,0,6.3,2.8,6.3,6.3v3.9
			C377,303,374.2,305.8,370.8,305.8z"/>
		<path class="st10" d="M558.5,305.8H383.3c-3.5,0-6.3-2.8-6.3-6.3v-3.9c0-3.5,2.8-6.3,6.3-6.3h175.2c3.5,0,6.3,2.8,6.3,6.3v3.9
			C564.7,303,561.9,305.8,558.5,305.8z"/>
	</g>
	<path class="st11" d="M299.1,289.3h-60.7v-9.2c0-1.6,1.3-2.9,2.9-2.9H287c6.4,0,11.6,4.9,12.1,11.2
		C299.1,288.7,299.1,289,299.1,289.3z"/>
	<path class="st12" d="M299.1,289.3h-60.7v-9.2c0-1.6,1.3-2.9,2.9-2.9H264c14.5,5.6,30.2,11.1,35.1,11.2
		C299.1,288.7,299.1,289,299.1,289.3z"/>
</g>
<g>
	<g>
		<path class="st10" d="M54.3,299.5L54.3,299.5c-3.4,0.8-6.7-1.3-7.5-4.7l-5.9-25.3c-0.8-3.4,1.3-6.7,4.7-7.5l0,0
			c3.4-0.8,6.7,1.3,7.5,4.7l5.9,25.3C59.7,295.3,57.6,298.7,54.3,299.5z"/>
		<path class="st10" d="M54.3,299.5L54.3,299.5c-3.4,0.8-6.7-1.3-7.5-4.7l-5.9-25.3c-0.8-3.4,1.3-6.7,4.7-7.5l0,0
			c3.4-0.8,6.7,1.3,7.5,4.7l5.9,25.3C59.7,295.3,57.6,298.7,54.3,299.5z"/>
		<path class="st10" d="M54.3,299.5L54.3,299.5c-3.4,0.8-6.7-1.3-7.5-4.7l-5.9-25.3c-0.8-3.4,1.3-6.7,4.7-7.5l0,0
			c3.4-0.8,6.7,1.3,7.5,4.7l5.9,25.3C59.7,295.3,57.6,298.7,54.3,299.5z"/>
		<path class="st13" d="M58.9,291.9L53,266.6c-0.8-3.4-4.2-5.5-7.5-4.7c-0.3,0.1-0.6,0.2-0.8,0.3c3.1-0.3,5.9,1.7,6.7,4.8l5.9,25.3
			c0.7,3.1-1,6.1-3.8,7.3c0.3,0,0.6-0.1,0.9-0.1C57.6,298.7,59.7,295.3,58.9,291.9z"/>
		<polygon class="st14" points="46.1,292.2 43.3,291.2 39.3,274.1 41.4,272.2 		"/>
	</g>
	<g>
		<path class="st14" d="M40.1,335.8c-2.8,0-4.7-0.8-5.7-2.4c-2.5-3.8,0.7-10.9,4.1-18.4c2-4.4,4-9,4.4-12c1.1-9.6,0-14.1,0-14.1
			l1.9-0.5c0,0.2,1.2,4.9,0,14.8c-0.4,3.4-2.4,7.9-4.6,12.6c-2.9,6.4-6.1,13.6-4.2,16.5c0.7,1,2.1,1.5,4.3,1.5
			c14.4-0.3,22.5,0,22.6,0l-0.1,2c-0.1,0-8.1-0.3-22.5,0C40.3,335.8,40.2,335.8,40.1,335.8z"/>
	</g>
	<polygon class="st14" points="101.3,339.4 61.9,339.4 59.8,334.4 103.6,334.4 	"/>
	<rect x="77.1" y="336.9" class="st14" width="9.5" height="19"/>
	<rect x="79.5" y="355.7" class="st15" width="4.8" height="31.3"/>
	<rect x="79.5" y="355.7" class="st16" width="1.5" height="31.3"/>
	<g>
		<polygon class="st14" points="85.4,394.7 78.4,394.7 78.4,388.7 78.4,383.8 85.4,383.8 		"/>
		<polygon class="st14" points="52.5,401.8 78.4,388.7 78.4,394.7 59.8,401.8 59.8,403.2 52.5,403.2 		"/>
		<polygon class="st14" points="111.3,401.8 111.3,403.2 104,403.2 104,401.8 85.4,394.7 85.4,388.7 		"/>
		<polygon class="st14" points="85.4,403.2 85.4,404.2 77.8,404.2 77.8,403.2 79.5,403.2 79.5,388.7 84.3,388.7 83.8,403.2 		"/>
		<polygon class="st17" points="84.3,388.7 83.8,403.2 81.9,403.2 80.3,388.7 		"/>
		<polygon class="st17" points="111.3,401.8 111.3,401.9 85.4,391.8 85.4,388.7 		"/>
	</g>
	<path class="st10" d="M103.7,334.4H58.3c-2.5,0-4.5-2-4.5-4.5l0,0c0-2.5,2-4.5,4.5-4.5h45.4c2.5,0,4.5,2,4.5,4.5l0,0
		C108.3,332.4,106.2,334.4,103.7,334.4z"/>
	<path class="st13" d="M103.7,325.4H58.3c-1.3,0-2.5,0.6-3.3,1.4c0,0,0,0,0.1,0h45.4c2.5,0,4.5,2,4.5,4.5c0,1.2-0.5,2.3-1.2,3.1
		c2.5,0,4.5-2,4.5-4.5C108.3,327.4,106.2,325.4,103.7,325.4z"/>
</g>
<g>
	<g>
		<g>
			<path class="st18" d="M199.9,381.7h-88.8v-2.2c0-1.2,1-2.3,2.3-2.3h84.3c1.2,0,2.3,1,2.3,2.3V381.7z"/>
			<g>
				<path class="st18" d="M120.9,386c-1.3-0.3-2.5-0.2-3.6,0.3v-5.4c0-1.1-0.8-2-1.8-2l0,0c-1,0-1.8,0.9-1.8,2v9.3
					c-0.4,1.2-0.6,2.6-0.3,4.1c0.6,2.9,2.7,5.1,5.3,5.4c3.9,0.5,7.2-3.2,6.8-7.7C125.3,389.1,123.4,386.6,120.9,386z"/>
				<g>
					<g>
						<path class="st19" d="M119.5,399.8c-3.4,0-6.1-3.1-6.1-7c0-3.9,2.7-7,6.1-7c3.4,0,6.1,3.1,6.1,7
							C125.6,396.6,122.9,399.8,119.5,399.8z"/>
						<path class="st20" d="M119.5,397.5c-2.3,0-4.1-2.1-4.1-4.7c0-2.6,1.8-4.7,4.1-4.7c2.3,0,4.1,2.1,4.1,4.7
							C123.6,395.4,121.8,397.5,119.5,397.5z"/>
					</g>
					<g>
						<g>
							<ellipse class="st20" cx="119.4" cy="393" rx="1.4" ry="1.5"/>
							<path class="st19" d="M119.4,391.4c-0.8,0-1.4,0.7-1.4,1.6c0,0.9,0.6,1.5,1.4,1.5s1.4-0.7,1.4-1.5
								C120.7,392.1,120.1,391.4,119.4,391.4L119.4,391.4z"/>
						</g>
					</g>
				</g>
				<ellipse class="st21" cx="115.6" cy="381" rx="0.6" ry="0.7"/>
			</g>
			<g>
				<path class="st18" d="M189.7,386c1.3-0.3,2.5-0.2,3.6,0.3v-5.4c0-1.1,0.8-2,1.8-2l0,0c1,0,1.8,0.9,1.8,2v9.3
					c0.4,1.2,0.6,2.6,0.3,4.1c-0.6,2.9-2.7,5.1-5.3,5.4c-3.9,0.5-7.2-3.2-6.8-7.7C185.3,389.1,187.2,386.6,189.7,386z"/>
				<g>
					<g>
						<path class="st19" d="M191.1,399.8c3.4,0,6.1-3.1,6.1-7c0-3.9-2.7-7-6.1-7c-3.4,0-6.1,3.1-6.1,7
							C185,396.6,187.7,399.8,191.1,399.8z"/>
						<path class="st20" d="M191.1,397.5c2.3,0,4.1-2.1,4.1-4.7c0-2.6-1.8-4.7-4.1-4.7s-4.1,2.1-4.1,4.7
							C187,395.4,188.8,397.5,191.1,397.5z"/>
					</g>
					<g>
						<g>
							<ellipse class="st20" cx="191.3" cy="393" rx="1.4" ry="1.5"/>
							<path class="st19" d="M191.3,391.4c0.8,0,1.4,0.7,1.4,1.6c0,0.9-0.6,1.5-1.4,1.5s-1.4-0.7-1.4-1.5
								C189.9,392.1,190.5,391.4,191.3,391.4L191.3,391.4z"/>
						</g>
					</g>
				</g>
				<ellipse class="st21" cx="195" cy="381" rx="0.6" ry="0.7"/>
			</g>
		</g>
	</g>
	<g>
		<rect x="115.7" y="144.9" class="st22" width="71.1" height="59"/>
		<path class="st23" d="M113.5,142.7v62.6h-0.1c0,0,0,0,0,0c0,0.1,0,0.2,0.1,0.4v0.4h0.2c2.1,3.3,18.1,5.8,37.5,5.8
			c19.4,0,35.4-2.5,37.5-5.8h0.2v-63.3H113.5z M117.9,147.1h66.7v54.6h-66.7V147.1z"/>
		<rect x="135.8" y="270.6" class="st24" width="38.6" height="7.7"/>
		<rect x="113.5" y="278.3" class="st23" width="85" height="79.8"/>
		<rect x="106.7" y="343.5" class="st23" width="97.7" height="8"/>
		<path class="st23" d="M213.1,378.9H96.5v-2.3c0-10.3,8.3-18.6,18.6-18.6h79.5c10.2,0,18.6,8.3,18.6,18.6V378.9z"/>
		<path class="st23" d="M213.1,378.9H96.5v-2.3c0-10.3,8.3-18.6,18.6-18.6h79.5c10.2,0,18.6,8.3,18.6,18.6V378.9z"/>
		<path class="st25" d="M194.5,358.1h-15.9c10.8,0,19.5,8.7,19.5,19.5v1.3h15v-2.3C213.1,366.1,205.3,358.1,194.5,358.1z"/>
		<rect x="146" y="211.8" class="st26" width="11.5" height="11.5"/>
		<rect x="113.5" y="218.9" class="st27" width="79.2" height="51.8"/>
		<path class="st28" d="M153.1,257.6c-26.9,0-49.4,3.2-54.3,7.5h108.5C202.5,260.9,180,257.6,153.1,257.6z"/>
		<g>
			<path class="st29" d="M124.8,291H121c-0.9,0-1.5-0.7-1.5-1.5l0,0c0-0.9,0.7-1.5,1.5-1.5h3.8c0.9,0,1.5,0.7,1.5,1.5l0,0
				C126.3,290.3,125.7,291,124.8,291z"/>
			<path class="st29" d="M136.1,291h-3.8c-0.9,0-1.5-0.7-1.5-1.5l0,0c0-0.9,0.7-1.5,1.5-1.5h3.8c0.9,0,1.5,0.7,1.5,1.5l0,0
				C137.6,290.3,136.9,291,136.1,291z"/>
			<path class="st29" d="M147.3,291h-3.8c-0.9,0-1.5-0.7-1.5-1.5l0,0c0-0.9,0.7-1.5,1.5-1.5h3.8c0.9,0,1.5,0.7,1.5,1.5l0,0
				C148.9,290.3,148.2,291,147.3,291z"/>
			<path class="st29" d="M158.6,291h-3.8c-0.9,0-1.5-0.7-1.5-1.5l0,0c0-0.9,0.7-1.5,1.5-1.5h3.8c0.9,0,1.5,0.7,1.5,1.5l0,0
				C160.2,290.3,159.5,291,158.6,291z"/>
			<path class="st29" d="M169.9,291H166c-0.9,0-1.5-0.7-1.5-1.5l0,0c0-0.9,0.7-1.5,1.5-1.5h3.8c0.9,0,1.5,0.7,1.5,1.5l0,0
				C171.4,290.3,170.7,291,169.9,291z"/>
			<path class="st29" d="M181.1,291h-3.8c-0.9,0-1.5-0.7-1.5-1.5l0,0c0-0.9,0.7-1.5,1.5-1.5h3.8c0.9,0,1.5,0.7,1.5,1.5l0,0
				C182.7,290.3,182,291,181.1,291z"/>
			<path class="st29" d="M192.4,291h-3.8c-0.9,0-1.5-0.7-1.5-1.5l0,0c0-0.9,0.7-1.5,1.5-1.5h3.8c0.9,0,1.5,0.7,1.5,1.5l0,0
				C194,290.3,193.3,291,192.4,291z"/>
		</g>
		<g>
			<path class="st29" d="M124.8,296.3H121c-0.9,0-1.5-0.7-1.5-1.5l0,0c0-0.9,0.7-1.5,1.5-1.5h3.8c0.9,0,1.5,0.7,1.5,1.5l0,0
				C126.3,295.6,125.7,296.3,124.8,296.3z"/>
			<path class="st29" d="M136.1,296.3h-3.8c-0.9,0-1.5-0.7-1.5-1.5l0,0c0-0.9,0.7-1.5,1.5-1.5h3.8c0.9,0,1.5,0.7,1.5,1.5l0,0
				C137.6,295.6,136.9,296.3,136.1,296.3z"/>
			<path class="st29" d="M147.3,296.3h-3.8c-0.9,0-1.5-0.7-1.5-1.5l0,0c0-0.9,0.7-1.5,1.5-1.5h3.8c0.9,0,1.5,0.7,1.5,1.5l0,0
				C148.9,295.6,148.2,296.3,147.3,296.3z"/>
			<path class="st29" d="M158.6,296.3h-3.8c-0.9,0-1.5-0.7-1.5-1.5l0,0c0-0.9,0.7-1.5,1.5-1.5h3.8c0.9,0,1.5,0.7,1.5,1.5l0,0
				C160.2,295.6,159.5,296.3,158.6,296.3z"/>
			<path class="st29" d="M169.9,296.3H166c-0.9,0-1.5-0.7-1.5-1.5l0,0c0-0.9,0.7-1.5,1.5-1.5h3.8c0.9,0,1.5,0.7,1.5,1.5l0,0
				C171.4,295.6,170.7,296.3,169.9,296.3z"/>
			<path class="st29" d="M181.1,296.3h-3.8c-0.9,0-1.5-0.7-1.5-1.5l0,0c0-0.9,0.7-1.5,1.5-1.5h3.8c0.9,0,1.5,0.7,1.5,1.5l0,0
				C182.7,295.6,182,296.3,181.1,296.3z"/>
			<path class="st29" d="M192.4,296.3h-3.8c-0.9,0-1.5-0.7-1.5-1.5l0,0c0-0.9,0.7-1.5,1.5-1.5h3.8c0.9,0,1.5,0.7,1.5,1.5l0,0
				C194,295.6,193.3,296.3,192.4,296.3z"/>
		</g>
		<g>
			<path class="st29" d="M124.8,301.5H121c-0.9,0-1.5-0.7-1.5-1.5l0,0c0-0.9,0.7-1.5,1.5-1.5h3.8c0.9,0,1.5,0.7,1.5,1.5l0,0
				C126.3,300.8,125.7,301.5,124.8,301.5z"/>
			<path class="st29" d="M136.1,301.5h-3.8c-0.9,0-1.5-0.7-1.5-1.5l0,0c0-0.9,0.7-1.5,1.5-1.5h3.8c0.9,0,1.5,0.7,1.5,1.5l0,0
				C137.6,300.8,136.9,301.5,136.1,301.5z"/>
			<path class="st29" d="M147.3,301.5h-3.8c-0.9,0-1.5-0.7-1.5-1.5l0,0c0-0.9,0.7-1.5,1.5-1.5h3.8c0.9,0,1.5,0.7,1.5,1.5l0,0
				C148.9,300.8,148.2,301.5,147.3,301.5z"/>
			<path class="st29" d="M158.6,301.5h-3.8c-0.9,0-1.5-0.7-1.5-1.5l0,0c0-0.9,0.7-1.5,1.5-1.5h3.8c0.9,0,1.5,0.7,1.5,1.5l0,0
				C160.2,300.8,159.5,301.5,158.6,301.5z"/>
			<path class="st29" d="M169.9,301.5H166c-0.9,0-1.5-0.7-1.5-1.5l0,0c0-0.9,0.7-1.5,1.5-1.5h3.8c0.9,0,1.5,0.7,1.5,1.5l0,0
				C171.4,300.8,170.7,301.5,169.9,301.5z"/>
			<path class="st29" d="M181.1,301.5h-3.8c-0.9,0-1.5-0.7-1.5-1.5l0,0c0-0.9,0.7-1.5,1.5-1.5h3.8c0.9,0,1.5,0.7,1.5,1.5l0,0
				C182.7,300.8,182,301.5,181.1,301.5z"/>
			<path class="st29" d="M192.4,301.5h-3.8c-0.9,0-1.5-0.7-1.5-1.5l0,0c0-0.9,0.7-1.5,1.5-1.5h3.8c0.9,0,1.5,0.7,1.5,1.5l0,0
				C194,300.8,193.3,301.5,192.4,301.5z"/>
		</g>
		<g class="st30">
			<path class="st29" d="M193.2,344.1h-74.4v-35.7h74.4V344.1z M120,343h72.2v-33.5H120V343z"/>
		</g>
		<ellipse class="st29" cx="151.9" cy="205.9" rx="8.3" ry="1.8"/>
		<g>
			<rect x="119.8" y="223.7" class="st29" width="40" height="27.4"/>
			<path class="st31" d="M159.4,224.1v26.7h-39.3v-26.7H159.4L159.4,224.1z M160.2,223.4h-40.7v28.2h40.7V223.4L160.2,223.4z"/>
		</g>
		<ellipse class="st32" cx="166.4" cy="226.3" rx="3.6" ry="1.6"/>
		<ellipse class="st32" cx="166.4" cy="231.6" rx="3.6" ry="1.6"/>
		<circle class="st32" cx="180" cy="226" r="1.3"/>
		<circle class="st32" cx="180" cy="231.9" r="1.3"/>
		<circle class="st32" cx="180" cy="238.7" r="1.3"/>
		<rect x="164.7" y="252.8" class="st32" width="17.9" height="2.2"/>
		<circle class="st33" cx="181.8" cy="245.5" r="1.8"/>
		<polygon class="st23" points="222.3,263.2 197.5,263.2 197.5,257.6 222.3,257.6 222.3,260.4 		"/>
		<g>
			<path class="st34" d="M220.1,293.3c-2.7,0-6.2-0.7-10.7-2.7c-8-3.5-8.8-6.8-8.5-9.9c0,0,0-0.1,0-0.2c-0.2,0-0.4,0-0.8,0.1
				c-7.2,0.9-8.8-9.7-8.8-10.2l2.6,0c0,0.1,1.1,8.2,5.9,7.6c1.4-0.2,2.4-0.1,3.1,0.6c0.7,0.7,0.6,1.6,0.5,2.3
				c-0.2,1.5-0.4,4.1,7,7.3c6.3,2.7,11.3,3.2,14.1,1.3c2.3-1.6,2.6-4.3,2.5-5.8c-0.1-2-1-3.3-1.9-4.8c-1.8-2.7-3.8-5.7,0.5-11.9
				c1.4-2,2-3.7,1.5-4.4c-0.7-1.1-3.6-1.2-4.8-1.1v-2.5c0.6-0.1,5.3-0.5,7,2.3c1.1,1.8,0.5,4.1-1.6,7.2c-3.3,4.8-2.1,6.5-0.5,9
				c1.1,1.6,2.3,3.4,2.4,6.1c0.1,3.5-1.2,6.4-3.7,8C224.7,292.6,222.8,293.3,220.1,293.3z"/>
		</g>
		<rect x="96.5" y="265.2" class="st23" width="111.5" height="5.5"/>
		<polygon class="st35" points="204.2,270.6 96.5,270.6 96.5,265.2 129.3,265.2 		"/>
		<path class="st23" d="M125.8,261.4h-9.4c-0.3,0-0.6-0.3-0.6-0.6v-0.1c0-0.3,0.3-0.6,0.6-0.6h9.4c0.3,0,0.6,0.3,0.6,0.6v0.1
			C126.3,261.1,126.1,261.4,125.8,261.4z"/>
		<path class="st23" d="M143,261.4h-10.2c-0.3,0-0.6-0.3-0.6-0.6v-0.1c0-0.3,0.3-0.6,0.6-0.6H143c0.3,0,0.6,0.3,0.6,0.6v0.1
			C143.6,261.1,143.3,261.4,143,261.4z"/>
		<g>
			<path class="st23" d="M177.1,263.2h26.8c0.2-0.6,0.2-1.2,0.2-1.8c0-5.1-6.1-9.3-13.7-9.3c-7.5,0-13.7,4.2-13.7,9.3
				C176.8,262,176.9,262.6,177.1,263.2z"/>
			<path class="st25" d="M190.5,252.1c-0.5,0-1.1,0-1.6,0.1c6.8,0.5,12.1,4.5,12.1,9.2c0,0.6-0.1,1.2-0.2,1.8h3.2
				c0.2-0.6,0.2-1.2,0.2-1.8C204.2,256.3,198,252.1,190.5,252.1z"/>
		</g>
		<rect x="113.5" y="351.5" class="st35" width="85" height="6.6"/>
	</g>
</g>
<g>
	<g>
		<path class="st23" d="M437.7,398.7h-6V189.3c0-12.9,9.4-23.4,20.9-23.4h90.5c11.5,0,20.9,10.5,20.9,23.4v209.4h-5.8l-0.2-209.4
			c0-9.2-6.7-16.7-14.9-16.7h-90.5c-8.2,0-14.9,7.5-14.9,16.7V398.7z"/>
	</g>
	<g>
		<path class="st36" d="M452.7,165.9h-3.1c-11.5,0-20.9,10.5-20.9,23.4v209.4h3.1V189.3C431.7,176.4,441.1,165.9,452.7,165.9z"/>
		<path class="st36" d="M543.2,172.6h-3.1c8.2,0,14.9,7.5,14.9,16.7l0.2,209.4h3.1l-0.2-209.4C558.1,180.1,551.4,172.6,543.2,172.6z
			"/>
	</g>
	<g>
		<path class="st23" d="M642.2,398.7h-6V182.5c0-7.3-5.3-13.2-11.8-13.2h-39.7c-6.5,0-11.8,5.9-11.8,13.2v216.2h-6V182.5
			c0-11,8-19.9,17.8-19.9h39.7c9.8,0,17.8,8.9,17.8,19.9V398.7z"/>
	</g>
	<g>
		<path class="st36" d="M584.7,162.6h-2c-9.8,0-17.8,8.9-17.8,19.9v216.2h2V182.5C566.9,171.5,574.9,162.6,584.7,162.6z"/>
		<path class="st36" d="M624.4,169.3h-2c6.5,0,11.8,5.9,11.8,13.2v216.2h2V182.5C636.2,175.2,630.9,169.3,624.4,169.3z"/>
	</g>
	<rect x="437.7" y="209.8" class="st10" width="120.5" height="146.4"/>
	<rect x="572.8" y="209.9" class="st10" width="63.4" height="146.3"/>
	<rect x="442.8" y="209.8" class="st37" width="11.6" height="146.4"/>
	<rect x="460.2" y="209.8" class="st37" width="11.6" height="146.4"/>
	<rect x="478.5" y="209.8" class="st37" width="11.6" height="146.4"/>
	<rect x="497" y="209.8" class="st37" width="11.6" height="146.4"/>
	<rect x="516.5" y="209.8" class="st37" width="11.6" height="146.4"/>
	<rect x="537.9" y="209.8" class="st37" width="11.6" height="146.4"/>
	<rect x="578.9" y="209.8" class="st37" width="11.6" height="146.4"/>
	<rect x="597.4" y="209.8" class="st37" width="11.6" height="146.4"/>
	<rect x="617.3" y="209.8" class="st37" width="11.6" height="146.4"/>
	<path class="st38" d="M440.6,400.6h-15.3v-0.4c0-1.2,1-2.1,2.1-2.1h11c1.2,0,2.1,1,2.1,2.1V400.6z"/>
	<path class="st38" d="M646.4,400.6h-15.3v-0.4c0-1.2,1-2.1,2.1-2.1h11c1.2,0,2.1,1,2.1,2.1V400.6z"/>
	<path class="st38" d="M574.8,400.6h-21.4V400c0-1.1,0.9-1.9,1.9-1.9h17.6c1.1,0,1.9,0.9,1.9,1.9V400.6z"/>
</g>
<g>
	<polygon class="st39" points="919.7,224.5 669.3,224.5 658.1,207.7 658.1,85.8 903,85.8 919.7,97.4 	"/>
	<rect x="658.1" y="85.8" class="st40" width="245" height="121.9"/>
	<g>
		<path class="st41" d="M898.3,204.1H663.1V89.3h235.2V204.1z M665.4,201.8h230.5V91.6H665.4V201.8z"/>
	</g>
	<rect x="665.4" y="91.6" class="st34" width="102.1" height="110.2"/>
	<g>
		<rect x="766.3" y="91.4" class="st41" width="2.3" height="112.8"/>
	</g>
	<g>
		<rect x="715.3" y="91" class="st41" width="2.3" height="111.1"/>
	</g>
	<circle class="st41" cx="708.2" cy="142.7" r="3.9"/>
	<circle class="st41" cx="724.2" cy="142.7" r="3.9"/>
	<rect x="767.6" y="129.8" class="st41" width="129.5" height="3"/>
	<rect x="767.6" y="165.2" class="st41" width="129.5" height="3"/>
	<rect x="768.7" y="91.4" class="st42" width="127.3" height="38.4"/>
	<rect x="768.6" y="132.8" class="st42" width="127.3" height="33.2"/>
	<rect x="768.7" y="168.3" class="st42" width="127.3" height="33.5"/>
	<g>
		<path class="st43" d="M778.6,118v11.3c0,0.3-0.2,0.5-0.5,0.5h-8.7c-0.3,0-0.5-0.2-0.5-0.5V118c0-1.3,0.9-2.3,2.1-2.5v-3.9h5.4v3.9
			C777.6,115.6,778.6,116.7,778.6,118z"/>
		<rect x="768.8" y="119.3" class="st44" width="9.7" height="8.8"/>
		<rect x="770.7" y="120.1" class="st45" width="6.8" height="2.3"/>
		<rect x="770" y="123.2" class="st46" width="8.2" height="0.5"/>
		<rect x="770.9" y="111.5" class="st47" width="5.4" height="3.9"/>
		<path class="st48" d="M774.7,115.4h-3.8v-3.9h2.6C773.7,112.8,774.1,114.5,774.7,115.4z"/>
	</g>
	<g>
		<path class="st43" d="M788.3,118v11.3c0,0.3-0.2,0.5-0.5,0.5H779c-0.3,0-0.5-0.2-0.5-0.5V118c0-1.3,0.9-2.3,2.1-2.5v-3.9h5.4v3.9
			C787.3,115.6,788.3,116.7,788.3,118z"/>
		<rect x="778.6" y="119.3" class="st44" width="9.7" height="8.8"/>
		<rect x="780.4" y="120.1" class="st45" width="6.8" height="2.3"/>
		<rect x="779.7" y="123.2" class="st46" width="8.2" height="0.5"/>
		<rect x="780.6" y="111.5" class="st47" width="5.4" height="3.9"/>
		<path class="st48" d="M784.5,115.4h-3.8v-3.9h2.6C783.4,112.8,783.8,114.5,784.5,115.4z"/>
	</g>
	<g>
		<path class="st43" d="M798,118v11.3c0,0.3-0.2,0.5-0.5,0.5h-8.7c-0.3,0-0.5-0.2-0.5-0.5V118c0-1.3,0.9-2.3,2.1-2.5v-3.9h5.4v3.9
			C797,115.6,798,116.7,798,118z"/>
		<rect x="788.3" y="119.3" class="st44" width="9.7" height="8.8"/>
		<rect x="790.1" y="120.1" class="st45" width="6.8" height="2.3"/>
		<rect x="789.4" y="123.2" class="st46" width="8.2" height="0.5"/>
		<rect x="790.4" y="111.5" class="st47" width="5.4" height="3.9"/>
		<path class="st48" d="M794.2,115.4h-3.8v-3.9h2.6C793.1,112.8,793.5,114.5,794.2,115.4z"/>
	</g>
	<g>
		<g>
			<polygon class="st49" points="818.6,129.8 805.2,129.8 806.8,118 817.3,118 			"/>
			<rect x="812.2" y="119.5" class="st50" width="0.6" height="2.2"/>
			<rect x="811.4" y="120.3" class="st50" width="2.2" height="0.6"/>
			<g>
				<g>
					<polygon class="st51" points="815.7,126.2 808.2,126.2 807.6,123.2 816.3,123.2 					"/>
					<path class="st52" d="M816.2,126.8h-8.6l-0.9-4.3h10.3L816.2,126.8z M808.7,125.5h6.5l0.3-1.7h-7.2L808.7,125.5z"/>
				</g>
				<g>
					<rect x="809.4" y="124.3" class="st53" width="5.2" height="0.8"/>
				</g>
			</g>
			<path class="st54" d="M816.3,129.8h-11l1.5-11.8h4.5C811.8,123.5,814.7,127.8,816.3,129.8z"/>
		</g>
		<g>
			<path class="st43" d="M828.9,117.3v11.9c0,0.3-0.2,0.5-0.5,0.5h-9.2c-0.3,0-0.5-0.2-0.5-0.5v-11.9c0-1.3,0.9-2.4,2.2-2.7v-4.2
				h5.7v4.1C827.9,114.8,828.9,116,828.9,117.3z"/>
			<rect x="818.6" y="118.7" class="st44" width="10.3" height="9.3"/>
			<rect x="820.5" y="119.6" class="st45" width="7.2" height="2.4"/>
			<rect x="819.8" y="122.9" class="st46" width="8.7" height="0.5"/>
			<rect x="820.8" y="110.5" class="st47" width="5.7" height="4.1"/>
			<path class="st48" d="M824.8,114.6h-4v-4.1h2.7C823.7,111.9,824.1,113.6,824.8,114.6z"/>
		</g>
		<g>
			<path class="st55" d="M840.3,117.3v11.9c0,0.3-0.2,0.5-0.5,0.5h-9.2c-0.3,0-0.5-0.2-0.5-0.5v-11.9c0-1.3,0.9-2.4,2.2-2.7v-4.2
				h5.7v4.1C839.3,114.8,840.3,116,840.3,117.3z"/>
			<rect x="830.1" y="118.7" class="st44" width="10.3" height="9.3"/>
			<rect x="832" y="119.6" class="st45" width="7.2" height="2.4"/>
			<rect x="831.3" y="122.9" class="st46" width="8.7" height="0.5"/>
			<rect x="832.2" y="110.5" class="st47" width="5.7" height="4.1"/>
			<path class="st48" d="M836.3,114.6h-4v-4.1h2.7C835.2,111.9,835.6,113.6,836.3,114.6z"/>
		</g>
	</g>
	<g>
		<g>
			<g>
				<polygon class="st56" points="873,201.8 859.6,201.8 861.2,190.3 871.7,190.3 				"/>
				<rect x="866.6" y="191.8" class="st50" width="0.6" height="2.2"/>
				<rect x="865.8" y="192.5" class="st50" width="2.2" height="0.6"/>
				<g>
					<g>
						<polygon class="st51" points="870.1,198.2 862.5,198.2 861.9,195.3 870.7,195.3 						"/>
						<path class="st57" d="M870.6,198.9H862l-0.9-4.2h10.3L870.6,198.9z M863.1,197.6h6.5l0.3-1.7h-7.2L863.1,197.6z"/>
					</g>
					<g>
						<rect x="863.8" y="196.4" class="st53" width="5.2" height="0.8"/>
					</g>
				</g>
				<path class="st58" d="M870.7,201.8h-11l1.5-11.5h4.5C866.2,195.6,869.1,199.8,870.7,201.8z"/>
			</g>
			<g>
				<path class="st59" d="M837.8,201.8h-44.1c-1.4,0-2.5-1.1-2.5-2.6v-0.7c0-1.4,1.1-2.6,2.5-2.6h44.1c1.4,0,2.5,1.1,2.5,2.6v0.7
					C840.3,200.7,839.2,201.8,837.8,201.8z"/>
				<path class="st60" d="M836.1,198.8c-0.5-0.1-1-0.1-1.5-0.2c-10.9-0.3-21.9-0.8-32.8-0.8c-1.7,0-4-0.3-5.7,0.3
					c-2.4,0.9-2.7,2.3,1.5,2.3c8.6,0,17.2-0.2,25.8-0.3c4.3-0.1,8.6,0,12.9-0.2c0.4,0,0.9-0.2,0.8-0.6c0-0.1-0.2-0.2-0.3-0.3
					C836.6,199,836.4,198.9,836.1,198.8z"/>
			</g>
			<g>
				<path class="st59" d="M838.4,201.8h-44.1c-1.4,0-2.5-1.1-2.5-2.6v-0.7c0-1.4,1.1-2.6,2.5-2.6h44.1c1.4,0,2.5,1.1,2.5,2.6v0.7
					C841,200.7,839.8,201.8,838.4,201.8z"/>
				<path class="st60" d="M836.8,198.8c-0.5-0.1-1-0.1-1.5-0.2c-10.9-0.3-21.9-0.8-32.8-0.8c-1.7,0-4-0.3-5.7,0.3
					c-2.4,0.9-2.7,2.3,1.5,2.3c8.6,0,17.2-0.2,25.8-0.3c4.3-0.1,8.6,0,12.9-0.2c0.4,0,0.9-0.2,0.8-0.6c0-0.1-0.2-0.2-0.3-0.3
					C837.2,199,837,198.9,836.8,198.8z"/>
			</g>
			<g>
				<path class="st59" d="M838.4,196.1h-44.1c-1.4,0-2.5-1.1-2.5-2.5v-0.7c0-1.4,1.1-2.5,2.5-2.5h44.1c1.4,0,2.5,1.1,2.5,2.5v0.7
					C841,194.9,839.8,196.1,838.4,196.1z"/>
				<path class="st60" d="M836.8,193.1c-0.5-0.1-1-0.2-1.5-0.2c-10.9-0.3-21.9-0.8-32.8-0.8c-1.7,0-4-0.3-5.7,0.3
					c-2.4,0.9-2.7,2.3,1.5,2.3c8.6,0,17.2-0.2,25.8-0.3c4.3-0.1,8.6,0,12.9-0.2c0.4,0,0.9-0.2,0.8-0.6c0-0.1-0.2-0.2-0.3-0.3
					C837.2,193.3,837,193.2,836.8,193.1z"/>
			</g>
			<g>
				<path class="st59" d="M838.4,190.5h-44.1c-1.4,0-2.5-1.1-2.5-2.6v-0.7c0-1.4,1.1-2.5,2.5-2.5h44.1c1.4,0,2.5,1.1,2.5,2.5v0.7
					C841,189.4,839.8,190.5,838.4,190.5z"/>
				<path class="st60" d="M836.8,187.5c-0.5-0.1-1-0.1-1.5-0.2c-10.9-0.3-21.9-0.8-32.8-0.8c-1.7,0-4-0.3-5.7,0.3
					c-2.4,0.9-2.7,2.3,1.5,2.3c8.6,0,17.2-0.2,25.8-0.3c4.3-0.1,8.6,0,12.9-0.2c0.4,0,0.9-0.2,0.8-0.6c0-0.1-0.2-0.2-0.3-0.3
					C837.2,187.7,837,187.6,836.8,187.5z"/>
			</g>
		</g>
		<g>
			<path class="st43" d="M883.3,189.6v11.7c0,0.3-0.2,0.5-0.5,0.5h-9.2c-0.3,0-0.5-0.2-0.5-0.5v-11.7c0-1.3,0.9-2.4,2.2-2.6v-4.1
				h5.7v4.1C882.2,187.1,883.3,188.2,883.3,189.6z"/>
			<rect x="873" y="190.9" class="st44" width="10.3" height="9.1"/>
			<rect x="874.9" y="191.8" class="st45" width="7.2" height="2.3"/>
			<rect x="874.2" y="195" class="st46" width="8.7" height="0.5"/>
			<rect x="875.2" y="182.9" class="st47" width="5.7" height="4.1"/>
			<path class="st48" d="M879.2,186.9h-4v-4.1h2.7C878.1,184.2,878.5,185.9,879.2,186.9z"/>
		</g>
		<g>
			<path class="st55" d="M894.7,189.6v11.7c0,0.3-0.2,0.5-0.5,0.5H885c-0.3,0-0.5-0.2-0.5-0.5v-11.7c0-1.3,0.9-2.4,2.2-2.6v-4.1h5.7
				v4.1C893.7,187.1,894.7,188.2,894.7,189.6z"/>
			<rect x="884.4" y="190.9" class="st44" width="10.3" height="9.1"/>
			<rect x="886.4" y="191.8" class="st45" width="7.2" height="2.3"/>
			<rect x="885.6" y="195" class="st46" width="8.7" height="0.5"/>
			<rect x="886.6" y="182.9" class="st47" width="5.7" height="4.1"/>
			<path class="st48" d="M890.7,186.9h-4v-4.1h2.7C889.6,184.2,890,185.9,890.7,186.9z"/>
		</g>
	</g>
	<g>
		<path class="st61" d="M894.7,155.5l-2.2,7.2c-0.7,2.1-2.6,3.5-4.8,3.5h-68.6c-2.3,0-4.2-1.5-4.8-3.7l-1.9-7.1H894.7z"/>
		<polygon class="st62" points="849.6,155.5 843.4,166.3 841.4,166.3 847.6,155.5 		"/>
		<polygon class="st62" points="854.9,155.5 848.7,166.3 846.7,166.3 852.9,155.5 		"/>
		<polygon class="st62" points="858.5,155.5 852.3,166.3 850.2,166.3 856.4,155.5 		"/>
		<path class="st62" d="M894.7,155.5l-2.2,7.2c-0.7,2.1-2.6,3.5-4.8,3.5h-31.3l6.2-10.7H894.7z"/>
		<rect x="809.9" y="154.5" class="st63" width="86.3" height="1.1"/>
	</g>
	<g>
		<polygon class="st49" points="782.3,166.1 768.9,166.1 770.4,154.3 781,154.3 		"/>
		<rect x="775.9" y="155.8" class="st50" width="0.6" height="2.2"/>
		<rect x="775.1" y="156.6" class="st50" width="2.2" height="0.6"/>
		<g>
			<g>
				<polygon class="st51" points="779.4,162.4 771.8,162.4 771.2,159.4 780,159.4 				"/>
				<path class="st52" d="M779.9,163.1h-8.6l-0.9-4.3h10.3L779.9,163.1z M772.3,161.8h6.5l0.3-1.7H772L772.3,161.8z"/>
			</g>
			<g>
				<rect x="773.1" y="160.6" class="st53" width="5.2" height="0.8"/>
			</g>
		</g>
		<path class="st54" d="M779.9,166.1h-11l1.5-11.8h4.5C775.5,159.8,778.3,164.1,779.9,166.1z"/>
	</g>
	<g>
		<polygon class="st49" points="796.1,166.1 782.7,166.1 784.2,154.3 794.8,154.3 		"/>
		<rect x="789.7" y="155.8" class="st50" width="0.6" height="2.2"/>
		<rect x="788.9" y="156.6" class="st50" width="2.2" height="0.6"/>
		<g>
			<g>
				<polygon class="st51" points="793.2,162.4 785.6,162.4 785,159.4 793.8,159.4 				"/>
				<path class="st52" d="M793.7,163.1h-8.6l-0.9-4.3h10.3L793.7,163.1z M786.2,161.8h6.5l0.3-1.7h-7.2L786.2,161.8z"/>
			</g>
			<g>
				<rect x="786.9" y="160.6" class="st53" width="5.2" height="0.8"/>
			</g>
		</g>
		<path class="st54" d="M793.8,166.1h-11l1.5-11.8h4.5C789.3,159.8,792.2,164.1,793.8,166.1z"/>
	</g>
	<g>
		<path class="st46" d="M789.3,173.4l-1.9,19.2l-0.9,9.3h-13.8l-0.9-9.3l-1.8-19.2c-0.1-0.9,0.2-1.7,0.6-2.4c0.6-1,1.7-1.6,3-1.6h12
			C787.8,169.4,789.5,171.2,789.3,173.4z"/>
		<polygon class="st64" points="788.1,192.5 786.5,201.8 772.5,201.8 770.9,192.5 		"/>
		<rect x="774.2" y="178.1" class="st65" width="11.3" height="8.6"/>
		<rect x="775.9" y="180.6" class="st66" width="8.2" height="4.1"/>
		<rect x="774.2" y="174" class="st67" width="11.3" height="1.1"/>
		<path class="st54" d="M778.4,192.5c1.5,3.4,3.2,6.6,4.9,9.3h-10.8l-1.6-9.3h1l-1.8-19.2c-0.1-0.9,0.2-1.7,0.6-2.4
			C772.4,177,775.1,185.2,778.4,192.5z"/>
	</g>
	<rect x="778.6" y="170.2" class="st68" width="0.9" height="3"/>
	<rect x="777.5" y="171.4" class="st68" width="3.1" height="0.8"/>
	<g>
		<rect x="851.2" y="117.6" class="st69" width="39.9" height="12.4"/>
		<polygon class="st62" points="891.1,117.6 891.1,130 858.1,130 890.5,117.6 		"/>
		<rect x="869.3" y="121.2" class="st70" width="0.9" height="7.3"/>
		<rect x="866.1" y="124.4" class="st70" width="7.3" height="0.9"/>
	</g>
</g>
<g>
	<polygon class="st39" points="932.3,299.6 900,288.2 658.9,288.2 658.9,395.2 900,395.2 929.5,387 929.5,308.7 932.3,308.7 	"/>
	<rect x="658.9" y="288.2" class="st5" width="241.1" height="107"/>
	<rect x="658.9" y="288.2" class="st5" width="241.1" height="107"/>
	<rect x="658.9" y="288.2" class="st5" width="241.1" height="107"/>
	<rect x="658.9" y="288.2" class="st41" width="241.1" height="2.3"/>
	<rect x="772.3" y="315.7" class="st41" width="127.6" height="2.3"/>
	<rect x="652.3" y="278.5" class="st34" width="252.5" height="9.7"/>
	<g>
		<path class="st71" d="M859.7,278.5h-3.9c0-23.4-6.9-39.8-13-39.8c-3.9,0-8,6.7-10.5,17l-3.8-0.9c3.1-12.7,8.3-19.9,14.3-19.9
			C853.8,234.9,859.7,257.4,859.7,278.5z"/>
	</g>
	<g>
		<path class="st72" d="M842.8,234.9c-0.2,0-0.4,0-0.6,0c10.8,0.9,16.6,22.9,16.6,43.6h0.8C859.7,257.4,853.8,234.9,842.8,234.9z"/>
		<path class="st72" d="M841.6,238.8c-4,0-8.1,6.5-10.7,16.6l1.4,0.3c2.4-9.8,6.2-16.3,10-16.9C842,238.8,841.8,238.8,841.6,238.8z"
			/>
	</g>
	<polygon class="st73" points="863.9,270.6 862.8,278.5 865.1,278.5 865.9,270.6 	"/>
	<polygon class="st74" points="867.4,270.6 865.9,270.6 865.1,278.5 868.2,278.5 	"/>
	<polygon class="st71" points="869.5,270.6 867.4,270.6 868.2,278.5 870.7,278.5 	"/>
	<polygon class="st73" points="846.5,270.6 845.3,278.5 847.6,278.5 848.4,270.6 	"/>
	<polygon class="st74" points="849.9,270.6 848.4,270.6 847.6,278.5 850.7,278.5 	"/>
	<polygon class="st71" points="852,270.6 849.9,270.6 850.7,278.5 853.3,278.5 	"/>
	<rect x="771.4" y="289.3" class="st41" width="1.9" height="105.9"/>
	<rect x="713.7" y="289.3" class="st41" width="1.9" height="105.9"/>
	<rect x="835.7" y="316.9" class="st41" width="1.9" height="78.3"/>
	<circle class="st41" cx="707.1" cy="340.5" r="3.7"/>
	<circle class="st41" cx="722.2" cy="340.5" r="3.7"/>
	<circle class="st41" cx="837.6" cy="302" r="3.7"/>
	<circle class="st41" cx="828.7" cy="359" r="3.7"/>
	<circle class="st41" cx="843.8" cy="359" r="3.7"/>
	<path class="st34" d="M777.1,240.5c-0.6-0.4-2.4-1.6-2.4-1.6c-2.8-1.6-5.3,0.1-6.2,1.2l0.9,0.7c0.1-0.1,1.6-1.9,3.7-1.4v10h1.8
		v-9.1c0.6,0.4,1.2,0.8,1.7,1.1c1.5,1,2.6,1.9,5.5,2.4l0.2-1.1C779.5,242.2,778.5,241.5,777.1,240.5z"/>
	<g>
		<path class="st75" d="M779.4,261.7v16.7h-10.6v-16.7c0-2,1.1-3.8,2.8-4.7v-8.5h4.8v8.5C778.2,257.8,779.4,259.6,779.4,261.7z"/>
		<rect x="771.4" y="267.2" class="st76" width="7" height="1.2"/>
		<rect x="770" y="269.5" class="st76" width="8.8" height="1.2"/>
		<path class="st54" d="M776.4,248.5v1c-1.2,3.5-3,9.7-3.1,14.8c-0.1,5.9,0,11.7,0,14.1h-4.5v-16.7c0-2,1.1-3.8,2.8-4.7v-8.5H776.4z
			"/>
		<rect x="771.3" y="247.4" class="st77" width="5.4" height="8.1"/>
		<path class="st78" d="M775.3,255.5h-4.1v-7.8C772,249.9,773.4,253.4,775.3,255.5z"/>
	</g>
</g>
<g>
	<g>
		<path class="st71" d="M1021.1,394.9c-1,0-1.9-0.7-2-1.8l-6.8-58h-58.2l-6.8,58c-0.1,1.1-1.1,1.9-2.2,1.8c-1.1-0.1-1.9-1.1-1.8-2.2
			l7.2-61.5h65.3l7.3,61.5c0.1,1.1-0.7,2.1-1.8,2.2C1021.3,394.9,1021.2,394.9,1021.1,394.9z"/>
	</g>
	<g>
		<path class="st79" d="M945.9,393.2c-0.1,0.8-0.6,1.4-1.3,1.6c0.2,0.1,0.3,0.1,0.5,0.1c1.1,0.1,2.1-0.7,2.2-1.8l6.8-58h-1.5
			L945.9,393.2z"/>
		<path class="st79" d="M1023.1,392.7l-7.3-61.5h-1.5l7.3,61.5c0.1,0.9-0.4,1.8-1.3,2.1c0.2,0.1,0.5,0.1,0.7,0.1c0.1,0,0.2,0,0.2,0
			C1022.4,394.8,1023.2,393.8,1023.1,392.7z"/>
	</g>
	<g>
		<path class="st71" d="M1000.6,331.6l-3.9-0.8l10.7-55c0.6-3.2-0.1-6.5-2-8.7c-1.2-1.5-2.8-2.3-4.5-2.3h-39.1
			c-1.6,0-3.2,0.8-4.4,2.3c-1.8,2.2-2.6,5.4-2.1,8.6l9.7,55.3l-3.9,0.7l-9.7-55.3c-0.8-4.3,0.3-8.7,2.9-11.8c2-2.4,4.6-3.7,7.5-3.7
			h39.1c2.9,0,5.5,1.3,7.5,3.8c2.6,3.2,3.7,7.7,2.8,12L1000.6,331.6z"/>
	</g>
	<g>
		<path class="st79" d="M957.4,267c1.2-1.5,2.8-2.3,4.4-2.3H960c-1.6,0-3.2,0.8-4.4,2.3c-1.8,2.2-2.6,5.4-2.1,8.6l9.7,55.3l-2.2,0.4
			l0.1,0.3l3.9-0.7l-9.7-55.3C954.8,272.5,955.6,269.2,957.4,267z"/>
		<path class="st79" d="M1008.4,264.5c-2-2.4-4.7-3.8-7.5-3.8h-1.8c2.9,0,5.5,1.3,7.5,3.8c2.6,3.2,3.7,7.7,2.8,12l-10.6,54.7
			l1.7,0.3l10.7-55C1012.1,272.2,1011,267.7,1008.4,264.5z"/>
	</g>
	<path class="st10" d="M1015.3,280.9l-6,21.6c0,0,0,0.1,0,0.1c-0.5,1.6-2,2.8-3.8,2.8h-49.1c-1.8,0-3.4-1.3-3.8-3l-5.2-21.6
		c-0.5-2.2,0.9-4.4,3.1-4.8c0.2,0,0.5-0.1,0.7-0.1h60.3C1014.1,275.9,1016,278.4,1015.3,280.9z"/>
	<path class="st10" d="M1015.3,280.9l-6,21.6c0,0,0,0.1,0,0.1c-0.5,1.6-2,2.8-3.8,2.8h-49.1c-1.8,0-3.4-1.3-3.8-3l-5.2-21.6
		c-0.5-2.2,0.9-4.4,3.1-4.8c0.2,0,0.5-0.1,0.7-0.1h60.3C1014.1,275.9,1016,278.4,1015.3,280.9z"/>
	<path class="st10" d="M1015.3,280.9l-6,21.6c0,0,0,0.1,0,0.1c-0.5,1.6-2,2.8-3.8,2.8h-49.1c-1.8,0-3.4-1.3-3.8-3l-5.2-21.6
		c-0.5-2.2,0.9-4.4,3.1-4.8c0.2,0,0.5-0.1,0.7-0.1h60.3C1014.1,275.9,1016,278.4,1015.3,280.9z"/>
	<path class="st80" d="M956.1,302.4l-5.2-21.6c-0.5-2.2,0.9-4.4,3.1-4.8c0.2,0,0.5-0.1,0.7-0.1h-3.5c-0.2,0-0.5,0-0.7,0.1
		c-2.2,0.4-3.7,2.6-3.1,4.8l5.2,21.6c0.4,1.8,2,3,3.8,3h3.5C958.1,305.4,956.5,304.2,956.1,302.4z"/>
	<path class="st81" d="M1015.3,280.9l-6,21.6c0,0,0,0.1,0,0.1c-11.6-10.1-55.1-26.7-54.9-26.7h57.1
		C1014.1,275.9,1016,278.4,1015.3,280.9z"/>
	<path class="st10" d="M1016.1,331.2h-66.2c-1.4,0-2.6-1.2-2.6-2.6l0,0c0-1.4,1.2-2.6,2.6-2.6h66.2c1.4,0,2.6,1.2,2.6,2.6l0,0
		C1018.7,330,1017.5,331.2,1016.1,331.2z"/>
	<rect x="949.9" y="331.2" class="st82" width="66.6" height="5.3"/>
	<polygon class="st82" points="950.4,395.3 941,395.3 943.4,386.3 948.4,386.3 	"/>
	<polygon class="st82" points="1024.9,395.3 1015.5,395.3 1017.9,386.3 1022.9,386.3 	"/>
</g>
<g>
	<g>
		<path class="st83" d="M1232.3,151.5c0,12.1-17.5,21.9-39,21.9c-7.7,0-14.9-1.3-20.9-3.4c-10.8-3.9-18-10.7-18-18.4
			c0-12.1,17.5-21.9,39-21.9c1.7,0,3.4,0.1,5,0.2C1217.5,131.1,1232.3,140.3,1232.3,151.5z"/>
		<path class="st84" d="M1222,145.7c0,12.1-17.5,21.9-39,21.9c-7.7,0-14.9-1.3-20.9-3.4c-10.8-3.9-18-10.7-18-18.4
			c0-12.1,17.5-21.9,39-21.9c1.7,0,3.4,0.1,5,0.2C1207.2,125.4,1222,134.6,1222,145.7z"/>
		<path class="st85" d="M1222,145.7c0,12.1-17.5,21.9-39,21.9c-7.7,0-14.9-1.3-20.9-3.4c1-1.4,4.3-2.9,10.8-4.7
			c24.5-6.9,20.6-24.4,15.2-35.4C1207.2,125.4,1222,134.6,1222,145.7z"/>
		<path class="st86" d="M1183,124.9c10.3,0,20,2.3,27.3,6.4c6.9,3.9,10.7,9.1,10.7,14.4c0,5.3-3.8,10.5-10.7,14.4
			c-7.3,4.2-16.9,6.4-27.3,6.4c-10.3,0-20-2.3-27.3-6.4c-6.9-3.9-10.7-9.1-10.7-14.4c0-5.3,3.8-10.5,10.7-14.4
			C1163,127.2,1172.7,124.9,1183,124.9L1183,124.9z M1183,122.8c-22.1,0-40,10.3-40,22.9c0,12.7,17.9,22.9,40,22.9s40-10.3,40-22.9
			C1223,133.1,1205.1,122.8,1183,122.8L1183,122.8z"/>
	</g>
	<g>
		<path d="M1182.1,129.6v-2.9h-1.2v-0.3h0.4c0.3,0,0.5-0.1,0.7-0.2c0.1-0.1,0.2-0.3,0.2-0.6l0.3,0v4H1182.1z"/>
		<path d="M1184.2,129.6L1184.2,129.6c0-0.2,0-0.4,0.1-0.6c0.1-0.2,0.2-0.3,0.3-0.5c0.1-0.1,0.2-0.2,0.3-0.3
			c0.2-0.1,0.4-0.3,0.8-0.5c0.1,0,0.1-0.1,0.3-0.1c0.3-0.2,0.5-0.3,0.5-0.3c0.1-0.1,0.2-0.2,0.2-0.3c0-0.1,0.1-0.2,0.1-0.3
			c0-0.3-0.1-0.5-0.3-0.6c-0.2-0.1-0.4-0.2-0.7-0.2c-0.4,0-0.6,0.1-0.8,0.3c-0.2,0.2-0.3,0.4-0.3,0.8h-0.4v0c0-0.4,0.1-0.8,0.4-1
			c0.3-0.2,0.6-0.4,1.1-0.4c0.4,0,0.8,0.1,1,0.3c0.3,0.2,0.4,0.5,0.4,0.9c0,0.3-0.1,0.5-0.2,0.7c-0.1,0.2-0.5,0.4-1,0.7
			c-0.6,0.3-0.9,0.5-1.1,0.7c-0.2,0.1-0.3,0.3-0.3,0.4l2.5,0v0.4H1184.2z"/>
	</g>
	<g>
		<path d="M1179.4,162.6c0.1-0.2,0.3-0.4,0.5-0.5c0.2-0.1,0.5-0.2,0.8-0.2c0.4,0,0.8,0.1,1,0.4c0.3,0.2,0.4,0.6,0.4,1
			c0,0.4-0.1,0.8-0.4,1c-0.3,0.2-0.7,0.4-1.1,0.4c-0.5,0-0.9-0.2-1.2-0.5c-0.3-0.3-0.4-0.8-0.4-1.5c0-0.7,0.1-1.2,0.4-1.6
			c0.3-0.3,0.7-0.5,1.2-0.5c0.4,0,0.7,0.1,1,0.3c0.2,0.2,0.4,0.4,0.4,0.7h-0.4c0-0.2-0.1-0.4-0.3-0.5s-0.4-0.2-0.7-0.2
			c-0.4,0-0.7,0.1-0.9,0.4c-0.2,0.3-0.3,0.7-0.3,1.2V162.6z M1179.5,163.3c0,0.3,0.1,0.5,0.3,0.7c0.2,0.2,0.5,0.3,0.8,0.3
			c0.3,0,0.6-0.1,0.8-0.3c0.2-0.2,0.3-0.4,0.3-0.7c0-0.3-0.1-0.5-0.3-0.7c-0.2-0.2-0.4-0.3-0.8-0.3c-0.4,0-0.6,0.1-0.9,0.3
			C1179.6,162.7,1179.5,163,1179.5,163.3z"/>
	</g>
	<g>
		<path d="M1213.5,146l0.4,0c0,0.3,0.1,0.6,0.3,0.7c0.2,0.2,0.5,0.2,0.8,0.2c0.4,0,0.6-0.1,0.8-0.2c0.2-0.1,0.3-0.4,0.3-0.6
			c0-0.3-0.1-0.5-0.3-0.6c-0.2-0.1-0.5-0.2-1-0.2h-0.1v-0.4h0.1c0.4,0,0.7-0.1,0.9-0.2c0.2-0.1,0.3-0.3,0.3-0.5
			c0-0.2-0.1-0.4-0.2-0.5s-0.4-0.2-0.7-0.2c-0.3,0-0.5,0.1-0.7,0.3c-0.2,0.2-0.3,0.4-0.3,0.7l-0.4,0c0-0.4,0.2-0.8,0.4-1
			c0.2-0.2,0.6-0.3,1-0.3c0.4,0,0.8,0.1,1,0.3c0.2,0.2,0.3,0.4,0.3,0.8c0,0.2-0.1,0.4-0.2,0.6c-0.1,0.2-0.3,0.3-0.5,0.3
			c0.3,0,0.5,0.1,0.6,0.3c0.1,0.2,0.2,0.4,0.2,0.7c0,0.4-0.1,0.7-0.4,0.9c-0.3,0.2-0.6,0.3-1.1,0.3c-0.5,0-0.9-0.1-1.1-0.3
			C1213.6,146.8,1213.5,146.5,1213.5,146z"/>
	</g>
	<g>
		<path d="M1146.7,146.4c0,0.2,0.1,0.4,0.3,0.5c0.2,0.1,0.4,0.2,0.7,0.2c0.4,0,0.7-0.1,0.9-0.4c0.2-0.3,0.3-0.7,0.3-1.2v-0.1
			c-0.1,0.2-0.3,0.4-0.5,0.5c-0.2,0.1-0.5,0.2-0.8,0.2c-0.4,0-0.8-0.1-1-0.4c-0.3-0.2-0.4-0.6-0.4-1c0-0.4,0.1-0.7,0.4-1
			c0.3-0.2,0.7-0.4,1.1-0.4c0.5,0,0.9,0.2,1.2,0.5c0.3,0.3,0.4,0.8,0.4,1.5c0,0.7-0.1,1.2-0.4,1.6c-0.3,0.3-0.7,0.5-1.2,0.5
			c-0.4,0-0.7-0.1-1-0.3c-0.3-0.2-0.4-0.4-0.4-0.7H1146.7z M1146.6,144.6c0,0.3,0.1,0.5,0.3,0.7c0.2,0.2,0.4,0.3,0.8,0.3
			c0.4,0,0.6-0.1,0.9-0.3c0.2-0.2,0.3-0.4,0.3-0.7c0-0.3-0.1-0.5-0.3-0.7c-0.2-0.2-0.5-0.3-0.8-0.3c-0.3,0-0.6,0.1-0.8,0.3
			C1146.7,144.1,1146.6,144.3,1146.6,144.6z"/>
	</g>
	<polygon class="st87" points="1180.7,145.1 1181.7,145.3 1182.7,145.5 1184.2,132.1 	"/>
	<path class="st88" d="M1180.3,145l-0.2,0.6c-0.3,0.6,0.1,1.4,0.7,1.6l0.6,0.2l17.9-12.6L1180.3,145z"/>
	<ellipse class="st89" cx="1181.4" cy="145.9" rx="0.4" ry="0.3"/>
</g>
<g>
	<rect x="223.1" y="80" class="st69" width="85.3" height="121.5"/>
	<rect x="237.3" y="84.9" class="st90" width="56.9" height="4.1"/>
	<polygon class="st90" points="230.7,132.6 238.9,135.9 240.3,120.4 	"/>
	<path class="st90" d="M288.8,163.9c-4-10-20.1-14.1-20.1-14.1s7.8-4.5,4.2-9.9c-3.6-5.4-11.7-5-14.7-7.1c-3-2.1-4-9.4-4-9.4
		l0.5-2.6c0,0,6.5,0.1,7.6-2.8c0.8-2.1-0.8-5.1-1.8-6.8h0l-0.6-2.8c0,0,2.3-3.2,0.7-2.9c-1.7,0.3-4.5-3.5-10.8-6.6
		c-6.3-3.2-11.8-0.5-15,2.3c-3.2,2.8,0,7.9,0,7.9s5,10.7,8.5,17c3.5,6.3,14.4,36.8,10,42.4c-4.4,5.6-9,23.8-9,23.8l41-1
		C285.3,191.4,292.8,173.9,288.8,163.9z"/>
	<path class="st91" d="M287.5,172.2c0,9.8-6.9,16.3-12.6,16.3c-5.7,0-15.8-17.9-15.8-27.7c0-8.6,7.8-8,13.6-7.7c0.5,0,1,0,1.5,0.1
		c0.2,0,0.5,0,0.7,0C280.6,153.2,287.5,162.4,287.5,172.2z"/>
	<path class="st92" d="M287.3,169.6c0,0.3,0,0.7,0,1c0,9.8-6.9,16.3-12.6,16.3c-5.3,0-14.3-15.4-15.6-25.4
		c0.4,9.9,10.2,27.1,15.7,27.1c5.7,0,12.6-6.6,12.6-16.3C287.5,171.3,287.4,170.4,287.3,169.6z"/>
	<g>
		<path class="st93" d="M280.7,159.7c0,1.9-5,3.3-7.2,3.8l-0.2-1c3.4-0.8,6.4-2.2,6.4-2.9c0-0.9-3.8-4.3-6.9-6.6l0,0
			c0.5,0,1,0,1.5,0.1C276.3,154.7,280.7,158.1,280.7,159.7z"/>
	</g>
	<path class="st94" d="M283.3,172.7c-2-2.2-7-5.7-10-4.2c1.8-1.5,4.7,1,6.3-0.3c1.4-1.1-6.8-2.4-9.5-2.7c1.4,0.1,4.3,0.1,5.2-2.3
		c0.8-2.1-1.4-4.6-3.1-5.6c-0.3-0.2-0.7-0.3-1.1-0.5c-1-0.3-2.2-0.4-3.3-0.4l0,0l2.3-0.4l1.8-0.5c0,0-0.7-1.3-2.7-1.2
		c-2,0.2-6.4,2.8-6.7,3c-0.3,0.3-0.3,0.8-0.3,1.2c0,6.8,1.2,12,5.1,17.8c1.2,1.8,2.6,3.7,4.5,4.9c2.6,1.6,8,1.6,9.6-1.6
		C282.3,178.7,285.3,174.9,283.3,172.7z"/>
	<g>
		<path class="st90" d="M305.9,196.2h-80.3V81.9h80.3V196.2z M226.7,195.2h78.3V82.9h-78.3V195.2z"/>
	</g>
	<rect x="275.1" y="132.7" class="st95" width="26.9" height="3.2"/>
	<rect x="258.1" y="91.6" class="st95" width="43.9" height="3.2"/>
	<rect x="258.1" y="96.9" class="st95" width="32.3" height="3.2"/>
	<rect x="283.2" y="144.1" class="st95" width="20.5" height="3.2"/>
</g>
<g>
	<g>
		<g>
			<rect x="322.7" y="78.2" class="st69" width="88.4" height="121.5"/>
		</g>
		<rect x="338.5" y="85.1" class="st90" width="56.9" height="4.1"/>
		<g>
			<path class="st90" d="M407,194.3h-80.3V80H407V194.3z M327.8,193.3H406V81h-78.3V193.3z"/>
		</g>
		<rect x="336.7" y="169.9" class="st95" width="20.5" height="3.2"/>
		<rect x="331" y="160.6" class="st95" width="20.5" height="3.2"/>
		<rect x="382.9" y="165.2" class="st95" width="20.5" height="3.2"/>
		<rect x="380.2" y="95" class="st95" width="20.5" height="3.2"/>
		<rect x="380.2" y="101" class="st95" width="20.5" height="3.2"/>
		<rect x="331" y="95" class="st95" width="20.5" height="3.2"/>
		<rect x="331" y="179.2" class="st95" width="71.5" height="3.2"/>
		<rect x="331.2" y="184.1" class="st95" width="71.5" height="3.2"/>
	</g>
	<g>
		<path class="st96" d="M366.9,119.4c0,0-0.8,0.2-2.1,0.5c-4.6,1.3-15.2,4.9-15.7,12.3c-0.7,9.4,13.2,26.9,13.2,26.9
			s9.3,10.4,12.8,10.7c3.6,0.4,13.2-29.7,13.2-34.3c0-4.6-1.1-11.1-4.1-16C381.2,114.5,366.9,119.4,366.9,119.4z"/>
		<path class="st97" d="M371.7,109.8c0,0-0.8,0.2-2.1,0.5c-4.6,1.3-15.2,4.9-15.7,12.3c-0.7,9.4,13.2,26.9,13.2,26.9
			s9.3,10.4,12.8,10.7c3.6,0.4,13.2-29.7,13.2-34.3c0-4.6-1.1-11.1-4.1-16C385.9,104.9,371.7,109.8,371.7,109.8z"/>
		<g>
			<path class="st98" d="M357,133.9l-4.8-7.7c0.8-6.3,1-8.6,0.1-10.1c-1.1-2-7.4-7.6-11-10.7l2.3-2.7c1,0.9,10,8.5,11.8,11.7
				C357.2,117.6,357.4,130.6,357,133.9z"/>
		</g>
		<rect x="361" y="101.3" class="st99" width="5.8" height="10.7"/>
		<rect x="368.7" y="99.1" class="st99" width="4.8" height="10.2"/>
		<path class="st98" d="M380.2,107.8c-1.3,1.5-3.8,2.6-5.5,3.7c-2,1.3-3.9,2.6-5.9,3.9c-0.9,0.6-1.9,1.2-2.9,1.7
			c-3.9,1.9-8.6,2.4-12.8,3.4c0.8-1.7,1.6-3.4,2.5-5.2c0.7-1.4,1.3-2.8,2-4.2c0.4-0.8,1-3,1.8-3.5c0.3-0.2,0.6-0.2,0.9-0.3
			c2.7-0.5,5.3-1,8-1.5c1-0.2,4.3-1.4,5.2-1C375.5,105.8,378.4,106.5,380.2,107.8z"/>
		<path class="st98" d="M382.4,107.7c1.4,2.8,2.6,5.8,3.5,8.8c0.5,1.5,0.8,3.1,1,4.7c0.1,0.8,0.1,1.6-0.2,2.5
			c-0.3,0.8-0.6,1.5-1.1,2.2c-0.8,1.4-1.8,2.6-2.9,3.8c-0.5,0.6-1.1,1.2-1.7,1.7c-0.3,0.3-0.6,0.5-0.9,0.8c-0.2,0.1-0.3,0.3-0.5,0.4
			c-0.2,0.1-0.4,0.2-0.6,0.2c-3.1,0.9-6.1,1.5-9.3,2.1l4.6-1.3c1.5-0.4,3.1-0.8,4.5-1.3c0.2-0.1,0.4-0.1,0.5-0.2
			c0.1-0.1,0.3-0.2,0.4-0.3c0.3-0.3,0.6-0.5,0.9-0.8c0.6-0.5,1.1-1.1,1.6-1.7c1-1.2,2-2.4,2.8-3.7c0.4-0.6,0.8-1.4,1-2
			c0.2-0.7,0.2-1.5,0.2-2.2c-0.1-1.5-0.5-3.1-0.9-4.6c-0.4-1.5-0.9-3-1.4-4.5C383.5,110.6,382.9,109.1,382.4,107.7z"/>
		<path class="st98" d="M366.6,139.8c0.4,1.9,0.7,3.7,0.8,5.6c0.2,1.9,0.2,3.8,0.1,5.7c-0.1,0.5-0.1,1-0.3,1.4
			c0,0.2-0.2,0.5-0.3,0.7c-0.1,0.3-0.2,0.4-0.3,0.6c-0.3,0.8-0.4,1.8-0.5,2.7c-0.1,0.9,0,1.9,0.1,2.8c0.1,0.9,0.2,1.9,0.3,2.8
			c-0.6-1.8-0.9-3.7-0.9-5.6c0-1,0.1-1.9,0.4-2.9c0.2-0.5,0.4-0.9,0.5-1.3c0.1-0.4,0.2-0.9,0.2-1.3c0.2-1.8,0.1-3.7,0.1-5.6
			c0-0.9-0.1-1.9-0.1-2.8L366.6,139.8z"/>
		<path class="st100" d="M385.8,132.5c-0.1-0.7-0.2-1.3-0.5-1.9c-0.8-2.4-2.1-4.7-3.4-6.9c-1.3-2.2-2.7-4.3-4.1-6.4
			c1.1,1.9,2.2,3.9,3.3,5.8c0,0-0.1,0-0.1-0.1c-0.2-0.1-0.5-0.2-0.7-0.3c-0.5-0.2-1-0.3-1.6-0.5c-1-0.3-2.1-0.5-3.2-0.6
			c-2.1-0.3-4.3-0.5-6.4-0.4c2.1,0.5,4.2,0.8,6.3,1.1l3.2,0.5c0.5,0.1,1,0.2,1.6,0.3c0.4,0.1,0.7,0.1,1.1,0.3
			c0.1,0.2,0.2,0.4,0.3,0.6c0.6,1.1,1.2,2.2,1.7,3.4c0.5,1.1,1.1,2.3,1.4,3.5c0.2,0.6,0.3,1.2,0.4,1.8c0.1,0.5-0.1,1.2-0.2,1.8
			c-0.2,1.2-0.4,2.5-0.7,3.7c-0.5,2.5-1.1,4.9-1.7,7.4l0,0l0,0l0.5,4.3c0.2,1.4,0.3,2.8,0.5,4.3c0-1.4-0.1-2.9-0.2-4.3l-0.3-4.2
			c0.7-2.4,1.3-4.9,1.9-7.3c0.3-1.2,0.6-2.5,0.8-3.7C385.7,133.8,385.9,133.2,385.8,132.5z"/>
	</g>
</g>
<g>
	<rect x="931.2" y="117.5" class="st69" width="85.3" height="123.8"/>
	<rect x="956.4" y="126" class="st95" width="45.3" height="3.2"/>
	<rect x="956.4" y="132.1" class="st95" width="19.3" height="3.2"/>
	<rect x="940.4" y="221.2" class="st95" width="19.3" height="3.2"/>
	<rect x="975.7" y="221.2" class="st95" width="32.8" height="3.2"/>
	<rect x="940" y="227.1" class="st95" width="68.5" height="3.2"/>
	<rect x="939.8" y="231.8" class="st95" width="68.5" height="3.2"/>
	<rect x="980.5" y="132.1" class="st95" width="19.3" height="3.2"/>
	<g>
		<path class="st101" d="M1012,236.7h-75.5V122.3h75.5V236.7z M937.5,235.7h73.5V123.3h-73.5V235.7z"/>
	</g>
	<path class="st101" d="M957.3,143.9c0,0,5.2-5.4,18.3-5.7c13.1-0.4,19.2,9,20.6,9.8c1.5,0.9,3.2,14.2,3.2,14.2s-1.2,6.8,3.2,9.4
		c4.4,2.5,4.4,2.5,4.4,2.5s4.2,3.4-1.5,5.5c-1.7,0.6,0,6.9,0,6.9s0.3,2-0.3,6.6c-0.6,4.6-6.1,4.8-13.1,4.6c-7-0.3-9.8,3-9.5,8.7
		c0.4,5.7,3.7,13.1,3.7,13.1l-27.2-0.7c0,0,2.2-13.1-1.9-22.9c-4.1-9.8-9.4-8.3-10-26C946.7,152,957.3,143.9,957.3,143.9z"/>
	<polygon class="st101" points="997,162.6 1000.6,164.6 1002.7,167.3 999.7,167.3 997,165 	"/>
	<path class="st102" d="M973.8,141.1c0,0-8.5,2.1-13.8,6.3c-5.7,4.5-8.6,11.2-9.4,18.4c-1.3,12.3,16,32,28,20c1.6-1.6,1.7-4.1,2.9-6
		c-0.8,5.8-2.4,14.2,5,14.9c3.9,0.4,7.7-0.2,11.5-0.2l3.7-14.9l-4-4.6l1-3.3l-0.6-9.9l-1.6-6.3c0-4.9-7.1-10.3-11.5-12.1
		C980.7,141.5,973.8,141.1,973.8,141.1z"/>
	<path class="st103" d="M986,147.4c-0.4-0.1-1.2-0.8-2.4-1.6c0,0,0,0,0,0c0-1.5-2.6-2.8-5.7-2.8c-2.5,0-4.6,0.8-5.4,1.9
		c-3.1,0.6-9.1,2.3-9.1,5.8c-1.8-0.6-3.5,0.4-4.8,1.7c-1.3,0-3.1,1.4-4.4,3.7c-1.3,2.2-1.6,4.5-1,5.6c-0.6,1.5-1,2.9-0.9,3.5
		c0,0.1,0,0.1,0,0.2c-0.8,0.6-1.2,1.6-1.1,2.6c-0.2,1.3,0.5,2.7,2,3.6c0,0,0,0,0,0c-0.8,0.4-0.7,2,0.1,3.4c0.6,1.1,1.6,1.8,2.3,1.9
		c0.1,0.2,0.1,0.4,0.1,0.6c0,0.2,0,0.4,0.1,0.7c0,0,0,0.1,0,0.1c0,1.7,1.4,3.2,3.2,3.2c0.4,0,0.8-0.1,1.1-0.2
		c0.9,0.3,1.9,0.5,3.1,0.6c5.7,0.6,10-1.3,10.5-3.2c0.4-1.3,1.7-5.8,2.6-8.5c0.4-1.3,0.7-2.3,0.7-2.3s2.9-2.3,5.9-5
		c3-2.7,3-1.8,3-4.6c0-1.9,0.5-5.8,0.4-8.1C986.5,148.5,986.4,147.5,986,147.4z"/>
	<circle class="st104" cx="996.5" cy="167.9" r="3.7"/>
	<path class="st105" d="M992.9,167.4c0-0.5,0.1-1,0.4-1.4c0.3-0.4,0.8-0.6,1.3-0.8c0.5-0.2,1-0.2,1.5-0.1c0.5,0.1,1,0.2,1.4,0.6
		c-0.4-0.3-0.9-0.4-1.4-0.4c-0.5,0-1-0.1-1.4,0.1c-0.4,0.2-0.9,0.4-1.2,0.7C993.1,166.5,992.9,166.9,992.9,167.4z"/>
	<path class="st105" d="M993,168.4c0.3,0.4,0.6,0.8,1,1.1c0.4,0.3,0.8,0.6,1.3,0.8c0.5,0.2,0.9,0.3,1.4,0.1c0.5-0.2,0.9-0.4,1.3-0.7
		c-0.4,0.4-0.8,0.7-1.3,0.9c-0.5,0.3-1.1,0.1-1.6-0.1c-0.5-0.2-0.9-0.5-1.3-0.8C993.5,169.3,993.2,168.8,993,168.4z"/>
	<g>
		<path class="st105" d="M992.9,167.4c0.1-0.3,0.2-0.5,0.3-0.7c0.1-0.2,0.4-0.4,0.7-0.5c0.5-0.1,1.1-0.1,1.6-0.1l0,0l0,0l0.3,0.4
			l-0.4-0.3l0,0c-0.5,0-1,0.1-1.5,0.2c-0.2,0-0.4,0.2-0.6,0.4C993.2,167,993,167.2,992.9,167.4z"/>
	</g>
	<path class="st106" d="M978.8,156.5c0-1.2-2.1-2.2-4.7-2.2c-2.6,0-4.7,1-4.7,2.2c0,0.6,0.6,1.2,1.5,1.6c0,0.1-0.1,0.2-0.1,0.3
		c0,0.8,1.3,1.5,2.8,1.5s2.8-0.7,2.8-1.5c0,0,0,0,0-0.1C977.9,158,978.8,157.3,978.8,156.5z"/>
	<ellipse class="st106" cx="969.4" cy="158.1" rx="2.8" ry="2.1"/>
	<path class="st105" d="M993.1,166.9c-1.2-0.4-2.7-1-2.9-1.2l-0.2-0.1c-0.8-0.7-2.9-2.6-6.4-3.3c-1.9-0.4-3.3,0.2-4.5,1.2
		c-3.1,0.6-11.6,4.5-11.6,6.7c0,2.4,1.9,4.3,4.3,4.3c2.4,0,4.3-1.9,4.3-4.3c0-0.8,0.8-1.9,1.6-3c1.3-1.3,3.4-3.4,5.5-3
		c2.9,0.6,4.8,2.2,5.4,2.8l0.2,0.2c0.7,0.6,3.8,1.5,4.7,1.8L993.1,166.9z"/>
</g>
<g>
	<polygon class="st39" points="1329.3,275.9 1064,277.2 1070,380.8 1147.8,380.8 1147.8,306.4 1318.9,306.4 1318.9,393.8 
		1313,394.9 1313,396.6 1324.9,395.5 1324.9,306.4 1329.3,306.4 	"/>
	<g>
		<polygon class="st107" points="1311.3,395.3 1305.3,395.3 1305.3,283.2 1070,283.2 1070,394 1064,394 1064,277.2 1311.3,277.2 		
			"/>
	</g>
	<rect x="1054.8" y="272.2" class="st34" width="265.6" height="5.9"/>
	<rect x="1070" y="279.2" class="st34" width="77.9" height="101.7"/>
	<rect x="1070" y="278.2" class="st41" width="77.9" height="2.1"/>
	<rect x="1069.8" y="304.4" class="st41" width="78.1" height="2.1"/>
	<rect x="1069.9" y="362" class="st41" width="78.1" height="2.1"/>
	<rect x="1069.9" y="335.2" class="st41" width="78.1" height="2.1"/>
	<rect x="1199.8" y="218.5" class="st108" width="65" height="49.3"/>
	<path class="st82" d="M1195.3,214v58.3h74V214H1195.3z M1260.3,263.2h-56V223h56V263.2z"/>
	<g>
		<g>
			<rect x="1187.7" y="269.2" class="st108" width="88.7" height="3.1"/>
			<polygon class="st82" points="1276.3,269.2 1187.7,269.2 1187.7,272.2 1276.3,272.2 1276.3,269.2 			"/>
		</g>
	</g>
	<g>
		<g>
			<rect x="1205.7" y="226.5" class="st109" width="53" height="34.7"/>
		</g>
	</g>
	<rect x="1217.7" y="230.5" class="st110" width="24.5" height="1"/>
	<rect x="1207.8" y="236.2" class="st110" width="26.2" height="1"/>
	<rect x="1207.8" y="238.1" class="st110" width="26.2" height="1"/>
	<rect x="1207.8" y="239.7" class="st110" width="35.4" height="1"/>
	<rect x="1207.8" y="241.4" class="st110" width="35.4" height="1"/>
	<rect x="1207.8" y="245.4" class="st110" width="35.4" height="1"/>
	<rect x="1207.8" y="243.4" class="st110" width="13.9" height="1"/>
	<rect x="1207.8" y="247.4" class="st110" width="13.9" height="1"/>
	<g>
		
			<ellipse transform="matrix(0.705 -0.7092 0.7092 0.705 177.8877 863.0254)" class="st111" cx="1126.3" cy="217.7" rx="6.2" ry="3.1"/>
		<polygon class="st112" points="1132.3,211.6 1119.6,224.4 1102.3,201.4 1109.2,194.4 		"/>
		<polygon class="st113" points="1132.3,211.6 1119.6,224.4 1102.3,201.4 1109.2,194.4 		"/>
		<polygon class="st112" points="1127.7,216.3 1132.3,211.6 1109.2,194.4 1105.4,198.3 		"/>
	</g>
	<path class="st112" d="M1081.9,264.7h3.6c-6.3-6.7-10.5-19.3-10.5-34.2c0-22,9.2-39.3,21-39.3c2.8,0,5.5,1,8.1,2.9l0.5-0.6l2.6,1
		l1.4,0.5l-4.5,4.5l-1.4,1.4l-1-3.7l0,0l0.5-0.6c-2-1.5-4.1-2.3-6.2-2.3c-9.8,0-18,16.6-18,36.3c0,15.5,5.2,29.1,12.1,34.2h18.2
		c3.2,0,5.9,2,7,4.8c0.3,0.8,0.5,1.8,0.5,2.8h-41.5c0-3.3,2.1-6.1,5-7.1C1080.2,264.8,1081,264.7,1081.9,264.7z"/>
	<path class="st114" d="M1115.8,272.2h-41.5c0-3.3,2.1-6.1,5-7.1c8.8,1.4,24.6,3.7,35.9,4.3C1115.7,270.3,1115.8,271.3,1115.8,272.2
		z"/>
	<path class="st115" d="M1105.1,264.7h-5.9l0,0c0-0.7,0.6-1.3,1.3-1.3h3.3C1104.5,263.4,1105.1,264,1105.1,264.7L1105.1,264.7z"/>
	<polygon class="st116" points="1108.6,195.1 1104.1,199.6 1102.7,201 1101.7,197.2 1107.1,194.6 	"/>
	<rect x="1089.8" y="285.2" class="st41" width="36.4" height="2.2"/>
	<rect x="1089.8" y="311" class="st41" width="36.4" height="2.2"/>
	<rect x="1089.8" y="340.5" class="st41" width="36.4" height="2.2"/>
	<rect x="1089.8" y="366.7" class="st41" width="36.4" height="2.2"/>
	<polygon class="st117" points="1200,214 1195.3,219.6 1195.3,214.2 1195.6,214 	"/>
	<polygon class="st117" points="1204.6,214 1195.3,225.1 1195.3,221.6 1201.7,214 	"/>
	<polygon class="st117" points="1213.2,214 1205.7,223 1204.3,224.6 1195.3,235.4 1195.3,227 1206.2,214 	"/>
	<rect x="1062.3" y="393.8" class="st118" width="10" height="1.8"/>
	<polygon class="st117" points="1267.3,214 1259.8,223 1256.5,223 1264,214 	"/>
	<polygon class="st117" points="1269.3,214 1269.3,221.9 1260.3,232.7 1260.3,224.3 1269,214 	"/>
</g>
<g>
	<g>
		<rect x="1275.6" y="353.7" class="st119" width="5.4" height="39.5"/>
		<polygon class="st120" points="1281,367.3 1281,373.5 1275.6,382.8 1275.6,376.6 		"/>
		<polygon class="st120" points="1281,374.7 1281,377.8 1275.6,387.1 1275.6,384 		"/>
		<polygon class="st120" points="1281,378.4 1281,381.5 1275.6,390.8 1275.6,387.7 		"/>
		<g>
			<g>
				<path class="st18" d="M1301.9,404.7c0.8-0.2,1.6-0.1,2.3,0.2v-3.4c0-0.7,0.5-1.3,1.1-1.3l0,0c0.6,0,1.1,0.6,1.1,1.3v5.8
					c0.3,0.8,0.4,1.7,0.2,2.6c-0.4,1.8-1.7,3.2-3.3,3.4c-2.5,0.3-4.5-2-4.3-4.8C1299.1,406.6,1300.3,405.1,1301.9,404.7z"/>
				<g>
					<g>
						<path class="st20" d="M1302.8,412.6c1.8,0,3.2-1.6,3.2-3.7c0-2-1.4-3.7-3.2-3.7s-3.2,1.6-3.2,3.7
							C1299.6,410.9,1301,412.6,1302.8,412.6z"/>
						<path class="st19" d="M1306.6,408.5c0-0.1,0-0.2,0-0.3c0,0,0,0,0,0c0,0,0,0,0-0.1c0-0.1,0-0.2-0.1-0.3c0-0.1-0.1-0.3-0.1-0.4
							c0,0,0,0,0,0c-0.4-1.1-1.2-2-2.2-2.5c-0.1,0-0.2-0.1-0.3-0.1c-0.1,0-0.2-0.1-0.3-0.1c0,0,0,0,0,0c0,0,0,0,0,0
							c-0.1,0-0.2,0-0.3,0c0,0,0,0-0.1,0c0,0,0,0-0.1,0c-0.1,0-0.2,0-0.3,0c-0.1,0-0.3,0-0.4,0h0c-0.1,0-0.1,0-0.2,0
							c-0.2,0-0.3,0.1-0.5,0.1c-0.1,0-0.2,0.1-0.2,0.1c-0.1,0-0.1,0-0.2,0.1c0,0-0.1,0-0.1,0.1c-0.1,0.1-0.2,0.1-0.3,0.2
							c-0.1,0.1-0.1,0.1-0.2,0.2c-0.1,0.1-0.3,0.2-0.4,0.4c0,0-0.1,0.1-0.1,0.1c-0.1,0.1-0.1,0.1-0.2,0.2c-0.1,0.1-0.1,0.2-0.2,0.3
							c-0.1,0.1-0.1,0.2-0.2,0.3c-0.1,0.1-0.1,0.2-0.2,0.3c0,0,0,0,0,0c0,0.1-0.1,0.2-0.1,0.3c0,0.1-0.1,0.2-0.1,0.3
							c0,0.1-0.1,0.2-0.1,0.3c0,0,0,0.1,0,0.1c0,0,0,0,0,0c0,0.1,0,0.2,0,0.3c0,0.1,0,0.2,0,0.3c0,0.2,0,0.3,0,0.5
							c0,0.4,0,0.8,0.1,1.2c0,0.1,0,0.1,0.1,0.2c0,0.2,0.1,0.3,0.2,0.5c0,0.1,0.1,0.2,0.1,0.3c0.1,0.1,0.1,0.2,0.2,0.3
							c0,0,0,0.1,0.1,0.1c0,0,0,0,0,0c0,0.1,0.1,0.2,0.2,0.2c0.1,0.1,0.2,0.3,0.3,0.4c0.1,0.1,0.2,0.2,0.3,0.3
							c0.1,0.1,0.2,0.1,0.2,0.2c0.1,0.1,0.1,0.1,0.2,0.1c0.1,0.1,0.2,0.1,0.3,0.2c0.1,0,0.2,0.1,0.3,0.1c0.1,0,0.2,0.1,0.3,0.1
							c0,0,0,0,0,0c0.1,0,0.2,0.1,0.3,0.1c0,0,0,0,0,0c0.1,0,0.2,0,0.2,0c0,0,0.1,0,0.1,0c0.1,0,0.2,0,0.3,0c0.1,0,0.1,0,0.2,0
							c0.1,0,0.2,0,0.3,0c0.1,0,0.1,0,0.2,0c0.1,0,0.2,0,0.3-0.1c0,0,0.1,0,0.1,0c0,0,0,0,0,0c0.2-0.1,0.3-0.1,0.5-0.2
							c0.1,0,0.1-0.1,0.2-0.1c0,0,0,0,0.1,0c0.1,0,0.1-0.1,0.2-0.1c0.1-0.1,0.2-0.1,0.2-0.2c0.1-0.1,0.2-0.1,0.2-0.2
							c0.1-0.1,0.1-0.2,0.2-0.2c0,0,0,0,0,0c0.1-0.1,0.1-0.2,0.2-0.2c0.1-0.1,0.1-0.2,0.2-0.3c0.1-0.1,0.1-0.2,0.1-0.3c0,0,0,0,0,0
							c0-0.1,0.1-0.2,0.1-0.3c0-0.1,0.1-0.2,0.1-0.3c0.1-0.2,0.1-0.4,0.2-0.6c0-0.1,0-0.2,0-0.3c0-0.1,0-0.3,0-0.4
							c0-0.1,0-0.2,0-0.3v0c0,0,0,0,0,0C1306.6,408.8,1306.6,408.6,1306.6,408.5z M1302.8,411.8c-1.4,0-2.6-1.3-2.6-2.9
							c0-1.6,1.1-2.9,2.6-2.9c1.4,0,2.6,1.3,2.6,2.9C1305.4,410.5,1304.2,411.8,1302.8,411.8z"/>
					</g>
					<g>
						<g>
							<ellipse class="st20" cx="1302.9" cy="409.1" rx="0.9" ry="1"/>
							<path class="st19" d="M1302.9,408.1c-0.5,0-0.8,0.4-0.8,1c0,0.5,0.4,1,0.8,1c0.5,0,0.9-0.4,0.9-1
								C1303.7,408.5,1303.3,408.1,1302.9,408.1L1302.9,408.1z"/>
						</g>
					</g>
				</g>
				<ellipse class="st21" cx="1305.2" cy="401.6" rx="0.4" ry="0.4"/>
			</g>
			<g>
				<path class="st18" d="M1256,404.7c-0.8-0.2-1.6-0.1-2.3,0.2v-3.4c0-0.7-0.5-1.3-1.1-1.3l0,0c-0.6,0-1.1,0.6-1.1,1.3v5.8
					c-0.3,0.8-0.4,1.7-0.2,2.6c0.4,1.8,1.7,3.2,3.3,3.4c2.5,0.3,4.5-2,4.3-4.8C1258.8,406.6,1257.6,405.1,1256,404.7z"/>
				<g>
					<g>
						<path class="st20" d="M1255.1,412.6c-1.8,0-3.2-1.6-3.2-3.7c0-2,1.4-3.7,3.2-3.7s3.2,1.6,3.2,3.7
							C1258.3,410.9,1256.9,412.6,1255.1,412.6z"/>
						<path class="st19" d="M1251.3,408.9C1251.3,408.9,1251.3,408.9,1251.3,408.9L1251.3,408.9c0,0.1,0,0.2,0,0.4
							c0,0.1,0,0.3,0,0.4c0,0.1,0,0.2,0,0.3c0,0.2,0.1,0.4,0.2,0.6c0,0.1,0.1,0.2,0.1,0.3c0,0.1,0.1,0.2,0.1,0.3c0,0,0,0,0,0
							c0,0.1,0.1,0.2,0.1,0.3c0.1,0.1,0.1,0.2,0.2,0.3c0.1,0.1,0.1,0.2,0.2,0.2c0,0,0,0,0,0c0.1,0.1,0.1,0.2,0.2,0.2
							c0.1,0.1,0.1,0.1,0.2,0.2c0.1,0.1,0.2,0.1,0.2,0.2c0.1,0,0.1,0.1,0.2,0.1c0,0,0,0,0.1,0c0.1,0,0.1,0.1,0.2,0.1
							c0.2,0.1,0.3,0.2,0.5,0.2c0,0,0,0,0,0c0,0,0.1,0,0.1,0c0.1,0,0.2,0,0.3,0.1c0.1,0,0.1,0,0.2,0c0.1,0,0.2,0,0.3,0
							c0.1,0,0.1,0,0.2,0c0.1,0,0.2,0,0.3,0c0,0,0.1,0,0.1,0c0.1,0,0.2,0,0.2,0c0,0,0,0,0,0c0.1,0,0.2,0,0.3-0.1c0,0,0,0,0,0
							c0.1,0,0.2-0.1,0.3-0.1c0.1,0,0.2-0.1,0.3-0.1c0.1-0.1,0.2-0.1,0.3-0.2c0.1,0,0.1-0.1,0.2-0.1c0.1-0.1,0.2-0.1,0.2-0.2
							c0.1-0.1,0.2-0.2,0.3-0.3c0.1-0.1,0.2-0.2,0.3-0.4c0.1-0.1,0.1-0.2,0.2-0.2c0,0,0,0,0,0c0,0,0-0.1,0.1-0.1
							c0.1-0.1,0.1-0.2,0.2-0.3c0-0.1,0.1-0.2,0.1-0.3c0.1-0.2,0.1-0.3,0.2-0.5c0-0.1,0-0.1,0.1-0.2c0.1-0.4,0.1-0.8,0.1-1.2
							c0-0.2,0-0.3,0-0.5c0-0.1,0-0.2,0-0.3c0-0.1,0-0.2,0-0.3c0,0,0,0,0,0c0,0,0-0.1,0-0.1c0-0.1,0-0.2-0.1-0.3
							c0-0.1-0.1-0.2-0.1-0.3c0-0.1-0.1-0.2-0.1-0.3c0,0,0,0,0,0c0-0.1-0.1-0.2-0.2-0.3c0-0.1-0.1-0.2-0.2-0.3
							c-0.1-0.1-0.1-0.2-0.2-0.3c0-0.1-0.1-0.1-0.2-0.2c0,0-0.1-0.1-0.1-0.1c-0.1-0.1-0.3-0.2-0.4-0.4c-0.1,0-0.1-0.1-0.2-0.2
							c-0.1-0.1-0.2-0.1-0.3-0.2c0,0-0.1-0.1-0.1-0.1c-0.1,0-0.1-0.1-0.2-0.1c-0.1,0-0.2-0.1-0.2-0.1c-0.2-0.1-0.3-0.1-0.5-0.1
							c-0.1,0-0.1,0-0.2,0h0c-0.1,0-0.3,0-0.4,0c-0.1,0-0.2,0-0.3,0c0,0,0,0-0.1,0c0,0,0,0-0.1,0c-0.1,0-0.2,0-0.3,0c0,0,0,0,0,0
							c0,0,0,0,0,0c-0.1,0-0.2,0.1-0.3,0.1c-0.1,0-0.2,0.1-0.3,0.1c-1,0.4-1.8,1.3-2.2,2.5c0,0,0,0,0,0c0,0.1-0.1,0.3-0.1,0.4
							c0,0.1,0,0.2-0.1,0.3c0,0,0,0,0,0.1c0,0,0,0,0,0c0,0.1,0,0.2,0,0.3C1251.3,408.6,1251.3,408.8,1251.3,408.9z M1252.6,408.9
							c0-1.6,1.1-2.9,2.6-2.9c1.4,0,2.6,1.3,2.6,2.9c0,1.6-1.1,2.9-2.6,2.9C1253.7,411.8,1252.6,410.5,1252.6,408.9z"/>
					</g>
					<g>
						<g>
							<ellipse class="st20" cx="1255" cy="409.1" rx="0.9" ry="1"/>
							<path class="st19" d="M1255,408.1c-0.5,0-0.9,0.4-0.9,1c0,0.5,0.4,1,0.9,1s0.9-0.4,0.9-1
								C1255.9,408.5,1255.5,408.1,1255,408.1L1255,408.1z"/>
						</g>
					</g>
				</g>
				<ellipse class="st21" cx="1252.7" cy="401.6" rx="0.4" ry="0.4"/>
			</g>
			<g>
				<path class="st18" d="M1279.6,405.8v-3.4c0-0.7-0.5-1.3-1.1-1.3l0,0c-0.6,0-1.1,0.6-1.1,1.3v5.8
					C1277.2,409,1280.3,405.5,1279.6,405.8z"/>
				<path class="st101" d="M1278.6,415.1L1278.6,415.1c-1,0-1.8-0.8-1.8-1.8v-6.2c0-1,0.8-1.8,1.8-1.8l0,0c1,0,1.8,0.8,1.8,1.8v6.2
					C1280.5,414.2,1279.6,415.1,1278.6,415.1z"/>
				<ellipse class="st21" cx="1278.6" cy="402.5" rx="0.4" ry="0.4"/>
			</g>
		</g>
	</g>
	<path class="st121" d="M1264.5,335.6v4.1c0,2.8,2.6,5,5.8,5h0.6v4.7c0,1.2,1.1,2.1,2.4,2.1h9.5c1.3,0,2.4-0.9,2.4-2.1v-4.9
		c2.3-0.6,4-2.5,4-4.8v-4.1H1264.5z"/>
	<g>
		<path class="st121" d="M1269.3,339.7v-12c-1.1,0-1.7,0.3-1.7,0.3c0.1,0,1.7-0.8,5.7-5c1.8-2.1,0.6-13.3-2.6-22.7l11.4-3.8
			c2,6,8,26.4-0.1,34.8C1274.8,338.7,1271.5,339.7,1269.3,339.7z"/>
	</g>
	<path class="st70" d="M1305.3,318.6h-52l4.6-69c0.4-5.9,5.3-10.5,11.3-10.5h24.8c6.2,0,11.3,5.1,11.3,11.3V318.6z"/>
	<path class="st70" d="M1289.3,337.3h-68.4v-3.9c0-4.7,3.8-8.5,8.5-8.5h51.5c4.7,0,8.5,3.8,8.5,8.5V337.3z"/>
	<rect x="1275" y="350.6" class="st121" width="6.9" height="9"/>
	<g>
		<path class="st121" d="M1288.6,353.6c0,0-1.5-0.8-2.8-1.3c-1.4-0.6-2.9-1.4-3-1.5l1-1.8c0,0,1.5,0.8,2.8,1.4
			c1.4,0.6,2.9,1.4,2.9,1.4L1288.6,353.6z"/>
	</g>
	<path class="st122" d="M1296.2,353.9h-7.1c-0.7,0-1.3-0.6-1.3-1.3l0,0c0-0.7,0.6-1.3,1.3-1.3h7.1c0.7,0,1.3,0.6,1.3,1.3l0,0
		C1297.4,353.3,1296.9,353.9,1296.2,353.9z"/>
	<g>
		<polygon class="st14" points="1282,393.8 1274.9,393.8 1274.9,387.8 1274.9,383 1282,383 		"/>
		<polygon class="st14" points="1249,401 1274.9,387.8 1274.9,393.8 1256.3,401 1256.3,402.3 1249,402.3 		"/>
		<polygon class="st14" points="1307.9,401 1282,387.8 1282,393.8 1300.5,401 1300.5,402.3 1307.9,402.3 		"/>
		<polygon class="st14" points="1276.1,387.8 1276.1,402.3 1274.3,402.3 1274.3,403.3 1282,403.3 1282,402.3 1280.3,402.3 
			1280.8,387.8 		"/>
	</g>
	<g>
		<path class="st101" d="M1227.1,329.5l-5.4-16.4c-1.2-3.5-0.6-7.3,1.5-10.4c2.1-3.1,5.5-5,9.2-5.1l44.3-2.3l0.3,6l-44.3,2.3
			c-1.8,0.1-3.5,1-4.5,2.5c-1,1.5-1.3,3.4-0.7,5.2l5.4,16.4L1227.1,329.5z"/>
	</g>
	<path class="st123" d="M1305.3,250.4v68.2h-52l4.6-69c0.4-5.7,4.9-10.1,10.5-10.5c0.2,0,0.5,0,0.7,0h24.8
		C1300.3,239.1,1305.3,244.2,1305.3,250.4z"/>
	<path class="st124" d="M1305.3,306.6v12h-52l4.6-69c0.4-5.7,4.9-10.1,10.5-10.5C1276.4,256.5,1289,281.6,1305.3,306.6z"/>
	<path class="st125" d="M1303.5,337.3h-68.4v-3.9c0-4.7,3.8-8.5,8.5-8.5h51.5c4.7,0,8.5,3.8,8.5,8.5V337.3z"/>
	<path class="st125" d="M1300.3,239.1h-6.2c6.2,0,11.3,5.1,11.3,11.3v68.2h6.2v-68.2C1311.5,244.2,1306.5,239.1,1300.3,239.1z"/>
	<path class="st123" d="M1289.3,337.3h-68.4v-3.9c0-4.7,3.8-8.5,8.5-8.5h51.5c4.7,0,8.5,3.8,8.5,8.5V337.3z"/>
	<path class="st101" d="M1318.4,297.8l-39.8,2.1c-3.7,0.2-7.3,2-9.5,5c-2.2,3.1-2.8,7-1.6,10.6l8.1,21.8l31.4,0.1l14.8-35.7
		C1322.2,299.6,1320.5,297.7,1318.4,297.8z M1303.7,332.3h-22.9l-7.5-18.7c-0.6-1.8-0.3-3.6,0.7-5.2c1-1.5,2.7-2.4,4.5-2.5l37.3-1.9
		L1303.7,332.3z"/>
	<rect x="1303.5" y="394.9" class="st118" width="9.5" height="1.6"/>
</g>
</svg>
