<?xml version="1.0" encoding="utf-8"?>
<!-- Generator: Adobe Illustrator 19.0.0, SVG Export Plug-In . SVG Version: 6.00 Build 0)  -->
<svg version="1.1" id="Layer_1" xmlns="http://www.w3.org/2000/svg" xmlns:xlink="http://www.w3.org/1999/xlink" x="0px" y="0px"
	 viewBox="0 0 900 900" style="enable-background:new 0 0 900 900;" xml:space="preserve">
<style type="text/css">
	.st0{opacity:0.5;fill:#FFFFFF;}
	.st1{opacity:0.5;}
	.st2{fill:#FFFFFF;}
	.st3{fill:#C4C443;}
	.st4{fill:#807E89;}
	.st5{fill:#EAE3E1;}
	.st6{opacity:0.4;fill:#382C36;}
	.st7{fill:#F4F5F7;}
	.st8{fill:#CAE2EF;}
	.st9{opacity:0.1;fill:#382C36;}
	.st10{fill:#BDCAD3;}
	.st11{fill:#CACAC8;}
	.st12{fill:#F99770;}
	.st13{fill:#4B7CA4;}
	.st14{fill:#4B7CA4;stroke:#4B7CA4;stroke-width:0.8551;stroke-miterlimit:10;}
	.st15{fill:#EBF2FA;}
	.st16{fill:#D4D4D4;}
	.st17{fill:#C7C7C7;}
	.st18{opacity:0.1;fill:#7466A4;}
	.st19{fill:#435A5E;}
	.st20{opacity:0.6;fill:#435A5E;}
	.st21{opacity:0.8;}
	.st22{opacity:0.5;fill:#ADA17C;}
	.st23{fill:#303A3A;}
	.st24{fill:#D1CAC8;}
	.st25{fill:#A4B1BA;}
	.st26{fill:#E6E6E6;}
	.st27{opacity:0.1;}
	.st28{fill:#7466A4;}
	.st29{fill:#DCDEE2;}
	.st30{fill:#00A200;}
	.st31{opacity:0.2;fill:#435A5E;}
	.st32{opacity:0.4;}
	.st33{fill:#C6BA95;}
	.st34{fill:#008035;}
	.st35{fill:#00B535;}
	.st36{opacity:0.4;fill:#FFFFFF;}
	.st37{opacity:0.3;fill:#382C36;}
	.st38{fill:#4C4949;}
	.st39{opacity:0.95;fill:#FFFFFF;}
</style>
<g>
	<g>
		<rect x="133" y="752.8" class="st0" width="9.7" height="2"/>
		<rect x="113.7" y="752.8" class="st0" width="9.7" height="2"/>
	</g>
	<g>
		<rect x="133" y="816.6" class="st0" width="9.7" height="2"/>
		<rect x="113.7" y="816.6" class="st0" width="9.7" height="2"/>
	</g>
</g>
<g>
	<g>
		<rect x="776.8" y="752.8" class="st0" width="9.7" height="2"/>
		<rect x="757.5" y="752.8" class="st0" width="9.7" height="2"/>
	</g>
	<g>
		<rect x="776.8" y="816.6" class="st0" width="9.7" height="2"/>
		<rect x="757.5" y="816.6" class="st0" width="9.7" height="2"/>
	</g>
</g>
<g class="st1">
	<rect x="744.5" y="742" class="st2" width="9.7" height="2"/>
	<rect x="725.2" y="742" class="st2" width="9.7" height="2"/>
	<rect x="705.9" y="742" class="st2" width="9.7" height="2"/>
	<rect x="686.6" y="742" class="st2" width="9.7" height="2"/>
	<rect x="667.3" y="742" class="st2" width="9.7" height="2"/>
	<rect x="647.9" y="742" class="st2" width="9.7" height="2"/>
	<rect x="628.6" y="742" class="st2" width="9.7" height="2"/>
	<rect x="609.3" y="742" class="st2" width="9.7" height="2"/>
	<rect x="590" y="742" class="st2" width="9.7" height="2"/>
	<rect x="570.7" y="742" class="st2" width="9.7" height="2"/>
	<rect x="551.4" y="742" class="st2" width="9.7" height="2"/>
	<rect x="532.1" y="742" class="st2" width="9.7" height="2"/>
	<rect x="512.8" y="742" class="st2" width="9.7" height="2"/>
	<rect x="493.4" y="742" class="st2" width="9.7" height="2"/>
	<rect x="474.1" y="742" class="st2" width="9.7" height="2"/>
	<rect x="454.8" y="742" class="st2" width="9.7" height="2"/>
	<rect x="435.5" y="742" class="st2" width="9.7" height="2"/>
	<rect x="416.2" y="742" class="st2" width="9.7" height="2"/>
	<rect x="396.9" y="742" class="st2" width="9.7" height="2"/>
	<rect x="377.6" y="742" class="st2" width="9.7" height="2"/>
	<rect x="358.2" y="742" class="st2" width="9.7" height="2"/>
	<rect x="338.9" y="742" class="st2" width="9.7" height="2"/>
	<rect x="319.6" y="742" class="st2" width="9.7" height="2"/>
	<rect x="300.3" y="742" class="st2" width="9.7" height="2"/>
	<rect x="281" y="742" class="st2" width="9.7" height="2"/>
	<rect x="261.7" y="742" class="st2" width="9.7" height="2"/>
	<rect x="242.4" y="742" class="st2" width="9.7" height="2"/>
	<rect x="223.1" y="742" class="st2" width="9.7" height="2"/>
	<rect x="203.7" y="742" class="st2" width="9.7" height="2"/>
	<rect x="184.4" y="742" class="st2" width="9.7" height="2"/>
	<rect x="165.1" y="742" class="st2" width="9.7" height="2"/>
	<rect x="145.8" y="742" class="st2" width="9.7" height="2"/>
</g>
<g>
	<polygon class="st3" points="779.9,495.6 503.8,309.8 133.1,526.1 409.1,711.9 	"/>
	<g>
		<polygon class="st4" points="389.9,634.4 334.9,666.8 192.2,571.3 246.7,538.6 197.1,505.5 465.4,344.7 712.3,512.6 444.1,670.6 
					"/>
		<path class="st5" d="M465.3,349.7l239.1,162.6L444.2,665.6l-54.2-36.2l-55,32.4l-134.9-90.2l54.5-32.7l-49.6-33.1L465.3,349.7
			L465.3,349.7z M465.5,339.6l-4.7,2.8l-260.1,156l-11.6,6.9l11.2,7.5l38.3,25.6l-43,25.8l-11.6,6.9l11.2,7.5l134.9,90.2l4.5,3
			l4.6-2.7l50.4-29.7l49.7,33.2l4.5,3l4.6-2.7l260.1-153.2l11.6-6.8l-11.2-7.6L470.1,342.7L465.5,339.6L465.5,339.6z"/>
	</g>
	<polygon class="st6" points="460.7,638.6 546.1,630.7 753.4,510.1 675,461 550,505.4 495.7,525.7 482.6,546.3 461.1,590.3 	"/>
	<g>
		<polygon class="st7" points="460.7,638 247,496.3 247,179.6 460.7,321.3 		"/>
		<polygon class="st8" points="460.7,638.2 247,496.5 247,474.9 460.7,616.6 		"/>
		<polygon class="st9" points="421.7,612.3 422.6,459.6 443.4,508 443.4,538.4 427.3,528.4 427.4,616.2 		"/>
		<polygon class="st10" points="460.7,331.9 247,189.9 247,179.6 460.7,321.3 		"/>
		<polygon class="st10" points="460.7,638.1 676,512.6 676,195.9 460.7,321.4 		"/>
		<polygon class="st11" points="414.5,617.9 422.3,612.2 422.3,492.8 414.5,496.7 		"/>
		<polygon class="st12" points="676,195.9 462.4,54.2 247.1,179.6 460.8,321.3 		"/>
		<g>
			<polygon class="st8" points="460.7,365.4 247,223.7 247,202.1 460.7,343.8 			"/>
			<polygon class="st13" points="460.7,365.5 676,240 676,218.3 460.7,343.8 			"/>
			<polygon class="st14" points="460.7,638.2 676,512.7 676,491.1 460.7,616.6 			"/>
		</g>
		<polygon class="st15" points="681.4,195.9 681.4,185.7 462.6,51 241.8,169.5 241.8,179.6 460.5,324.5 		"/>
		<polygon class="st11" points="462.6,51 460.5,317.1 460.3,327.2 460.5,324.5 681.4,195.9 681.4,185.7 		"/>
		<polygon class="st2" points="681.4,185.7 462.6,40.8 241.8,169.5 460.5,314.4 		"/>
		<polygon class="st16" points="663.5,185.7 461.8,51.6 259.7,169.5 461.4,303.6 		"/>
		<polygon class="st17" points="461.8,51.6 259.7,169.5 273,177.9 461.8,67.6 		"/>
		<polygon class="st7" points="461.8,67.6 650.2,193.3 663.5,185.7 461.8,51.6 		"/>
		<polygon class="st18" points="282.3,519.5 282.3,366.8 303.2,415.2 303.2,445.6 287.1,435.6 287.2,523.4 		"/>
	</g>
	<g>
		<g>
			<g>
				<polygon class="st19" points="295.1,526 295.1,408.8 398.9,477.2 398.9,594.4 				"/>
				<g>
					<path class="st5" d="M297.3,413l99.3,65.4v111.8l-99.3-65.5V413L297.3,413z M292.8,404.7v8.4v111.7v2.4l2,1.3l99.3,65.5l7,4.6
						v-8.4V478.5V476l-2-1.3l-99.3-65.4L292.8,404.7L292.8,404.7z"/>
				</g>
			</g>
		</g>
	</g>
	<polygon class="st20" points="367.8,568.3 369.7,517 323.3,499.7 323.3,538.9 	"/>
	<polygon class="st9" points="468.3,299.7 278.6,173.8 259.6,169.4 461.4,303.7 	"/>
	<g>
		<g>
			<g>
				<g class="st21">
					<path class="st10" d="M257.6,301.4l188.7,124.5v22.3L257.6,324.7V301.4L257.6,301.4z M253.7,294v7.4l2.6,27.1l197.4,128.7
						v-80.9l-2.7-6.1l-191.2-72.1L253.7,294L253.7,294z"/>
				</g>
			</g>
		</g>
		<g>
			<g>
				<g>
					<polygon class="st19" points="255.4,322.4 255.4,244.1 448.5,371.6 448.5,448.9 					"/>
					<g>
						<path class="st5" d="M257.6,248.3l188.7,124.5v72L257.6,321.2V248.3L257.6,248.3z M253.1,239.9v8.4v72.9v2.4l2,1.3
							l188.7,123.5l7,4.6v-8.3v-72v-2.4l-2-1.3L260.1,244.5L253.1,239.9L253.1,239.9z"/>
					</g>
				</g>
			</g>
		</g>
		<g>
			<polygon class="st5" points="267.7,330.6 255.3,322.2 255.3,244.8 267.7,253.2 			"/>
			<polygon class="st5" points="327.7,370 315.3,361.6 315.3,284.2 327.7,292.6 			"/>
			<polygon class="st5" points="387.7,409.3 375.3,400.9 375.3,323.5 387.7,331.9 			"/>
			<polygon class="st5" points="447.8,448.7 435.4,440.3 435.4,362.9 447.8,371.3 			"/>
		</g>
		<polygon class="st10" points="280.1,321.2 267.7,327.8 267.7,255 280.1,263.2 		"/>
		<polygon class="st2" points="280.1,321.2 267.7,327.8 315.3,359.1 315.3,343.7 		"/>
		<polygon class="st10" points="340.1,360.7 327.7,367.4 327.7,294.5 340.1,302.7 		"/>
		<polygon class="st2" points="340.1,360.7 327.7,367.4 375.3,398.6 375.3,383.2 		"/>
		<polygon class="st10" points="400.1,400.3 387.7,407 387.7,334.1 400.1,342.3 		"/>
		<polygon class="st2" points="400.1,400.3 387.7,407 435.3,438.3 435.3,422.8 		"/>
		<g>
			<polygon class="st5" points="316.2,542.8 311.7,539.9 311.7,481.2 316.2,481.2 			"/>
			<polygon class="st5" points="379.3,581.9 374.8,579 374.8,510.8 379.3,510.8 			"/>
			<polygon class="st5" points="323.3,538.9 318.8,536 318.8,467.8 323.3,467.8 			"/>
			<polygon class="st5" points="371.8,570.8 367.3,567.9 367.3,499.7 371.8,499.7 			"/>
			<polygon class="st5" points="298.5,332.9 294,330 294,271.3 298.5,271.3 			"/>
			<polygon class="st5" points="358.5,372.9 354,370 354,311.3 358.5,311.3 			"/>
			<polygon class="st5" points="419.3,412.8 414.8,409.9 414.8,351.2 419.3,351.2 			"/>
		</g>
	</g>
	<g>
		<g>
			<g class="st21">
				<path class="st22" d="M663.7,319v23.4L475.1,449.6v-22.3L663.7,319L663.7,319z M667.7,311.9l-6.2,3.6L472.9,423.8l-1.8,1v2.1
					v22.3v7.3l6.1-3.5l188.7-107.2l1.8-1v-2.2v-23.4V311.9L667.7,311.9z"/>
			</g>
		</g>
		<g>
			<polygon class="st23" points="472.8,372.8 666,261.6 666,340.3 472.8,450.1 			"/>
			<path class="st24" d="M663.7,265.6v73.3L475.1,446.1v-72L663.7,265.6L663.7,265.6z M668.2,257.5l-7,4.1L472.6,370.2l-2,1.2v2.4
				v72v8.3l7-3.9l188.7-107.2l2-1.2v-2.5V266V257.5L668.2,257.5z"/>
		</g>
		<g>
			<polygon class="st24" points="653.7,347.5 666.1,340.1 666.1,262.3 653.7,269.7 			"/>
			<polygon class="st24" points="593.6,381.8 606,374.4 606,296.7 593.6,304.1 			"/>
			<polygon class="st24" points="533.6,416 546,408.6 546,331 533.6,338.4 			"/>
			<polygon class="st24" points="473.6,450 486,442.7 486,365.2 473.6,372.6 			"/>
		</g>
		<polygon class="st25" points="641.3,337 653.7,344.7 653.7,271.4 641.3,278.5 		"/>
		<polygon class="st26" points="641.3,337 653.7,344.7 606,372 606,356.5 		"/>
		<polygon class="st25" points="581.2,371.4 593.6,379.2 593.6,305.9 581.1,313.2 		"/>
		<polygon class="st26" points="581.2,371.4 593.6,379.2 546,406.3 546,390.9 		"/>
		<polygon class="st25" points="521.2,405.8 533.7,413.6 533.7,340.5 521.2,347.7 		"/>
		<polygon class="st26" points="521.2,405.8 533.7,413.6 486,440.6 486,425.2 		"/>
		<g>
			<polygon class="st24" points="622.9,347.1 627.4,344.6 627.4,285.7 622.9,285.3 			"/>
			<polygon class="st24" points="562.9,382 567.4,379.5 567.4,320.6 562.9,320.2 			"/>
			<polygon class="st24" points="502.1,416.6 506.6,414.1 506.6,355.4 502.1,355 			"/>
		</g>
	</g>
	<polygon class="st7" points="414.5,617.9 410.5,615.4 410.5,500.7 414.5,498.5 	"/>
	<g class="st27">
		<path class="st28" d="M414.5,525v-28.3l2.6-1.3l-0.6-2.6l-7.1,0.9c0,0-10.8,4-12.3,4.3c-1.4,0.3-14.8,6.6-14.8,6.6l26.5,12.5v5.4
			L414.5,525z"/>
	</g>
	<g>
		<g>
			<g class="st21">
				<path class="st22" d="M663.7,435.1v23.4L475.1,565.7v-22.3L663.7,435.1L663.7,435.1z M667.7,428l-6.2,3.6L472.9,539.9l-1.8,1
					v2.1v22.3v7.3l6.1-3.5L665.9,462l1.8-1v-2.2v-23.4V428L667.7,428z"/>
			</g>
		</g>
		<g>
			<polygon class="st23" points="472.8,488.9 666,377.7 666,456.4 472.8,566.2 			"/>
			<path class="st24" d="M663.7,381.7V455L475.1,562.2v-72L663.7,381.7L663.7,381.7z M668.2,373.6l-7,4.1L472.6,486.3l-2,1.2v2.4v72
				v8.3l7-3.9L666.2,459l2-1.2v-2.5v-73.3V373.6L668.2,373.6z"/>
		</g>
		<g>
			<polygon class="st24" points="653.7,463.6 666.1,456.2 666.1,378.3 653.7,385.8 			"/>
			<polygon class="st24" points="593.6,497.9 606,490.5 606,412.8 593.6,420.2 			"/>
			<polygon class="st24" points="533.6,532.1 546,524.7 546,447.1 533.6,454.5 			"/>
			<polygon class="st24" points="473.6,566.1 486,558.8 486,481.3 473.6,488.7 			"/>
		</g>
		<polygon class="st25" points="641.3,453.1 653.7,460.8 653.7,387.5 641.3,394.8 		"/>
		<polygon class="st26" points="641.3,453.1 653.7,460.8 606,488.1 606,472.6 		"/>
		<polygon class="st25" points="581.2,487.5 593.6,495.3 593.6,422.1 581.2,429.3 		"/>
		<polygon class="st26" points="581.2,487.5 593.6,495.3 546,522.4 546,507 		"/>
		<polygon class="st25" points="521.2,521.9 533.7,529.7 533.7,456.7 521.2,463.9 		"/>
		<polygon class="st26" points="521.2,521.9 533.7,529.7 486,556.7 486,541.3 		"/>
		<g>
			<polygon class="st24" points="622.9,463.2 627.4,460.7 627.4,401.8 622.9,401.4 			"/>
			<polygon class="st24" points="562.9,498.1 567.4,495.6 567.4,436.7 562.9,436.3 			"/>
			<polygon class="st24" points="502.1,532.7 506.6,530.2 506.6,471.5 502.1,471.1 			"/>
		</g>
	</g>
	<polygon class="st11" points="275.1,524.2 282.9,520.3 282.9,400.8 275.1,404.8 	"/>
	<polygon class="st7" points="275.1,524.2 271.1,521.7 271.1,408.8 275.1,406.5 	"/>
	<g>
		<polygon class="st11" points="422.6,494 422.6,466.8 220.8,433.5 362.5,528 		"/>
		<polygon class="st7" points="362.6,488.9 220.8,406.4 220.8,433.5 362.5,528 		"/>
		<polygon class="st29" points="422.6,466.8 279.1,371.5 219.1,405.5 362.5,500.9 		"/>
	</g>
	<g>
		<polygon class="st15" points="424.3,465.8 424.3,459.9 279.9,374.8 219,400.1 219,406 363.3,501.2 		"/>
		<polygon class="st11" points="279.9,375.6 363.3,496.2 363.1,502 363.3,502.1 424.3,466.7 424.3,460.8 		"/>
		<polygon class="st2" points="424.3,459.9 279.9,364.6 219,400.1 363.3,495.4 		"/>
		<polygon class="st16" points="406.4,459.9 279,375.4 236.9,400.1 364.2,484.6 		"/>
		<polygon class="st17" points="279,375.4 236.9,400.1 242.7,404.1 279,382.8 		"/>
		<polygon class="st7" points="279,382.8 399.6,463.7 406.4,459.9 279,375.4 		"/>
	</g>
	<g>
		<path class="st30" d="M244.8,437.6l-0.7,3.5l-2.4-1.6l3.2-13.4l3,2l3,17.6l-2.4-1.6l-0.7-4.5L244.8,437.6z M247.4,436.7l-0.6-3.7
			c-0.2-1-0.3-2.3-0.5-3.3l0,0c-0.2,0.8-0.3,1.9-0.5,2.7l-0.6,2.9L247.4,436.7z"/>
		<path class="st30" d="M261.7,447.1c0-1.9,0-4.1,0-6.4l0,0c-0.3,1.7-0.8,3.7-1.2,5.2l-1.3,5.2l-1.8-1.2l-1-6.7
			c-0.3-2-0.6-4.5-0.9-6.6l0,0c-0.1,2-0.1,4.4-0.2,6.3l-0.2,5.7l-2.1-1.4l0.8-15l3,2.1l0.9,5.8c0.3,2,0.6,4.1,0.8,6.1l0,0
			c0.3-1.6,0.7-3.4,1-4.9l1.1-4.4l3,2l0.4,15.7l-2.2-1.5L261.7,447.1z"/>
		<path class="st30" d="M266.8,441.2c0.6,0.2,1.8,0.9,2.9,1.7c1.4,0.9,2.2,1.7,3,2.9c0.7,1,1.2,2.4,1.2,3.8c0,1.4-0.6,2.3-1.7,2.1
			l0,0c1.1,1.3,2,3.1,1.9,5.1c0,1.4-0.5,2.2-1.1,2.5c-0.7,0.4-2,0.1-4-1.3c-1.1-0.8-1.9-1.4-2.5-1.9L266.8,441.2z M268.9,455.4
			c0.2,0.2,0.5,0.4,0.9,0.6c1,0.7,1.9,0.7,2-0.9c0-1.5-0.9-2.8-2-3.5l-0.8-0.5L268.9,455.4z M269,448.6l0.7,0.5
			c1.2,0.8,1.8,0.5,1.9-0.6c0-1.2-0.6-2.2-1.6-2.9c-0.5-0.3-0.8-0.5-1-0.6L269,448.6z"/>
		<path class="st30" d="M279,449.3l-0.1,8.8c0,2.6,0.6,4.4,1.8,5.2c1.2,0.8,1.9,0,1.9-2.7l0.2-8.7l2.3,1.5l-0.2,8.5
			c-0.1,4.7-1.7,5.9-4.3,4.1c-2.5-1.7-4-4.8-3.9-9.7l0.1-8.5L279,449.3z"/>
		<path class="st30" d="M287.8,455.3l2.3,1.6l-0.2,12.3l4,2.7l-0.1,2.9l-6.3-4.2L287.8,455.3z"/>
		<path class="st30" d="M298.5,474l-0.8,3.4l-2.4-1.6l3.4-13l3,2l2.8,17.1l-2.4-1.6l-0.7-4.4L298.5,474z M301.2,473.1l-0.6-3.6
			c-0.2-1-0.3-2.3-0.4-3.2l0,0c-0.2,0.8-0.3,1.8-0.5,2.6l-0.7,2.8L301.2,473.1z"/>
		<path class="st30" d="M306.8,483.4l0.4-15l2.7,1.8l1.9,6.9c0.6,2,1.1,4.2,1.5,6.2l0,0c-0.1-2.1-0.1-4.1,0-6.4l0.1-4.4l2.1,1.4
			l-0.4,14.9l-2.4-1.6l-2-7.2c-0.6-2-1.2-4.4-1.6-6.5l0,0c0,2,0,4.1-0.1,6.6l-0.1,4.5L306.8,483.4z"/>
		<path class="st30" d="M325.3,495.5c-0.4,0-1.4-0.3-2.6-1.1c-3.5-2.3-5.2-6.7-5-11c0.1-5.1,2.7-6.2,5.7-4.2
			c1.2,0.8,2.1,1.8,2.5,2.3l-0.5,2.3c-0.5-0.6-1.1-1.3-1.9-1.8c-1.8-1.2-3.3-0.6-3.3,2.7c-0.1,3,1.1,5.7,3.1,7
			c0.7,0.5,1.4,0.8,1.9,0.8L325.3,495.5z"/>
		<path class="st30" d="M333.8,495.3l-3.7-2.5l-0.1,3.5l4.1,2.8l-0.1,2.7l-6.4-4.3l0.5-14.8l6.2,4.2l-0.1,2.7l-3.9-2.7l-0.1,3.1
			l3.7,2.5L333.8,495.3z"/>
	</g>
	<polygon class="st31" points="337.3,417.5 337.3,421.9 359.5,436.8 359.5,432.2 	"/>
	<g>
		<g>
			<g class="st1">
				<polygon class="st10" points="305.4,337.3 300.1,334 308.7,282 314.4,285.8 				"/>
			</g>
		</g>
	</g>
	<g>
		<g>
			<g class="st1">
				<polygon class="st10" points="370.3,380 360,373.3 368.5,321.4 375.4,326 375.3,349.3 				"/>
			</g>
		</g>
	</g>
	<g>
		<g>
			<g class="st1">
				<polygon class="st10" points="430.4,419.7 424.8,416.1 433.3,364.4 435.5,365.6 435.5,388.9 				"/>
			</g>
		</g>
	</g>
	<g>
		<g>
			<g class="st32">
				<polygon class="st33" points="371.4,480.4 331.2,454.5 336.6,451.5 343,455.4 361.1,446.6 351,440 358.8,436.6 337.4,421.8 
					322.7,428.4 305.3,414.5 287,423.2 301.6,432.2 301.9,435.6 248.1,400.9 236.8,400 301.9,443.3 301.9,448.3 308.7,453.9 
					318.4,454 364.2,484.7 				"/>
			</g>
			<polygon class="st34" points="338.6,412.1 319.3,399.4 319.3,376.1 299.4,362.3 289.4,368.7 300.1,387 281.5,374.3 271.4,380.5 
				280.2,404.1 297.7,415.7 309.2,454.4 319.3,448.2 319.3,426.1 328.5,444.1 338.6,437.9 			"/>
			<g>
				<path class="st35" d="M290.6,440v-21.8c0-0.4-0.2-0.8-0.6-1.1l-17.3-11.5v-22.7l15.9,10.6c0.2,0.1,0.5,0.2,0.7,0.2
					c0.2,0,0.4-0.1,0.6-0.2c0.4-0.2,0.7-0.7,0.7-1.1v-21.5l17.4,12v22.6c0,0.4,0.2,0.8,0.6,1.1l18.7,12.3v22.7l-17.3-11.4
					c-0.2-0.1-0.5-0.2-0.7-0.2c-0.2,0-0.4,0.1-0.6,0.2c-0.4,0.2-0.7,0.7-0.7,1.1V452L290.6,440z"/>
				<path class="st2" d="M291.9,373.4l14.8,10.3v21.9c0,0.9,0.4,1.7,1.2,2.1l18.1,12v19.7l-15.3-10.1c-0.4-0.3-0.9-0.4-1.4-0.4
					c-0.4,0-0.8,0.1-1.2,0.3c-0.8,0.4-1.3,1.3-1.3,2.3v18.2l-14.8-10.3v-21.1c0-0.9-0.4-1.7-1.1-2.1L274,404.9v-19.6l13.9,9.3
					c0.4,0.3,0.9,0.4,1.4,0.4c0.4,0,0.8-0.1,1.2-0.3c0.8-0.4,1.4-1.3,1.4-2.3V373.4L291.9,373.4z M289.3,368.5v23.9l-17.9-11.9v25.8
					l17.9,11.9v22.4l19.9,13.8v-23.1l19.3,12.7v-25.8l-19.3-12.7v-23.3L289.3,368.5L289.3,368.5z"/>
			</g>
		</g>
		<polygon class="st35" points="328.5,418.3 335,414.8 315.7,402.1 309.2,405.6 		"/>
		<polygon class="st35" points="309.4,382.2 319.3,376.1 299.4,362.3 289.4,368.7 		"/>
		<polygon class="st35" points="289.4,392.9 289.3,379.6 281.5,374.3 271.4,380.5 		"/>
	</g>
	<polygon class="st36" points="470.5,371.4 668.2,257.5 664.8,255.2 470.4,367.2 	"/>
	<polygon class="st36" points="470.4,487.5 668.1,373.6 664.7,371.3 470.3,483.2 	"/>
	<path class="st37" d="M252.4,580.9c-0.1,0-0.2,0-0.3,0l-22.9-1.3c-2.5-0.1-4.4-2.3-4.3-4.8c0.1-2.5,2.3-4.4,4.8-4.3l22.9,1.3
		c2.5,0.1,4.4,2.3,4.3,4.8C256.8,579.1,254.8,580.9,252.4,580.9z"/>
	<path class="st37" d="M352.7,648c-0.1,0-0.2,0-0.3,0l-22.9-1.3c-2.5-0.1-4.4-2.3-4.3-4.8c0.1-2.5,2.3-4.4,4.8-4.3l22.9,1.3
		c2.5,0.1,4.4,2.3,4.3,4.8C357,646.1,355,648,352.7,648z"/>
	<path class="st38" d="M232.5,527.8c1-0.9,1.7-2.1,1.7-3.6c0-2.6-2.1-4.7-4.7-4.7c-2.6,0-4.7,2.1-4.7,4.7c0,1.4,0.7,2.7,1.7,3.6
		c-2,1.1-3.4,3.2-3.4,5.7v40.6c0,3.6,2.9,5.4,6.4,5.4c3.6,0,6.4-1.8,6.4-5.4v-40.6C235.9,531,234.5,528.9,232.5,527.8z"/>
	<path class="st38" d="M333.3,595.1c1-0.9,1.7-2.1,1.7-3.6c0-2.6-2.1-4.7-4.7-4.7c-2.6,0-4.7,2.1-4.7,4.7c0,1.4,0.7,2.7,1.7,3.6
		c-2,1.1-3.4,3.2-3.4,5.6v40.6c0,3.6,2.9,5.4,6.4,5.4c3.6,0,6.4-1.8,6.4-5.4v-40.6C336.7,598.3,335.3,596.2,333.3,595.1z"/>
	<path class="st35" d="M484.1,184.3l28.6,18.9l-24.4,14.4l-28.8-19l-34,19.8l-24.5-16.1l34-19.9l-28.3-18.7l24.4-14.4l28.4,18.8
		l34-19.9l24.5,16.1L484.1,184.3z M460,126c-50.7,0-91.9,25.8-91.9,57.6c0,31.8,41.1,57.6,91.9,57.6c50.7,0,91.9-25.8,91.9-57.6
		C551.9,151.8,510.8,126,460,126z"/>
	<polygon class="st39" points="484.1,184.3 512.7,203.2 488.4,217.6 459.6,198.6 425.6,218.4 401.2,202.3 435.2,182.5 406.9,163.8 
		431.3,149.4 459.7,168.2 493.8,148.3 518.2,164.4 	"/>
</g>
</svg>
