<?xml version="1.0" encoding="utf-8"?>
<!-- Generator: Adobe Illustrator 19.0.0, SVG Export Plug-In . SVG Version: 6.00 Build 0)  -->
<svg version="1.1" id="Layer_1" xmlns="http://www.w3.org/2000/svg" xmlns:xlink="http://www.w3.org/1999/xlink" x="0px" y="0px"
	 viewBox="0 0 1290 600" style="enable-background:new 0 0 1290 600;" xml:space="preserve">
<style type="text/css">
	.st0{fill:#F4F4F4;stroke:#000000;stroke-miterlimit:10;}
	.st1{fill:#8BC23F;stroke:#8BC23F;stroke-miterlimit:10;}
</style>
<path id="XMLID_1_" class="st0" d="M1290,600H0c0-83.7,0-167.4,0-251C0,232.6,0,116.3,0,0c184.3,0,368.6,0,552.9,0
	c245.7,0,491.4,0,737.1,0C1290,200,1290,400,1290,600z"/>
<path id="XMLID_2_" class="st1" d="M1.4,404.5c15.1-49.2,45-117.1,109.1-153.5c58.9-33.4,108.1-18.3,167.7-29.3
	c65.7-12.1,156.5-58.1,250.5-219.2c-176.1-1-352.2-2-528.3-3C0.7,134.4,1.1,269.5,1.4,404.5z"/>
<path id="XMLID_3_" class="st1" d="M772.1,599.4c64.4,2.1,147.3-6.8,203-62.6c38.1-38.2,43.7-78.5,61.6-120.2
	c28.5-66.6,93.4-148.9,253.5-216.2c-0.7,133.3-1.3,266.7-2,400C1116.2,600.1,944.2,599.8,772.1,599.4z"/>
</svg>
