<?xml version="1.0" encoding="utf-8"?>
<!-- Generator: Adobe Illustrator 19.0.0, SVG Export Plug-In . SVG Version: 6.00 Build 0)  -->
<svg version="1.1" xmlns="http://www.w3.org/2000/svg" xmlns:xlink="http://www.w3.org/1999/xlink" x="0px" y="0px"
	 viewBox="0 0 500 500" style="enable-background:new 0 0 500 500;" xml:space="preserve">
<style type="text/css">
	.st0{fill:#E3F7BC;}
	.st1{fill:#048739;}
	.st2{fill:#E0E0E0;}
	.st3{fill:#8BC23A;}
	.st4{fill:#FFFFFF;}
	.st5{fill:#FAFAFA;}
	.st6{fill:#E8505B;}
	.st7{opacity:0.3;}
	.st8{opacity:0.1;}
	.st9{fill:#263238;}
	.st10{opacity:0.2;}
	.st11{display:none;}
	.st12{display:inline;opacity:0.32;fill:#E0E0E0;}
</style>
<g id="Background_Complete">
	<path class="st0" d="M133.2,27.8c37.4-14,87,8.7,186.3,54c51.7,23.6,77.8,35.8,87.7,54.8C444.9,209.2,359.7,378,231,391
		c-56.5,5.7-115.9-19.1-151.8-63.4C-0.1,229.9,52.2,58.1,133.2,27.8z"/>
	<path class="st0" d="M383.6,144.4"/>
	<g>
		<g>
			<g>
				<g>
					<g>
						<g>
							<path class="st1" d="M174.4,74.4L79.2,198l256-63.6L192.6,69.8C186.2,66.9,178.7,68.8,174.4,74.4z"/>
							<path class="st2" d="M77.9,198.9L174,74.1c4.4-5.8,12.2-7.8,18.9-4.7l144,65.2L77.9,198.9z M186.4,69c-4.4,0-8.7,2-11.5,5.7
								l0,0L80.6,197.2l253.1-62.9l-141.2-64C190.5,69.4,188.4,69,186.4,69z"/>
						</g>
						<g>
							<path class="st3" d="M362.9,286.4l-236.1,58.7c-5.7,1.4-11.5-2.1-13-7.8L79.2,198l256.9-63.9l34.6,139.2
								C372.1,279.2,368.7,285,362.9,286.4z"/>
						</g>
						<g>
							<path class="st4" d="M320.3,141.8l-89,90.9L96.7,202.5l-15.4-71.4c-1.8-7.7,2.9-15.3,10.6-17.2l194.6-48.4
								c7.7-1.9,15.5,2.8,17.4,10.5L320.3,141.8z"/>
						</g>
					</g>
					<g>
						<path class="st1" d="M219.1,225.6L113.4,336l0,0c1.6,6.3,8,10.2,14.3,8.6L362,286.3c6.3-1.6,10.2-8,8.6-14.3l-0.2-0.9
							l-138.2-48.7C227.6,220.8,222.4,222.1,219.1,225.6z"/>
					</g>
					<g>
						
							<rect x="109" y="133.8" transform="matrix(0.9704 -0.2414 0.2414 0.9704 -28.8775 39.8459)" class="st2" width="78.5" height="8"/>
					</g>
					<g>
						
							<rect x="112.6" y="141.9" transform="matrix(0.9704 -0.2414 0.2414 0.9704 -29.4479 52.5116)" class="st2" width="174.1" height="9"/>
					</g>
					<g>
						
							<rect x="117.9" y="163.4" transform="matrix(0.9704 -0.2414 0.2414 0.9704 -34.4701 54.4343)" class="st2" width="174.1" height="9"/>
					</g>
					<g>
						<polygon class="st2" points="291.9,170.9 286.6,176.2 144.8,213.3 126.3,209 125.6,207 293.9,165.1 294.7,168 						"/>
					</g>
					<g>
						<polygon class="st2" points="255.6,207.9 191.7,223.8 172.2,219.3 267.7,195.6 						"/>
					</g>
				</g>
				<g>
					<g>
						<path class="st5" d="M215.2,229.6c0,0-0.1,0.1-0.2,0.3c-0.2,0.2-0.4,0.5-0.8,0.8c-0.7,0.7-1.7,1.8-2.9,3.2
							c-2.6,2.7-6.3,6.7-10.9,11.5c-9.2,9.7-22,23.1-36.1,37.8c-14.2,14.7-27.2,27.9-36.6,37.4c-4.7,4.7-8.6,8.5-11.3,11.2
							c-1.3,1.3-2.4,2.3-3.1,3c-0.3,0.3-0.6,0.6-0.8,0.8c-0.2,0.2-0.3,0.3-0.3,0.2c0,0,0.1-0.1,0.3-0.3c0.2-0.2,0.5-0.5,0.8-0.8
							c0.7-0.7,1.7-1.8,3-3.1c2.7-2.7,6.5-6.5,11.1-11.3c9.4-9.5,22.3-22.8,36.5-37.5c14.1-14.7,27-28.1,36.3-37.7
							c4.6-4.8,8.4-8.7,11-11.4c1.3-1.3,2.3-2.4,3-3.1c0.3-0.3,0.6-0.6,0.8-0.8C215.1,229.7,215.2,229.6,215.2,229.6z"/>
					</g>
				</g>
				<g>
					<g>
						<path class="st5" d="M370.3,271.2c-0.1,0.1-29.5-10.1-65.8-22.8c-36.3-12.8-65.7-23.2-65.6-23.4c0.1-0.1,29.5,10.1,65.8,22.8
							C341,260.6,370.4,271.1,370.3,271.2z"/>
					</g>
				</g>
				<g>
					<g>
						<path class="st5" d="M324.5,137.4c0,0-0.1,0.1-0.2,0.2c-0.2,0.2-0.4,0.4-0.6,0.7c-0.6,0.6-1.4,1.5-2.4,2.6
							c-2.1,2.3-5.1,5.6-8.8,9.6c-7.5,8.1-17.9,19.1-29.6,31.2c-11.7,12.1-22.4,22.8-30.2,30.6c-3.9,3.8-7.1,6.9-9.3,9.1
							c-1.1,1-1.9,1.9-2.6,2.5c-0.3,0.3-0.5,0.5-0.7,0.6c-0.2,0.1-0.2,0.2-0.2,0.2c0,0,0.1-0.1,0.2-0.2c0.2-0.2,0.4-0.4,0.6-0.7
							c0.6-0.6,1.4-1.5,2.5-2.5c2.2-2.2,5.3-5.4,9.2-9.2c7.8-7.8,18.4-18.6,30.1-30.7c11.7-12.1,22.1-23.1,29.7-31.1
							c3.8-4,6.8-7.2,9-9.5c1-1.1,1.9-1.9,2.4-2.6c0.3-0.3,0.5-0.5,0.6-0.7C324.4,137.5,324.5,137.4,324.5,137.4z"/>
					</g>
				</g>
				<g>
					<g>
						<path class="st5" d="M215.2,229.6c0,0-0.1,0-0.4-0.1c-0.3-0.1-0.6-0.1-1-0.2c-0.9-0.2-2.3-0.6-4-1c-3.4-0.9-8.4-2.1-14.5-3.5
							c-12.3-2.9-29.3-6.7-48.2-10.7c-18.8-4.1-35.9-7.9-48.2-10.9c-6.1-1.5-11.1-2.8-14.5-3.7c-1.7-0.5-3-0.8-3.9-1.1
							c-0.4-0.1-0.8-0.2-1-0.3c-0.2-0.1-0.3-0.1-0.3-0.1c0,0,0.1,0,0.4,0.1c0.3,0.1,0.6,0.1,1,0.2c0.9,0.2,2.3,0.6,4,1
							c3.4,0.9,8.4,2.1,14.5,3.5c12.3,2.9,29.3,6.7,48.2,10.7c18.8,4.1,35.9,7.9,48.2,10.9c6.1,1.5,11.1,2.8,14.5,3.7
							c1.7,0.5,3,0.8,3.9,1.1c0.4,0.1,0.8,0.2,1,0.3C215.1,229.6,215.2,229.6,215.2,229.6z"/>
					</g>
				</g>
			</g>
			<g>
				<g>
					<path class="st2" d="M320.3,141.8c0,0-0.1-0.3-0.3-1c-0.2-0.7-0.4-1.6-0.7-2.8c-0.6-2.5-1.6-6.2-2.8-10.9
						c-2.4-9.5-5.8-23.2-10.1-40.1c-0.5-2.1-1.1-4.3-1.6-6.5c-0.3-1.1-0.6-2.2-0.8-3.4c-0.1-0.6-0.3-1.1-0.5-1.7
						c-0.1-0.6-0.4-1.1-0.6-1.6c-0.9-2.2-2.5-4.1-4.4-5.6c-2-1.4-4.3-2.5-6.8-2.7c-1.3-0.2-2.5-0.1-3.8,0.1
						c-1.3,0.2-2.5,0.6-3.8,0.9c-2.6,0.6-5.2,1.3-7.8,2c-5.3,1.3-10.8,2.7-16.4,4.1c-22.4,5.6-47.1,11.7-72.9,18.2
						c-25.9,6.4-50.5,12.5-73,18.1c-5.6,1.4-11.1,2.7-16.4,4.1c-1.3,0.3-2.6,0.7-4,1c-1.3,0.3-2.6,0.6-3.8,1.2
						c-1.2,0.5-2.3,1.2-3.3,2c-1,0.8-1.9,1.8-2.6,2.8c-0.8,1-1.3,2.2-1.8,3.3c-0.4,1.2-0.7,2.4-0.8,3.6c-0.3,2.4,0.4,4.8,0.9,7.1
						c1,4.7,2,9.1,2.9,13.4c3.6,17.1,6.6,30.9,8.6,40.5c1,4.8,1.8,8.5,2.3,11c0.3,1.3,0.5,2.2,0.6,2.9c0.1,0.6,0.2,1,0.2,1
						s-0.1-0.3-0.2-1c-0.1-0.7-0.4-1.6-0.6-2.9c-0.6-2.5-1.4-6.2-2.4-11c-2.1-9.6-5.1-23.4-8.8-40.4c-0.9-4.3-1.9-8.7-2.9-13.4
						c-0.5-2.3-1.2-4.7-0.9-7.3c0.1-1.3,0.4-2.5,0.8-3.7c0.5-1.2,1-2.4,1.8-3.4c0.8-1.1,1.6-2.1,2.7-2.9c1-0.9,2.2-1.5,3.4-2.1
						c1.2-0.6,2.6-0.8,3.9-1.2c1.3-0.3,2.6-0.7,4-1c5.3-1.3,10.8-2.7,16.4-4.1c22.4-5.6,47.1-11.7,73-18.2
						c25.9-6.4,50.5-12.5,73-18.1c5.6-1.4,11.1-2.7,16.4-4.1c2.7-0.7,5.3-1.3,7.9-1.9c1.3-0.3,2.6-0.7,3.9-0.9
						c1.3-0.2,2.6-0.2,3.9,0c2.6,0.3,5,1.4,7,2.8c2,1.5,3.6,3.5,4.5,5.7c0.2,0.6,0.5,1.1,0.6,1.7c0.2,0.6,0.3,1.1,0.5,1.7
						c0.3,1.1,0.6,2.3,0.8,3.4c0.5,2.2,1.1,4.4,1.6,6.5c4.2,17,7.6,30.7,9.9,40.2c1.2,4.7,2.1,8.4,2.7,10.9c0.3,1.2,0.5,2.2,0.7,2.8
						C320.2,141.5,320.3,141.8,320.3,141.8z"/>
				</g>
			</g>
		</g>
	</g>
	<g>
		<g>
			<polygon class="st3" points="167.8,99.7 158,107.2 158.4,121.6 149.4,114.4 144.4,118.7 125.4,95.3 			"/>
		</g>
		<g>
			<g>
				<path class="st6" d="M154.2,110.3c0,0.4,4.2,11.3,4.2,11.3l-9.1-7.2L154.2,110.3z"/>
			</g>
			<g class="st7">
				<path d="M154.2,110.3c0,0.4,4.2,11.3,4.2,11.3l-9.1-7.2L154.2,110.3z"/>
			</g>
		</g>
		<g>
			<polygon class="st3" points="125.4,95.3 154.2,110.3 158.4,121.6 158,107.2 			"/>
			<polygon class="st8" points="124,92.2 164.7,113 170.6,128.7 169.9,108.8 			"/>
		</g>
		<g>
			<g>
				<g>
					<g>
						
							<ellipse transform="matrix(0.9714 0.2374 -0.2374 0.9714 74.328 -39.8984)" class="st9" cx="202.8" cy="288.7" rx="2.6" ry="0.3"/>
					</g>
				</g>
				<g>
					<g>
						
							<ellipse transform="matrix(0.9714 0.2374 -0.2374 0.9714 75.1222 -42.0205)" class="st9" cx="212" cy="290.9" rx="1.6" ry="0.3"/>
					</g>
				</g>
			</g>
			<g>
				<g>
					<g>
						<path class="st9" d="M179.8,119.7c0,0.1-1.2-0.1-2.6-0.4c-1.4-0.3-2.5-0.6-2.5-0.8c0-0.1,1.2-0.1,2.6,0.3
							C178.8,119.1,179.9,119.6,179.8,119.7z"/>
					</g>
				</g>
				<g>
					<g>
						<path class="st9" d="M189.5,123.9c-0.1,0.1-1.2-0.4-2.4-1c-1.3-0.6-2.3-1.2-2.3-1.4c0.1-0.1,1.2,0.2,2.5,0.9
							C188.6,123.1,189.6,123.8,189.5,123.9z"/>
					</g>
				</g>
				<g>
					<g>
						<path class="st9" d="M197.9,130.3c-0.1,0.1-1-0.6-2.1-1.6c-1.1-0.9-2-1.7-1.9-1.9c0.1-0.1,1.1,0.5,2.2,1.5
							C197.2,129.2,198,130.2,197.9,130.3z"/>
					</g>
				</g>
				<g>
					<g>
						<path class="st9" d="M204.3,138.6c-0.1,0.1-0.8-0.9-1.6-2.1c-0.8-1.2-1.4-2.2-1.3-2.3c0.1-0.1,1,0.8,1.8,2
							C203.9,137.4,204.4,138.5,204.3,138.6z"/>
					</g>
				</g>
				<g>
					<g>
						<path class="st9" d="M207.9,148.5c-0.2,0-0.5-1.1-0.9-2.5c-0.4-1.4-0.7-2.5-0.5-2.6c0.1-0.1,0.7,1,1.1,2.4
							C208,147.3,208.1,148.4,207.9,148.5z"/>
					</g>
				</g>
				<g>
					<g>
						<path class="st9" d="M208.4,159c-0.2,0-0.1-1.2-0.1-2.6c0-1.4,0.1-2.6,0.2-2.6c0.1,0,0.3,1.2,0.3,2.6
							C208.8,157.8,208.6,159,208.4,159z"/>
					</g>
				</g>
				<g>
					<g>
						<path class="st9" d="M205.7,169.1c-0.1-0.1,0.3-1.2,0.7-2.5c0.5-1.4,0.9-2.5,1-2.4c0.1,0,0,1.2-0.5,2.6
							C206.5,168.2,205.8,169.2,205.7,169.1z"/>
					</g>
				</g>
				<g>
					<g>
						<path class="st9" d="M199.6,177.7c-0.1-0.1,0.7-1,1.6-2.1c0.9-1.1,1.7-2,1.8-1.9c0.1,0.1-0.5,1.1-1.4,2.3
							C200.7,177.1,199.7,177.8,199.6,177.7z"/>
					</g>
				</g>
				<g>
					<g>
						<path class="st9" d="M190.8,183.3c-0.1-0.1,1-0.7,2.3-1.4c1.3-0.7,2.3-1.2,2.4-1.1c0.1,0.1-0.8,0.9-2.2,1.6
							C192,183.2,190.8,183.5,190.8,183.3z"/>
					</g>
				</g>
				<g>
					<g>
						<path class="st9" d="M180.5,185.5c0-0.2,1.2-0.3,2.6-0.5c1.4-0.2,2.6-0.3,2.6-0.2c0,0.1-1.1,0.5-2.6,0.7
							C181.7,185.8,180.5,185.7,180.5,185.5z"/>
					</g>
				</g>
				<g>
					<g>
						<path class="st9" d="M170.2,183.6c0.1-0.1,1.2,0.2,2.6,0.6c1.4,0.4,2.5,0.7,2.5,0.9c0,0.1-1.2,0.1-2.6-0.4
							C171.2,184.3,170.2,183.7,170.2,183.6z"/>
					</g>
				</g>
				<g>
					<g>
						<path class="st9" d="M162.9,176.4c0.1,0,0.6,1,1.4,2.2c0.8,1.2,1.6,2,1.5,2.2c-0.1,0.1-1.1-0.6-1.9-1.8
							C163,177.6,162.8,176.4,162.9,176.4z"/>
					</g>
				</g>
				<g>
					<g>
						<path class="st9" d="M167.4,168.2c0,0.2-1.1,0.5-2.2,1.3c-1.1,0.8-1.8,1.8-1.9,1.7c-0.1,0,0.3-1.3,1.6-2.2
							C166.1,168.2,167.3,168,167.4,168.2z"/>
					</g>
				</g>
				<g>
					<g>
						<path class="st9" d="M176.4,171.9c-0.1,0.1-0.8-0.9-1.8-1.9c-1-1-2.1-1.4-2-1.6c0-0.1,1.3,0.1,2.4,1.2
							C176.1,170.7,176.5,171.9,176.4,171.9z"/>
					</g>
				</g>
				<g>
					<g>
						<path class="st9" d="M176.7,182.1c-0.1-0.1,0.2-1.2,0.5-2.6c0.3-1.4,0.3-2.6,0.5-2.6c0.1,0,0.3,1.2,0,2.7
							C177.5,181.1,176.9,182.2,176.7,182.1z"/>
					</g>
				</g>
				<g>
					<g>
						<path class="st9" d="M169.9,190c-0.1-0.1,0.8-0.9,1.9-1.8c1.1-0.9,2-1.7,2.1-1.6c0.1,0.1-0.6,1.1-1.7,2
							C171,189.5,170,190.1,169.9,190z"/>
					</g>
				</g>
				<g>
					<g>
						<path class="st9" d="M160.5,194.8c-0.1-0.1,1-0.7,2.3-1.3c1.3-0.6,2.4-1,2.5-0.9c0.1,0.1-1,0.7-2.3,1.3
							C161.7,194.6,160.6,195,160.5,194.8z"/>
					</g>
				</g>
				<g>
					<g>
						<path class="st9" d="M151.1,199.6c-0.1-0.1,0.9-0.8,2.1-1.6c1.3-0.7,2.4-1.1,2.5-1c0.1,0.2-0.9,0.8-2.2,1.5
							C152.3,199.2,151.2,199.7,151.1,199.6z"/>
					</g>
				</g>
				<g>
					<g>
						<path class="st9" d="M143.2,206.5c-0.1-0.1,0.6-1.1,1.6-2.1c1-1,2-1.7,2.1-1.6c0.1,0.1-0.7,1-1.7,2
							C144.2,205.8,143.3,206.6,143.2,206.5z"/>
					</g>
				</g>
				<g>
					<g>
						<path class="st9" d="M137.1,215.1c-0.1-0.1,0.3-1.2,1.1-2.4c0.8-1.3,1.6-2.1,1.7-2.1c0.1,0.1-0.5,1.1-1.2,2.3
							C137.9,214.2,137.3,215.2,137.1,215.1z"/>
					</g>
				</g>
				<g>
					<g>
						<path class="st9" d="M133.3,224.9c-0.1,0,0-1.2,0.5-2.6c0.5-1.4,1-2.5,1.2-2.4c0.1,0.1-0.2,1.2-0.6,2.6
							C133.8,223.9,133.4,225,133.3,224.9z"/>
					</g>
				</g>
				<g>
					<g>
						<path class="st9" d="M131.9,235.4c-0.1,0-0.3-1.2-0.2-2.7c0.1-1.5,0.4-2.6,0.5-2.6c0.2,0,0.1,1.2,0,2.6
							C132.2,234.2,132.1,235.4,131.9,235.4z"/>
					</g>
				</g>
				<g>
					<g>
						<path class="st9" d="M133.3,245.8c-0.1,0-0.5-1.1-0.8-2.5c-0.3-1.4-0.4-2.6-0.2-2.6c0.2,0,0.4,1.1,0.8,2.5
							C133.3,244.6,133.4,245.7,133.3,245.8z"/>
					</g>
				</g>
				<g>
					<g>
						<path class="st9" d="M137.4,255.5c-0.1,0.1-0.8-0.9-1.5-2.2c-0.7-1.3-1-2.5-0.9-2.5c0.1-0.1,0.7,1,1.3,2.3
							C137,254.3,137.5,255.4,137.4,255.5z"/>
					</g>
				</g>
				<g>
					<g>
						<path class="st9" d="M143.7,263.9c-0.1,0.1-1-0.7-2-1.8c-1-1.1-1.6-2.2-1.4-2.2c0.1-0.1,0.9,0.8,1.9,1.9
							C143.1,262.9,143.8,263.8,143.7,263.9z"/>
					</g>
				</g>
				<g>
					<g>
						<path class="st9" d="M151.8,270.6c-0.1,0.1-1.2-0.4-2.3-1.3c-1.2-0.9-2-1.7-1.9-1.8c0.1-0.1,1.1,0.5,2.2,1.4
							C151,269.8,151.9,270.5,151.8,270.6z"/>
					</g>
				</g>
				<g>
					<g>
						<path class="st9" d="M161.3,275.2c0,0.1-1.2-0.1-2.6-0.7c-1.4-0.5-2.4-1.2-2.3-1.3c0.1-0.1,1.2,0.3,2.5,0.8
							C160.3,274.5,161.3,275,161.3,275.2z"/>
					</g>
				</g>
				<g>
					<g>
						
							<ellipse transform="matrix(0.9839 0.1789 -0.1789 0.9839 52.1598 -25.3309)" class="st9" cx="166.5" cy="276.5" rx="0.1" ry="0.3"/>
					</g>
				</g>
			</g>
		</g>
		<g>
			<g>
				<g>
					<g>
						
							<ellipse transform="matrix(0.3989 0.917 -0.917 0.3989 381.3576 -6.0863)" class="st6" cx="195.3" cy="287.9" rx="7.4" ry="0.3"/>
					</g>
				</g>
				<g class="st10">
					<g>
						<ellipse transform="matrix(0.3989 0.917 -0.917 0.3989 381.3576 -6.0863)" cx="195.3" cy="287.9" rx="7.4" ry="0.3"/>
					</g>
				</g>
			</g>
		</g>
	</g>
	<path class="st0" d="M161.3-87.6"/>
</g>
<g id="Background_Simple" class="st11">
	<path class="st12" d="M53.9,191.7c11.8,92.6,58.1,158.6,193.9,184c75.5,14.1,213.3-30.9,204.2-113.1
		c-10.1-91.3-105.2-53-183.6-82.5c-46.9-17.6-72-113.4-148.1-107.7C60.1,76.8,47.6,142.1,53.9,191.7z"/>
</g>
<g id="Floor">
</g>
<g id="Mail_Sent">
</g>
<g id="Plant">
</g>
<g id="Device">
</g>
<g id="Desk">
</g>
<g id="Character">
</g>
</svg>
